<svg xmlns="http://www.w3.org/2000/svg" xmlns:xlink="http://www.w3.org/1999/xlink" width="728.501" height="734.986" viewBox="0 0 728.501 734.986"><defs><clipPath id="a"><rect width="262.836" height="231.363" fill="none"/></clipPath><clipPath id="c"><rect width="61.438" height="61.438" fill="none"/></clipPath><clipPath id="d"><rect width="31.723" height="101.817" fill="none"/></clipPath><clipPath id="e"><rect width="38.755" height="72.493" fill="#ebf5e7"/></clipPath><clipPath id="f"><rect width="17.201" height="47.748" fill="none"/></clipPath><clipPath id="g"><rect width="23.422" height="23.422" fill="none"/></clipPath><clipPath id="h"><rect width="81.507" height="30.689" fill="none"/></clipPath><clipPath id="i"><rect width="29.335" height="84.91" fill="none"/></clipPath></defs><g transform="translate(-435.75 -884.665)"><path d="M254.209,0C394.6,0,508.418,113.813,508.418,254.209S394.6,508.418,254.209,508.418,0,394.6,0,254.209,113.813,0,254.209,0Z" transform="translate(543.994 1019.669)" fill="#f5d664"/><g transform="translate(462.082 920.459)"><path d="M660.486,707.546a311.981,311.981,0,0,1-156.263,64.711,33.326,33.326,0,0,1-37.354-33.036V541.415c0-29.662,35.884-44.5,56.838-23.5l139.7,140.008A33.26,33.26,0,0,1,660.486,707.546Z" transform="translate(-117.677 -99.673)" fill="#efedee"/><path d="M500.2,774a34.735,34.735,0,0,1-34.832-34.775V541.415a34.939,34.939,0,0,1,2.961-14.281,33.723,33.723,0,0,1,7.861-11.008,35.681,35.681,0,0,1,24.2-9.552,33.673,33.673,0,0,1,12.751,2.481,35.053,35.053,0,0,1,11.628,7.8l139.7,140.008a34.7,34.7,0,0,1-3.056,51.865A313.48,313.48,0,0,1,504.4,773.747,35.73,35.73,0,0,1,500.2,774Zm.189-264.423c-15.74,0-32.021,11.91-32.021,31.842V739.221A31.839,31.839,0,0,0,500.2,771a32.728,32.728,0,0,0,3.845-.229,310.83,310.83,0,0,0,155.512-64.4,31.76,31.76,0,0,0,2.786-47.387l-139.7-140.008A30.906,30.906,0,0,0,500.391,509.573Z" transform="translate(-117.677 -99.673)" fill="#fff"/><path d="M683.578,640.8,543.7,500.613c-20.926-20.972-6.068-56.783,23.557-56.783H765.315a33.327,33.327,0,0,1,33.027,37.363A311.979,311.979,0,0,1,733.2,637.981,33.256,33.256,0,0,1,683.578,640.8Z" transform="translate(-123.907 -93.703)" fill="#efedee"/><path d="M707.151,652.085a34.671,34.671,0,0,1-24.635-10.223L542.636,501.673a35.613,35.613,0,0,1-6.483-8.833,33.594,33.594,0,0,1-3.247-9.691,35.427,35.427,0,0,1,14.363-34.621,33.6,33.6,0,0,1,9.154-4.546,35.615,35.615,0,0,1,10.832-1.651H765.315A34.805,34.805,0,0,1,798.4,466.463a34.813,34.813,0,0,1,1.432,14.907,313.479,313.479,0,0,1-65.45,157.542,34.822,34.822,0,0,1-5.725,5.738,34.354,34.354,0,0,1-6.651,4.121A35.053,35.053,0,0,1,707.151,652.085ZM567.254,445.33a31.78,31.78,0,0,0-22.495,54.224L684.64,639.743a31.758,31.758,0,0,0,47.387-2.691,310.827,310.827,0,0,0,64.825-156.036,31.826,31.826,0,0,0-31.537-35.686Z" transform="translate(-123.907 -93.703)" fill="#fff"/><path d="M664.8,127.4A311.98,311.98,0,0,0,508.534,62.686,33.326,33.326,0,0,0,471.18,95.721V293.528c0,29.661,35.884,44.5,56.838,23.5l139.7-140.008A33.26,33.26,0,0,0,664.8,127.4Z" transform="translate(-118.078 -58.265)" fill="#efedee"/><path d="M504.51,60.947h0a35.746,35.746,0,0,1,4.2.249,313.481,313.481,0,0,1,157.013,65.021,34.511,34.511,0,0,1,13.167,25.164,34.715,34.715,0,0,1-10.111,26.7L529.079,318.09a35.052,35.052,0,0,1-11.628,7.8A33.674,33.674,0,0,1,504.7,328.37a35.681,35.681,0,0,1-24.2-9.552,33.723,33.723,0,0,1-7.861-11.008,34.939,34.939,0,0,1-2.961-14.281V95.721a34.822,34.822,0,0,1,34.83-34.775ZM504.7,325.37a30.907,30.907,0,0,0,22.255-9.4l139.7-140.008a31.759,31.759,0,0,0-2.786-47.388,310.831,310.831,0,0,0-155.512-64.4,32.748,32.748,0,0,0-3.845-.229h0a31.807,31.807,0,0,0-31.83,31.775V293.528C472.68,313.46,488.961,325.37,504.7,325.37Z" transform="translate(-118.078 -58.265)" fill="#fff"/><path d="M687.888,203.117,548.008,343.307c-20.926,20.972-6.068,56.783,23.557,56.783H769.625a33.327,33.327,0,0,0,33.027-37.363,311.979,311.979,0,0,0-65.137-156.789A33.249,33.249,0,0,0,687.888,203.117Z" transform="translate(-124.307 -70.427)" fill="#efedee"/><path d="M711.455,191.831h0a35.06,35.06,0,0,1,14.856,3.316,34.37,34.37,0,0,1,6.652,4.122,34.835,34.835,0,0,1,5.726,5.74A313.479,313.479,0,0,1,804.142,362.55a34.93,34.93,0,0,1-20.01,35.88,34.427,34.427,0,0,1-14.506,3.159H571.564a35.614,35.614,0,0,1-10.832-1.651,33.594,33.594,0,0,1-9.154-4.546,35.427,35.427,0,0,1-14.363-34.621,33.592,33.592,0,0,1,3.247-9.691,35.613,35.613,0,0,1,6.483-8.833L686.826,202.058a34.65,34.65,0,0,1,24.628-10.227ZM769.625,398.59A31.826,31.826,0,0,0,801.162,362.9a310.827,310.827,0,0,0-64.825-156.036,31.508,31.508,0,0,0-24.88-12.037h0a31.575,31.575,0,0,0-22.5,9.346L549.069,344.366a31.78,31.78,0,0,0,22.495,54.224Z" transform="translate(-124.307 -70.427)" fill="#fff"/><path d="M232.643,702.646a311.98,311.98,0,0,0,156.263,64.711,33.326,33.326,0,0,0,37.354-33.036V536.515c0-29.662-35.884-44.5-56.838-23.5L229.713,653.02A33.268,33.268,0,0,0,232.643,702.646Z" transform="translate(-94.737 -99.217)" fill="#efedee"/><path d="M392.93,769.1h0a35.759,35.759,0,0,1-4.2-.25,313.48,313.48,0,0,1-157.013-65.021,34.75,34.75,0,0,1-3.065-51.865L368.36,511.953a35.053,35.053,0,0,1,11.628-7.8,33.673,33.673,0,0,1,12.751-2.481,35.681,35.681,0,0,1,24.2,9.552,33.723,33.723,0,0,1,7.861,11.008,34.939,34.939,0,0,1,2.961,14.281V734.321A34.822,34.822,0,0,1,392.93,769.1Zm-.191-264.423a30.906,30.906,0,0,0-22.255,9.4L230.775,654.079a31.768,31.768,0,0,0,2.8,47.388,310.83,310.83,0,0,0,155.512,64.4,32.748,32.748,0,0,0,3.845.229h0a31.807,31.807,0,0,0,31.83-31.775V536.515C424.759,516.583,408.478,504.673,392.738,504.673Z" transform="translate(-94.737 -99.217)" fill="#fff"/><path d="M196.909,640.5,336.79,500.313c20.926-20.972,6.068-56.783-23.557-56.783H115.172a33.327,33.327,0,0,0-33.027,37.363,311.979,311.979,0,0,0,65.137,156.789A33.249,33.249,0,0,0,196.909,640.5Z" transform="translate(-81.906 -93.675)" fill="#efedee"/><path d="M173.343,651.789h0a35.06,35.06,0,0,1-14.856-3.316,34.37,34.37,0,0,1-6.652-4.122,34.836,34.836,0,0,1-5.726-5.74A313.479,313.479,0,0,1,80.656,481.07a34.93,34.93,0,0,1,20.011-35.88,34.427,34.427,0,0,1,14.506-3.159H313.233a35.613,35.613,0,0,1,10.832,1.651,33.6,33.6,0,0,1,9.154,4.546,35.427,35.427,0,0,1,14.363,34.621,33.594,33.594,0,0,1-3.247,9.691,35.614,35.614,0,0,1-6.483,8.833L197.971,641.562a34.65,34.65,0,0,1-24.628,10.227ZM115.172,445.03a31.826,31.826,0,0,0-31.537,35.686A310.827,310.827,0,0,0,148.46,636.752a31.508,31.508,0,0,0,24.88,12.037h0a31.575,31.575,0,0,0,22.5-9.346L335.728,499.254a31.78,31.78,0,0,0-22.495-54.224Z" transform="translate(-81.906 -93.675)" fill="#fff"/><path d="M229.823,122.787A311.981,311.981,0,0,1,386.085,58.076a33.326,33.326,0,0,1,37.354,33.036V288.918c0,29.662-35.884,44.5-56.838,23.5L226.893,172.413A33.26,33.26,0,0,1,229.823,122.787Z" transform="translate(-94.474 -57.837)" fill="#efedee"/><path d="M390.107,56.337a34.735,34.735,0,0,1,34.832,34.775V288.918a34.939,34.939,0,0,1-2.961,14.281,33.722,33.722,0,0,1-7.861,11.008,35.681,35.681,0,0,1-24.2,9.552,33.674,33.674,0,0,1-12.751-2.481,35.052,35.052,0,0,1-11.628-7.8L225.831,173.472a34.7,34.7,0,0,1,3.065-51.865A313.48,313.48,0,0,1,385.909,56.586,35.731,35.731,0,0,1,390.107,56.337Zm-.189,264.423c15.74,0,32.021-11.91,32.021-31.842V91.111a31.839,31.839,0,0,0-31.832-31.775,32.717,32.717,0,0,0-3.845.229,310.83,310.83,0,0,0-155.512,64.4,31.76,31.76,0,0,0-2.795,47.388L367.663,311.361A30.906,30.906,0,0,0,389.918,320.76Z" transform="translate(-94.474 -57.837)" fill="#fff"/><path d="M199.979,200.038,339.86,340.227c20.926,20.972,6.068,56.783-23.557,56.783H118.242a33.327,33.327,0,0,1-33.027-37.363,311.979,311.979,0,0,1,65.137-156.789A33.263,33.263,0,0,1,199.979,200.038Z" transform="translate(-82.192 -70.141)" fill="#efedee"/><path d="M176.411,188.759a34.665,34.665,0,0,1,24.63,10.22L340.922,339.168A35.618,35.618,0,0,1,347.4,348a33.594,33.594,0,0,1,3.247,9.691,35.427,35.427,0,0,1-14.363,34.621,33.6,33.6,0,0,1-9.154,4.546A35.614,35.614,0,0,1,316.3,398.51H118.242a34.805,34.805,0,0,1-33.084-24.133,34.813,34.813,0,0,1-1.432-14.907,313.479,313.479,0,0,1,65.45-157.542,34.832,34.832,0,0,1,5.727-5.737,34.369,34.369,0,0,1,6.652-4.12A35.069,35.069,0,0,1,176.411,188.759ZM316.3,395.51a31.78,31.78,0,0,0,22.5-54.224L198.917,201.1a31.765,31.765,0,0,0-47.387,2.691A310.827,310.827,0,0,0,86.705,359.825a31.826,31.826,0,0,0,31.537,35.686Z" transform="translate(-82.192 -70.141)" fill="#fff"/></g><path d="M194.278,0c107.3,0,194.278,86.981,194.278,194.278S301.575,388.557,194.278,388.557,0,301.575,0,194.278,86.981,0,194.278,0Z" transform="translate(607.092 1062.592)" fill="#732be5"/><path d="M188.446,0C292.522,0,376.892,84.37,376.892,188.446s-84.37,188.446-188.446,188.446S0,292.522,0,188.446,84.37,0,188.446,0Z" transform="translate(612.924 1068.425)" fill="#fff"/><path d="M49.69,0A49.69,49.69,0,1,1,0,49.69,49.69,49.69,0,0,1,49.69,0Z" transform="translate(677.635 886.165)" fill="#efedee"/><path d="M49.69-1.5A51.2,51.2,0,0,1,69.616,96.856,51.2,51.2,0,0,1,29.764,2.523,50.871,50.871,0,0,1,49.69-1.5Zm0,99.38A48.19,48.19,0,1,0,1.5,49.69,48.244,48.244,0,0,0,49.69,97.88Z" transform="translate(677.635 886.165)" fill="#006c62"/><g transform="translate(695.631 904.162)"><circle cx="31.693" cy="31.693" r="31.693" fill="#fff"/><g transform="translate(8.209 8.209)"><circle cx="23.484" cy="23.484" r="23.484" fill="#006c62"/><g transform="translate(15.13 1.983)"><text transform="translate(0 29)" fill="#fff" font-size="28" font-family="Roboto-Black, Roboto" font-weight="800"><tspan x="0" y="0">1</tspan></text></g></g></g><path d="M0,0H130.356V68.348H0Z" transform="translate(628.035 996.729)" fill="none"/><path d="M49.69,0A49.69,49.69,0,1,1,0,49.69,49.69,49.69,0,0,1,49.69,0Z" transform="translate(933.023 953.289)" fill="#efedee"/><path d="M49.69-1.5A51.2,51.2,0,0,1,69.616,96.856,51.2,51.2,0,0,1,29.764,2.523,50.871,50.871,0,0,1,49.69-1.5Zm0,99.38A48.19,48.19,0,1,0,1.5,49.69,48.244,48.244,0,0,0,49.69,97.88Z" transform="translate(933.023 953.289)" fill="#ff854e"/><path d="M49.69,0A49.69,49.69,0,1,1,0,49.69,49.69,49.69,0,0,1,49.69,0Z" transform="translate(1063.371 1160.303)" fill="#efedee"/><path d="M49.69-1.5A51.2,51.2,0,0,1,69.616,96.856,51.2,51.2,0,0,1,29.764,2.523,50.871,50.871,0,0,1,49.69-1.5Zm0,99.38A48.19,48.19,0,1,0,1.5,49.69,48.244,48.244,0,0,0,49.69,97.88Z" transform="translate(1063.371 1160.303)" fill="#006c62"/><path d="M49.69,0A49.69,49.69,0,1,1,0,49.69,49.69,49.69,0,0,1,49.69,0Z" transform="translate(1008.33 1385.177)" fill="#efedee"/><path d="M49.69-1.5A51.2,51.2,0,0,1,69.616,96.856,51.2,51.2,0,0,1,29.764,2.523,50.871,50.871,0,0,1,49.69-1.5Zm0,99.38A48.19,48.19,0,1,0,1.5,49.69,48.244,48.244,0,0,0,49.69,97.88Z" transform="translate(1008.33 1385.177)" fill="#ff854e"/><path d="M49.69,0A49.69,49.69,0,1,1,0,49.69,49.69,49.69,0,0,1,49.69,0Z" transform="translate(802.131 1518.771)" fill="#efedee"/><path d="M49.69-1.5A51.2,51.2,0,0,1,69.616,96.856,51.2,51.2,0,0,1,29.764,2.523,50.871,50.871,0,0,1,49.69-1.5Zm0,99.38A48.19,48.19,0,1,0,1.5,49.69,48.244,48.244,0,0,0,49.69,97.88Z" transform="translate(802.131 1518.771)" fill="#006c62"/><path d="M49.69,0A49.69,49.69,0,1,1,0,49.69,49.69,49.69,0,0,1,49.69,0Z" transform="translate(570.229 1451.947)" fill="#efedee"/><path d="M49.69-1.5A51.2,51.2,0,0,1,69.616,96.856,51.2,51.2,0,0,1,29.764,2.523,50.871,50.871,0,0,1,49.69-1.5Zm0,99.38A48.19,48.19,0,1,0,1.5,49.69,48.244,48.244,0,0,0,49.69,97.88Z" transform="translate(570.229 1451.947)" fill="#ff854e"/><path d="M49.69,0A49.69,49.69,0,1,1,0,49.69,49.69,49.69,0,0,1,49.69,0Z" transform="translate(437.25 1252.443)" fill="#efedee"/><path d="M49.69-1.5A51.2,51.2,0,0,1,69.616,96.856,51.2,51.2,0,0,1,29.764,2.523,50.871,50.871,0,0,1,49.69-1.5Zm0,99.38A48.19,48.19,0,1,0,1.5,49.69,48.244,48.244,0,0,0,49.69,97.88Z" transform="translate(437.25 1252.443)" fill="#006c62"/><path d="M49.69,0A49.69,49.69,0,1,1,0,49.69,49.69,49.69,0,0,1,49.69,0Z" transform="translate(499.322 1031.924)" fill="#efedee"/><path d="M49.69-1.5A51.2,51.2,0,0,1,69.616,96.856,51.2,51.2,0,0,1,29.764,2.523,50.871,50.871,0,0,1,49.69-1.5Zm0,99.38A48.19,48.19,0,1,0,1.5,49.69,48.244,48.244,0,0,0,49.69,97.88Z" transform="translate(499.322 1031.924)" fill="#ff854e"/><g transform="translate(951.02 971.285)"><circle cx="31.693" cy="31.693" r="31.693" fill="#fff"/><g transform="translate(8.209 8.209)"><circle cx="23.484" cy="23.484" r="23.484" fill="#ff854e"/><g transform="translate(15.132 1.983)"><text transform="translate(0 29)" fill="#fff" font-size="28" font-family="Roboto-Black, Roboto" font-weight="800"><tspan x="0" y="0">2</tspan></text></g></g></g><g transform="translate(1081.367 1178.299)"><circle cx="31.693" cy="31.693" r="31.693" fill="#fff"/><g transform="translate(8.209 8.209)"><circle cx="23.484" cy="23.484" r="23.484" fill="#006c62"/><g transform="translate(15.128 1.981)"><text transform="translate(0 29)" fill="#fff" font-size="28" font-family="Roboto-Black, Roboto" font-weight="800"><tspan x="0" y="0">3</tspan></text></g></g></g><g transform="translate(1026.326 1403.174)"><circle cx="31.693" cy="31.693" r="31.693" fill="#fff"/><g transform="translate(8.209 8.209)"><circle cx="23.484" cy="23.484" r="23.484" fill="#ff854e"/><g transform="translate(15.134 1.981)"><text transform="translate(0 29)" fill="#fff" font-size="28" font-family="Roboto-Black, Roboto" font-weight="800"><tspan x="0" y="0">4</tspan></text></g></g></g><g transform="translate(820.129 1536.768)"><circle cx="31.693" cy="31.693" r="31.693" fill="#fff"/><g transform="translate(8.209 8.209)"><circle cx="23.484" cy="23.484" r="23.484" fill="#006c62"/><g transform="translate(15.135 1.979)"><text transform="translate(0 29)" fill="#fff" font-size="28" font-family="Roboto-Black, Roboto" font-weight="800"><tspan x="0" y="0">5</tspan></text></g></g></g><g transform="translate(588.225 1469.943)"><circle cx="31.693" cy="31.693" r="31.693" fill="#fff"/><g transform="translate(8.209 8.209)"><circle cx="23.484" cy="23.484" r="23.484" fill="#ff854e"/><g transform="translate(15.13 1.982)"><text transform="translate(0 29)" fill="#fff" font-size="28" font-family="Roboto-Black, Roboto" font-weight="800"><tspan x="0" y="0">6</tspan></text></g></g></g><g transform="translate(455.246 1270.44)"><circle cx="31.693" cy="31.693" r="31.693" fill="#fff"/><g transform="translate(8.209 8.209)"><path d="M23.484,0A23.484,23.484,0,1,1,0,23.484,23.484,23.484,0,0,1,23.484,0Z" fill="#006c62"/><g transform="translate(15.129 1.98)"><text transform="translate(0 29)" fill="#fff" font-size="28" font-family="Roboto-Black, Roboto" font-weight="800"><tspan x="0" y="0">7</tspan></text></g></g></g><g transform="translate(517.318 1049.92)"><circle cx="31.693" cy="31.693" r="31.693" fill="#fff"/><g transform="translate(8.209 8.209)"><circle cx="23.484" cy="23.484" r="23.484" fill="#ff854e"/><g transform="translate(15.133 1.982)"><text transform="translate(0 29)" fill="#fff" font-size="28" font-family="Roboto-Black, Roboto" font-weight="800"><tspan x="0" y="0">8</tspan></text></g></g></g><path d="M3.779-4.509V0H1.143V-12.8H6.135a5.776,5.776,0,0,1,2.536.527,3.886,3.886,0,0,1,1.683,1.5,4.178,4.178,0,0,1,.589,2.21A3.674,3.674,0,0,1,9.655-5.594,5.363,5.363,0,0,1,6.091-4.509Zm0-2.136H6.135a2.316,2.316,0,0,0,1.6-.492,1.79,1.79,0,0,0,.549-1.406,2.111,2.111,0,0,0-.554-1.521,2.068,2.068,0,0,0-1.529-.6H3.779ZM15.267,0H12.718V-13.5h2.549Zm7.6,0a2.821,2.821,0,0,1-.255-.853,3.073,3.073,0,0,1-2.4,1.028A3.376,3.376,0,0,1,17.9-.633a2.6,2.6,0,0,1-.918-2.039A2.687,2.687,0,0,1,18.1-4.992,5.529,5.529,0,0,1,21.34-5.81h1.169v-.545a1.567,1.567,0,0,0-.338-1.055A1.331,1.331,0,0,0,21.1-7.8,1.513,1.513,0,0,0,20.1-7.5a1.045,1.045,0,0,0-.365.844h-2.54a2.551,2.551,0,0,1,.51-1.529,3.37,3.37,0,0,1,1.441-1.1,5.253,5.253,0,0,1,2.092-.4,4.15,4.15,0,0,1,2.791.883,3.09,3.09,0,0,1,1.033,2.483V-2.2a4.546,4.546,0,0,0,.378,2.048V0Zm-2.1-1.767a2.188,2.188,0,0,0,1.037-.25,1.645,1.645,0,0,0,.7-.672V-4.324H21.56q-1.907,0-2.03,1.318l-.009.149a1.017,1.017,0,0,0,.334.782A1.3,1.3,0,0,0,20.769-1.767ZM29.347-9.51l.079,1.1a3.32,3.32,0,0,1,2.733-1.274,2.759,2.759,0,0,1,2.25.888,4.142,4.142,0,0,1,.756,2.654V0h-2.54V-6.082a1.648,1.648,0,0,0-.352-1.173A1.574,1.574,0,0,0,31.1-7.62a1.747,1.747,0,0,0-1.608.914V0h-2.54V-9.51ZM41.467.176a4.668,4.668,0,0,1-3.406-1.283,4.561,4.561,0,0,1-1.314-3.419v-.246A5.745,5.745,0,0,1,37.3-7.334a4.064,4.064,0,0,1,1.569-1.74,4.4,4.4,0,0,1,2.316-.611,3.947,3.947,0,0,1,3.072,1.23,5,5,0,0,1,1.121,3.489v1.037H39.322a2.36,2.36,0,0,0,.743,1.494,2.245,2.245,0,0,0,1.569.563,2.742,2.742,0,0,0,2.294-1.063l1.248,1.4A3.813,3.813,0,0,1,43.629-.277,5.075,5.075,0,0,1,41.467.176Zm-.29-7.8a1.591,1.591,0,0,0-1.226.51,2.634,2.634,0,0,0-.6,1.459h3.533v-.2a1.878,1.878,0,0,0-.457-1.305A1.642,1.642,0,0,0,41.177-7.629ZM52.33,0a2.821,2.821,0,0,1-.255-.853,3.073,3.073,0,0,1-2.4,1.028A3.376,3.376,0,0,1,47.36-.633a2.6,2.6,0,0,1-.918-2.039,2.687,2.687,0,0,1,1.121-2.32A5.529,5.529,0,0,1,50.8-5.81H51.97v-.545a1.567,1.567,0,0,0-.338-1.055,1.331,1.331,0,0,0-1.068-.4,1.513,1.513,0,0,0-1.006.308,1.045,1.045,0,0,0-.365.844h-2.54a2.551,2.551,0,0,1,.51-1.529,3.37,3.37,0,0,1,1.441-1.1,5.253,5.253,0,0,1,2.092-.4,4.15,4.15,0,0,1,2.791.883,3.09,3.09,0,0,1,1.033,2.483V-2.2A4.546,4.546,0,0,0,54.9-.149V0Zm-2.1-1.767a2.188,2.188,0,0,0,1.037-.25,1.645,1.645,0,0,0,.7-.672V-4.324h-.949q-1.907,0-2.03,1.318l-.009.149a1.017,1.017,0,0,0,.334.782A1.3,1.3,0,0,0,50.229-1.767Zm10.2-.105a1.666,1.666,0,0,0,1.143-.387,1.355,1.355,0,0,0,.457-1.028h2.382a3.258,3.258,0,0,1-.527,1.771A3.48,3.48,0,0,1,62.459-.268a4.442,4.442,0,0,1-1.991.444,4.129,4.129,0,0,1-3.217-1.3A5.13,5.13,0,0,1,56.074-4.7v-.167a5.071,5.071,0,0,1,1.169-3.507,4.08,4.08,0,0,1,3.208-1.31A4,4,0,0,1,63.312-8.67a3.594,3.594,0,0,1,1.094,2.7H62.024a1.731,1.731,0,0,0-.457-1.2,1.528,1.528,0,0,0-1.16-.461,1.531,1.531,0,0,0-1.34.646,3.739,3.739,0,0,0-.453,2.1v.264a3.786,3.786,0,0,0,.448,2.109A1.55,1.55,0,0,0,60.425-1.872ZM68.537,0H65.988V-9.51h2.549Zm-2.7-11.971a1.251,1.251,0,0,1,.382-.94,1.436,1.436,0,0,1,1.042-.369,1.44,1.44,0,0,1,1.037.369,1.244,1.244,0,0,1,.387.94,1.247,1.247,0,0,1-.391.949,1.443,1.443,0,0,1-1.033.369,1.443,1.443,0,0,1-1.033-.369A1.247,1.247,0,0,1,65.839-11.971Zm4.395,7.128a5.64,5.64,0,0,1,.545-2.522,3.989,3.989,0,0,1,1.569-1.714,4.577,4.577,0,0,1,2.377-.606,4.33,4.33,0,0,1,3.142,1.178,4.727,4.727,0,0,1,1.358,3.2l.018.65a4.97,4.97,0,0,1-1.222,3.511A4.247,4.247,0,0,1,74.742.176a4.268,4.268,0,0,1-3.283-1.318,5.058,5.058,0,0,1-1.226-3.586Zm2.54.185a3.545,3.545,0,0,0,.51,2.07,1.682,1.682,0,0,0,1.459.716,1.686,1.686,0,0,0,1.441-.708A3.879,3.879,0,0,0,76.7-4.843,3.51,3.51,0,0,0,76.184-6.9a1.686,1.686,0,0,0-1.459-.729,1.659,1.659,0,0,0-1.441.725A3.944,3.944,0,0,0,72.773-4.658ZM75.226-13.5h2.769L75.56-10.775H73.494Zm7.919,3.99.079,1.1a3.32,3.32,0,0,1,2.733-1.274,2.759,2.759,0,0,1,2.25.888,4.142,4.142,0,0,1,.756,2.654V0h-2.54V-6.082a1.648,1.648,0,0,0-.352-1.173A1.574,1.574,0,0,0,84.9-7.62a1.747,1.747,0,0,0-1.608.914V0h-2.54V-9.51Z" transform="translate(658 1026)" fill="#12263f"/><path d="M3.779-4.509V0H1.143V-12.8H6.135a5.776,5.776,0,0,1,2.536.527,3.886,3.886,0,0,1,1.683,1.5,4.178,4.178,0,0,1,.589,2.21A3.674,3.674,0,0,1,9.655-5.594,5.363,5.363,0,0,1,6.091-4.509Zm0-2.136H6.135a2.316,2.316,0,0,0,1.6-.492,1.79,1.79,0,0,0,.549-1.406,2.111,2.111,0,0,0-.554-1.521,2.068,2.068,0,0,0-1.529-.6H3.779Zm14.15-.483a6.9,6.9,0,0,0-.914-.07,1.86,1.86,0,0,0-1.89.976V0h-2.54V-9.51h2.4l.07,1.134a2.354,2.354,0,0,1,2.118-1.31,2.662,2.662,0,0,1,.791.114Zm.51,2.285a5.64,5.64,0,0,1,.545-2.522,3.989,3.989,0,0,1,1.569-1.714,4.577,4.577,0,0,1,2.377-.606,4.33,4.33,0,0,1,3.142,1.178,4.727,4.727,0,0,1,1.358,3.2l.018.65a4.97,4.97,0,0,1-1.222,3.511A4.247,4.247,0,0,1,22.948.176a4.268,4.268,0,0,1-3.283-1.318,5.058,5.058,0,0,1-1.226-3.586Zm2.54.185a3.545,3.545,0,0,0,.51,2.07,1.682,1.682,0,0,0,1.459.716A1.686,1.686,0,0,0,24.39-2.58a3.879,3.879,0,0,0,.519-2.263A3.51,3.51,0,0,0,24.39-6.9a1.686,1.686,0,0,0-1.459-.729,1.659,1.659,0,0,0-1.441.725A3.944,3.944,0,0,0,20.979-4.658Zm7.638-.167a5.731,5.731,0,0,1,1-3.542,3.237,3.237,0,0,1,2.729-1.318,2.913,2.913,0,0,1,2.294,1.037V-13.5h2.549V0H34.893L34.77-1.011A2.989,2.989,0,0,1,32.326.176a3.228,3.228,0,0,1-2.694-1.323A5.916,5.916,0,0,1,28.617-4.825Zm2.54.185a3.744,3.744,0,0,0,.466,2.048,1.518,1.518,0,0,0,1.354.712,1.7,1.7,0,0,0,1.661-.993V-6.627a1.676,1.676,0,0,0-1.644-.993Q31.157-7.62,31.157-4.641ZM44.851-.967a3.185,3.185,0,0,1-2.6,1.143A3,3,0,0,1,39.916-.7a3.752,3.752,0,0,1-.822-2.575V-9.51h2.54v6.144q0,1.485,1.354,1.485a1.835,1.835,0,0,0,1.775-.9V-9.51h2.549V0H44.921Zm8.332-.905a1.666,1.666,0,0,0,1.143-.387,1.355,1.355,0,0,0,.457-1.028h2.382a3.258,3.258,0,0,1-.527,1.771A3.48,3.48,0,0,1,55.217-.268a4.442,4.442,0,0,1-1.991.444,4.129,4.129,0,0,1-3.217-1.3A5.13,5.13,0,0,1,48.832-4.7v-.167A5.071,5.071,0,0,1,50-8.376a4.08,4.08,0,0,1,3.208-1.31A4,4,0,0,1,56.07-8.67a3.594,3.594,0,0,1,1.094,2.7H54.782a1.731,1.731,0,0,0-.457-1.2,1.528,1.528,0,0,0-1.16-.461,1.531,1.531,0,0,0-1.34.646,3.739,3.739,0,0,0-.453,2.1v.264a3.786,3.786,0,0,0,.448,2.109A1.55,1.55,0,0,0,53.183-1.872Zm9.387,0a1.666,1.666,0,0,0,1.143-.387,1.355,1.355,0,0,0,.457-1.028h2.382a3.258,3.258,0,0,1-.527,1.771A3.48,3.48,0,0,1,64.6-.268a4.442,4.442,0,0,1-1.991.444,4.129,4.129,0,0,1-3.217-1.3A5.13,5.13,0,0,1,58.219-4.7v-.167a5.071,5.071,0,0,1,1.169-3.507A4.08,4.08,0,0,1,62.6-9.686,4,4,0,0,1,65.457-8.67a3.594,3.594,0,0,1,1.094,2.7H64.169a1.731,1.731,0,0,0-.457-1.2,1.528,1.528,0,0,0-1.16-.461,1.531,1.531,0,0,0-1.34.646,3.739,3.739,0,0,0-.453,2.1v.264a3.786,3.786,0,0,0,.448,2.109A1.55,1.55,0,0,0,62.569-1.872ZM70.682,0H68.133V-9.51h2.549Zm-2.7-11.971a1.251,1.251,0,0,1,.382-.94,1.436,1.436,0,0,1,1.042-.369,1.44,1.44,0,0,1,1.037.369,1.244,1.244,0,0,1,.387.94,1.247,1.247,0,0,1-.391.949,1.443,1.443,0,0,1-1.033.369,1.443,1.443,0,0,1-1.033-.369A1.247,1.247,0,0,1,67.983-11.971Zm4.395,7.128a5.64,5.64,0,0,1,.545-2.522,3.989,3.989,0,0,1,1.569-1.714,4.577,4.577,0,0,1,2.377-.606,4.33,4.33,0,0,1,3.142,1.178,4.727,4.727,0,0,1,1.358,3.2l.018.65a4.97,4.97,0,0,1-1.222,3.511A4.247,4.247,0,0,1,76.887.176,4.268,4.268,0,0,1,73.6-1.143a5.058,5.058,0,0,1-1.226-3.586Zm2.54.185a3.545,3.545,0,0,0,.51,2.07,1.682,1.682,0,0,0,1.459.716,1.686,1.686,0,0,0,1.441-.708,3.879,3.879,0,0,0,.519-2.263A3.51,3.51,0,0,0,78.328-6.9a1.686,1.686,0,0,0-1.459-.729,1.659,1.659,0,0,0-1.441.725A3.944,3.944,0,0,0,74.918-4.658ZM77.37-13.5h2.769L77.7-10.775H75.639Zm7.919,3.99.079,1.1A3.32,3.32,0,0,1,88.1-9.686a2.759,2.759,0,0,1,2.25.888,4.142,4.142,0,0,1,.756,2.654V0h-2.54V-6.082a1.648,1.648,0,0,0-.352-1.173,1.574,1.574,0,0,0-1.169-.365,1.747,1.747,0,0,0-1.608.914V0H82.9V-9.51Z" transform="translate(838 1026)" fill="#12263f"/><path d="M11.268-1.617A4.577,4.577,0,0,1,9.255-.294a8.429,8.429,0,0,1-2.883.47A5.711,5.711,0,0,1,3.458-.549a4.836,4.836,0,0,1-1.934-2.1A7.408,7.408,0,0,1,.826-5.9v-.87a7.868,7.868,0,0,1,.646-3.318A4.779,4.779,0,0,1,3.335-12.23a5.367,5.367,0,0,1,2.852-.743,5.345,5.345,0,0,1,3.56,1.085,4.639,4.639,0,0,1,1.521,3.16H8.7a2.552,2.552,0,0,0-.778-1.608,2.484,2.484,0,0,0-1.657-.51A2.338,2.338,0,0,0,4.219-9.835a5.315,5.315,0,0,0-.712,3.006v.817a5.06,5.06,0,0,0,.765,3.041A2.618,2.618,0,0,0,6.513-1.942a2.925,2.925,0,0,0,2.118-.633V-4.781h-2.4V-6.724h5.036ZM17.613.176a4.668,4.668,0,0,1-3.406-1.283,4.561,4.561,0,0,1-1.314-3.419v-.246a5.745,5.745,0,0,1,.554-2.562,4.064,4.064,0,0,1,1.569-1.74,4.4,4.4,0,0,1,2.316-.611A3.947,3.947,0,0,1,20.4-8.455a5,5,0,0,1,1.121,3.489v1.037H15.469a2.36,2.36,0,0,0,.743,1.494,2.245,2.245,0,0,0,1.569.563,2.742,2.742,0,0,0,2.294-1.063l1.248,1.4A3.813,3.813,0,0,1,19.775-.277,5.075,5.075,0,0,1,17.613.176Zm-.29-7.8a1.591,1.591,0,0,0-1.226.51,2.634,2.634,0,0,0-.6,1.459h3.533v-.2a1.878,1.878,0,0,0-.457-1.305A1.642,1.642,0,0,0,17.323-7.629Zm10.793,5a.818.818,0,0,0-.461-.734,5.241,5.241,0,0,0-1.481-.479q-3.393-.712-3.393-2.883a2.613,2.613,0,0,1,1.05-2.114,4.237,4.237,0,0,1,2.747-.848,4.56,4.56,0,0,1,2.9.853A2.687,2.687,0,0,1,30.56-6.618H28.02a1.229,1.229,0,0,0-.352-.9,1.488,1.488,0,0,0-1.1-.356,1.52,1.52,0,0,0-.993.29.916.916,0,0,0-.352.738.783.783,0,0,0,.4.681,4.114,4.114,0,0,0,1.349.448,11.019,11.019,0,0,1,1.6.426,2.628,2.628,0,0,1,2.013,2.558,2.481,2.481,0,0,1-1.116,2.1,4.815,4.815,0,0,1-2.883.8A5.029,5.029,0,0,1,24.464-.25,3.561,3.561,0,0,1,23.01-1.419a2.716,2.716,0,0,1-.527-1.6h2.408a1.326,1.326,0,0,0,.5,1.037,1.987,1.987,0,0,0,1.248.36,1.839,1.839,0,0,0,1.1-.277A.861.861,0,0,0,28.116-2.628Zm7.146-9.22V-9.51h1.626v1.863H35.262V-2.9a1.133,1.133,0,0,0,.2.756,1.015,1.015,0,0,0,.773.229,4.051,4.051,0,0,0,.747-.062V-.053a5.229,5.229,0,0,1-1.538.229,2.425,2.425,0,0,1-2.725-2.7V-7.646H31.333V-9.51h1.389v-2.338ZM40.983,0H38.435V-9.51h2.549Zm-2.7-11.971a1.251,1.251,0,0,1,.382-.94,1.436,1.436,0,0,1,1.042-.369,1.44,1.44,0,0,1,1.037.369,1.244,1.244,0,0,1,.387.94,1.247,1.247,0,0,1-.391.949,1.443,1.443,0,0,1-1.033.369,1.443,1.443,0,0,1-1.033-.369A1.247,1.247,0,0,1,38.285-11.971ZM42.68-4.843a5.64,5.64,0,0,1,.545-2.522,3.989,3.989,0,0,1,1.569-1.714,4.577,4.577,0,0,1,2.377-.606,4.33,4.33,0,0,1,3.142,1.178,4.727,4.727,0,0,1,1.358,3.2l.018.65a4.97,4.97,0,0,1-1.222,3.511A4.247,4.247,0,0,1,47.188.176a4.268,4.268,0,0,1-3.283-1.318A5.058,5.058,0,0,1,42.68-4.729Zm2.54.185a3.545,3.545,0,0,0,.51,2.07,1.682,1.682,0,0,0,1.459.716A1.686,1.686,0,0,0,48.63-2.58a3.879,3.879,0,0,0,.519-2.263A3.51,3.51,0,0,0,48.63-6.9a1.686,1.686,0,0,0-1.459-.729,1.659,1.659,0,0,0-1.441.725A3.944,3.944,0,0,0,45.22-4.658ZM47.672-13.5H50.44l-2.435,2.725H45.94Zm7.919,3.99.079,1.1A3.32,3.32,0,0,1,58.4-9.686a2.759,2.759,0,0,1,2.25.888,4.142,4.142,0,0,1,.756,2.654V0h-2.54V-6.082a1.648,1.648,0,0,0-.352-1.173,1.574,1.574,0,0,0-1.169-.365,1.747,1.747,0,0,0-1.608.914V0H53.2V-9.51ZM4.526,21.405,6.284,15.49H9.009L5.186,26.477l-.211.5a2.9,2.9,0,0,1-2.812,1.863,4,4,0,0,1-1.125-.167V26.749l.387.009a2.09,2.09,0,0,0,1.077-.22,1.443,1.443,0,0,0,.558-.729l.3-.782L.026,15.49H2.76Zm13.008-8.253V15.49H19.16v1.863H17.534V22.1a1.133,1.133,0,0,0,.2.756,1.015,1.015,0,0,0,.773.229,4.051,4.051,0,0,0,.747-.062v1.925a5.229,5.229,0,0,1-1.538.229,2.425,2.425,0,0,1-2.725-2.7V17.354H13.605V15.49h1.389V13.152Zm8.385,4.72A6.9,6.9,0,0,0,25,17.8a1.86,1.86,0,0,0-1.89.976V25h-2.54V15.49h2.4l.07,1.134a2.354,2.354,0,0,1,2.118-1.31,2.662,2.662,0,0,1,.791.114ZM32.388,25a2.821,2.821,0,0,1-.255-.853,3.073,3.073,0,0,1-2.4,1.028,3.376,3.376,0,0,1-2.316-.809,2.6,2.6,0,0,1-.918-2.039,2.687,2.687,0,0,1,1.121-2.32,5.529,5.529,0,0,1,3.239-.817h1.169v-.545a1.567,1.567,0,0,0-.338-1.055,1.331,1.331,0,0,0-1.068-.4,1.513,1.513,0,0,0-1.006.308,1.045,1.045,0,0,0-.365.844H26.71a2.551,2.551,0,0,1,.51-1.529,3.37,3.37,0,0,1,1.441-1.1,5.253,5.253,0,0,1,2.092-.4,4.15,4.15,0,0,1,2.791.883,3.09,3.09,0,0,1,1.033,2.483V22.8a4.546,4.546,0,0,0,.378,2.048V25Zm-2.1-1.767a2.188,2.188,0,0,0,1.037-.25,1.645,1.645,0,0,0,.7-.672V20.676h-.949q-1.907,0-2.03,1.318l-.009.149a1.017,1.017,0,0,0,.334.782A1.3,1.3,0,0,0,30.287,23.233Zm8.622-7.743.079,1.063a3.342,3.342,0,0,1,2.733-1.239,2.536,2.536,0,0,1,2.522,1.45,3.265,3.265,0,0,1,2.856-1.45,2.836,2.836,0,0,1,2.3.9,4.141,4.141,0,0,1,.756,2.711V25H47.61V18.936a1.811,1.811,0,0,0-.316-1.182,1.4,1.4,0,0,0-1.116-.374A1.585,1.585,0,0,0,44.6,18.47L44.6,25h-2.54V18.944a1.789,1.789,0,0,0-.325-1.2,1.416,1.416,0,0,0-1.107-.369,1.646,1.646,0,0,0-1.564.9V25h-2.54V15.49ZM54.791,25H52.242V15.49h2.549Zm-2.7-11.971a1.251,1.251,0,0,1,.382-.94,1.648,1.648,0,0,1,2.079,0,1.342,1.342,0,0,1,0,1.89,1.629,1.629,0,0,1-2.065,0A1.247,1.247,0,0,1,52.093,13.029Zm7.831.123V15.49H61.55v1.863H59.924V22.1a1.133,1.133,0,0,0,.2.756,1.015,1.015,0,0,0,.773.229,4.051,4.051,0,0,0,.747-.062v1.925a5.229,5.229,0,0,1-1.538.229,2.425,2.425,0,0,1-2.725-2.7V17.354H56V15.49h1.389V13.152Zm7.418,12.023a4.668,4.668,0,0,1-3.406-1.283,4.561,4.561,0,0,1-1.314-3.419v-.246a5.745,5.745,0,0,1,.554-2.562,4.064,4.064,0,0,1,1.569-1.74,4.4,4.4,0,0,1,2.316-.611,3.947,3.947,0,0,1,3.072,1.23,5,5,0,0,1,1.121,3.489v1.037H65.2a2.36,2.36,0,0,0,.743,1.494,2.245,2.245,0,0,0,1.569.563A2.742,2.742,0,0,0,69.8,22.064l1.248,1.4A3.813,3.813,0,0,1,69.5,24.723,5.075,5.075,0,0,1,67.342,25.176Zm-.29-7.8a1.591,1.591,0,0,0-1.226.51,2.634,2.634,0,0,0-.6,1.459h3.533v-.2a1.878,1.878,0,0,0-.457-1.305A1.642,1.642,0,0,0,67.052,17.371Z" transform="translate(996 1130)" fill="#12263f"/><path d="M11.654-6.108a7.725,7.725,0,0,1-.668,3.313A5.03,5.03,0,0,1,9.075-.6,5.288,5.288,0,0,1,6.223.176,5.324,5.324,0,0,1,3.384-.589,5.08,5.08,0,0,1,1.45-2.773,7.5,7.5,0,0,1,.756-6.038v-.633A7.685,7.685,0,0,1,1.437-10,5.072,5.072,0,0,1,3.362-12.2a5.3,5.3,0,0,1,2.843-.769,5.3,5.3,0,0,1,2.843.769A5.072,5.072,0,0,1,10.973-10a7.663,7.663,0,0,1,.681,3.318Zm-2.672-.58a5.385,5.385,0,0,0-.721-3.059,2.349,2.349,0,0,0-2.057-1.046A2.349,2.349,0,0,0,4.157-9.76a5.324,5.324,0,0,0-.729,3.028v.624a5.453,5.453,0,0,0,.721,3.041A2.342,2.342,0,0,0,6.223-1.986,2.321,2.321,0,0,0,8.262-3.028a5.421,5.421,0,0,0,.721-3.037Zm9.765-.439a6.9,6.9,0,0,0-.914-.07,1.86,1.86,0,0,0-1.89.976V0H13.4V-9.51h2.4l.07,1.134a2.354,2.354,0,0,1,2.118-1.31,2.662,2.662,0,0,1,.791.114Zm.686,2.3A5.573,5.573,0,0,1,20.474-8.35a3.375,3.375,0,0,1,2.808-1.336,2.96,2.96,0,0,1,2.435,1.072l.105-.9h2.3V-.316a4.064,4.064,0,0,1-.567,2.171,3.641,3.641,0,0,1-1.6,1.406,5.608,5.608,0,0,1-2.408.483,5.215,5.215,0,0,1-2.039-.417,3.619,3.619,0,0,1-1.5-1.077L21.138.7a2.975,2.975,0,0,0,2.3,1.063,2.178,2.178,0,0,0,1.573-.541,2.027,2.027,0,0,0,.563-1.534v-.51a2.938,2.938,0,0,1-2.312.993,3.366,3.366,0,0,1-2.773-1.34A5.572,5.572,0,0,1,19.433-4.72Zm2.54.185a3.461,3.461,0,0,0,.519,2.026,1.65,1.65,0,0,0,1.424.734,1.764,1.764,0,0,0,1.661-.87v-4a1.76,1.76,0,0,0-1.644-.87,1.661,1.661,0,0,0-1.437.747A3.9,3.9,0,0,0,21.973-4.641ZM35.587,0a2.821,2.821,0,0,1-.255-.853,3.073,3.073,0,0,1-2.4,1.028,3.376,3.376,0,0,1-2.316-.809A2.6,2.6,0,0,1,29.7-2.672a2.687,2.687,0,0,1,1.121-2.32,5.529,5.529,0,0,1,3.239-.817h1.169v-.545a1.567,1.567,0,0,0-.338-1.055,1.331,1.331,0,0,0-1.068-.4,1.513,1.513,0,0,0-1.006.308,1.045,1.045,0,0,0-.365.844h-2.54a2.551,2.551,0,0,1,.51-1.529,3.37,3.37,0,0,1,1.441-1.1,5.253,5.253,0,0,1,2.092-.4,4.15,4.15,0,0,1,2.791.883,3.09,3.09,0,0,1,1.033,2.483V-2.2a4.546,4.546,0,0,0,.378,2.048V0Zm-2.1-1.767a2.188,2.188,0,0,0,1.037-.25,1.645,1.645,0,0,0,.7-.672V-4.324h-.949q-1.907,0-2.03,1.318l-.009.149a1.017,1.017,0,0,0,.334.782A1.3,1.3,0,0,0,33.486-1.767ZM42.064-9.51l.079,1.1a3.32,3.32,0,0,1,2.733-1.274,2.759,2.759,0,0,1,2.25.888,4.142,4.142,0,0,1,.756,2.654V0h-2.54V-6.082a1.648,1.648,0,0,0-.352-1.173,1.574,1.574,0,0,0-1.169-.365,1.747,1.747,0,0,0-1.608.914V0h-2.54V-9.51ZM52.488,0H49.939V-9.51h2.549Zm-2.7-11.971a1.251,1.251,0,0,1,.382-.94,1.436,1.436,0,0,1,1.042-.369,1.44,1.44,0,0,1,1.037.369,1.244,1.244,0,0,1,.387.94,1.247,1.247,0,0,1-.391.949,1.443,1.443,0,0,1-1.033.369,1.443,1.443,0,0,1-1.033-.369A1.247,1.247,0,0,1,49.79-11.971ZM57.5-2.048h4.649V0H54.255V-1.547l4.474-5.906H54.387V-9.51h7.62v1.5ZM69.249,0a2.821,2.821,0,0,1-.255-.853,3.073,3.073,0,0,1-2.4,1.028,3.376,3.376,0,0,1-2.316-.809,2.6,2.6,0,0,1-.918-2.039,2.687,2.687,0,0,1,1.121-2.32A5.529,5.529,0,0,1,67.72-5.81h1.169v-.545a1.567,1.567,0,0,0-.338-1.055,1.331,1.331,0,0,0-1.068-.4,1.513,1.513,0,0,0-1.006.308,1.045,1.045,0,0,0-.365.844h-2.54a2.551,2.551,0,0,1,.51-1.529,3.37,3.37,0,0,1,1.441-1.1,5.253,5.253,0,0,1,2.092-.4A4.15,4.15,0,0,1,70.4-8.8a3.09,3.09,0,0,1,1.033,2.483V-2.2a4.546,4.546,0,0,0,.378,2.048V0Zm-2.1-1.767a2.188,2.188,0,0,0,1.037-.25,1.645,1.645,0,0,0,.7-.672V-4.324h-.949q-1.907,0-2.03,1.318l-.009.149a1.017,1.017,0,0,0,.334.782A1.3,1.3,0,0,0,67.148-1.767Zm10.2-.105a1.666,1.666,0,0,0,1.143-.387,1.355,1.355,0,0,0,.457-1.028h2.382A3.258,3.258,0,0,1,80.8-1.516,3.48,3.48,0,0,1,79.378-.268a4.442,4.442,0,0,1-1.991.444,4.129,4.129,0,0,1-3.217-1.3A5.13,5.13,0,0,1,72.993-4.7v-.167a5.071,5.071,0,0,1,1.169-3.507,4.08,4.08,0,0,1,3.208-1.31A4,4,0,0,1,80.231-8.67a3.594,3.594,0,0,1,1.094,2.7H78.943a1.731,1.731,0,0,0-.457-1.2,1.528,1.528,0,0,0-1.16-.461,1.531,1.531,0,0,0-1.34.646,3.739,3.739,0,0,0-.453,2.1v.264a3.786,3.786,0,0,0,.448,2.109A1.55,1.55,0,0,0,77.344-1.872ZM85.456,0H82.907V-9.51h2.549Zm-2.7-11.971a1.251,1.251,0,0,1,.382-.94,1.436,1.436,0,0,1,1.042-.369,1.44,1.44,0,0,1,1.037.369,1.244,1.244,0,0,1,.387.94,1.247,1.247,0,0,1-.391.949,1.443,1.443,0,0,1-1.033.369,1.443,1.443,0,0,1-1.033-.369A1.247,1.247,0,0,1,82.758-11.971Zm4.395,7.128A5.64,5.64,0,0,1,87.7-7.365a3.989,3.989,0,0,1,1.569-1.714,4.577,4.577,0,0,1,2.377-.606,4.33,4.33,0,0,1,3.142,1.178,4.727,4.727,0,0,1,1.358,3.2l.018.65a4.97,4.97,0,0,1-1.222,3.511A4.247,4.247,0,0,1,91.661.176a4.268,4.268,0,0,1-3.283-1.318,5.058,5.058,0,0,1-1.226-3.586Zm2.54.185a3.545,3.545,0,0,0,.51,2.07,1.682,1.682,0,0,0,1.459.716A1.686,1.686,0,0,0,93.1-2.58a3.879,3.879,0,0,0,.519-2.263A3.51,3.51,0,0,0,93.1-6.9a1.686,1.686,0,0,0-1.459-.729A1.659,1.659,0,0,0,90.2-6.9,3.944,3.944,0,0,0,89.692-4.658ZM92.145-13.5h2.769l-2.435,2.725H90.413Zm7.919,3.99.079,1.1a3.32,3.32,0,0,1,2.733-1.274,2.759,2.759,0,0,1,2.25.888,4.142,4.142,0,0,1,.756,2.654V0h-2.54V-6.082a1.648,1.648,0,0,0-.352-1.173,1.574,1.574,0,0,0-1.169-.365,1.747,1.747,0,0,0-1.608.914V0h-2.54V-9.51Z" transform="translate(999 1348)" fill="#12263f"/><path d="M1.143,0V-12.8H5.08a5.98,5.98,0,0,1,3.019.76,5.3,5.3,0,0,1,2.079,2.162,6.669,6.669,0,0,1,.747,3.186V-6.1a6.688,6.688,0,0,1-.734,3.173A5.256,5.256,0,0,1,8.121-.773,6.025,6.025,0,0,1,5.106,0ZM3.779-10.661v8.543H5.054A2.863,2.863,0,0,0,7.418-3.129a4.567,4.567,0,0,0,.835-2.892V-6.7a4.64,4.64,0,0,0-.809-2.958A2.854,2.854,0,0,0,5.08-10.661ZM15.354,0H12.806V-9.51h2.549Zm-2.7-11.971a1.251,1.251,0,0,1,.382-.94,1.436,1.436,0,0,1,1.042-.369,1.44,1.44,0,0,1,1.037.369,1.244,1.244,0,0,1,.387.94,1.247,1.247,0,0,1-.391.949,1.443,1.443,0,0,1-1.033.369,1.443,1.443,0,0,1-1.033-.369A1.247,1.247,0,0,1,12.656-11.971ZM22.6-2.628a.818.818,0,0,0-.461-.734,5.241,5.241,0,0,0-1.481-.479q-3.393-.712-3.393-2.883a2.613,2.613,0,0,1,1.05-2.114,4.237,4.237,0,0,1,2.747-.848,4.56,4.56,0,0,1,2.9.853A2.687,2.687,0,0,1,25.04-6.618H22.5a1.229,1.229,0,0,0-.352-.9,1.488,1.488,0,0,0-1.1-.356,1.52,1.52,0,0,0-.993.29.916.916,0,0,0-.352.738.783.783,0,0,0,.4.681,4.114,4.114,0,0,0,1.349.448,11.019,11.019,0,0,1,1.6.426,2.628,2.628,0,0,1,2.013,2.558,2.481,2.481,0,0,1-1.116,2.1,4.815,4.815,0,0,1-2.883.8A5.029,5.029,0,0,1,18.945-.25,3.561,3.561,0,0,1,17.49-1.419a2.716,2.716,0,0,1-.527-1.6h2.408a1.326,1.326,0,0,0,.5,1.037,1.987,1.987,0,0,0,1.248.36,1.839,1.839,0,0,0,1.1-.277A.861.861,0,0,0,22.6-2.628ZM35.262-4.667a5.7,5.7,0,0,1-1,3.52A3.2,3.2,0,0,1,31.57.176a2.963,2.963,0,0,1-2.329-1V3.656H26.7V-9.51h2.355l.088.932a2.985,2.985,0,0,1,2.408-1.107,3.22,3.22,0,0,1,2.733,1.3A5.858,5.858,0,0,1,35.262-4.8Zm-2.54-.185a3.743,3.743,0,0,0-.47-2.048,1.532,1.532,0,0,0-1.367-.721,1.663,1.663,0,0,0-1.644.914v3.894a1.692,1.692,0,0,0,1.661.94Q32.722-1.872,32.722-4.852Zm3.718.009a5.64,5.64,0,0,1,.545-2.522,3.989,3.989,0,0,1,1.569-1.714,4.577,4.577,0,0,1,2.377-.606,4.33,4.33,0,0,1,3.142,1.178,4.727,4.727,0,0,1,1.358,3.2l.018.65a4.97,4.97,0,0,1-1.222,3.511A4.247,4.247,0,0,1,40.948.176a4.268,4.268,0,0,1-3.283-1.318,5.058,5.058,0,0,1-1.226-3.586Zm2.54.185a3.545,3.545,0,0,0,.51,2.07,1.682,1.682,0,0,0,1.459.716A1.686,1.686,0,0,0,42.39-2.58a3.879,3.879,0,0,0,.519-2.263A3.51,3.51,0,0,0,42.39-6.9a1.686,1.686,0,0,0-1.459-.729,1.659,1.659,0,0,0-1.441.725A3.944,3.944,0,0,0,38.979-4.658Zm13.184,2.03a.818.818,0,0,0-.461-.734,5.241,5.241,0,0,0-1.481-.479q-3.393-.712-3.393-2.883a2.613,2.613,0,0,1,1.05-2.114,4.237,4.237,0,0,1,2.747-.848,4.56,4.56,0,0,1,2.9.853,2.687,2.687,0,0,1,1.085,2.215h-2.54a1.229,1.229,0,0,0-.352-.9,1.488,1.488,0,0,0-1.1-.356,1.52,1.52,0,0,0-.993.29.916.916,0,0,0-.352.738.783.783,0,0,0,.4.681,4.114,4.114,0,0,0,1.349.448,11.019,11.019,0,0,1,1.6.426,2.628,2.628,0,0,1,2.013,2.558,2.481,2.481,0,0,1-1.116,2.1,4.815,4.815,0,0,1-2.883.8A5.029,5.029,0,0,1,48.511-.25a3.561,3.561,0,0,1-1.455-1.169,2.716,2.716,0,0,1-.527-1.6h2.408a1.326,1.326,0,0,0,.5,1.037,1.987,1.987,0,0,0,1.248.36,1.839,1.839,0,0,0,1.1-.277A.861.861,0,0,0,52.163-2.628ZM58.948,0H56.4V-9.51h2.549Zm-2.7-11.971a1.251,1.251,0,0,1,.382-.94,1.436,1.436,0,0,1,1.042-.369,1.44,1.44,0,0,1,1.037.369,1.244,1.244,0,0,1,.387.94,1.247,1.247,0,0,1-.391.949,1.443,1.443,0,0,1-1.033.369,1.443,1.443,0,0,1-1.033-.369A1.247,1.247,0,0,1,56.25-11.971ZM65-1.872a1.666,1.666,0,0,0,1.143-.387,1.355,1.355,0,0,0,.457-1.028h2.382a3.258,3.258,0,0,1-.527,1.771A3.48,3.48,0,0,1,67.03-.268a4.442,4.442,0,0,1-1.991.444,4.129,4.129,0,0,1-3.217-1.3A5.13,5.13,0,0,1,60.645-4.7v-.167a5.071,5.071,0,0,1,1.169-3.507,4.08,4.08,0,0,1,3.208-1.31A4,4,0,0,1,67.882-8.67a3.594,3.594,0,0,1,1.094,2.7H66.595a1.731,1.731,0,0,0-.457-1.2,1.528,1.528,0,0,0-1.16-.461,1.531,1.531,0,0,0-1.34.646,3.739,3.739,0,0,0-.453,2.1v.264a3.786,3.786,0,0,0,.448,2.109A1.55,1.55,0,0,0,65-1.872ZM73.107,0H70.559V-9.51h2.549Zm-2.7-11.971a1.251,1.251,0,0,1,.382-.94,1.436,1.436,0,0,1,1.042-.369,1.44,1.44,0,0,1,1.037.369,1.244,1.244,0,0,1,.387.94,1.247,1.247,0,0,1-.391.949,1.443,1.443,0,0,1-1.033.369,1.443,1.443,0,0,1-1.033-.369A1.247,1.247,0,0,1,70.409-11.971ZM74.8-4.843a5.64,5.64,0,0,1,.545-2.522,3.989,3.989,0,0,1,1.569-1.714,4.577,4.577,0,0,1,2.377-.606,4.33,4.33,0,0,1,3.142,1.178,4.727,4.727,0,0,1,1.358,3.2l.018.65a4.97,4.97,0,0,1-1.222,3.511A4.247,4.247,0,0,1,79.313.176,4.268,4.268,0,0,1,76.03-1.143,5.058,5.058,0,0,1,74.8-4.729Zm2.54.185a3.545,3.545,0,0,0,.51,2.07,1.682,1.682,0,0,0,1.459.716,1.686,1.686,0,0,0,1.441-.708,3.879,3.879,0,0,0,.519-2.263A3.51,3.51,0,0,0,80.754-6.9a1.686,1.686,0,0,0-1.459-.729,1.659,1.659,0,0,0-1.441.725A3.944,3.944,0,0,0,77.344-4.658ZM79.8-13.5h2.769L80.13-10.775H78.064Zm7.919,3.99.079,1.1a3.32,3.32,0,0,1,2.733-1.274,2.759,2.759,0,0,1,2.25.888,4.142,4.142,0,0,1,.756,2.654V0h-2.54V-6.082a1.648,1.648,0,0,0-.352-1.173,1.574,1.574,0,0,0-1.169-.365,1.747,1.747,0,0,0-1.608.914V0h-2.54V-9.51ZM.58,20.175a5.731,5.731,0,0,1,1-3.542,3.237,3.237,0,0,1,2.729-1.318A2.913,2.913,0,0,1,6.6,16.352V11.5H9.149V25H6.855l-.123-1.011a2.989,2.989,0,0,1-2.443,1.187A3.228,3.228,0,0,1,1.6,23.853,5.916,5.916,0,0,1,.58,20.175Zm2.54.185a3.744,3.744,0,0,0,.466,2.048,1.518,1.518,0,0,0,1.354.712A1.7,1.7,0,0,0,6.6,22.126V18.373a1.676,1.676,0,0,0-1.644-.993Q3.12,17.38,3.12,20.359ZM15.5,25.176a4.668,4.668,0,0,1-3.406-1.283,4.561,4.561,0,0,1-1.314-3.419v-.246a5.745,5.745,0,0,1,.554-2.562,4.064,4.064,0,0,1,1.569-1.74,4.4,4.4,0,0,1,2.316-.611,3.947,3.947,0,0,1,3.072,1.23,5,5,0,0,1,1.121,3.489v1.037H13.351a2.36,2.36,0,0,0,.743,1.494,2.245,2.245,0,0,0,1.569.563,2.742,2.742,0,0,0,2.294-1.063l1.248,1.4a3.813,3.813,0,0,1-1.547,1.261A5.075,5.075,0,0,1,15.5,25.176Zm-.29-7.8a1.591,1.591,0,0,0-1.226.51,2.634,2.634,0,0,0-.6,1.459H16.91v-.2a1.878,1.878,0,0,0-.457-1.305A1.642,1.642,0,0,0,15.205,17.371Zm9.729,2.8a5.731,5.731,0,0,1,1-3.542,3.237,3.237,0,0,1,2.729-1.318,2.913,2.913,0,0,1,2.294,1.037V11.5H33.5V25H31.21l-.123-1.011a2.989,2.989,0,0,1-2.443,1.187,3.228,3.228,0,0,1-2.694-1.323A5.916,5.916,0,0,1,24.935,20.175Zm2.54.185a3.744,3.744,0,0,0,.466,2.048,1.518,1.518,0,0,0,1.354.712,1.7,1.7,0,0,0,1.661-.993V18.373a1.676,1.676,0,0,0-1.644-.993Q27.475,17.38,27.475,20.359Zm7.6-.2a5.64,5.64,0,0,1,.545-2.522,3.989,3.989,0,0,1,1.569-1.714,4.577,4.577,0,0,1,2.377-.606,4.33,4.33,0,0,1,3.142,1.178,4.727,4.727,0,0,1,1.358,3.2l.018.65a4.97,4.97,0,0,1-1.222,3.511,4.735,4.735,0,0,1-6.561,0,5.058,5.058,0,0,1-1.226-3.586Zm2.54.185a3.545,3.545,0,0,0,.51,2.07,1.833,1.833,0,0,0,2.9.009,3.879,3.879,0,0,0,.519-2.263,3.51,3.51,0,0,0-.519-2.057,1.686,1.686,0,0,0-1.459-.729,1.659,1.659,0,0,0-1.441.725A3.944,3.944,0,0,0,37.617,20.342Zm11.988,2.786a1.666,1.666,0,0,0,1.143-.387,1.355,1.355,0,0,0,.457-1.028h2.382a3.258,3.258,0,0,1-.527,1.771,3.48,3.48,0,0,1-1.419,1.248,4.442,4.442,0,0,1-1.991.444,4.129,4.129,0,0,1-3.217-1.3A5.13,5.13,0,0,1,45.255,20.3v-.167a5.071,5.071,0,0,1,1.169-3.507,4.08,4.08,0,0,1,3.208-1.31,4,4,0,0,1,2.861,1.015,3.594,3.594,0,0,1,1.094,2.7H51.205a1.731,1.731,0,0,0-.457-1.2,1.7,1.7,0,0,0-2.5.185,3.739,3.739,0,0,0-.453,2.1v.264a3.786,3.786,0,0,0,.448,2.109A1.55,1.55,0,0,0,49.605,23.128Zm11.127.905a3.185,3.185,0,0,1-2.6,1.143A3,3,0,0,1,55.8,24.3a3.752,3.752,0,0,1-.822-2.575V15.49h2.54v6.144q0,1.485,1.354,1.485a1.835,1.835,0,0,0,1.775-.9V15.49h2.549V25H60.8Zm6.759-8.543.079,1.063A3.342,3.342,0,0,1,70.3,15.314a2.536,2.536,0,0,1,2.522,1.45,3.265,3.265,0,0,1,2.856-1.45,2.836,2.836,0,0,1,2.3.9,4.141,4.141,0,0,1,.756,2.711V25H76.192V18.936a1.811,1.811,0,0,0-.316-1.182,1.4,1.4,0,0,0-1.116-.374,1.585,1.585,0,0,0-1.582,1.09L73.187,25h-2.54V18.944a1.789,1.789,0,0,0-.325-1.2,1.416,1.416,0,0,0-1.107-.369,1.646,1.646,0,0,0-1.564.9V25h-2.54V15.49Zm17.578,9.686a4.668,4.668,0,0,1-3.406-1.283,4.561,4.561,0,0,1-1.314-3.419v-.246a5.745,5.745,0,0,1,.554-2.562,4.064,4.064,0,0,1,1.569-1.74,4.4,4.4,0,0,1,2.316-.611,3.947,3.947,0,0,1,3.072,1.23,5,5,0,0,1,1.121,3.489v1.037H82.925a2.36,2.36,0,0,0,.743,1.494,2.245,2.245,0,0,0,1.569.563,2.742,2.742,0,0,0,2.294-1.063l1.248,1.4a3.813,3.813,0,0,1-1.547,1.261A5.075,5.075,0,0,1,85.069,25.176Zm-.29-7.8a1.591,1.591,0,0,0-1.226.51,2.634,2.634,0,0,0-.6,1.459h3.533v-.2a1.878,1.878,0,0,0-.457-1.305A1.642,1.642,0,0,0,84.779,17.371Zm7.98-1.881.079,1.1a3.32,3.32,0,0,1,2.733-1.274,2.759,2.759,0,0,1,2.25.888,4.142,4.142,0,0,1,.756,2.654V25h-2.54V18.918a1.648,1.648,0,0,0-.352-1.173,1.574,1.574,0,0,0-1.169-.365,1.747,1.747,0,0,0-1.608.914V25h-2.54V15.49Zm10.784-2.338V15.49h1.626v1.863h-1.626V22.1a1.133,1.133,0,0,0,.2.756,1.015,1.015,0,0,0,.773.229,4.051,4.051,0,0,0,.747-.062v1.925a5.229,5.229,0,0,1-1.538.229,2.425,2.425,0,0,1-2.725-2.7V17.354H99.615V15.49H101V13.152Zm2.382,7a5.64,5.64,0,0,1,.545-2.522,3.989,3.989,0,0,1,1.569-1.714,4.577,4.577,0,0,1,2.377-.606,4.33,4.33,0,0,1,3.142,1.178,4.727,4.727,0,0,1,1.358,3.2l.018.65a4.97,4.97,0,0,1-1.222,3.511,4.735,4.735,0,0,1-6.561,0,5.058,5.058,0,0,1-1.226-3.586Zm2.54.185a3.545,3.545,0,0,0,.51,2.07,1.833,1.833,0,0,0,2.9.009,3.879,3.879,0,0,0,.519-2.263,3.51,3.51,0,0,0-.519-2.057,1.686,1.686,0,0,0-1.459-.729,1.659,1.659,0,0,0-1.441.725A3.944,3.944,0,0,0,108.466,20.342Zm13.184,2.03a.818.818,0,0,0-.461-.734,5.241,5.241,0,0,0-1.481-.479q-3.393-.712-3.393-2.883a2.613,2.613,0,0,1,1.05-2.114,4.237,4.237,0,0,1,2.747-.848,4.56,4.56,0,0,1,2.9.853,2.687,2.687,0,0,1,1.085,2.215h-2.54a1.229,1.229,0,0,0-.352-.9,1.488,1.488,0,0,0-1.1-.356,1.52,1.52,0,0,0-.993.29.916.916,0,0,0-.352.738.783.783,0,0,0,.4.681,4.114,4.114,0,0,0,1.349.448,11.019,11.019,0,0,1,1.6.426,2.628,2.628,0,0,1,2.013,2.558,2.481,2.481,0,0,1-1.116,2.1,4.815,4.815,0,0,1-2.883.8A5.029,5.029,0,0,1,118,24.75a3.561,3.561,0,0,1-1.455-1.169,2.716,2.716,0,0,1-.527-1.6h2.408a1.326,1.326,0,0,0,.5,1.037,1.987,1.987,0,0,0,1.248.36,1.839,1.839,0,0,0,1.1-.277A.861.861,0,0,0,121.649,22.372Z" transform="translate(675 1484)" fill="#12263f"/><path d="M10.775-10.661H6.855V0H4.219V-10.661H.352V-12.8H10.775Zm6.108,3.533a6.9,6.9,0,0,0-.914-.07,1.86,1.86,0,0,0-1.89.976V0H11.54V-9.51h2.4l.07,1.134a2.354,2.354,0,0,1,2.118-1.31,2.662,2.662,0,0,1,.791.114ZM23.353,0A2.821,2.821,0,0,1,23.1-.853,3.073,3.073,0,0,1,20.7.176a3.376,3.376,0,0,1-2.316-.809,2.6,2.6,0,0,1-.918-2.039,2.687,2.687,0,0,1,1.121-2.32,5.529,5.529,0,0,1,3.239-.817h1.169v-.545a1.567,1.567,0,0,0-.338-1.055,1.331,1.331,0,0,0-1.068-.4A1.513,1.513,0,0,0,20.58-7.5a1.045,1.045,0,0,0-.365.844h-2.54a2.551,2.551,0,0,1,.51-1.529,3.37,3.37,0,0,1,1.441-1.1,5.253,5.253,0,0,1,2.092-.4,4.15,4.15,0,0,1,2.791.883,3.09,3.09,0,0,1,1.033,2.483V-2.2a4.546,4.546,0,0,0,.378,2.048V0Zm-2.1-1.767a2.188,2.188,0,0,0,1.037-.25,1.645,1.645,0,0,0,.7-.672V-4.324h-.949q-1.907,0-2.03,1.318L20-2.856a1.017,1.017,0,0,0,.334.782A1.3,1.3,0,0,0,21.252-1.767ZM29.83-9.51l.079,1.1a3.32,3.32,0,0,1,2.733-1.274,2.759,2.759,0,0,1,2.25.888,4.142,4.142,0,0,1,.756,2.654V0h-2.54V-6.082a1.648,1.648,0,0,0-.352-1.173,1.574,1.574,0,0,0-1.169-.365,1.747,1.747,0,0,0-1.608.914V0h-2.54V-9.51ZM42.724-2.628a.818.818,0,0,0-.461-.734,5.241,5.241,0,0,0-1.481-.479q-3.393-.712-3.393-2.883a2.613,2.613,0,0,1,1.05-2.114,4.237,4.237,0,0,1,2.747-.848,4.56,4.56,0,0,1,2.9.853,2.687,2.687,0,0,1,1.085,2.215h-2.54a1.229,1.229,0,0,0-.352-.9,1.488,1.488,0,0,0-1.1-.356,1.52,1.52,0,0,0-.993.29.916.916,0,0,0-.352.738.783.783,0,0,0,.4.681,4.114,4.114,0,0,0,1.349.448,11.019,11.019,0,0,1,1.6.426,2.628,2.628,0,0,1,2.013,2.558,2.481,2.481,0,0,1-1.116,2.1,4.815,4.815,0,0,1-2.883.8A5.029,5.029,0,0,1,39.072-.25a3.561,3.561,0,0,1-1.455-1.169,2.716,2.716,0,0,1-.527-1.6H39.5A1.326,1.326,0,0,0,40-1.986a1.987,1.987,0,0,0,1.248.36,1.839,1.839,0,0,0,1.1-.277A.861.861,0,0,0,42.724-2.628ZM47.522,0V-7.646H46.107V-9.51h1.415v-.809a3.283,3.283,0,0,1,.918-2.483,3.557,3.557,0,0,1,2.571-.883,5.938,5.938,0,0,1,1.292.176l-.026,1.969a3.238,3.238,0,0,0-.773-.079q-1.433,0-1.433,1.345v.765h1.89v1.863h-1.89V0Zm9.923.176A4.668,4.668,0,0,1,54.04-1.107a4.561,4.561,0,0,1-1.314-3.419v-.246a5.745,5.745,0,0,1,.554-2.562,4.064,4.064,0,0,1,1.569-1.74,4.4,4.4,0,0,1,2.316-.611,3.947,3.947,0,0,1,3.072,1.23,5,5,0,0,1,1.121,3.489v1.037H55.3a2.36,2.36,0,0,0,.743,1.494,2.245,2.245,0,0,0,1.569.563,2.742,2.742,0,0,0,2.294-1.063l1.248,1.4A3.813,3.813,0,0,1,59.607-.277,5.075,5.075,0,0,1,57.445.176Zm-.29-7.8a1.591,1.591,0,0,0-1.226.51,2.634,2.634,0,0,0-.6,1.459H58.86v-.2A1.878,1.878,0,0,0,58.4-7.167,1.642,1.642,0,0,0,57.155-7.629Zm10.986.5a6.9,6.9,0,0,0-.914-.07,1.86,1.86,0,0,0-1.89.976V0H62.8V-9.51h2.4l.07,1.134a2.354,2.354,0,0,1,2.118-1.31,2.662,2.662,0,0,1,.791.114Zm5.432,7.3a4.668,4.668,0,0,1-3.406-1.283,4.561,4.561,0,0,1-1.314-3.419v-.246a5.745,5.745,0,0,1,.554-2.562,4.064,4.064,0,0,1,1.569-1.74,4.4,4.4,0,0,1,2.316-.611,3.947,3.947,0,0,1,3.072,1.23,5,5,0,0,1,1.121,3.489v1.037H71.429a2.36,2.36,0,0,0,.743,1.494,2.245,2.245,0,0,0,1.569.563,2.742,2.742,0,0,0,2.294-1.063l1.248,1.4A3.813,3.813,0,0,1,75.735-.277,5.075,5.075,0,0,1,73.573.176Zm-.29-7.8a1.591,1.591,0,0,0-1.226.51,2.634,2.634,0,0,0-.6,1.459h3.533v-.2a1.878,1.878,0,0,0-.457-1.305A1.642,1.642,0,0,0,73.283-7.629Zm7.98-1.881.079,1.1a3.32,3.32,0,0,1,2.733-1.274,2.759,2.759,0,0,1,2.25.888,4.142,4.142,0,0,1,.756,2.654V0h-2.54V-6.082a1.648,1.648,0,0,0-.352-1.173,1.574,1.574,0,0,0-1.169-.365,1.747,1.747,0,0,0-1.608.914V0h-2.54V-9.51Zm11.7,7.638A1.666,1.666,0,0,0,94.1-2.259a1.355,1.355,0,0,0,.457-1.028h2.382a3.258,3.258,0,0,1-.527,1.771A3.48,3.48,0,0,1,95-.268a4.442,4.442,0,0,1-1.991.444,4.129,4.129,0,0,1-3.217-1.3A5.13,5.13,0,0,1,88.611-4.7v-.167A5.071,5.071,0,0,1,89.78-8.376a4.08,4.08,0,0,1,3.208-1.31A4,4,0,0,1,95.849-8.67a3.594,3.594,0,0,1,1.094,2.7H94.562a1.731,1.731,0,0,0-.457-1.2,1.528,1.528,0,0,0-1.16-.461,1.531,1.531,0,0,0-1.34.646,3.739,3.739,0,0,0-.453,2.1v.264A3.786,3.786,0,0,0,91.6-2.514,1.55,1.55,0,0,0,92.962-1.872ZM101.074,0H98.525V-9.51h2.549Zm-2.7-11.971a1.251,1.251,0,0,1,.382-.94A1.436,1.436,0,0,1,99.8-13.28a1.44,1.44,0,0,1,1.037.369,1.244,1.244,0,0,1,.387.94,1.247,1.247,0,0,1-.391.949,1.443,1.443,0,0,1-1.033.369,1.443,1.443,0,0,1-1.033-.369A1.247,1.247,0,0,1,98.376-11.971ZM108.677,0a2.821,2.821,0,0,1-.255-.853,3.073,3.073,0,0,1-2.4,1.028,3.376,3.376,0,0,1-2.316-.809,2.6,2.6,0,0,1-.918-2.039,2.687,2.687,0,0,1,1.121-2.32,5.529,5.529,0,0,1,3.239-.817h1.169v-.545a1.567,1.567,0,0,0-.338-1.055,1.331,1.331,0,0,0-1.068-.4A1.513,1.513,0,0,0,105.9-7.5a1.045,1.045,0,0,0-.365.844H103a2.551,2.551,0,0,1,.51-1.529,3.37,3.37,0,0,1,1.441-1.1,5.253,5.253,0,0,1,2.092-.4,4.15,4.15,0,0,1,2.791.883,3.09,3.09,0,0,1,1.033,2.483V-2.2a4.546,4.546,0,0,0,.378,2.048V0Zm-2.1-1.767a2.188,2.188,0,0,0,1.037-.25,1.645,1.645,0,0,0,.7-.672V-4.324h-.949q-1.907,0-2.03,1.318l-.009.149a1.017,1.017,0,0,0,.334.782A1.3,1.3,0,0,0,106.576-1.767Z" transform="translate(852 1487)" fill="#12263f"/><path d="M3.779-4.509V0H1.143V-12.8H6.135a5.776,5.776,0,0,1,2.536.527,3.886,3.886,0,0,1,1.683,1.5,4.178,4.178,0,0,1,.589,2.21A3.674,3.674,0,0,1,9.655-5.594,5.363,5.363,0,0,1,6.091-4.509Zm0-2.136H6.135a2.316,2.316,0,0,0,1.6-.492,1.79,1.79,0,0,0,.549-1.406,2.111,2.111,0,0,0-.554-1.521,2.068,2.068,0,0,0-1.529-.6H3.779Zm14.15-.483a6.9,6.9,0,0,0-.914-.07,1.86,1.86,0,0,0-1.89.976V0h-2.54V-9.51h2.4l.07,1.134a2.354,2.354,0,0,1,2.118-1.31,2.662,2.662,0,0,1,.791.114Zm5.432,7.3a4.668,4.668,0,0,1-3.406-1.283,4.561,4.561,0,0,1-1.314-3.419v-.246A5.745,5.745,0,0,1,19.2-7.334a4.064,4.064,0,0,1,1.569-1.74,4.4,4.4,0,0,1,2.316-.611,3.947,3.947,0,0,1,3.072,1.23,5,5,0,0,1,1.121,3.489v1.037H21.217a2.36,2.36,0,0,0,.743,1.494,2.245,2.245,0,0,0,1.569.563,2.742,2.742,0,0,0,2.294-1.063l1.248,1.4A3.813,3.813,0,0,1,25.523-.277,5.075,5.075,0,0,1,23.361.176Zm-.29-7.8a1.591,1.591,0,0,0-1.226.51,2.634,2.634,0,0,0-.6,1.459h3.533v-.2a1.878,1.878,0,0,0-.457-1.305A1.642,1.642,0,0,0,23.071-7.629Zm10.793,5a.818.818,0,0,0-.461-.734,5.241,5.241,0,0,0-1.481-.479q-3.393-.712-3.393-2.883a2.613,2.613,0,0,1,1.05-2.114,4.237,4.237,0,0,1,2.747-.848,4.56,4.56,0,0,1,2.9.853,2.687,2.687,0,0,1,1.085,2.215h-2.54a1.229,1.229,0,0,0-.352-.9,1.488,1.488,0,0,0-1.1-.356,1.52,1.52,0,0,0-.993.29.916.916,0,0,0-.352.738.783.783,0,0,0,.4.681,4.114,4.114,0,0,0,1.349.448,11.019,11.019,0,0,1,1.6.426,2.628,2.628,0,0,1,2.013,2.558,2.481,2.481,0,0,1-1.116,2.1,4.815,4.815,0,0,1-2.883.8A5.029,5.029,0,0,1,30.212-.25a3.561,3.561,0,0,1-1.455-1.169,2.716,2.716,0,0,1-.527-1.6h2.408a1.326,1.326,0,0,0,.5,1.037,1.987,1.987,0,0,0,1.248.36,1.839,1.839,0,0,0,1.1-.277A.861.861,0,0,0,33.864-2.628Zm8.481,2.8A4.668,4.668,0,0,1,38.94-1.107a4.561,4.561,0,0,1-1.314-3.419v-.246a5.745,5.745,0,0,1,.554-2.562,4.064,4.064,0,0,1,1.569-1.74,4.4,4.4,0,0,1,2.316-.611,3.947,3.947,0,0,1,3.072,1.23,5,5,0,0,1,1.121,3.489v1.037H40.2a2.36,2.36,0,0,0,.743,1.494,2.245,2.245,0,0,0,1.569.563,2.742,2.742,0,0,0,2.294-1.063l1.248,1.4A3.813,3.813,0,0,1,44.508-.277,5.075,5.075,0,0,1,42.346.176Zm-.29-7.8a1.591,1.591,0,0,0-1.226.51,2.634,2.634,0,0,0-.6,1.459h3.533v-.2A1.878,1.878,0,0,0,43.3-7.167,1.642,1.642,0,0,0,42.056-7.629Zm10.986.5a6.9,6.9,0,0,0-.914-.07,1.86,1.86,0,0,0-1.89.976V0H47.7V-9.51h2.4l.07,1.134a2.354,2.354,0,0,1,2.118-1.31,2.662,2.662,0,0,1,.791.114ZM57.981-3.1,59.748-9.51H62.4L59.194,0H56.769L53.561-9.51h2.654ZM68.9,0a2.821,2.821,0,0,1-.255-.853,3.073,3.073,0,0,1-2.4,1.028,3.376,3.376,0,0,1-2.316-.809,2.6,2.6,0,0,1-.918-2.039,2.687,2.687,0,0,1,1.121-2.32,5.529,5.529,0,0,1,3.239-.817h1.169v-.545A1.567,1.567,0,0,0,68.2-7.409a1.331,1.331,0,0,0-1.068-.4,1.513,1.513,0,0,0-1.006.308,1.045,1.045,0,0,0-.365.844H63.22a2.551,2.551,0,0,1,.51-1.529,3.37,3.37,0,0,1,1.441-1.1,5.253,5.253,0,0,1,2.092-.4,4.15,4.15,0,0,1,2.791.883,3.09,3.09,0,0,1,1.033,2.483V-2.2a4.546,4.546,0,0,0,.378,2.048V0ZM66.8-1.767a2.188,2.188,0,0,0,1.037-.25,1.645,1.645,0,0,0,.7-.672V-4.324h-.949q-1.907,0-2.03,1.318l-.009.149a1.017,1.017,0,0,0,.334.782A1.3,1.3,0,0,0,66.8-1.767Zm10.2-.105a1.666,1.666,0,0,0,1.143-.387,1.355,1.355,0,0,0,.457-1.028h2.382a3.258,3.258,0,0,1-.527,1.771A3.48,3.48,0,0,1,79.027-.268a4.442,4.442,0,0,1-1.991.444,4.129,4.129,0,0,1-3.217-1.3A5.13,5.13,0,0,1,72.642-4.7v-.167a5.071,5.071,0,0,1,1.169-3.507,4.08,4.08,0,0,1,3.208-1.31A4,4,0,0,1,79.879-8.67a3.594,3.594,0,0,1,1.094,2.7H78.592a1.731,1.731,0,0,0-.457-1.2,1.528,1.528,0,0,0-1.16-.461,1.531,1.531,0,0,0-1.34.646,3.739,3.739,0,0,0-.453,2.1v.264a3.786,3.786,0,0,0,.448,2.109A1.55,1.55,0,0,0,76.992-1.872ZM85.1,0H82.556V-9.51H85.1Zm-2.7-11.971a1.251,1.251,0,0,1,.382-.94,1.436,1.436,0,0,1,1.042-.369,1.44,1.44,0,0,1,1.037.369,1.244,1.244,0,0,1,.387.94,1.247,1.247,0,0,1-.391.949,1.443,1.443,0,0,1-1.033.369,1.443,1.443,0,0,1-1.033-.369A1.247,1.247,0,0,1,82.406-11.971ZM86.8-4.843a5.64,5.64,0,0,1,.545-2.522,3.989,3.989,0,0,1,1.569-1.714,4.577,4.577,0,0,1,2.377-.606,4.33,4.33,0,0,1,3.142,1.178,4.727,4.727,0,0,1,1.358,3.2l.018.65a4.97,4.97,0,0,1-1.222,3.511A4.247,4.247,0,0,1,91.31.176a4.268,4.268,0,0,1-3.283-1.318A5.058,5.058,0,0,1,86.8-4.729Zm2.54.185a3.545,3.545,0,0,0,.51,2.07,1.682,1.682,0,0,0,1.459.716,1.686,1.686,0,0,0,1.441-.708,3.879,3.879,0,0,0,.519-2.263A3.51,3.51,0,0,0,92.751-6.9a1.686,1.686,0,0,0-1.459-.729,1.659,1.659,0,0,0-1.441.725A3.944,3.944,0,0,0,89.341-4.658ZM91.793-13.5h2.769l-2.435,2.725H90.062Zm7.919,3.99.079,1.1a3.32,3.32,0,0,1,2.733-1.274,2.759,2.759,0,0,1,2.25.888,4.142,4.142,0,0,1,.756,2.654V0h-2.54V-6.082a1.648,1.648,0,0,0-.352-1.173,1.574,1.574,0,0,0-1.169-.365,1.747,1.747,0,0,0-1.608.914V0h-2.54V-9.51ZM6.486,25a2.821,2.821,0,0,1-.255-.853,3.073,3.073,0,0,1-2.4,1.028,3.376,3.376,0,0,1-2.316-.809A2.6,2.6,0,0,1,.6,22.328a2.687,2.687,0,0,1,1.121-2.32,5.529,5.529,0,0,1,3.239-.817H6.126v-.545a1.567,1.567,0,0,0-.338-1.055,1.331,1.331,0,0,0-1.068-.4,1.513,1.513,0,0,0-1.006.308,1.045,1.045,0,0,0-.365.844H.809a2.551,2.551,0,0,1,.51-1.529,3.37,3.37,0,0,1,1.441-1.1,5.253,5.253,0,0,1,2.092-.4,4.15,4.15,0,0,1,2.791.883,3.09,3.09,0,0,1,1.033,2.483V22.8a4.546,4.546,0,0,0,.378,2.048V25Zm-2.1-1.767a2.188,2.188,0,0,0,1.037-.25,1.645,1.645,0,0,0,.7-.672V20.676H5.177q-1.907,0-2.03,1.318l-.009.149a1.017,1.017,0,0,0,.334.782A1.3,1.3,0,0,0,4.386,23.233ZM17.789,25H15.24V11.5h2.549Zm7.6,0a2.821,2.821,0,0,1-.255-.853,3.073,3.073,0,0,1-2.4,1.028,3.376,3.376,0,0,1-2.316-.809,2.6,2.6,0,0,1-.918-2.039,2.687,2.687,0,0,1,1.121-2.32,5.529,5.529,0,0,1,3.239-.817h1.169v-.545a1.567,1.567,0,0,0-.338-1.055,1.331,1.331,0,0,0-1.068-.4,1.513,1.513,0,0,0-1.006.308,1.045,1.045,0,0,0-.365.844h-2.54a2.551,2.551,0,0,1,.51-1.529,3.37,3.37,0,0,1,1.441-1.1,5.253,5.253,0,0,1,2.092-.4,4.15,4.15,0,0,1,2.791.883,3.09,3.09,0,0,1,1.033,2.483V22.8a4.546,4.546,0,0,0,.378,2.048V25Zm-2.1-1.767a2.188,2.188,0,0,0,1.037-.25,1.645,1.645,0,0,0,.7-.672V20.676h-.949q-1.907,0-2.03,1.318l-.009.149a1.017,1.017,0,0,0,.334.782A1.3,1.3,0,0,0,23.291,23.233Zm11.584-5.361a6.9,6.9,0,0,0-.914-.07,1.86,1.86,0,0,0-1.89.976V25h-2.54V15.49h2.4L32,16.624a2.354,2.354,0,0,1,2.118-1.31,2.662,2.662,0,0,1,.791.114Zm.686,2.3A5.573,5.573,0,0,1,36.6,16.65a3.375,3.375,0,0,1,2.808-1.336,2.96,2.96,0,0,1,2.435,1.072l.105-.9h2.3v9.193a4.064,4.064,0,0,1-.567,2.171,3.641,3.641,0,0,1-1.6,1.406,5.608,5.608,0,0,1-2.408.483,5.215,5.215,0,0,1-2.039-.417,3.619,3.619,0,0,1-1.5-1.077L37.266,25.7a2.975,2.975,0,0,0,2.3,1.063,2.178,2.178,0,0,0,1.573-.541,2.027,2.027,0,0,0,.563-1.534v-.51a2.938,2.938,0,0,1-2.312.993,3.366,3.366,0,0,1-2.773-1.34,5.572,5.572,0,0,1-1.059-3.555Zm2.54.185a3.461,3.461,0,0,0,.519,2.026,1.65,1.65,0,0,0,1.424.734,1.764,1.764,0,0,0,1.661-.87v-4a1.76,1.76,0,0,0-1.644-.87,1.661,1.661,0,0,0-1.437.747A3.9,3.9,0,0,0,38.1,20.359Zm7.708-.2a5.64,5.64,0,0,1,.545-2.522,3.989,3.989,0,0,1,1.569-1.714,4.577,4.577,0,0,1,2.377-.606,4.33,4.33,0,0,1,3.142,1.178,4.727,4.727,0,0,1,1.358,3.2l.018.65A4.97,4.97,0,0,1,53.6,23.853a4.735,4.735,0,0,1-6.561,0,5.058,5.058,0,0,1-1.226-3.586Zm2.54.185a3.545,3.545,0,0,0,.51,2.07,1.833,1.833,0,0,0,2.9.009,3.879,3.879,0,0,0,.519-2.263,3.51,3.51,0,0,0-.519-2.057,1.686,1.686,0,0,0-1.459-.729,1.659,1.659,0,0,0-1.441.725A3.944,3.944,0,0,0,48.349,20.342Zm21.076-.009a5.7,5.7,0,0,1-1,3.52,3.2,3.2,0,0,1-2.694,1.323,2.963,2.963,0,0,1-2.329-1v4.482h-2.54V15.49H63.22l.088.932a2.985,2.985,0,0,1,2.408-1.107,3.22,3.22,0,0,1,2.733,1.3,5.858,5.858,0,0,1,.976,3.586Zm-2.54-.185a3.743,3.743,0,0,0-.47-2.048,1.532,1.532,0,0,0-1.367-.721,1.663,1.663,0,0,0-1.644.914v3.894a1.692,1.692,0,0,0,1.661.94Q66.885,23.128,66.885,20.148ZM73.679,25H71.13V11.5h2.549Zm7.6,0a2.821,2.821,0,0,1-.255-.853,3.073,3.073,0,0,1-2.4,1.028,3.376,3.376,0,0,1-2.316-.809,2.6,2.6,0,0,1-.918-2.039,2.687,2.687,0,0,1,1.121-2.32,5.529,5.529,0,0,1,3.239-.817h1.169v-.545a1.567,1.567,0,0,0-.338-1.055,1.331,1.331,0,0,0-1.068-.4,1.513,1.513,0,0,0-1.006.308,1.045,1.045,0,0,0-.365.844H75.6a2.551,2.551,0,0,1,.51-1.529,3.37,3.37,0,0,1,1.441-1.1,5.253,5.253,0,0,1,2.092-.4,4.15,4.15,0,0,1,2.791.883,3.09,3.09,0,0,1,1.033,2.483V22.8a4.546,4.546,0,0,0,.378,2.048V25Zm-2.1-1.767a2.188,2.188,0,0,0,1.037-.25,1.645,1.645,0,0,0,.7-.672V20.676h-.949q-1.907,0-2.03,1.318l-.009.149a1.017,1.017,0,0,0,.334.782A1.3,1.3,0,0,0,79.181,23.233Zm9.158-.281h4.649V25H85.1V23.453l4.474-5.906H85.228V15.49h7.62v1.5Zm5.7-2.795a5.64,5.64,0,0,1,.545-2.522,3.989,3.989,0,0,1,1.569-1.714,4.577,4.577,0,0,1,2.377-.606,4.33,4.33,0,0,1,3.142,1.178,4.727,4.727,0,0,1,1.358,3.2l.018.65a4.97,4.97,0,0,1-1.222,3.511,4.735,4.735,0,0,1-6.561,0,5.058,5.058,0,0,1-1.226-3.586Zm2.54.185a3.545,3.545,0,0,0,.51,2.07,1.833,1.833,0,0,0,2.9.009,3.879,3.879,0,0,0,.519-2.263,3.51,3.51,0,0,0-.519-2.057,1.686,1.686,0,0,0-1.459-.729,1.659,1.659,0,0,0-1.441.725A3.944,3.944,0,0,0,96.583,20.342Z" transform="translate(509 1374)" fill="#12263f"/><path d="M5.871-3.173l2.9-9.624h2.936L7.251,0H4.5L.062-12.8H2.988ZM17.851,0A2.821,2.821,0,0,1,17.6-.853,3.073,3.073,0,0,1,15.2.176,3.376,3.376,0,0,1,12.88-.633a2.6,2.6,0,0,1-.918-2.039,2.687,2.687,0,0,1,1.121-2.32,5.529,5.529,0,0,1,3.239-.817H17.49v-.545a1.567,1.567,0,0,0-.338-1.055,1.331,1.331,0,0,0-1.068-.4,1.513,1.513,0,0,0-1.006.308,1.045,1.045,0,0,0-.365.844h-2.54a2.551,2.551,0,0,1,.51-1.529,3.37,3.37,0,0,1,1.441-1.1,5.253,5.253,0,0,1,2.092-.4,4.15,4.15,0,0,1,2.791.883,3.09,3.09,0,0,1,1.033,2.483V-2.2a4.546,4.546,0,0,0,.378,2.048V0Zm-2.1-1.767a2.188,2.188,0,0,0,1.037-.25,1.645,1.645,0,0,0,.7-.672V-4.324h-.949q-1.907,0-2.03,1.318l-.009.149a1.017,1.017,0,0,0,.334.782A1.3,1.3,0,0,0,15.75-1.767ZM24.671,0H22.122V-13.5h2.549Zm1.7-4.843a5.64,5.64,0,0,1,.545-2.522,3.989,3.989,0,0,1,1.569-1.714,4.577,4.577,0,0,1,2.377-.606A4.33,4.33,0,0,1,34-8.508a4.727,4.727,0,0,1,1.358,3.2l.018.65a4.97,4.97,0,0,1-1.222,3.511A4.247,4.247,0,0,1,30.876.176a4.268,4.268,0,0,1-3.283-1.318,5.058,5.058,0,0,1-1.226-3.586Zm2.54.185a3.545,3.545,0,0,0,.51,2.07,1.682,1.682,0,0,0,1.459.716,1.686,1.686,0,0,0,1.441-.708,3.879,3.879,0,0,0,.519-2.263A3.51,3.51,0,0,0,32.317-6.9a1.686,1.686,0,0,0-1.459-.729,1.659,1.659,0,0,0-1.441.725A3.944,3.944,0,0,0,28.907-4.658Zm13.377-2.47a6.9,6.9,0,0,0-.914-.07,1.86,1.86,0,0,0-1.89.976V0H36.94V-9.51h2.4l.07,1.134a2.354,2.354,0,0,1,2.118-1.31,2.662,2.662,0,0,1,.791.114ZM48.753,0A2.821,2.821,0,0,1,48.5-.853,3.073,3.073,0,0,1,46.1.176a3.376,3.376,0,0,1-2.316-.809,2.6,2.6,0,0,1-.918-2.039,2.687,2.687,0,0,1,1.121-2.32,5.529,5.529,0,0,1,3.239-.817h1.169v-.545a1.567,1.567,0,0,0-.338-1.055,1.331,1.331,0,0,0-1.068-.4A1.513,1.513,0,0,0,45.98-7.5a1.045,1.045,0,0,0-.365.844h-2.54a2.551,2.551,0,0,1,.51-1.529,3.37,3.37,0,0,1,1.441-1.1,5.253,5.253,0,0,1,2.092-.4,4.15,4.15,0,0,1,2.791.883,3.09,3.09,0,0,1,1.033,2.483V-2.2a4.546,4.546,0,0,0,.378,2.048V0Zm-2.1-1.767a2.188,2.188,0,0,0,1.037-.25,1.645,1.645,0,0,0,.7-.672V-4.324h-.949q-1.907,0-2.03,1.318l-.009.149a1.017,1.017,0,0,0,.334.782A1.3,1.3,0,0,0,46.652-1.767Zm10.2-.105a1.666,1.666,0,0,0,1.143-.387,1.355,1.355,0,0,0,.457-1.028h2.382A3.258,3.258,0,0,1,60.3-1.516,3.48,3.48,0,0,1,58.882-.268a4.442,4.442,0,0,1-1.991.444,4.129,4.129,0,0,1-3.217-1.3A5.13,5.13,0,0,1,52.5-4.7v-.167a5.071,5.071,0,0,1,1.169-3.507,4.08,4.08,0,0,1,3.208-1.31A4,4,0,0,1,59.735-8.67a3.594,3.594,0,0,1,1.094,2.7H58.447a1.731,1.731,0,0,0-.457-1.2,1.528,1.528,0,0,0-1.16-.461,1.531,1.531,0,0,0-1.34.646,3.739,3.739,0,0,0-.453,2.1v.264a3.786,3.786,0,0,0,.448,2.109A1.55,1.55,0,0,0,56.848-1.872ZM64.96,0H62.411V-9.51H64.96Zm-2.7-11.971a1.251,1.251,0,0,1,.382-.94,1.436,1.436,0,0,1,1.042-.369,1.44,1.44,0,0,1,1.037.369,1.244,1.244,0,0,1,.387.94,1.247,1.247,0,0,1-.391.949,1.443,1.443,0,0,1-1.033.369,1.443,1.443,0,0,1-1.033-.369A1.247,1.247,0,0,1,62.262-11.971Zm4.395,7.128A5.64,5.64,0,0,1,67.2-7.365,3.989,3.989,0,0,1,68.77-9.079a4.577,4.577,0,0,1,2.377-.606A4.33,4.33,0,0,1,74.29-8.508a4.727,4.727,0,0,1,1.358,3.2l.018.65a4.97,4.97,0,0,1-1.222,3.511A4.247,4.247,0,0,1,71.165.176a4.268,4.268,0,0,1-3.283-1.318,5.058,5.058,0,0,1-1.226-3.586Zm2.54.185a3.545,3.545,0,0,0,.51,2.07,1.682,1.682,0,0,0,1.459.716,1.686,1.686,0,0,0,1.441-.708,3.879,3.879,0,0,0,.519-2.263A3.51,3.51,0,0,0,72.606-6.9a1.686,1.686,0,0,0-1.459-.729,1.659,1.659,0,0,0-1.441.725A3.944,3.944,0,0,0,69.2-4.658ZM71.648-13.5h2.769l-2.435,2.725H69.917Zm7.919,3.99.079,1.1A3.32,3.32,0,0,1,82.38-9.686a2.759,2.759,0,0,1,2.25.888,4.142,4.142,0,0,1,.756,2.654V0h-2.54V-6.082a1.648,1.648,0,0,0-.352-1.173,1.574,1.574,0,0,0-1.169-.365,1.747,1.747,0,0,0-1.608.914V0h-2.54V-9.51Z" transform="translate(506 1177)" fill="#12263f"/><g transform="translate(658 1135)"><g clip-path="url(#a)"><g clip-path="url(#a)"><path d="M114.907,232.344c-49.613-22.1-66.346-91.6-46.338-141.97,22.189-55.866,82.687-70.886,93.083-73.247,36.17-8.21,99.335-6.945,124.354,34.778,27.806,46.371-12.016,108.509-39.482,136.528-7.2,7.345-71.2,70.828-131.617,43.911" transform="translate(-34.879 -7.593)" fill="#ecf3fe"/><path d="M348.906,201.589,239.194,167.936l.12-.435,27.527-99.752.414.07L380.511,87.087ZM240.329,167.313l107.937,33.109L379.343,87.83,267.512,68.805Z" transform="translate(-138.315 -39.176)" fill="#444"/><path d="M60.933,413.312l-.219-.409L22.9,342.371l44.177-23.685,38.033,70.941ZM24.157,342.75l37.156,69.305,42.541-22.808L66.7,319.942Z" transform="translate(-13.242 -184.281)" fill="#444"/><g transform="translate(201.397 85.739)" opacity="0.2" style="mix-blend-mode:multiply;isolation:isolate"><g clip-path="url(#c)"><path d="M537.717,242.667a30.711,30.711,0,1,1-20.813-38.12,30.711,30.711,0,0,1,20.813,38.12" transform="translate(-477.531 -203.294)" fill="#3a7ec1"/></g></g><path d="M530.507,242.667a30.711,30.711,0,1,1-20.813-38.12,30.711,30.711,0,0,1,20.813,38.12" transform="translate(-271.965 -117.556)" fill="#f9c067"/><g transform="translate(203.197 54.178)" opacity="0.2" style="mix-blend-mode:multiply;isolation:isolate"><g clip-path="url(#d)"><path d="M481.8,230.277s32.632-99.96,31.7-99.96S502.6,128.46,502.6,128.46Z" transform="translate(-481.799 -128.46)" fill="#3a7ec1"/></g></g><g transform="translate(143.003 138.65)" style="mix-blend-mode:multiply;isolation:isolate"><g clip-path="url(#e)"><path d="M339.073,401.244,377.828,339.6l-38.755-10.851Z" transform="translate(-339.073 -328.751)" fill="#ebf5e7"/></g></g><path d="M80.954,385.779,37.595,409.025,0,338.9l37.434-20.069,5.925-3.177,7.159,13.35Z" transform="translate(0 -182.529)" fill="#47b5ab"/><path d="M44.912,403.194a4.409,4.409,0,1,1-5.969-1.8,4.409,4.409,0,0,1,5.969,1.8" transform="translate(-21.173 -231.803)" fill="#b3cef6"/><path d="M84.589,373.521l-21.639,11.6a1.835,1.835,0,1,1-1.734-3.234l21.639-11.6a1.835,1.835,0,1,1,1.734,3.234" transform="translate(-34.838 -213.993)" fill="#b3cef6"/><path d="M59.967,431.276a4.409,4.409,0,1,1-5.969-1.8,4.409,4.409,0,0,1,5.969,1.8" transform="translate(-29.879 -248.041)" fill="#b3cef6"/><path d="M99.644,401.6,78,413.2a1.835,1.835,0,1,1-1.734-3.234l21.639-11.6a1.835,1.835,0,1,1,1.734,3.234" transform="translate(-43.544 -230.232)" fill="#b3cef6"/><path d="M75.022,459.357a4.409,4.409,0,1,1-5.969-1.8,4.409,4.409,0,0,1,5.969,1.8" transform="translate(-38.585 -264.279)" fill="#b3cef6"/><path d="M114.7,429.684l-21.639,11.6a1.835,1.835,0,1,1-1.734-3.234l21.639-11.6a1.835,1.835,0,1,1,1.734,3.234" transform="translate(-52.249 -246.47)" fill="#b3cef6"/><path d="M90.077,487.439a4.409,4.409,0,1,1-5.969-1.8,4.409,4.409,0,0,1,5.969,1.8" transform="translate(-47.29 -280.517)" fill="#b3cef6"/><path d="M129.754,457.766l-21.639,11.6a1.835,1.835,0,1,1-1.734-3.234l21.639-11.6a1.834,1.834,0,0,1,2.484.75h0a1.835,1.835,0,0,1-.75,2.484" transform="translate(-60.955 -262.708)" fill="#b3cef6"/><g transform="translate(33.318 133.127)" opacity="0.2" style="mix-blend-mode:multiply;isolation:isolate"><g clip-path="url(#f)"><path d="M96.2,329.006l-5.79,11.58-2.845,5.69-7.572,15.142L79,363.4l.141-1.527,1.077-11.661.4-4.381,1.081-11.7.234-2.544.3-3.249.148-1.608.731-7.9,5.925-3.177Z" transform="translate(-78.999 -315.655)" fill="#3a7ec1"/></g></g><path d="M506.929,276.086a4.319,4.319,0,0,1-2.924-1.561l-8.295-10.1a4.331,4.331,0,1,1,6.694-5.5l5.545,6.75,17.266-14.186a4.331,4.331,0,0,1,5.5,6.693L510.1,275.122a4.32,4.32,0,0,1-3.172.964" transform="translate(-286.076 -144.858)" fill="#fff"/><g transform="translate(134.952 149.83)" opacity="0.28"><g clip-path="url(#g)"><path d="M340.373,374.834a11.711,11.711,0,1,1-.815-16.541,11.711,11.711,0,0,1,.815,16.541" transform="translate(-319.983 -355.26)" fill="#f2f2f2"/></g></g><path d="M367.835,95.559,339.2,199.288a9.2,9.2,0,1,1-17.731-4.893l5.185-18.786L234.7,150.234l20.381-73.856Z" transform="translate(-135.718 -44.166)" fill="#fff"/><g transform="translate(113.912 43.603)" opacity="0.2" style="mix-blend-mode:multiply;isolation:isolate"><g clip-path="url(#h)"><path d="M351.6,131.756l-.64,2.32L270.1,111.76l2.31-8.373c13.8,4.889,79.2,28.369,79.2,28.369" transform="translate(-270.097 -103.387)" fill="#3a7ec1"/></g></g><g transform="translate(180.601 74.003)" opacity="0.2" style="mix-blend-mode:multiply;isolation:isolate"><g clip-path="url(#i)"><path d="M448.375,175.919a12.444,12.444,0,0,0-8.15.52l-12.005,43.5,12.93,3.568-7.777,28.183c-.926,3.356-.413,6.64,1.118,8.683,2.386-.989,4.547-3.621,5.5-7.068l7.723-27.987,9.238-33.479.151-.544a12.5,12.5,0,0,0-8.727-15.379" transform="translate(-428.22 -175.467)" fill="#3a7ec1"/></g></g><path d="M309.311,226.275l-97.32-26.856a12.829,12.829,0,0,1-8.953-15.781l19.785-71.695,76.715,21.17-3.326,12.053a12.447,12.447,0,0,1,4.988-6.989c.289-.2.588-.386.894-.56a12.5,12.5,0,0,1,18.225,14.2l-17.424,63.143a9.2,9.2,0,0,0,6.418,11.314" transform="translate(-117.138 -64.731)" fill="#ffce7e"/><path d="M395.426,258.1l-17.945-4.952,19.948-72.288a12.419,12.419,0,0,1,4.911-6.709,12.533,12.533,0,0,1,8.045,15.164l-16.7,60.521a9.192,9.192,0,0,0,1.742,8.264" transform="translate(-218.279 -100.703)" fill="#ff854e"/><path d="M188.683,267.305,224.753,136.6a12.506,12.506,0,0,1,15.381-8.728L130.354,97.575a12.411,12.411,0,0,0-15.263,8.663L79,237.037Z" transform="translate(-45.68 -56.163)" fill="#fff"/><path d="M190.254,155.6a5.909,5.909,0,1,1-4.124-7.268,5.908,5.908,0,0,1,4.124,7.268" transform="translate(-103.304 -85.65)" fill="#e4ecf9"/><path d="M286.8,188.227,218.938,169.5a2.9,2.9,0,0,1-2.018-3.556l.034-.122a2.9,2.9,0,0,1,3.556-2.018l67.859,18.726a2.9,2.9,0,0,1,2.018,3.556l-.034.122a2.9,2.9,0,0,1-3.556,2.018" transform="translate(-125.375 -94.661)" fill="#e4ecf9"/><path d="M177.478,201.9a5.909,5.909,0,1,1-4.124-7.268,5.908,5.908,0,0,1,4.124,7.268" transform="translate(-95.916 -112.424)" fill="#e4ecf9"/><path d="M274.021,234.528,206.162,215.8a2.9,2.9,0,0,1-2.018-3.556l.034-.122a2.9,2.9,0,0,1,3.556-2.018l67.859,18.726a2.9,2.9,0,0,1,2.017,3.556l-.033.122a2.9,2.9,0,0,1-3.556,2.018" transform="translate(-117.987 -121.435)" fill="#e4ecf9"/><path d="M164.7,248.2a5.909,5.909,0,1,1-4.124-7.268A5.908,5.908,0,0,1,164.7,248.2" transform="translate(-88.527 -139.197)" fill="#e4ecf9"/><path d="M261.244,280.828,193.385,262.1a2.9,2.9,0,0,1-2.018-3.556l.034-.122a2.9,2.9,0,0,1,3.556-2.018l67.859,18.726a2.9,2.9,0,0,1,2.018,3.556l-.034.122a2.9,2.9,0,0,1-3.556,2.018" transform="translate(-110.599 -148.208)" fill="#e4ecf9"/><path d="M151.924,294.5a5.909,5.909,0,1,1-4.124-7.268,5.908,5.908,0,0,1,4.124,7.268" transform="translate(-81.139 -165.971)" fill="#e4ecf9"/><path d="M248.467,327.129,180.608,308.4a2.9,2.9,0,0,1-2.018-3.556l.034-.122a2.9,2.9,0,0,1,3.556-2.018l67.859,18.726a2.9,2.9,0,0,1,2.018,3.556l-.034.122a2.9,2.9,0,0,1-3.556,2.018" transform="translate(-103.21 -174.981)" fill="#e4ecf9"/><path d="M139.147,340.8a5.909,5.909,0,1,1-4.124-7.268,5.908,5.908,0,0,1,4.124,7.268" transform="translate(-73.751 -192.744)" fill="#e4ecf9"/><path d="M235.69,373.429,167.831,354.7a2.9,2.9,0,0,1-2.018-3.556l.034-.122a2.9,2.9,0,0,1,3.556-2.018l67.859,18.726a2.9,2.9,0,0,1,2.018,3.556l-.034.122a2.9,2.9,0,0,1-3.556,2.018" transform="translate(-95.822 -201.754)" fill="#e4ecf9"/><path d="M126.37,387.1a5.909,5.909,0,1,1-4.124-7.268,5.908,5.908,0,0,1,4.124,7.268" transform="translate(-66.362 -219.517)" fill="#e4ecf9"/><path d="M222.913,419.73,155.054,401a2.9,2.9,0,0,1-2.018-3.556l.034-.122a2.9,2.9,0,0,1,3.556-2.018l67.859,18.726a2.9,2.9,0,0,1,2.018,3.556l-.034.122a2.9,2.9,0,0,1-3.556,2.018" transform="translate(-88.434 -228.528)" fill="#e4ecf9"/><path d="M168.423,205.951a1.579,1.579,0,0,1-.956-.744l-2.356-4.153a1.583,1.583,0,1,1,2.753-1.562l1.575,2.776,7.1-4.03a1.583,1.583,0,1,1,1.562,2.753l-8.478,4.811a1.58,1.58,0,0,1-1.2.149" transform="translate(-95.357 -114.512)" fill="#f9c067"/><path d="M143.624,295.819a1.578,1.578,0,0,1-.956-.744l-2.356-4.153a1.583,1.583,0,0,1,2.753-1.562l1.575,2.776,7.1-4.03a1.583,1.583,0,1,1,1.562,2.753l-8.479,4.811a1.579,1.579,0,0,1-1.2.149" transform="translate(-81.016 -166.479)" fill="#f9c067"/><path d="M130.47,343.486a1.578,1.578,0,0,1-.956-.744l-2.356-4.153a1.583,1.583,0,1,1,2.753-1.562l1.575,2.776,7.1-4.031a1.583,1.583,0,0,1,1.562,2.754l-8.479,4.811a1.579,1.579,0,0,1-1.2.149" transform="translate(-73.41 -194.042)" fill="#f9c067"/><path d="M118.07,388.42a1.578,1.578,0,0,1-.956-.744l-2.356-4.153a1.583,1.583,0,1,1,2.753-1.562l1.575,2.776,7.1-4.031a1.583,1.583,0,0,1,1.562,2.754l-8.479,4.811a1.579,1.579,0,0,1-1.2.149" transform="translate(-66.24 -220.025)" fill="#f9c067"/><path d="M340.072,7.086A7.087,7.087,0,1,1,332.984,0a7.088,7.088,0,0,1,7.087,7.087" transform="translate(-188.451 0.001)" fill="#ffce7e"/><path d="M17.655,232.75a5.813,5.813,0,1,1-5.813-5.813,5.813,5.813,0,0,1,5.813,5.813" transform="translate(-3.486 -131.227)" fill="#ffd63d"/><path d="M516.779,457.554a7.087,7.087,0,1,1-7.087-7.087,7.088,7.088,0,0,1,7.087,7.087" transform="translate(-290.632 -260.484)" fill="#ff854e"/></g></g></g></g></svg>