<svg xmlns="http://www.w3.org/2000/svg" width="107" height="107" viewBox="0 0 107 107"><g transform="translate(-319 -6848)"><rect width="107" height="107" transform="translate(319 6848)" fill="none"/><g transform="translate(334.858 6861.615)"><path d="M62.843,114.274H25.235A17.735,17.735,0,0,0,7.5,132.009v12.364a17.7,17.7,0,0,0,6.736,13.912,27.3,27.3,0,0,1-3.935,9.13,2.619,2.619,0,0,0,1.824,4.128,19.666,19.666,0,0,0,19-9.435H62.843a17.735,17.735,0,0,0,17.735-17.735V132.009a17.735,17.735,0,0,0-17.735-17.735Z" transform="translate(-6.397 -97.471)" fill="#ff854e"/><path d="M173.03,114.274H138.466l1.627,16.409a14.264,14.264,0,0,0,2.427,6.643,14.9,14.9,0,1,0,26.457,0,14.264,14.264,0,0,0,2.426-6.644Z" transform="translate(-118.106 -97.471)" fill="#ffce7e"/><path d="M189.824,10.67a9.662,9.662,0,0,0-7.149-3.17h-7.238a9.645,9.645,0,0,0-9.6,10.6l2.088,21.063a9.616,9.616,0,0,0,3.735,6.719,10.354,10.354,0,1,0,14.788,0,9.615,9.615,0,0,0,3.735-6.719L192.273,18.1a9.662,9.662,0,0,0-2.449-7.427Z" transform="translate(-141.414 -6.397)" fill="#f6ee86"/><path d="M213.454,43.589h-7.238a4.339,4.339,0,0,0-4.318,4.767l2.088,21.063A4.339,4.339,0,0,0,208.3,73.33h3.061a4.339,4.339,0,0,0,4.318-3.911l2.088-21.063A4.339,4.339,0,0,0,213.454,43.589Z" transform="translate(-172.193 -37.18)" fill="#ff854e"/><path d="M215.033,75.272c-7.308-4.786-11.691-21.757-11.152-27.04a4.335,4.335,0,0,0-1.981,4.084l2.088,21.063A4.339,4.339,0,0,0,208.3,77.29h3.061A4.338,4.338,0,0,0,215.033,75.272Z" transform="translate(-172.194 -41.14)" fill="#e16e7e"/><circle cx="5.047" cy="5.047" r="5.047" transform="translate(32.594 41.672)" fill="#ff854e"/><path d="M54.876,63.534H24.727a1.1,1.1,0,0,0-.954.549,18.557,18.557,0,0,1-17.93,8.892,1.515,1.515,0,0,1-1.036-2.4,28.427,28.427,0,0,0,4.106-9.518,1.1,1.1,0,0,0-.391-1.108A16.554,16.554,0,0,1,2.206,46.9V34.538a16.493,16.493,0,0,1,5.111-12,1.1,1.1,0,1,0-1.528-1.59A18.679,18.679,0,0,0,0,34.538V46.9A18.738,18.738,0,0,0,6.6,61.227,25.971,25.971,0,0,1,3,69.311a3.721,3.721,0,0,0,2.611,5.857A20.8,20.8,0,0,0,25.35,65.74H54.876a1.1,1.1,0,1,0,0-2.206ZM41.261,5.306H34.023a5.445,5.445,0,0,0-5.415,5.979L30.7,32.348a5.424,5.424,0,0,0,5.415,4.9h3.062a5.424,5.424,0,0,0,5.415-4.9l2.088-21.063a5.444,5.444,0,0,0-5.415-5.979Zm3.22,5.761L42.393,32.13a3.225,3.225,0,0,1-3.22,2.917H36.111a3.225,3.225,0,0,1-3.22-2.917L30.8,11.067a3.234,3.234,0,0,1,3.22-3.555h7.238a3.234,3.234,0,0,1,3.22,3.555Zm-6.839,29.5a6.15,6.15,0,1,0,6.15,6.15A6.157,6.157,0,0,0,37.642,40.57Zm0,10.095a3.944,3.944,0,1,1,3.945-3.944A3.949,3.949,0,0,1,37.642,50.664ZM56.445,15.7H51.57l.386-3.892A10.753,10.753,0,0,0,41.261,0H34.023a10.753,10.753,0,0,0-10.7,11.808l.386,3.891H18.838a18.64,18.64,0,0,0-8.546,2.046,1.1,1.1,0,0,0,1,1.965,16.452,16.452,0,0,1,7.544-1.805h5.094l1.484,14.966a10.8,10.8,0,0,0,3.266,6.718,11.457,11.457,0,1,0,17.921,0,10.8,10.8,0,0,0,3.266-6.718l1.484-14.966h5.094A16.651,16.651,0,0,1,73.078,34.538V46.9A16.681,16.681,0,0,1,59.8,63.2a1.1,1.1,0,1,0,.442,2.161A18.9,18.9,0,0,0,75.283,46.9V34.538A18.859,18.859,0,0,0,56.445,15.7ZM49.761,11.59,47.673,32.654a8.458,8.458,0,0,1-3.307,5.952,1.1,1.1,0,0,0-.119,1.648,9.251,9.251,0,1,1-13.212,0,1.1,1.1,0,0,0-.119-1.648,8.459,8.459,0,0,1-3.307-5.952L25.522,11.591a8.547,8.547,0,0,1,8.5-9.385h7.238a8.546,8.546,0,0,1,8.5,9.385Z"/></g></g></svg>