<svg xmlns="http://www.w3.org/2000/svg" width="611.5" height="433.58" viewBox="0 0 611.5 433.58"><g transform="translate(-808.5 -8617.17)"><path d="M0,0H433.58V610H0Z" transform="translate(810 9050.75) rotate(-90)" fill="#ffce7e" opacity="0.417"/><path d="M-54.507-4.814a5.193,5.193,0,0,1-.8,2.622A4.833,4.833,0,0,1-57.363-.43,7,7,0,0,1-60.386.2,5.584,5.584,0,0,1-64.8-1.631a7.54,7.54,0,0,1-1.611-5.156v-.7a8.607,8.607,0,0,1,.728-3.657,5.513,5.513,0,0,1,2.095-2.422,5.844,5.844,0,0,1,3.164-.854,6.129,6.129,0,0,1,4.16,1.362,5.383,5.383,0,0,1,1.787,3.755H-57.9a2.547,2.547,0,0,0-.654-1.865,2.691,2.691,0,0,0-1.875-.566,2.048,2.048,0,0,0-1.875.957,6.151,6.151,0,0,0-.625,3.057v1.006a6.806,6.806,0,0,0,.571,3.252,2.091,2.091,0,0,0,1.968.977,2.632,2.632,0,0,0,1.807-.557,2.363,2.363,0,0,0,.664-1.768Zm10.439-1.221h-5.391v3.4h6.367V0h-9.795V-14.219h9.814v2.646h-6.387v3h5.391Zm7.656,1.006h-1.855V0h-3.428V-14.219h5.6A6.246,6.246,0,0,1-32.144-13.1a3.8,3.8,0,0,1,1.426,3.17,4.616,4.616,0,0,1-.6,2.458,4.263,4.263,0,0,1-1.88,1.58l2.969,5.741V0H-33.9Zm-1.855-2.637H-36.1a1.946,1.946,0,0,0,1.47-.514,1.987,1.987,0,0,0,.493-1.434,2.01,2.01,0,0,0-.5-1.444,1.928,1.928,0,0,0-1.465-.524h-2.168Zm20.293-3.906h-4.268V0h-3.428V-11.572h-4.189v-2.646h11.885ZM-12.876,0h-3.418V-14.219h3.418ZM-1.538-5.664H-7.065V0h-3.428V-14.219H-.981v2.646H-7.065V-8.3h5.527ZM4.1,0H.679V-14.219H4.1ZM17.983-4.814a5.193,5.193,0,0,1-.8,2.622A4.833,4.833,0,0,1,15.127-.43,7,7,0,0,1,12.1.2,5.584,5.584,0,0,1,7.69-1.631,7.54,7.54,0,0,1,6.079-6.787v-.7a8.607,8.607,0,0,1,.728-3.657A5.513,5.513,0,0,1,8.9-13.569a5.844,5.844,0,0,1,3.164-.854,6.129,6.129,0,0,1,4.16,1.362,5.383,5.383,0,0,1,1.787,3.755H14.595a2.547,2.547,0,0,0-.654-1.865,2.691,2.691,0,0,0-1.875-.566,2.048,2.048,0,0,0-1.875.957,6.151,6.151,0,0,0-.625,3.057v1.006a6.806,6.806,0,0,0,.571,3.252A2.091,2.091,0,0,0,12.1-2.49a2.632,2.632,0,0,0,1.807-.557,2.363,2.363,0,0,0,.664-1.768Zm9.7,2.158h-4.7L22.163,0H18.5l5.215-14.219h3.223L32.192,0H28.511ZM23.8-5.3H26.86l-1.533-4.932ZM33.228,0V-14.219h5.107a7.232,7.232,0,0,1,4.175,1.006,3.347,3.347,0,0,1,1.431,2.92,3.383,3.383,0,0,1-.508,1.885,2.959,2.959,0,0,1-1.494,1.152,3,3,0,0,1,1.709,1.094,3.18,3.18,0,0,1,.6,1.953,3.765,3.765,0,0,1-1.323,3.14A6.3,6.3,0,0,1,39,0Zm3.428-6.045v3.408H38.9a2.136,2.136,0,0,0,1.426-.425,1.487,1.487,0,0,0,.5-1.2,1.576,1.576,0,0,0-1.768-1.787Zm0-2.246h1.787a2.539,2.539,0,0,0,1.6-.411,1.46,1.46,0,0,0,.479-1.185,1.533,1.533,0,0,0-.518-1.3,2.77,2.77,0,0,0-1.67-.4h-1.68Zm12.9,5.654h5.967V0H46.128V-14.219h3.428Zm16.23-3.4H60.4v3.4h6.367V0H56.968V-14.219h9.814v2.646H60.4v3h5.391Z" transform="translate(1114.5 8688)" fill="#12263f"/><path d="M-1700.516,12142.436v-125.883c56.541-61.395,144.711-115.405,269.62-81.383,245.915,66.98,340.38-56.861,340.38-56.861v264.127Z" transform="translate(2509.016 -3092.163)" fill="#fffbf4"/><g transform="translate(1048 8790.238)"><g transform="translate(72.464 101.709)"><path d="M327.68,396.271c.339-.527.664-1.063.946-1.612C328.32,395.21,328.008,395.751,327.68,396.271Z" transform="translate(-315.096 -390.409)" fill="#fff9e1"/><path d="M332.228,387.754c.3-.594.558-1.2.8-1.816C332.784,386.556,332.525,387.167,332.228,387.754Z" transform="translate(-318.463 -383.951)" fill="#fff9e1"/><path d="M279.194,436.136c.221-.062.432-.124.647-.193C279.626,436.012,279.411,436.074,279.194,436.136Z" transform="translate(-279.194 -420.977)" fill="#fff9e1"/><path d="M290.987,430.883c.37-.166.735-.341,1.107-.529C291.722,430.542,291.357,430.715,290.987,430.883Z" transform="translate(-287.926 -416.839)" fill="#fff9e1"/><path d="M296.619,427.521c.423-.221.837-.47,1.247-.726C297.46,427.052,297.042,427.291,296.619,427.521Z" transform="translate(-292.096 -414.204)" fill="#fff9e1"/><path d="M336.768,379.213c.1-.308.2-.618.286-.93C336.963,378.6,336.872,378.908,336.768,379.213Z" transform="translate(-321.825 -378.283)" fill="#fff9e1"/><path d="M317.752,402.509a22.07,22.07,0,0,1-3.085,3.634A21.872,21.872,0,0,0,317.752,402.509Z" transform="translate(-305.46 -396.221)" fill="#fff9e1"/><path d="M305.309,416.649a21.743,21.743,0,0,1-1.9,1.6c-.443.328-.886.636-1.329.93a22.122,22.122,0,0,0,2.286-1.661C304.689,417.24,305,416.941,305.309,416.649Z" transform="translate(-296.14 -406.691)" fill="#fff9e1"/></g><path d="M8.533,13.3v88.592H50.614a22.148,22.148,0,0,1,44.3,0h42.081V13.3Z" transform="translate(-6.318 -6.318)" fill="#ffd63d"/><g transform="translate(45.195 101.709)"><path d="M285.167,433.771c.3-.108.594-.221.886-.345C285.763,433.55,285.466,433.663,285.167,433.771Z" transform="translate(-256.348 -419.114)" fill="#fff9e1"/><path d="M180.719,394.659c.29.549.607,1.085.946,1.612C181.326,395.751,181.014,395.21,180.719,394.659Z" transform="translate(-179.009 -390.409)" fill="#fff9e1"/><path d="M176.691,385.938c.241.616.5,1.222.8,1.816C177.194,387.167,176.935,386.556,176.691,385.938Z" transform="translate(-176.027 -383.951)" fill="#fff9e1"/><path d="M273.067,437.923c.137-.026.273-.055.41-.086C273.342,437.868,273.2,437.895,273.067,437.923Z" transform="translate(-247.388 -422.38)" fill="#fff9e1"/><path d="M210.577,426.8c.41.257.824.5,1.247.726C211.4,427.291,210.982,427.052,210.577,426.8Z" transform="translate(-201.118 -414.204)" fill="#fff9e1"/><path d="M174.131,378.283c.089.312.182.622.286.93C174.313,378.908,174.222,378.6,174.131,378.283Z" transform="translate(-174.131 -378.283)" fill="#fff9e1"/><path d="M216.8,430.354c.361.188.726.363,1.107.529C217.522,430.715,217.157,430.542,216.8,430.354Z" transform="translate(-205.724 -416.839)" fill="#fff9e1"/><path d="M188.531,406.143a22.1,22.1,0,0,1-3.085-3.634A21.871,21.871,0,0,0,188.531,406.143Z" transform="translate(-182.509 -396.221)" fill="#fff9e1"/><path d="M200.707,419.178c-.456-.295-.9-.6-1.329-.93a21.784,21.784,0,0,1-1.9-1.6c.312.295.62.591.952.868A22.27,22.27,0,0,0,200.707,419.178Z" transform="translate(-191.418 -406.691)" fill="#fff9e1"/><path d="M266.854,439.133l.193-.024Z" transform="translate(-242.788 -423.322)" fill="#fff9e1"/><path d="M223.411,433.426c.295.122.591.237.886.345C224,433.663,223.7,433.55,223.411,433.426Z" transform="translate(-210.62 -419.114)" fill="#fff9e1"/><path d="M230.315,435.943c.221.069.43.131.647.193C230.745,436.074,230.53,436.012,230.315,435.943Z" transform="translate(-215.733 -420.977)" fill="#fff9e1"/><path d="M237.355,437.837c.137.031.273.06.41.086C237.627,437.895,237.49,437.868,237.355,437.837Z" transform="translate(-220.945 -422.38)" fill="#fff9e1"/><path d="M244.4,439.109l.193.024Z" transform="translate(-226.164 -423.322)" fill="#fff9e1"/></g><path d="M192.815,269.295a22.119,22.119,0,0,0-21.563,27.171h0c.086.379.2.751.306,1.125.091.312.182.624.286.93.117.354.241.709.379,1.056.244.618.5,1.229.8,1.816.075.153.166.3.246.443.295.552.607,1.092.946,1.612.091.144.186.286.281.425a22.086,22.086,0,0,0,3.085,3.634l.038.036a21.508,21.508,0,0,0,1.909,1.595c.443.328.886.636,1.329.93.055.033.109.069.162.1.405.257.824.5,1.247.726.122.066.244.135.368.2.359.188.724.361,1.107.529.206.093.412.184.62.268.292.124.589.237.886.345s.6.221.9.308c.221.069.43.131.647.193.392.108.786.221,1.18.3.135.031.273.058.41.086.472.1.946.179,1.42.244l.193.024c.54.066,1.081.12,1.621.146h0c.4.02.793.049,1.2.049s.8-.029,1.2-.049h0c.54-.026,1.081-.08,1.621-.146l.193-.024c.474-.064.948-.148,1.42-.244.137-.029.275-.055.41-.086.394-.086.788-.191,1.18-.3.221-.062.432-.124.647-.193.3-.1.6-.2.9-.308s.6-.221.886-.345c.208-.084.414-.175.62-.268.372-.168.738-.341,1.107-.529.124-.062.246-.131.368-.2.423-.221.842-.47,1.247-.726.053-.036.106-.071.162-.1.456-.295.9-.6,1.329-.93a21.8,21.8,0,0,0,1.9-1.6l.038-.036a22.1,22.1,0,0,0,3.085-3.634c.1-.14.19-.281.281-.425.339-.52.651-1.061.946-1.612.08-.151.171-.295.246-.443.3-.587.556-1.2.8-1.816.137-.348.261-.7.379-1.056.1-.306.195-.618.286-.93.106-.374.221-.746.306-1.125h0a22.113,22.113,0,0,0-21.555-27.167Zm0,35.437A13.289,13.289,0,1,1,206.1,291.443,13.288,13.288,0,0,1,192.815,304.732Z" transform="translate(-126.371 -195.874)" fill="#f7e06f"/><circle cx="13.289" cy="13.289" r="13.289" transform="translate(53.155 82.28)" fill="#79be60"/><path d="M154.875,390.925q-.718-.1-1.42-.244c-.137-.026-.273-.055-.41-.086q-.595-.133-1.18-.3c-.221-.062-.443-.124-.647-.193-.3-.1-.6-.2-.9-.308s-.594-.221-.886-.345c-.221-.086-.416-.175-.62-.268-.37-.166-.735-.341-1.107-.529-.124-.064-.246-.131-.368-.2-.423-.221-.837-.47-1.247-.726-.053-.036-.106-.071-.162-.1a22.132,22.132,0,0,1-2.286-1.661c-.332-.277-.64-.574-.952-.868l-.038-.036a21.874,21.874,0,0,1-3.085-3.634c-.1-.14-.188-.281-.281-.425-.339-.527-.664-1.063-.946-1.612-.08-.151-.168-.295-.246-.443-.3-.594-.558-1.2-.8-1.816-.137-.348-.259-.7-.379-1.056-.1-.308-.2-.618-.286-.93-.106-.372-.221-.738-.315-1.108l-12.819,15.282,14.458,3.435,5.909,13.63L156.687,391.1q-.817-.046-1.621-.148Z" transform="translate(-91.441 -273.429)" fill="#ff854e"/><g transform="translate(44.89 100.583)"><path d="M221.013,432.393c.2.093.41.182.62.268C221.427,432.586,221.221,432.486,221.013,432.393Z" transform="translate(-208.539 -417.224)" fill="#fff9e1"/><path d="M226.833,434.757c.3.108.6.221.9.308C227.435,434.97,227.134,434.865,226.833,434.757Z" transform="translate(-212.849 -418.974)" fill="#fff9e1"/><path d="M232.806,436.685q.585.166,1.18.3C233.592,436.9,233.2,436.793,232.806,436.685Z" transform="translate(-217.272 -420.402)" fill="#fff9e1"/><path d="M238.933,438.17c.467.1.939.177,1.42.244C239.879,438.349,239.4,438.265,238.933,438.17Z" transform="translate(-221.808 -421.501)" fill="#fff9e1"/><path d="M184.363,400.871c.093.144.186.286.281.425C184.549,401.157,184.454,401.015,184.363,400.871Z" transform="translate(-181.402 -393.883)" fill="#fff9e1"/><path d="M209.92,426.394c.055.033.108.069.162.1A.994.994,0,0,0,209.92,426.394Z" transform="translate(-200.326 -412.782)" fill="#fff9e1"/><path d="M175.232,381.867c.12.357.241.709.379,1.056C175.473,382.576,175.349,382.221,175.232,381.867Z" transform="translate(-174.641 -379.812)" fill="#fff9e1"/><path d="M245.146,439.2q.8.1,1.621.148h0C246.227,439.322,245.686,439.269,245.146,439.2Z" transform="translate(-226.409 -422.266)" fill="#fff9e1"/><path d="M179.772,392.935c.078.153.166.3.246.443C179.938,393.232,179.845,393.088,179.772,392.935Z" transform="translate(-178.002 -388.007)" fill="#fff9e1"/><path d="M197.371,416.548l-.038-.036Z" transform="translate(-191.005 -405.465)" fill="#fff9e1"/><path d="M172.954,373.948h0c.089.379.208.744.315,1.107C173.153,374.692,173.04,374.327,172.954,373.948Z" transform="translate(-172.954 -373.948)" fill="#fff9e1"/><path d="M215.381,429.594c.122.066.244.133.368.2C215.625,429.729,215.514,429.66,215.381,429.594Z" transform="translate(-204.369 -415.151)" fill="#fff9e1"/></g><path d="M280.35,376.015c-.12.357-.241.709-.379,1.056-.241.616-.5,1.222-.8,1.816-.078.153-.166.3-.246.443-.29.549-.607,1.085-.946,1.612-.093.144-.186.286-.281.425A21.874,21.874,0,0,1,274.613,385l-.038.036c-.312.295-.62.591-.952.868a22.13,22.13,0,0,1-2.286,1.661c-.055.033-.108.069-.162.1-.41.257-.824.5-1.247.726-.122.066-.244.133-.368.2-.361.188-.727.363-1.108.529-.2.093-.41.182-.62.268-.295.122-.591.237-.886.345s-.6.221-.9.308c-.221.069-.43.131-.647.193q-.585.166-1.18.3c-.137.031-.273.06-.41.086-.467.1-.939.177-1.42.244l-.193.024q-.8.1-1.621.148L273.4,406.322l5.92-13.623,14.452-3.453-12.819-15.282c-.089.379-.208.744-.315,1.107C280.547,375.4,280.454,375.707,280.35,376.015Z" transform="translate(-192.943 -273.376)" fill="#ff854e"/><g transform="translate(67.64 100.601)"><path d="M326.554,401.3c.1-.14.188-.281.281-.425C326.744,401.015,326.649,401.157,326.554,401.3Z" transform="translate(-309.438 -393.901)" fill="#fff9e1"/><path d="M301.423,426.5c.053-.036.106-.071.162-.1C301.529,426.427,301.476,426.463,301.423,426.5Z" transform="translate(-290.83 -412.799)" fill="#fff9e1"/><path d="M295.2,429.792c.124-.064.246-.131.368-.2C295.448,429.661,295.326,429.73,295.2,429.792Z" transform="translate(-286.223 -415.17)" fill="#fff9e1"/><path d="M335.309,382.924c.137-.348.259-.7.379-1.056C335.57,382.222,335.446,382.577,335.309,382.924Z" transform="translate(-315.92 -379.83)" fill="#fff9e1"/><path d="M314.56,416.512l-.038.036Z" transform="translate(-300.529 -405.482)" fill="#fff9e1"/><path d="M331.281,393.4c.08-.151.168-.295.246-.443C331.454,393.1,331.361,393.244,331.281,393.4Z" transform="translate(-312.938 -388.037)" fill="#fff9e1"/><path d="M288.589,432.661c.21-.086.416-.175.62-.268C289,432.486,288.8,432.586,288.589,432.661Z" transform="translate(-281.327 -417.241)" fill="#fff9e1"/><path d="M260.608,439.342h0q.817-.046,1.621-.148C261.689,439.263,261.148,439.316,260.608,439.342Z" transform="translate(-260.608 -422.277)" fill="#fff9e1"/><path d="M274.645,436.984c.4-.089.788-.188,1.18-.3C275.433,436.793,275.039,436.9,274.645,436.984Z" transform="translate(-271.002 -420.419)" fill="#fff9e1"/><path d="M267.6,438.414q.717-.1,1.42-.244C268.545,438.265,268.071,438.349,267.6,438.414Z" transform="translate(-265.783 -421.519)" fill="#fff9e1"/><path d="M337.869,375.123c.106-.372.221-.738.315-1.107h0C338.088,374.377,337.975,374.742,337.869,375.123Z" transform="translate(-317.816 -374.016)" fill="#fff9e1"/><path d="M281.685,435.065c.3-.1.6-.2.9-.308C282.287,434.865,281.986,434.97,281.685,435.065Z" transform="translate(-276.215 -418.992)" fill="#fff9e1"/></g><g transform="translate(0 4.762)"><path d="M130.674,4.762H2.215A2.216,2.216,0,0,0,0,6.977V95.569a2.216,2.216,0,0,0,2.215,2.215H42.208c.066.738.175,1.464.306,2.184L30.365,114.446a2.213,2.213,0,0,0,1.183,3.579l13.373,3.194,5.468,12.624a2.216,2.216,0,0,0,3.73.542l12.128-14.454h.394L78.77,134.385a2.214,2.214,0,0,0,3.73-.543l5.468-12.624,13.373-3.194a2.216,2.216,0,0,0,1.183-3.579L90.376,99.967c.131-.72.239-1.446.306-2.184h39.993a2.216,2.216,0,0,0,2.215-2.215V6.977A2.216,2.216,0,0,0,130.674,4.762ZM46.511,95.569a19.933,19.933,0,1,1,39.371,4.409c-.011.038-.033.071-.042.108a19.839,19.839,0,0,1-.941,2.983c-.031.078-.066.155-.1.221a19.352,19.352,0,0,1-1.236,2.436c-.073.124-.14.255-.221.379a19.539,19.539,0,0,1-1.686,2.308c-.166.195-.354.372-.529.562a20.02,20.02,0,0,1-1.433,1.411c-.421.374-.839.753-1.3,1.094s-.868.629-1.316.915l-.026.016c-.4.255-.811.49-1.227.711-.082.044-.162.091-.244.133-.335.175-.664.332-1.017.485-.177.08-.352.162-.532.235-.248.1-.5.195-.753.286s-.565.208-.853.3c-.153.049-.308.091-.463.135-.392.111-.786.221-1.185.306l-.177.036a20.1,20.1,0,0,1-3.083.405h-.029c-.35.018-.7.042-1.052.042s-.7-.024-1.052-.042H65.36a20.271,20.271,0,0,1-3.076-.4L62.1,115c-.394-.086-.784-.193-1.17-.3-.162-.046-.325-.089-.485-.14-.277-.086-.549-.188-.822-.286s-.532-.193-.793-.3c-.162-.069-.321-.142-.481-.221-.363-.164-.724-.33-1.076-.514l-.177-.1a20.01,20.01,0,0,1-2.613-1.67c-.461-.343-.886-.722-1.3-1.1a19.18,19.18,0,0,1-1.415-1.4c-.177-.191-.368-.372-.536-.569a19.377,19.377,0,0,1-1.688-2.31c-.075-.12-.14-.246-.221-.37a19.143,19.143,0,0,1-1.24-2.452c-.031-.075-.066-.151-.1-.221a19.8,19.8,0,0,1-.943-2.986c0-.04-.031-.071-.042-.111A20.13,20.13,0,0,1,46.511,95.569Zm14.472,23.738-7.953,9.484-4.485-10.343a2.213,2.213,0,0,0-1.517-1.274l-10.963-2.62,7.951-9.477c.042.1.1.186.14.283.288.664.6,1.3.946,1.922.142.261.292.518.443.773.3.507.627,1,.966,1.488.237.339.485.664.74,1,.3.377.6.744.923,1.107s.7.764,1.065,1.132c.273.273.554.536.842.795.239.221.454.454.7.664s.485.352.724.538c.108.084.2.182.312.263.2.151.41.281.614.425.319.221.634.461.963.664.629.4,1.278.771,1.936,1.107.253.128.509.246.766.365q.887.415,1.783.757c.173.064.343.137.516.2a23.963,23.963,0,0,0,2.56.742Zm27.891-14.237,7.951,9.477-10.963,2.62a2.212,2.212,0,0,0-1.517,1.274l-4.485,10.35-7.953-9.477h.02a23.516,23.516,0,0,0,2.569-.744c.166-.058.325-.126.492-.186.618-.235,1.227-.492,1.825-.777.244-.113.487-.221.726-.345.664-.345,1.329-.72,1.967-1.13.308-.195.6-.414.9-.624.221-.153.443-.292.664-.454.117-.089.221-.193.337-.283.221-.182.478-.335.7-.525s.456-.443.691-.651c.292-.266.58-.534.859-.811q.548-.548,1.059-1.125c.321-.363.627-.731.926-1.107.255-.325.5-.664.74-1,.341-.483.664-.979.963-1.484.155-.257.306-.516.443-.78q.515-.937.941-1.916C88.774,105.261,88.831,105.17,88.874,105.071Zm39.585-11.716H90.694a24.35,24.35,0,0,0-48.5,0H4.43V9.192H128.459V93.354Z" transform="translate(0 -4.762)" fill="#231f20"/><path d="M38.563,43.325h6.644V38.9H36.349a2.216,2.216,0,0,0-2.215,2.215v8.859h4.429Z" transform="translate(-25.275 -30.036)" fill="#231f20"/><path d="M441.844,49.97h4.43V41.111a2.216,2.216,0,0,0-2.215-2.215H435.2v4.43h6.644V49.97Z" transform="translate(-322.245 -30.037)" fill="#231f20"/><path d="M446.274,295.221v-8.859h-4.43v6.644H435.2v4.43h8.859A2.216,2.216,0,0,0,446.274,295.221Z" transform="translate(-322.245 -213.273)" fill="#231f20"/><path d="M36.348,297.436h8.859v-4.43H38.563v-6.644h-4.43v8.859A2.216,2.216,0,0,0,36.348,297.436Z" transform="translate(-25.274 -213.273)" fill="#231f20"/><rect width="53.155" height="4.43" transform="translate(39.867 24.363)" fill="#231f20"/><rect width="79.733" height="4.43" transform="translate(26.578 37.652)" fill="#231f20"/><path d="M211.771,325.9a15.5,15.5,0,1,0-15.5-15.5A15.5,15.5,0,0,0,211.771,325.9Zm0-26.578A11.074,11.074,0,1,1,200.7,310.4,11.075,11.075,0,0,1,211.771,299.325Z" transform="translate(-145.326 -219.592)" fill="#231f20"/></g></g></g></svg>