<svg xmlns="http://www.w3.org/2000/svg" xmlns:xlink="http://www.w3.org/1999/xlink" width="1239" height="449.192" viewBox="0 0 1239 449.192"><defs><clipPath id="a"><rect width="1239" height="412.609" fill="none"/></clipPath><clipPath id="b"><rect width="1239" height="603.878" fill="none"/></clipPath><clipPath id="d"><rect width="17.671" height="17.297" fill="none"/></clipPath><clipPath id="e"><rect width="17.235" height="18.357" fill="none"/></clipPath><clipPath id="f"><rect width="17.669" height="17.294" fill="none"/></clipPath><clipPath id="g"><rect width="17.235" height="18.358" fill="none"/></clipPath><clipPath id="h"><rect width="17.672" height="17.294" fill="none"/></clipPath><clipPath id="i"><rect width="17.236" height="18.358" fill="none"/></clipPath><clipPath id="j"><rect width="161.518" height="73.822" fill="none"/></clipPath><clipPath id="k"><rect width="17.853" height="17.475" fill="none"/></clipPath><clipPath id="l"><rect width="17.414" height="18.548" fill="none"/></clipPath><clipPath id="m"><rect width="17.855" height="17.477" fill="none"/></clipPath><clipPath id="n"><rect width="17.415" height="18.548" fill="none"/></clipPath><clipPath id="o"><rect width="17.853" height="17.476" fill="none"/></clipPath><clipPath id="q"><rect width="163.199" height="74.589" fill="none"/></clipPath><clipPath id="r"><rect width="8.144" height="4.883" fill="none"/></clipPath><clipPath id="s"><rect width="10.368" height="6.217" fill="none"/></clipPath><clipPath id="t"><rect width="10.369" height="6.217" fill="none"/></clipPath></defs><g transform="translate(-180.5 -11095.808)"><g transform="translate(180.5 10940.808)"><g transform="translate(0 155)" clip-path="url(#a)"><path d="M707.921,463.469H695.174l3.862-170.284h5.089Z" transform="translate(162.664 -122.666)" fill="#f1f2f2"/><g transform="translate(0 -191.268)"><g clip-path="url(#b)"><path d="M707.608,294.354a6.11,6.11,0,1,1-6.108-6.171,6.141,6.141,0,0,1,6.108,6.171" transform="translate(162.714 67.432)" fill="#f1f2f2"/><path d="M705.552,294.023a4.381,4.381,0,1,1-4.381-4.426,4.406,4.406,0,0,1,4.381,4.426" transform="translate(163.042 67.763)" fill="#f1f2f2"/><path d="M723.233,303.123l-2.567,6.008-10.2-.258-3.231-6-3.664-6.809-2.153-4-.011.009-39.177-72.114-2.264,3.1,36.209,79.051,6.434-.758,5.078,9.438-3.2,5.3-4,6.613-2.347,3.881.015.011-42.2,70.345,3.792.431,49.627-71.219-3.865-5.253,5.226-8.644,6.3.19,7.7.167,4.5.114v-.016l81.379,1.766-1.526-3.538Z" transform="translate(153.484 51.47)" fill="#f1f2f2"/><path d="M810.75,459.225H798l3.862-170.284h5.089Z" transform="translate(186.725 67.609)" fill="#f1f2f2"/><path d="M810.437,290.11a6.11,6.11,0,1,1-6.108-6.171,6.141,6.141,0,0,1,6.108,6.171" transform="translate(186.775 66.439)" fill="#f1f2f2"/><path d="M808.381,289.779A4.381,4.381,0,1,1,804,285.353a4.406,4.406,0,0,1,4.381,4.426" transform="translate(187.103 66.77)" fill="#f1f2f2"/><path d="M826.062,298.879l-2.567,6.008-10.2-.258-3.231-6-3.664-6.809-2.153-4-.011.009-39.177-72.114-2.264,3.1L799,297.877l6.434-.758,5.078,9.438-3.2,5.3-4,6.613-2.347,3.882.015.01-42.2,70.345,3.792.431,49.627-71.219-3.865-5.253,5.226-8.644,6.3.19,7.7.167,4.5.114v-.016l81.379,1.766-1.526-3.538Z" transform="translate(177.545 50.477)" fill="#f1f2f2"/><path d="M783.864,335.891l-26.532,46.345-3.135,1.947,24.62-52.762Z" transform="translate(176.474 77.549)" fill="#5f0f17"/><path d="M833.422,317.2,779.2,340.467,774.149,336l59.273-24.125Z" transform="translate(181.143 72.975)" fill="#5f0f17"/><path d="M866.128,335.891l26.595,45.626,3.072,2.667-24.621-52.762Z" transform="translate(202.665 77.549)" fill="#5f0f17"/><path d="M822.183,317.2l54.228,23.266L881.456,336l-59.273-24.125Z" transform="translate(192.383 72.975)" fill="#5f0f17"/><path d="M756.737,457.208V384.7l27.07-46.889L837.5,314.757l53.629,22.932,27.13,47.008v72.51Z" transform="translate(177.069 73.65)" fill="#e6e7e8"/><path d="M784.814,333.78l-29.668,50.9-5.01-2.921,29.631-52.445Z" transform="translate(175.524 77.056)" fill="#f1f2f2"/><path d="M833.422,315.091,779.2,338.355l-5.047-4.468,59.273-24.127Z" transform="translate(181.143 72.481)" fill="#f1f2f2"/><path d="M866.128,333.78l29.666,50.9,5.012-2.921-29.633-52.445Z" transform="translate(202.665 77.056)" fill="#f1f2f2"/><path d="M822.183,315.091l54.228,23.264,5.046-4.468L822.183,309.76Z" transform="translate(192.383 72.481)" fill="#f1f2f2"/><path d="M915.166,384.305v70.177H758.841V384.305l.026-.042,3.558-6.163.827-1.435,3.555-6.163.83-1.436,3.558-6.163.668-1.151.163-.285,3.393-5.877.83-1.436,3.556-6.161.829-1.436,3.558-6.163.83-1.436.019-.036,14.267-6.126,3.347-1.435,14.351-6.163,2.3-.987,1.045-.449,13.307-5.712L837,316.614l3.344,1.436,13.311,5.712,1.045.449,2.3.987,14.356,6.163L874.7,332.8l14.191,6.09.042.072.83,1.436,3.563,6.163.829,1.436,3.566,6.161.832,1.436,3.4,5.877.164.285.666,1.151,3.561,6.163.834,1.436,3.565,6.163.83,1.435,3.561,6.163Z" transform="translate(177.561 74.084)" fill="#c49a6c"/><rect width="156.324" height="8.033" transform="translate(936.402 521.42)" fill="#be1e2d"/><rect width="156.324" height="1.519" transform="translate(936.402 521.421)" fill="#8f1722"/><rect width="156.324" height="8.035" transform="translate(936.402 513.387)" fill="#be1e2d"/><rect width="156.324" height="1.519" transform="translate(936.402 513.387)" fill="#8f1722"/><rect width="156.324" height="8.032" transform="translate(936.402 505.355)" fill="#be1e2d"/><rect width="156.324" height="1.518" transform="translate(936.402 505.356)" fill="#8f1722"/><rect width="156.324" height="8.035" transform="translate(936.402 497.32)" fill="#be1e2d"/><rect width="156.324" height="1.518" transform="translate(936.402 497.321)" fill="#8f1722"/><rect width="156.324" height="8.033" transform="translate(936.402 489.287)" fill="#be1e2d"/><rect width="156.324" height="1.518" transform="translate(936.402 489.288)" fill="#8f1722"/><rect width="156.324" height="8.033" transform="translate(936.402 481.578)" fill="#be1e2d"/><rect width="156.324" height="1.52" transform="translate(936.402 481.579)" fill="#8f1722"/><rect width="156.324" height="8.033" transform="translate(936.402 473.979)" fill="#be1e2d"/><rect width="156.324" height="1.52" transform="translate(936.402 473.98)" fill="#8f1722"/><rect width="156.324" height="8.035" transform="translate(936.402 465.945)" fill="#be1e2d"/><rect width="156.324" height="1.52" transform="translate(936.402 465.946)" fill="#8f1722"/><rect width="156.324" height="7.598" transform="translate(936.402 458.348)" fill="#be1e2d"/><rect width="156.324" height="1.438" transform="translate(936.402 458.347)" fill="#8f1722"/><path d="M915.136,372.876H758.862l3.558-6.163.827-1.435h147.5l.83,1.435Z" transform="translate(177.566 85.472)" fill="#be1e2d"/><path d="M910.9,366.713H761.745l.827-1.435h147.5Z" transform="translate(178.241 85.471)" fill="#8f1722"/><path d="M909.912,366.719h-147.5l3.556-6.161.829-1.436H905.514l.833,1.436Z" transform="translate(178.398 84.031)" fill="#be1e2d"/><path d="M905.673,360.557H765.3l.83-1.436H904.839Z" transform="translate(179.072 84.031)" fill="#8f1722"/><path d="M904.681,360.562H765.97l3.558-6.163.668-1.153.162-.284H900.288l.164.284.666,1.153Z" transform="translate(179.229 82.59)" fill="#be1e2d"/><path d="M900.445,354.4H768.852l.668-1.153.163-.284H899.614l.164.284Z" transform="translate(179.904 82.59)" fill="#8f1722"/><path d="M899.652,354.634H769.393l.163-.284,3.393-5.879.831-1.435H895.256l.832,1.435,3.4,5.879Z" transform="translate(180.03 81.203)" fill="#be1e2d"/><path d="M895.414,348.471H772.276l.83-1.435H894.582Z" transform="translate(180.705 81.203)" fill="#8f1722"/><path d="M894.425,348.477H772.949l3.556-6.161.829-1.436H890.028l.83,1.436Z" transform="translate(180.862 79.762)" fill="#be1e2d"/><path d="M890.185,342.315H775.83l.831-1.436H889.355Z" transform="translate(181.536 79.762)" fill="#8f1722"/><path d="M889.2,342.32H776.5l3.558-6.163.831-1.436H884.8l.83,1.436Z" transform="translate(181.694 78.321)" fill="#be1e2d"/><path d="M884.961,336.157H779.385l.831-1.436H884.13Z" transform="translate(182.368 78.321)" fill="#8f1722"/><path d="M884.017,336.25H780.1l.02-.036,14.267-6.125,3.344-1.436h68.7l3.345,1.436,14.19,6.088Z" transform="translate(182.536 76.901)" fill="#be1e2d"/><path d="M867.076,330.089H791.681l3.344-1.436h68.7Z" transform="translate(185.245 76.901)" fill="#8f1722"/><path d="M811.044,322.943l-2.3.987-14.352,6.163h68.7L848.74,323.93l-2.3-.987L845.4,322.5H812.09Z" transform="translate(185.88 75.461)" fill="#be1e2d"/><path d="M809.368,322.495h33.307l1.045.448,2.3.987h-40l2.3-.987Z" transform="translate(188.601 75.461)" fill="#8f1722"/><path d="M808.887,323.762l13.307-5.712,3.344-1.436,3.344,1.436,13.311,5.712,1.045.449h-35.4Z" transform="translate(189.027 74.084)" fill="#be1e2d"/><path d="M826.161,318.05h-6.688l3.344-1.436Z" transform="translate(191.748 74.084)" fill="#8f1722"/><rect width="35.399" height="45.746" transform="translate(979.166 484)" fill="#fff"/><rect width="33.561" height="43.37" transform="translate(980.084 485.189)" fill="#be1e2d"/><path d="M794.24,393.186l33.561,43.37Z" transform="translate(185.844 92.002)" fill="#be1e2d"/><rect width="0.92" height="54.839" transform="matrix(0.791, -0.612, 0.612, 0.791, 979.721, 485.471)" fill="#fff"/><path d="M827.8,393.186l-33.562,43.37Z" transform="translate(185.844 92.002)" fill="#be1e2d"/><rect width="54.839" height="0.92" transform="matrix(0.613, -0.79, 0.79, 0.613, 979.693, 528.255)" fill="#fff"/><rect width="35.402" height="45.746" transform="translate(1014.564 484)" fill="#fff"/><rect width="33.562" height="43.37" transform="translate(1015.485 485.189)" fill="#be1e2d"/><path d="M822.928,393.186l33.562,43.37Z" transform="translate(192.557 92.002)" fill="#be1e2d"/><rect width="0.92" height="54.838" transform="translate(1015.122 485.471) rotate(-37.734)" fill="#fff"/><path d="M856.49,393.186l-33.562,43.37Z" transform="translate(192.557 92.002)" fill="#be1e2d"/><rect width="54.838" height="0.92" transform="matrix(0.613, -0.79, 0.79, 0.613, 1015.094, 528.255)" fill="#fff"/><rect width="26.272" height="22.51" transform="translate(1001.43 398.749)" fill="#fff"/><rect width="23.832" height="20.42" transform="translate(1002.649 399.793)" fill="#231f20"/><g transform="translate(1002.649 399.793)" opacity="0.48"><g clip-path="url(#d)"><path d="M812.526,338.3l14.63-14.317H830.2l-17.669,17.3Z" transform="translate(-812.526 -323.984)" fill="#4f4c4d"/></g></g><g transform="translate(1009.246 401.754)" opacity="0.48"><g clip-path="url(#e)"><path d="M817.872,343.93l17.235-18.357-.028,3.345L820.715,343.93Z" transform="translate(-817.872 -325.573)" fill="#4f4c4d"/></g></g><rect width="1.303" height="20.42" transform="translate(1013.914 399.793)" fill="#fff"/><rect width="25.052" height="1.303" transform="translate(1002.649 409.351)" fill="#fff"/><rect width="26.274" height="22.51" transform="translate(958.197 436.989)" fill="#fff"/><rect width="23.831" height="20.42" transform="translate(959.419 438.034)" fill="#231f20"/><g transform="translate(959.417 438.036)" opacity="0.48"><g clip-path="url(#f)"><path d="M777.492,369.29l14.631-14.315h3.038l-17.669,17.294Z" transform="translate(-777.492 -354.975)" fill="#4f4c4d"/></g></g><g transform="translate(966.014 439.995)" opacity="0.48"><g clip-path="url(#g)"><path d="M782.838,374.921l17.235-18.358-.028,3.345-14.362,15.013Z" transform="translate(-782.838 -356.563)" fill="#4f4c4d"/></g></g><rect width="1.303" height="20.42" transform="translate(970.682 438.034)" fill="#fff"/><rect width="25.054" height="1.302" transform="translate(959.417 447.594)" fill="#fff"/><rect width="26.273" height="22.51" transform="translate(1042.815 436.989)" fill="#fff"/><rect width="23.832" height="20.42" transform="translate(1044.036 438.034)" fill="#231f20"/><g transform="translate(1044.035 438.036)" opacity="0.48"><g clip-path="url(#h)"><path d="M846.065,369.29l14.629-14.315h3.042l-17.671,17.294Z" transform="translate(-846.064 -354.975)" fill="#4f4c4d"/></g></g><g transform="translate(1050.631 439.995)" opacity="0.48"><g clip-path="url(#i)"><path d="M851.41,374.921l17.236-18.358-.03,3.345-14.363,15.013Z" transform="translate(-851.41 -356.563)" fill="#4f4c4d"/></g></g><rect width="1.303" height="20.42" transform="translate(1055.3 438.034)" fill="#fff"/><rect width="25.054" height="1.302" transform="translate(1044.035 447.594)" fill="#fff"/><g transform="translate(933.806 388.326)" opacity="0.22"><g clip-path="url(#j)"><path d="M756.737,388.512v-3.935l27.022-46.762L837.5,314.691,891.4,337.3l26.859,47.251V388.1h-7.807L875.8,349.541l-38.4-20.634-39.839,20.634-31.633,38.972Z" transform="translate(-756.737 -314.691)" fill="#5f0f17"/></g></g><path d="M183.239,240.739V413.111c0,40.5,0,73.345-55.734,73.345-2.294,0-4.483-.07-6.592-.181-23.515-1.183-35.778-9.118-42.158-21.3-6.96-13.289-6.96-31.6-6.96-51.866V240.739c0-37.58,21.459-58.213,49.118-60.944a55.783,55.783,0,0,1,6.592-.368c15.4,0,29.343,5.2,39.415,15.463s16.32,25.582,16.32,45.849" transform="translate(16.799 41.984)" fill="#959595"/><path d="M170.056,240.669V413.042c0,38.835,0,70.615-49.142,73.163-23.516-1.183-35.778-9.118-42.158-21.3-6.961-13.289-6.961-31.6-6.961-51.866V240.669c0-37.58,21.46-58.213,49.119-60.944,12.759,1.251,24.2,6.309,32.825,15.1,10.068,10.262,16.317,25.582,16.317,45.849" transform="translate(16.799 42.054)" fill="#bcbec0"/><path d="M186.839,227.245c0,2.361-1.475,4.318-3.3,4.318H73.233c-1.82,0-3.3-1.957-3.3-4.318,0-2.4,1.477-4.355,3.3-4.355H183.542c1.823,0,3.3,1.953,3.3,4.355" transform="translate(16.364 52.154)" fill="#8d8f90"/><path d="M171.022,227.245c0,2.361-1.478,4.318-3.3,4.318H73.232c-1.82,0-3.3-1.957-3.3-4.318,0-2.4,1.476-4.355,3.3-4.355h94.493c1.819,0,3.3,1.953,3.3,4.355" transform="translate(16.364 52.154)" fill="#8d8f90"/><path d="M186.839,265.111c0,2.362-1.475,4.319-3.3,4.319H73.233c-1.82,0-3.3-1.957-3.3-4.319,0-2.4,1.477-4.355,3.3-4.355H183.542c1.823,0,3.3,1.955,3.3,4.355" transform="translate(16.364 61.014)" fill="#8d8f90"/><path d="M171.022,265.111c0,2.362-1.478,4.319-3.3,4.319H73.232c-1.82,0-3.3-1.957-3.3-4.319,0-2.4,1.476-4.355,3.3-4.355h94.493c1.819,0,3.3,1.955,3.3,4.355" transform="translate(16.364 61.014)" fill="#8d8f90"/><path d="M186.839,307.629c0,2.361-1.475,4.318-3.3,4.318H73.233c-1.82,0-3.3-1.957-3.3-4.318,0-2.4,1.477-4.354,3.3-4.354H183.542c1.823,0,3.3,1.952,3.3,4.354" transform="translate(16.364 70.964)" fill="#8d8f90"/><path d="M171.022,307.629c0,2.361-1.478,4.318-3.3,4.318H73.232c-1.82,0-3.3-1.957-3.3-4.318,0-2.4,1.476-4.354,3.3-4.354h94.493c1.819,0,3.3,1.952,3.3,4.354" transform="translate(16.364 70.964)" fill="#8d8f90"/><path d="M186.839,346.063c0,2.361-1.475,4.318-3.3,4.318H73.233c-1.82,0-3.3-1.957-3.3-4.318,0-2.4,1.477-4.356,3.3-4.356H183.542c1.823,0,3.3,1.956,3.3,4.356" transform="translate(16.364 79.956)" fill="#8d8f90"/><path d="M171.022,346.063c0,2.361-1.478,4.318-3.3,4.318H73.232c-1.82,0-3.3-1.957-3.3-4.318,0-2.4,1.476-4.356,3.3-4.356h94.493c1.819,0,3.3,1.956,3.3,4.356" transform="translate(16.364 79.956)" fill="#8d8f90"/><path d="M186.839,387.419c0,2.358-1.475,4.318-3.3,4.318H73.233c-1.82,0-3.3-1.96-3.3-4.318,0-2.4,1.477-4.356,3.3-4.356H183.542c1.823,0,3.3,1.955,3.3,4.356" transform="translate(16.364 89.633)" fill="#8d8f90"/><path d="M171.022,387.419c0,2.358-1.478,4.318-3.3,4.318H73.232c-1.82,0-3.3-1.96-3.3-4.318,0-2.4,1.476-4.356,3.3-4.356h94.493c1.819,0,3.3,1.955,3.3,4.356" transform="translate(16.364 89.633)" fill="#8d8f90"/><path d="M114.421,274.956V418.779c0,33.788,0,61.2-46.5,61.2-1.913,0-3.74-.059-5.5-.153-19.623-.987-29.851-7.608-35.175-17.768-5.807-11.091-5.807-26.367-5.807-43.276V274.956c0-31.354,17.905-48.571,40.982-50.852a47.221,47.221,0,0,1,5.5-.3c12.847,0,24.482,4.342,32.887,12.9s13.615,21.346,13.615,38.255" transform="translate(5.016 52.367)" fill="#959595"/><path d="M103.423,274.9V418.721c0,32.4,0,58.918-41,61.044C42.8,478.778,32.567,472.158,27.244,462c-5.806-11.091-5.806-26.367-5.806-43.276V274.9c0-31.354,17.9-48.571,40.981-50.852,10.648,1.048,20.193,5.268,27.39,12.6,8.4,8.564,13.615,21.346,13.615,38.255" transform="translate(5.016 52.425)" fill="#bcbec0"/><path d="M117.425,263.7c0,1.972-1.232,3.606-2.751,3.606H22.638c-1.519,0-2.751-1.634-2.751-3.606,0-2,1.232-3.632,2.751-3.632h92.037c1.519,0,2.751,1.63,2.751,3.632" transform="translate(4.653 60.853)" fill="#8d8f90"/><path d="M104.227,263.7c0,1.972-1.232,3.606-2.751,3.606H22.637c-1.519,0-2.751-1.634-2.751-3.606,0-2,1.232-3.632,2.751-3.632h78.84c1.519,0,2.751,1.63,2.751,3.632" transform="translate(4.653 60.853)" fill="#8d8f90"/><path d="M117.425,295.292c0,1.969-1.232,3.6-2.751,3.6H22.638c-1.519,0-2.751-1.634-2.751-3.6,0-2,1.232-3.634,2.751-3.634h92.037c1.519,0,2.751,1.631,2.751,3.634" transform="translate(4.653 68.245)" fill="#8d8f90"/><path d="M104.227,295.292c0,1.969-1.232,3.6-2.751,3.6H22.637c-1.519,0-2.751-1.634-2.751-3.6,0-2,1.232-3.634,2.751-3.634h78.84c1.519,0,2.751,1.631,2.751,3.634" transform="translate(4.653 68.245)" fill="#8d8f90"/><path d="M117.425,330.767c0,1.971-1.232,3.6-2.751,3.6H22.638c-1.519,0-2.751-1.633-2.751-3.6,0-2,1.232-3.633,2.751-3.633h92.037c1.519,0,2.751,1.631,2.751,3.633" transform="translate(4.653 76.546)" fill="#8d8f90"/><path d="M104.227,330.767c0,1.971-1.232,3.6-2.751,3.6H22.637c-1.519,0-2.751-1.633-2.751-3.6,0-2,1.232-3.633,2.751-3.633h78.84c1.519,0,2.751,1.631,2.751,3.633" transform="translate(4.653 76.546)" fill="#8d8f90"/><path d="M117.425,362.834c0,1.972-1.232,3.6-2.751,3.6H22.638c-1.519,0-2.751-1.633-2.751-3.6,0-2,1.232-3.632,2.751-3.632h92.037c1.519,0,2.751,1.628,2.751,3.632" transform="translate(4.653 84.05)" fill="#8d8f90"/><path d="M104.227,362.834c0,1.972-1.232,3.6-2.751,3.6H22.637c-1.519,0-2.751-1.633-2.751-3.6,0-2,1.232-3.632,2.751-3.632h78.84c1.519,0,2.751,1.628,2.751,3.632" transform="translate(4.653 84.05)" fill="#8d8f90"/><path d="M117.425,397.339c0,1.972-1.232,3.606-2.751,3.606H22.638c-1.519,0-2.751-1.634-2.751-3.606,0-2,1.232-3.632,2.751-3.632h92.037c1.519,0,2.751,1.629,2.751,3.632" transform="translate(4.653 92.124)" fill="#8d8f90"/><path d="M104.227,397.339c0,1.972-1.232,3.606-2.751,3.606H22.637c-1.519,0-2.751-1.634-2.751-3.606,0-2,1.232-3.632,2.751-3.632h78.84c1.519,0,2.751,1.629,2.751,3.632" transform="translate(4.653 92.124)" fill="#8d8f90"/><path d="M889.389,278.571,862.579,325.4l-3.166,1.968,24.876-53.311Z" transform="translate(201.094 64.126)" fill="#31271b"/><path d="M939.463,259.686l-54.79,23.507-5.1-4.516,59.89-24.376Z" transform="translate(205.811 59.504)" fill="#31271b"/><path d="M972.508,278.571l26.871,46.1,3.106,2.7-24.877-53.311Z" transform="translate(227.557 64.126)" fill="#31271b"/><path d="M928.106,259.686l54.79,23.507,5.1-4.516L928.106,254.3Z" transform="translate(217.168 59.504)" fill="#31271b"/><path d="M861.979,467.008V327.886l27.354-47.378,54.246-23.29,54.186,23.172,27.413,47.5V467.008Z" transform="translate(201.695 60.186)" fill="#e6e7e8"/><path d="M890.349,276.437l-29.976,51.428-5.064-2.952,29.94-52.991Z" transform="translate(200.134 63.627)" fill="#f1f2f2"/><path d="M939.463,257.552l-54.79,23.508-5.1-4.515,59.89-24.378Z" transform="translate(205.811 59.005)" fill="#f1f2f2"/><path d="M972.508,276.437l29.977,51.428,5.063-2.952-29.94-52.991Z" transform="translate(227.557 63.627)" fill="#f1f2f2"/><path d="M928.106,257.552,982.9,281.06l5.1-4.515-59.891-24.378Z" transform="translate(217.168 59.005)" fill="#f1f2f2"/><path d="M1022.059,327.489V463.327H864.105V327.489l.027-.042,3.593-6.227.835-1.451,3.593-6.227.839-1.45,3.593-6.225.675-1.166.164-.286,3.429-5.939.839-1.451,3.593-6.225.839-1.451,3.593-6.227.839-1.451.02-.036L905,275.444l3.379-1.451,14.5-6.225,2.322-1,1.056-.453,13.446-5.773,3.38-1.452,3.379,1.452,13.45,5.773,1.055.453,2.324,1,14.506,6.225,3.379,1.451,14.338,6.154.043.072.839,1.451,3.6,6.227.84,1.451,3.6,6.225.838,1.451,3.437,5.939.164.286.674,1.166,3.6,6.225.843,1.45,3.6,6.227.84,1.451,3.6,6.227Z" transform="translate(202.192 60.625)" fill="#c49a6c"/><rect width="157.953" height="8.117" transform="translate(1066.297 451.801)" fill="#c49a6c"/><rect width="157.953" height="1.535" transform="translate(1066.297 451.801)" fill="#624d36"/><rect width="157.953" height="8.117" transform="translate(1066.297 443.684)" fill="#c49a6c"/><rect width="157.953" height="1.536" transform="translate(1066.297 443.684)" fill="#624d36"/><rect width="157.953" height="8.116" transform="translate(1066.297 435.568)" fill="#c49a6c"/><rect width="157.953" height="1.535" transform="translate(1066.297 435.568)" fill="#624d36"/><rect width="157.953" height="8.117" transform="translate(1066.297 427.45)" fill="#c49a6c"/><rect width="157.953" height="1.535" transform="translate(1066.297 427.449)" fill="#624d36"/><rect width="157.953" height="8.117" transform="translate(1066.297 419.332)" fill="#c49a6c"/><rect width="157.953" height="1.535" transform="translate(1066.297 419.332)" fill="#624d36"/><rect width="157.953" height="8.117" transform="translate(1066.297 411.544)" fill="#c49a6c"/><rect width="157.953" height="1.535" transform="translate(1066.297 411.544)" fill="#624d36"/><rect width="157.953" height="8.117" transform="translate(1066.297 403.865)" fill="#c49a6c"/><rect width="157.953" height="1.536" transform="translate(1066.297 403.865)" fill="#624d36"/><rect width="157.953" height="8.116" transform="translate(1066.297 395.749)" fill="#c49a6c"/><rect width="157.953" height="1.535" transform="translate(1066.297 395.749)" fill="#624d36"/><rect width="157.953" height="7.678" transform="translate(1066.297 388.071)" fill="#c49a6c"/><rect width="157.953" height="1.452" transform="translate(1066.297 388.071)" fill="#624d36"/><path d="M1022.027,315.941h-157.9l3.593-6.227.837-1.451h149.03l.84,1.451Z" transform="translate(202.197 72.131)" fill="#c49a6c"/><path d="M1017.746,309.714H867.039l.837-1.451h149.03Z" transform="translate(202.879 72.131)" fill="#624d36"/><path d="M1016.747,309.719H867.717l3.593-6.227.838-1.451h140.157l.843,1.451Z" transform="translate(203.037 70.675)" fill="#c49a6c"/><path d="M1012.466,303.493H870.629l.838-1.451h140.157Z" transform="translate(203.719 70.675)" fill="#624d36"/><path d="M1011.465,303.5H871.309l3.593-6.225.675-1.165.164-.288h131.284l.165.288.674,1.165Z" transform="translate(203.878 69.219)" fill="#c49a6c"/><path d="M1007.183,297.272H874.221l.675-1.165.164-.288h131.284l.165.288Z" transform="translate(204.559 69.219)" fill="#624d36"/><path d="M1006.381,297.508H874.768l.164-.286,3.429-5.939.839-1.452h122.741l.839,1.452,3.436,5.939Z" transform="translate(204.687 67.817)" fill="#c49a6c"/><path d="M1002.1,291.283H877.68l.838-1.452H1001.26Z" transform="translate(205.368 67.817)" fill="#624d36"/><path d="M1001.1,291.287H878.359l3.593-6.225.839-1.451H996.658l.84,1.451Z" transform="translate(205.527 66.362)" fill="#c49a6c"/><path d="M996.817,285.061H881.271l.839-1.451H995.977Z" transform="translate(206.209 66.362)" fill="#624d36"/><path d="M995.818,285.066H881.952l3.593-6.227.838-1.451h105l.839,1.451Z" transform="translate(206.368 64.906)" fill="#c49a6c"/><path d="M991.537,278.839H884.863l.838-1.451h105Z" transform="translate(207.049 64.906)" fill="#624d36"/><path d="M990.584,278.933h-105l.02-.036,14.416-6.19,3.381-1.452h69.418l3.381,1.452,14.338,6.153Z" transform="translate(207.219 63.471)" fill="#c49a6c"/><path d="M973.467,272.708H897.287l3.38-1.452h69.419Z" transform="translate(209.956 63.471)" fill="#624d36"/><path d="M916.852,265.488l-2.324,1-14.5,6.225h69.419l-14.5-6.225-2.324-1-1.056-.454H917.907Z" transform="translate(210.597 62.015)" fill="#c49a6c"/><path d="M915.157,265.034h33.655l1.056.454,2.324,1H911.779l2.324-1Z" transform="translate(213.347 62.015)" fill="#624d36"/><path d="M914.672,266.316l13.446-5.773,3.38-1.452,3.379,1.452,13.451,5.773,1.055.453H913.616Z" transform="translate(213.777 60.625)" fill="#c49a6c"/><path d="M932.127,260.544h-6.76l3.381-1.452Z" transform="translate(216.527 60.625)" fill="#624d36"/><rect width="157.952" height="8.117" transform="translate(1066.273 515.529)" fill="#c49a6c"/><rect width="157.952" height="1.536" transform="translate(1066.273 515.529)" fill="#624d36"/><rect width="157.952" height="8.116" transform="translate(1066.273 507.413)" fill="#c49a6c"/><rect width="157.952" height="1.535" transform="translate(1066.273 507.413)" fill="#624d36"/><rect width="157.952" height="8.117" transform="translate(1066.273 499.296)" fill="#c49a6c"/><rect width="157.952" height="1.535" transform="translate(1066.273 499.296)" fill="#624d36"/><rect width="157.952" height="8.117" transform="translate(1066.273 491.179)" fill="#c49a6c"/><rect width="157.952" height="1.535" transform="translate(1066.273 491.179)" fill="#624d36"/><rect width="157.952" height="8.117" transform="translate(1066.273 483.39)" fill="#c49a6c"/><rect width="157.952" height="1.536" transform="translate(1066.273 483.39)" fill="#624d36"/><rect width="157.952" height="8.116" transform="translate(1066.273 475.713)" fill="#c49a6c"/><rect width="157.952" height="1.535" transform="translate(1066.273 475.713)" fill="#624d36"/><rect width="157.952" height="8.117" transform="translate(1066.273 467.596)" fill="#c49a6c"/><rect width="157.952" height="1.535" transform="translate(1066.273 467.596)" fill="#624d36"/><rect width="157.952" height="7.678" transform="translate(1066.273 459.918)" fill="#c49a6c"/><rect width="157.952" height="1.452" transform="translate(1066.273 459.918)" fill="#624d36"/><rect width="26.547" height="22.746" transform="translate(1132.001 327.85)" fill="#fff"/><rect width="24.08" height="20.631" transform="translate(1133.234 328.909)" fill="#231f20"/><g transform="translate(1133.235 328.909)" opacity="0.48"><g clip-path="url(#k)"><path d="M918.35,281.005l14.782-14.465H936.2L918.35,284.015Z" transform="translate(-918.35 -266.541)" fill="#4f4c4d"/></g></g><g transform="translate(1139.899 330.888)" opacity="0.48"><g clip-path="url(#l)"><path d="M923.751,286.692l17.414-18.547-.028,3.38-14.513,15.167Z" transform="translate(-923.751 -268.145)" fill="#4f4c4d"/></g></g><rect width="1.315" height="20.631" transform="translate(1144.617 328.909)" fill="#fff"/><rect width="25.314" height="1.315" transform="translate(1133.234 338.567)" fill="#fff"/><rect width="26.547" height="22.745" transform="translate(1088.319 366.491)" fill="#fff"/><rect width="24.081" height="20.632" transform="translate(1089.552 367.546)" fill="#231f20"/><g transform="translate(1089.552 367.546)" opacity="0.48"><g clip-path="url(#m)"><path d="M882.95,312.318l14.782-14.466H900.8L882.95,315.328Z" transform="translate(-882.95 -297.852)" fill="#4f4c4d"/></g></g><g transform="translate(1096.218 369.528)" opacity="0.48"><g clip-path="url(#n)"><path d="M888.352,318.006l17.415-18.548-.028,3.38-14.513,15.168Z" transform="translate(-888.352 -299.458)" fill="#4f4c4d"/></g></g><rect width="1.315" height="20.632" transform="translate(1100.935 367.546)" fill="#fff"/><rect width="25.314" height="1.315" transform="translate(1089.552 377.206)" fill="#fff"/><rect width="26.547" height="22.745" transform="translate(1173.817 366.491)" fill="#fff"/><rect width="24.08" height="20.631" transform="translate(1175.051 367.548)" fill="#231f20"/><g transform="translate(1175.051 367.548)" opacity="0.48"><g clip-path="url(#o)"><path d="M952.237,312.318l14.782-14.465h3.071l-17.853,17.475Z" transform="translate(-952.237 -297.853)" fill="#4f4c4d"/></g></g><g transform="translate(1181.716 369.528)" opacity="0.48"><g clip-path="url(#n)"><path d="M957.638,318.006l17.415-18.548-.028,3.38L960.51,318.006Z" transform="translate(-957.638 -299.458)" fill="#4f4c4d"/></g></g><rect width="1.317" height="20.631" transform="translate(1186.432 367.548)" fill="#fff"/><rect width="25.313" height="1.315" transform="translate(1175.051 377.206)" fill="#fff"/><g transform="translate(1063.673 317.322)" opacity="0.22"><g clip-path="url(#q)"><path d="M861.979,331.739v-3.976l27.3-47.248,54.3-23.363,54.461,22.84,27.138,47.744v3.585h-7.888l-35.008-38.96-38.8-20.848L903.23,292.361l-31.963,39.378Z" transform="translate(-861.979 -257.151)" fill="#937451"/></g></g><rect width="79.2" height="54.528" transform="translate(1105.674 469.423)" fill="#404040"/><rect width="49.382" height="54.528" transform="translate(1107.752 469.423)" fill="#303030"/><rect width="39.378" height="54.528" transform="translate(1091.224 469.423)" fill="#fff"/><rect width="32.485" height="48.023" transform="translate(1094.67 472.565)" fill="#c49a6c"/><rect width="3.899" height="57.978" transform="matrix(0.828, -0.56, 0.56, 0.828, 1093.055, 473.656)" fill="#fff"/><rect width="57.978" height="3.899" transform="matrix(0.56, -0.828, 0.828, 0.56, 1093.05, 519.491)" fill="#fff"/><rect width="39.378" height="54.528" transform="translate(1159.947 469.423)" fill="#fff"/><rect width="32.485" height="48.023" transform="translate(1163.393 472.565)" fill="#c49a6c"/><rect width="3.899" height="57.978" transform="matrix(0.828, -0.56, 0.56, 0.828, 1161.779, 473.656)" fill="#fff"/><rect width="57.978" height="3.899" transform="matrix(0.56, -0.828, 0.828, 0.56, 1161.774, 519.491)" fill="#fff"/><path d="M893.609,373.682H860.363v-22.71h33.246Zm-31.18-2.068h29.112V353.039H862.429Z" transform="translate(201.316 82.124)" fill="#a97c50"/><rect width="1.55" height="35.451" transform="matrix(0.552, -0.834, 0.834, 0.552, 1063.094, 435.312)" fill="#a97c50"/><path d="M891.382,373l-.337-.225-30.8-20.389,2.4-.951,31.136,20.615Z" transform="translate(201.289 82.233)" fill="#a97c50"/><rect width="35.451" height="1.55" transform="translate(1063.095 453.591) rotate(-33.512)" fill="#a97c50"/><path d="M862.643,373l-2.4-.95,31.135-20.615,2.4.951Z" transform="translate(201.289 82.233)" fill="#a97c50"/><path d="M920.771,373.682H887.524v-22.71h33.247Zm-31.181-2.068H918.7V353.039H889.591Z" transform="translate(207.672 82.124)" fill="#a97c50"/><rect width="1.55" height="35.451" transform="translate(1096.611 435.312) rotate(-56.491)" fill="#a97c50"/><path d="M918.544,373l-.337-.225-30.8-20.389,2.4-.951,31.135,20.615Z" transform="translate(207.645 82.233)" fill="#a97c50"/><rect width="35.451" height="1.55" transform="translate(1096.606 453.582) rotate(-33.475)" fill="#a97c50"/><path d="M889.8,373l-2.4-.95,31.135-20.615,2.4.951Z" transform="translate(207.645 82.233)" fill="#a97c50"/><path d="M947.945,373.682H914.7v-22.71h33.246Zm-31.179-2.068h29.112V353.039H916.766Z" transform="translate(214.03 82.124)" fill="#a97c50"/><rect width="1.55" height="35.45" transform="translate(1130.145 435.312) rotate(-56.491)" fill="#a97c50"/><path d="M945.717,373l-.337-.225-30.8-20.389,2.4-.951,31.136,20.615Z" transform="translate(214.004 82.233)" fill="#a97c50"/><rect width="35.45" height="1.55" transform="translate(1130.14 453.581) rotate(-33.475)" fill="#a97c50"/><path d="M916.98,373l-2.4-.95,31.136-20.615,2.4.951Z" transform="translate(214.003 82.233)" fill="#a97c50"/><path d="M975.119,373.682H941.873v-22.71h33.246Zm-31.179-2.068h29.112V353.039H943.94Z" transform="translate(220.389 82.124)" fill="#a97c50"/><rect width="1.55" height="35.451" transform="translate(1163.677 435.312) rotate(-56.491)" fill="#a97c50"/><path d="M972.891,373l-.336-.225-30.8-20.389,2.4-.951,31.135,20.615Z" transform="translate(220.362 82.233)" fill="#a97c50"/><rect width="35.451" height="1.55" transform="translate(1163.672 453.582) rotate(-33.475)" fill="#a97c50"/><path d="M944.154,373l-2.4-.95,31.135-20.615,2.4.951Z" transform="translate(220.362 82.233)" fill="#a97c50"/><path d="M1002.156,373.682H968.909v-22.71h33.247Zm-31.18-2.068h29.112V353.039H970.976Z" transform="translate(226.715 82.124)" fill="#a97c50"/><rect width="1.55" height="35.451" transform="matrix(0.552, -0.834, 0.834, 0.552, 1197.04, 435.312)" fill="#a97c50"/><path d="M999.928,373l-.337-.225-30.8-20.389,2.4-.951,31.135,20.615Z" transform="translate(226.688 82.233)" fill="#a97c50"/><rect width="35.451" height="1.55" transform="translate(1197.041 453.591) rotate(-33.512)" fill="#a97c50"/><path d="M971.19,373l-2.4-.95,31.135-20.615,2.4.951Z" transform="translate(226.688 82.233)" fill="#a97c50"/><rect width="3.991" height="1.144" transform="translate(1193.7 434.019)" fill="#7f5d3c"/><path d="M970.585,352.268a.445.445,0,1,1-.444-.444.444.444,0,0,1,.444.444" transform="translate(226.899 82.323)" fill="#553e28"/><path d="M968.558,352.268a.445.445,0,1,1-.444-.444.445.445,0,0,1,.444.444" transform="translate(226.425 82.323)" fill="#553e28"/><rect width="3.989" height="1.145" transform="translate(1160.123 434.047)" fill="#7f5d3c"/><path d="M943.374,352.291a.445.445,0,1,1-.444-.444.444.444,0,0,1,.444.444" transform="translate(220.532 82.329)" fill="#553e28"/><path d="M941.347,352.291a.445.445,0,1,1-.444-.444.444.444,0,0,1,.444.444" transform="translate(220.058 82.329)" fill="#553e28"/><rect width="3.991" height="1.145" transform="translate(1126.59 434.047)" fill="#7f5d3c"/><path d="M916.2,352.291a.445.445,0,1,1-.444-.444.445.445,0,0,1,.444.444" transform="translate(214.173 82.329)" fill="#553e28"/><path d="M914.172,352.291a.445.445,0,1,1-.444-.444.444.444,0,0,1,.444.444" transform="translate(213.699 82.329)" fill="#553e28"/><rect width="3.991" height="1.145" transform="translate(1093.072 434.047)" fill="#7f5d3c"/><path d="M889.038,352.291a.445.445,0,1,1-.444-.444.444.444,0,0,1,.444.444" transform="translate(207.818 82.329)" fill="#553e28"/><path d="M887.011,352.291a.445.445,0,1,1-.444-.444.445.445,0,0,1,.444.444" transform="translate(207.343 82.329)" fill="#553e28"/><rect width="3.991" height="1.144" transform="translate(1092.675 453.865)" fill="#7f5d3c"/><path d="M888.716,368.351a.445.445,0,1,1-.444-.444.445.445,0,0,1,.444.444" transform="translate(207.742 86.087)" fill="#553e28"/><path d="M886.688,368.351a.445.445,0,1,1-.444-.444.445.445,0,0,1,.444.444" transform="translate(207.268 86.087)" fill="#553e28"/><rect width="3.989" height="1.144" transform="translate(1126.448 454.438)" fill="#7f5d3c"/><path d="M916.084,368.814a.445.445,0,1,1-.444-.444.444.444,0,0,1,.444.444" transform="translate(214.146 86.195)" fill="#553e28"/><path d="M914.057,368.814a.445.445,0,1,1-.444-.444.444.444,0,0,1,.444.444" transform="translate(213.672 86.195)" fill="#553e28"/><rect width="3.991" height="1.144" transform="translate(1160.265 454.311)" fill="#7f5d3c"/><path d="M943.49,368.712a.445.445,0,1,1-.444-.444.445.445,0,0,1,.444.444" transform="translate(220.559 86.171)" fill="#553e28"/><path d="M941.463,368.712a.445.445,0,1,1-.446-.444.446.446,0,0,1,.446.444" transform="translate(220.085 86.171)" fill="#553e28"/><rect width="3.991" height="1.144" transform="translate(1193.485 454.311)" fill="#7f5d3c"/><path d="M970.411,368.712a.445.445,0,1,1-.444-.444.446.446,0,0,1,.444.444" transform="translate(226.858 86.171)" fill="#553e28"/><path d="M968.383,368.712a.445.445,0,1,1-.444-.444.445.445,0,0,1,.444.444" transform="translate(226.384 86.171)" fill="#553e28"/><path d="M406.521,247.87l-10.537-2.5v-.015l-136.8-.035V470.287l136.8.03H726.626V324.088Z" transform="translate(60.646 57.402)" fill="#bfbfbf"/><path d="M589.824,324.071V470.31H259.183V245.347l10.538,2.5Z" transform="translate(60.646 57.409)" fill="#dddbda"/><rect width="89.99" height="81.278" transform="translate(351.401 446.442)" fill="#82b4ce"/><rect width="33.567" height="27.772" transform="translate(351.402 499.947)" fill="#64a6c4"/><rect width="89.99" height="0.732" transform="translate(351.401 450.277)" fill="#6e92a6"/><rect width="89.99" height="0.732" transform="translate(351.401 451.521)" fill="#6e92a6"/><rect width="89.99" height="0.733" transform="translate(351.401 452.783)" fill="#6e92a6"/><rect width="89.99" height="0.732" transform="translate(351.401 446.491)" fill="#6e92a6"/><rect width="89.99" height="0.731" transform="translate(351.401 447.736)" fill="#6e92a6"/><rect width="89.99" height="0.732" transform="translate(351.401 448.997)" fill="#6e92a6"/><rect width="89.99" height="0.732" transform="translate(351.401 454.264)" fill="#6e92a6"/><rect width="89.99" height="0.731" transform="translate(351.401 455.508)" fill="#6e92a6"/><rect width="89.99" height="0.733" transform="translate(351.401 456.77)" fill="#6e92a6"/><rect width="89.99" height="0.732" transform="translate(351.401 458.079)" fill="#6e92a6"/><rect width="89.99" height="0.732" transform="translate(351.401 459.323)" fill="#6e92a6"/><rect width="89.99" height="0.732" transform="translate(351.401 460.588)" fill="#6e92a6"/><rect width="89.99" height="0.732" transform="translate(351.401 462.09)" fill="#6e92a6"/><rect width="89.99" height="0.732" transform="translate(351.401 463.334)" fill="#6e92a6"/><rect width="89.99" height="0.732" transform="translate(351.401 464.596)" fill="#6e92a6"/><rect width="89.99" height="0.731" transform="translate(351.401 465.877)" fill="#6e92a6"/><rect width="89.99" height="0.732" transform="translate(351.401 467.121)" fill="#6e92a6"/><rect width="89.99" height="0.733" transform="translate(351.401 468.382)" fill="#6e92a6"/><rect width="89.99" height="0.732" transform="translate(351.401 469.671)" fill="#6e92a6"/><rect width="89.99" height="0.732" transform="translate(351.401 470.915)" fill="#6e92a6"/><rect width="89.99" height="0.733" transform="translate(351.401 472.178)" fill="#6e92a6"/><rect width="89.99" height="0.732" transform="translate(351.401 477.315)" fill="#6e92a6"/><rect width="89.99" height="0.732" transform="translate(351.401 478.557)" fill="#6e92a6"/><rect width="89.99" height="0.732" transform="translate(351.401 479.822)" fill="#6e92a6"/><rect width="89.99" height="0.732" transform="translate(351.401 473.528)" fill="#6e92a6"/><rect width="89.99" height="0.731" transform="translate(351.401 474.773)" fill="#6e92a6"/><rect width="89.99" height="0.732" transform="translate(351.401 476.035)" fill="#6e92a6"/><rect width="89.99" height="0.733" transform="translate(351.401 481.301)" fill="#6e92a6"/><rect width="89.99" height="0.731" transform="translate(351.401 482.546)" fill="#6e92a6"/><rect width="89.99" height="0.732" transform="translate(351.401 483.808)" fill="#6e92a6"/><rect width="89.99" height="0.732" transform="translate(351.401 485.117)" fill="#6e92a6"/><rect width="89.99" height="0.733" transform="translate(351.401 486.36)" fill="#6e92a6"/><rect width="89.99" height="0.732" transform="translate(351.401 487.625)" fill="#6e92a6"/><rect width="89.99" height="0.732" transform="translate(351.401 489.128)" fill="#6e92a6"/><rect width="89.99" height="0.732" transform="translate(351.401 490.37)" fill="#6e92a6"/><rect width="89.99" height="0.732" transform="translate(351.401 491.635)" fill="#6e92a6"/><rect width="89.99" height="0.732" transform="translate(351.401 492.915)" fill="#6e92a6"/><rect width="89.99" height="0.732" transform="translate(351.401 494.157)" fill="#6e92a6"/><rect width="89.99" height="0.731" transform="translate(351.401 495.421)" fill="#6e92a6"/><rect width="89.99" height="0.732" transform="translate(351.401 496.709)" fill="#6e92a6"/><rect width="89.99" height="0.732" transform="translate(351.401 497.952)" fill="#6e92a6"/><rect width="89.99" height="0.732" transform="translate(351.401 499.216)" fill="#6e92a6"/><rect width="89.99" height="113.056" transform="translate(673.803 415.12)" fill="#82b4ce"/><rect width="33.566" height="38.633" transform="translate(673.803 489.544)" fill="#64a6c4"/><rect width="89.99" height="1.018" transform="translate(673.803 420.455)" fill="#6e92a6"/><rect width="89.99" height="1.017" transform="translate(673.803 422.185)" fill="#6e92a6"/><rect width="89.99" height="1.018" transform="translate(673.803 423.942)" fill="#6e92a6"/><rect width="89.99" height="1.018" transform="translate(673.803 415.188)" fill="#6e92a6"/><rect width="89.99" height="1.014" transform="translate(673.803 416.92)" fill="#6e92a6"/><rect width="89.99" height="1.016" transform="translate(673.803 418.676)" fill="#6e92a6"/><rect width="89.99" height="1.018" transform="translate(673.803 425.999)" fill="#6e92a6"/><rect width="89.99" height="1.018" transform="translate(673.803 427.731)" fill="#6e92a6"/><rect width="89.99" height="1.018" transform="translate(673.803 429.487)" fill="#6e92a6"/><rect width="89.99" height="1.018" transform="translate(673.803 431.31)" fill="#6e92a6"/><rect width="89.99" height="1.017" transform="translate(673.803 433.039)" fill="#6e92a6"/><rect width="89.99" height="1.018" transform="translate(673.803 434.795)" fill="#6e92a6"/><rect width="89.99" height="1.018" transform="translate(673.803 436.886)" fill="#6e92a6"/><rect width="89.99" height="1.018" transform="translate(673.803 438.616)" fill="#6e92a6"/><rect width="89.99" height="1.018" transform="translate(673.803 440.373)" fill="#6e92a6"/><rect width="89.99" height="1.017" transform="translate(673.803 442.153)" fill="#6e92a6"/><rect width="89.99" height="1.016" transform="translate(673.803 443.885)" fill="#6e92a6"/><rect width="89.99" height="1.017" transform="translate(673.803 445.641)" fill="#6e92a6"/><rect width="89.99" height="1.014" transform="translate(673.803 447.434)" fill="#6e92a6"/><rect width="89.99" height="1.018" transform="translate(673.803 449.161)" fill="#6e92a6"/><rect width="89.99" height="1.014" transform="translate(673.803 450.921)" fill="#6e92a6"/><rect width="89.99" height="1.018" transform="translate(673.803 458.063)" fill="#6e92a6"/><rect width="89.99" height="1.017" transform="translate(673.803 459.793)" fill="#6e92a6"/><rect width="89.99" height="1.018" transform="translate(673.803 461.551)" fill="#6e92a6"/><rect width="89.99" height="1.017" transform="translate(673.803 452.798)" fill="#6e92a6"/><rect width="89.99" height="1.016" transform="translate(673.803 454.528)" fill="#6e92a6"/><rect width="89.99" height="1.014" transform="translate(673.803 456.285)" fill="#6e92a6"/><rect width="89.99" height="1.018" transform="translate(673.803 463.608)" fill="#6e92a6"/><rect width="89.99" height="1.017" transform="translate(673.803 465.339)" fill="#6e92a6"/><rect width="89.99" height="1.018" transform="translate(673.803 467.095)" fill="#6e92a6"/><rect width="89.99" height="1.017" transform="translate(673.803 468.916)" fill="#6e92a6"/><rect width="89.99" height="1.016" transform="translate(673.803 470.648)" fill="#6e92a6"/><rect width="89.99" height="1.017" transform="translate(673.803 472.403)" fill="#6e92a6"/><rect width="89.99" height="1.018" transform="translate(673.803 474.495)" fill="#6e92a6"/><rect width="89.99" height="1.018" transform="translate(673.803 476.224)" fill="#6e92a6"/><rect width="89.99" height="1.018" transform="translate(673.803 477.981)" fill="#6e92a6"/><rect width="89.99" height="1.017" transform="translate(673.803 479.762)" fill="#6e92a6"/><rect width="89.99" height="1.018" transform="translate(673.803 481.491)" fill="#6e92a6"/><rect width="89.99" height="1.017" transform="translate(673.803 483.249)" fill="#6e92a6"/><rect width="89.99" height="1.016" transform="translate(673.803 485.041)" fill="#6e92a6"/><rect width="89.99" height="1.019" transform="translate(673.803 486.77)" fill="#6e92a6"/><rect width="89.99" height="1.018" transform="translate(673.803 488.527)" fill="#6e92a6"/><rect width="330.496" height="19.606" transform="translate(319.975 393.424)" fill="#bcbec0"/><rect width="3.391" height="10.984" transform="translate(332.284 423.152)" fill="#64a6c4"/><rect width="3.391" height="10.976" transform="translate(332.284 440.913)" fill="#64a6c4"/><rect width="3.391" height="10.98" transform="translate(332.284 459.638)" fill="#64a6c4"/><rect width="3.391" height="10.981" transform="translate(332.284 477.389)" fill="#64a6c4"/><rect width="3.391" height="10.978" transform="translate(332.284 495.169)" fill="#64a6c4"/><rect width="3.391" height="10.984" transform="translate(332.284 512.923)" fill="#64a6c4"/><path d="M88.234,343.109V460.141H299.183V288.681Z" transform="translate(20.646 67.548)" fill="#bfbfbf"/><path d="M164.193,362.242c0-1.412-.529-2.553-1.181-2.553s-1.182,1.141-1.182,2.553v14.68c0,1.409.529,2.552,1.182,2.552s1.181-1.143,1.181-2.552Z" transform="translate(37.867 84.164)" fill="#a11e21"/><path d="M185.247,362.242c0-1.412-.528-2.553-1.181-2.553s-1.181,1.141-1.181,2.553v14.68c0,1.409.529,2.552,1.181,2.552s1.181-1.143,1.181-2.552Z" transform="translate(42.793 84.164)" fill="#a11e21"/><path d="M190.173,360.333c0-1.5-.586-2.712-1.309-2.712h-25.72c-.727,0-1.314,1.215-1.314,2.712s.587,2.711,1.314,2.711h25.72c.723,0,1.309-1.211,1.309-2.711" transform="translate(37.867 83.68)" fill="#a11e21"/><path d="M177.351,379.592v62.266H152.6V379.592a12.348,12.348,0,0,1,9.122-11.93,11.657,11.657,0,0,1,3.266-.458,12.34,12.34,0,0,1,12.367,12.388" transform="translate(35.706 85.922)" fill="#6e92a6"/><path d="M170.82,379.505v62.266H152.6V379.505a12.348,12.348,0,0,1,9.122-11.93,12.272,12.272,0,0,1,9.1,11.93" transform="translate(35.706 86.009)" fill="#64a6c4"/><path d="M199.515,379.592v62.266H174.76V379.592a12.348,12.348,0,0,1,9.12-11.93,11.672,11.672,0,0,1,3.268-.458,12.342,12.342,0,0,1,12.367,12.388" transform="translate(40.892 85.922)" fill="#6e92a6"/><path d="M192.984,379.505v62.266H174.76V379.505a12.348,12.348,0,0,1,9.12-11.93,12.271,12.271,0,0,1,9.1,11.93" transform="translate(40.892 86.009)" fill="#64a6c4"/><path d="M117.145,362.242c0-1.412-.531-2.553-1.182-2.553s-1.182,1.141-1.182,2.553v14.68c0,1.409.529,2.552,1.182,2.552s1.182-1.143,1.182-2.552Z" transform="translate(26.858 84.164)" fill="#a11e21"/><path d="M138.2,362.242c0-1.412-.528-2.553-1.18-2.553s-1.182,1.141-1.182,2.553v14.68c0,1.409.529,2.552,1.182,2.552s1.18-1.143,1.18-2.552Z" transform="translate(31.784 84.164)" fill="#a11e21"/><path d="M143.125,360.333c0-1.5-.585-2.712-1.308-2.712H116.1c-.728,0-1.315,1.215-1.315,2.712s.587,2.711,1.315,2.711h25.72c.723,0,1.308-1.211,1.308-2.711" transform="translate(26.858 83.68)" fill="#a11e21"/><path d="M130.3,379.592v62.266H105.547V379.592a12.349,12.349,0,0,1,9.122-11.93,11.664,11.664,0,0,1,3.266-.458A12.34,12.34,0,0,1,130.3,379.592" transform="translate(24.697 85.922)" fill="#6e92a6"/><path d="M123.771,379.505v62.266H105.547V379.505a12.349,12.349,0,0,1,9.122-11.93,12.268,12.268,0,0,1,9.1,11.93" transform="translate(24.697 86.009)" fill="#64a6c4"/><path d="M152.467,379.592v62.266H127.712V379.592a12.349,12.349,0,0,1,9.122-11.93,11.664,11.664,0,0,1,3.266-.458,12.34,12.34,0,0,1,12.367,12.388" transform="translate(29.883 85.922)" fill="#6e92a6"/><path d="M145.936,379.505v62.266H127.712V379.505a12.349,12.349,0,0,1,9.122-11.93,12.268,12.268,0,0,1,9.1,11.93" transform="translate(29.883 86.009)" fill="#64a6c4"/><path d="M88.234,342.559v2.923l210.948-56.311.146-2.577Z" transform="translate(20.646 67.06)" fill="#d1d3d4"/><path d="M574.348,415.626c-1.13-.621-2.1-1.28-2.832-1.255a125.519,125.519,0,0,1-2.157-13.892.522.522,0,1,0-1.012.11c.5,4.5,1.106,8.717,1.72,11.873.2,1.029.381,1.86.553,2.533a3.155,3.155,0,0,0,.954,3.163c1.145,1.255,2.577,1.55,3.459,1,4.685-2.888,2.39-1.846-.685-3.537" transform="translate(132.986 93.572)" fill="#f1f2f2"/><path d="M571.112,411.628c.735-.026,1.7.634,2.832,1.255,3.075,1.691,5.37.649.685,3.537-.882.544-2.314.25-3.459-1.006a3.157,3.157,0,0,1-.955-3.161Z" transform="translate(133.39 96.317)" fill="#121010"/><path d="M557.033,415.353s-4.321-1.054-5.085,0c-2.09,2.88.9,14.391.9,14.391l.046.01v4.4h3.4v-5.475c.877-3.463.735-13.322.735-13.322" transform="translate(128.977 97.079)" fill="#b5b6b6"/><path d="M556.328,431.907h-4.756s.717-1.9,1.268-2.227c.754-.437,2.873-.615,3.487,0,.392.395,0,2.227,0,2.227" transform="translate(129.062 100.448)" fill="#231f20"/><path d="M558.843,426.064c.419,1.315.432,2.479.025,2.611-.362.12-.938-.617-1.375-1.7a6.614,6.614,0,0,1-2.137.587c-.086,1.113-.4,1.935-.769,1.935s-.677-.822-.764-1.935a6.8,6.8,0,0,1-1.955-.5c-.4,1.043-.928,1.746-1.282,1.642-.4-.117-.432-1.212-.09-2.486a3.383,3.383,0,0,1-1.277-2.545c0-1.641,1.367-3.047,3.312-3.64a7.135,7.135,0,0,1,2.056-.3c2.942,0,5.331,1.731,5.369,3.882a.2.2,0,0,1,0,.055,3.322,3.322,0,0,1-1.118,2.4" transform="translate(128.512 98.213)" fill="#f4d1c2"/><g transform="translate(680.323 517.944)" opacity="0.23"><g clip-path="url(#r)"><path d="M559.464,423.613a6.056,6.056,0,0,1-3.482,1c-2.574,0-4.662-1.34-4.662-2.991a2.283,2.283,0,0,1,.718-1.594,7.106,7.106,0,0,1,2.056-.3c2.943,0,5.332,1.731,5.37,3.881" transform="translate(-551.32 -419.731)" fill="#3c3d3d"/></g></g><path d="M574.036,399.671c-1.3-2.558-4.652-2.067-12.557-2.377-4.583-.18-9.942-.326-15.442-.338v34.716c.611-.033,1.222-.07,1.823-.141a29.411,29.411,0,0,0,14.78-6.177,31.969,31.969,0,0,0,7.925-9.225,33.519,33.519,0,0,0,3.472-8.756c.723-2.979,1.605-4.552,0-7.7" transform="translate(127.767 92.884)" fill="#f1f2f2"/><path d="M562.617,416.351s-4.321-1.055-5.085,0c-2.089,2.879.9,14.39.9,14.39l.047.01v4.4h3.4v-5.475c.877-3.463.735-13.321.735-13.321" transform="translate(130.283 97.312)" fill="#f1f2f2"/><path d="M562.478,433.884H555.2s1.093-2.916,1.94-3.409c1.154-.67,4.393-.943,5.338,0,.6.6,0,3.409,0,3.409" transform="translate(129.911 100.584)" fill="#231f20"/><path d="M546.036,396.957v6.385a15.819,15.819,0,0,0,3.928.5c5.723,0,10.484-2.818,11.516-6.544-4.583-.18-9.945-.325-15.443-.337" transform="translate(127.767 92.884)"/><path d="M562.313,420.5a29.421,29.421,0,0,1-14.779,6.177c-.615-2.609,1.4-5.881,4.908-7.721,3.94-2.063,8.284-1.54,9.7,1.167.063.123.121.248.172.376" transform="translate(128.092 97.737)"/><path d="M560.458,413.326a3.444,3.444,0,1,1-3.444-3.445,3.443,3.443,0,0,1,3.444,3.445" transform="translate(129.53 95.908)"/><path d="M570.414,406.26a33.519,33.519,0,0,1-3.472,8.756c-1.1-.109-2.257.363-3.322-.513a7.119,7.119,0,0,1-2.1-4.742c0-2.462.988-8.053,3.247-8.053,2.87,0,1.911,2.009,2.774,3,.784.906,2.258.616,2.875,1.547" transform="translate(131.39 93.996)"/><path d="M605.808,295.256l-.88-.26h-.212L540.86,279.753l-5.591-1.609h-1.15l-137.371-32.79-6.966-.036.151.036H259.3v3.112L589.65,324.491v-.4H726.6Zm-57.186,16.85-63.273-14.6h122.49l60.09,14.38H548.623ZM475.39,295v.215l-63.078-14.552h125.12L597.338,295Zm-73.232-16.851v.17l-58.23-13.434H471.509l55.422,13.264Zm-1.725-30.276,60.574,14.5H333.036l-62.835-14.5ZM589.65,321.575,558.57,314.4H678.427l29.964,7.172Z" transform="translate(60.673 57.402)" fill="#d1d3d4"/><path d="M221.224,439.1a2.394,2.394,0,1,1-4.718,0V370.865a2.394,2.394,0,1,1,4.718,0Z" transform="translate(50.66 86.122)" fill="#5a5a5c"/><path d="M227.474,439.1a2.393,2.393,0,1,1-4.715,0V370.865a2.393,2.393,0,1,1,4.715,0Z" transform="translate(52.123 86.122)" fill="#5a5a5c"/><path d="M233.357,439.1a2.394,2.394,0,1,1-4.718,0V370.865a2.394,2.394,0,1,1,4.718,0Z" transform="translate(53.499 86.122)" fill="#5a5a5c"/><path d="M763.4,407.089c-1.439-.791-2.67-1.629-3.606-1.6a159.408,159.408,0,0,1-2.747-17.688.665.665,0,1,0-1.288.141c.629,5.731,1.407,11.1,2.189,15.115.254,1.312.488,2.369.7,3.228-.486,1.014-.021,2.67,1.215,4.025,1.457,1.6,3.28,1.973,4.4,1.28,5.965-3.676,3.042-2.351-.871-4.5" transform="translate(176.84 90.569)" fill="#f1f2f2"/><path d="M759.285,402c.935-.031,2.167.807,3.606,1.6,3.913,2.152,6.836.827.871,4.5-1.124.693-2.947.318-4.4-1.28-1.237-1.355-1.7-3.011-1.215-4.025Z" transform="translate(177.353 94.063)" fill="#121010"/><path d="M715.791,409.939s-4.974-1.213-5.854,0c-2.408,3.315,1.039,16.57,1.039,16.57l.053.01v5.063h3.915v-6.3c1.011-3.987.846-15.339.846-15.339" transform="translate(165.918 95.796)" fill="#b5b6b6"/><path d="M714.859,429.435h-6.534s.981-2.616,1.742-3.059c1.034-.6,3.944-.847,4.792,0,.539.54,0,3.059,0,3.059" transform="translate(165.741 99.64)" fill="#231f20"/><path d="M741.356,406.741s-5.5-1.341-6.474,0c-2.66,3.667,1.149,18.322,1.149,18.322l.058.011v5.6h4.331V423.7c1.116-4.408.935-16.961.935-16.961" transform="translate(171.734 95.034)" fill="#b5b6b6"/><path d="M740.46,427.816h-6.054s.909-2.425,1.615-2.836c.96-.557,3.655-.784,4.439,0,.5.5,0,2.836,0,2.836" transform="translate(171.844 99.323)" fill="#231f20"/><path d="M743.663,420.377c.533,1.675.549,3.155.031,3.323-.463.153-1.195-.784-1.749-2.167a8.459,8.459,0,0,1-2.722.748c-.111,1.417-.508,2.464-.979,2.464s-.864-1.048-.975-2.464a8.7,8.7,0,0,1-2.488-.64c-.5,1.329-1.181,2.222-1.633,2.092-.507-.148-.548-1.541-.112-3.165a4.307,4.307,0,0,1-1.629-3.242c0-2.088,1.741-3.877,4.216-4.632a9.082,9.082,0,0,1,2.62-.379c3.745,0,6.787,2.205,6.835,4.942a.32.32,0,0,1,0,.069,4.231,4.231,0,0,1-1.422,3.052" transform="translate(171.142 96.477)" fill="#f4d1c2"/><g transform="translate(905.854 508.792)" opacity="0.23"><g clip-path="url(#s)"><path d="M744.453,417.256a7.709,7.709,0,0,1-4.434,1.275c-3.276,0-5.934-1.707-5.934-3.808a2.9,2.9,0,0,1,.913-2.029,9.033,9.033,0,0,1,2.62-.38c3.745,0,6.787,2.205,6.835,4.942" transform="translate(-734.085 -412.314)" fill="#3c3d3d"/></g></g><path d="M771.263,396.579a42.706,42.706,0,0,1-4.421,11.148,40.735,40.735,0,0,1-10.09,11.748,37.475,37.475,0,0,1-18.818,7.864c-1.007.118-2.026.2-3.057.234a27.365,27.365,0,0,1-12.03-2.743,62.172,62.172,0,0,1-16.627-11.609c-9.484-9.008-15.915-19.728-13.711-24.121a3.337,3.337,0,0,1,1.794-1.612,47.4,47.4,0,0,1,10.71-2.567c2.689-.39,5.621-.69,8.7-.926,13.334-1.012,29.545-.722,41.559-.247,10.064.394,14.329-.233,15.989,3.025,2.041,4.009.918,6.013,0,9.805" transform="translate(161.938 89.692)" fill="#f1f2f2"/><path d="M724.181,410.876s-4.974-1.214-5.855,0c-2.406,3.315,1.039,16.57,1.039,16.57l.054.01v5.063h3.917v-6.3c1.008-3.987.845-15.339.845-15.339" transform="translate(167.881 96.015)" fill="#f1f2f2"/><path d="M724.022,431.064H715.64s1.261-3.358,2.237-3.925c1.328-.771,5.058-1.086,6.145,0,.693.695,0,3.925,0,3.925" transform="translate(167.453 99.782)" fill="#231f20"/><path d="M748.466,408.009s-5.5-1.343-6.473,0c-2.66,3.666,1.148,18.322,1.148,18.322l.059.011v5.6h4.331v-6.971c1.115-4.408.935-16.96.935-16.96" transform="translate(173.398 95.33)" fill="#f1f2f2"/><path d="M748.289,430.333h-9.267s1.393-3.713,2.472-4.341c1.47-.853,5.595-1.2,6.8,0,.768.768,0,4.341,0,4.341" transform="translate(172.924 99.496)" fill="#231f20"/><path d="M751.275,383.749c-1.31,4.742-7.373,8.331-14.661,8.331a19.788,19.788,0,0,1-8.628-1.892,11.939,11.939,0,0,1-8.6,3.154c-5.665-.023-10.24-3.2-10.22-7.093a5.025,5.025,0,0,1,.553-2.253c13.334-1.011,29.545-.722,41.559-.247" transform="translate(165.937 89.692)"/><path d="M721.146,418.606a4.921,4.921,0,0,1-.982,1.134,62.206,62.206,0,0,1-16.627-11.608,4.628,4.628,0,0,1,.244-.439c2.071-3.292,7.636-3.519,12.432-.507s7,8.125,4.932,11.421" transform="translate(164.621 94.782)"/><path d="M748.082,413.3a37.475,37.475,0,0,1-18.818,7.864c-.78-3.321,1.778-7.487,6.248-9.83,5.02-2.627,10.548-1.961,12.351,1.486a5.228,5.228,0,0,1,.22.48" transform="translate(170.608 95.871)"/><path d="M727.01,399.05a6.6,6.6,0,1,1-6.6-6.6,6.6,6.6,0,0,1,6.6,6.6" transform="translate(167.026 91.83)"/><path d="M705.187,386.441a6.6,6.6,0,0,1-12.761,2.354,3.339,3.339,0,0,1,1.794-1.61,47.36,47.36,0,0,1,10.711-2.567,6.581,6.581,0,0,1,.255,1.823" transform="translate(162.021 89.997)"/><path d="M745.721,404.159a4.385,4.385,0,1,1-4.386-4.387,4.385,4.385,0,0,1,4.386,4.387" transform="translate(172.439 93.543)"/><path d="M758.4,395.163a42.707,42.707,0,0,1-4.421,11.148c-1.406-.137-2.874.463-4.229-.653-.981-.608-2.678-3.618-2.678-6.038,0-3.134,1.259-10.253,4.134-10.253,3.654,0,2.435,2.559,3.532,3.825,1,1.155,2.874.785,3.663,1.971" transform="translate(174.806 91.108)"/><path d="M704.58,384.81a13.761,13.761,0,0,0,3.334-.533c.737-.387,0,1.037,0,1.037s-.168.81-1.5,1.085a7.074,7.074,0,0,1-2.61,0l-.093-1.408Z" transform="translate(164.661 89.901)" fill="#262626"/><path d="M685.777,384.885a15.262,15.262,0,0,1,.039-3.281,4.664,4.664,0,0,1,1.412-3.2c1.022-1.024,1.128,6.478,2.257,6.478Z" transform="translate(160.448 88.521)" fill="#5e5f60"/><path d="M702.868,384.885a15.215,15.215,0,0,0-.041-3.281,4.67,4.67,0,0,0-1.412-3.2c-1.022-1.024-1.127,6.478-2.257,6.478Z" transform="translate(163.596 88.521)" fill="#5e5f60"/><path d="M685.915,383.737s-5.015-.448-6.438-1.667,0,3.249,0,3.249a4.377,4.377,0,0,0,2.9,3.4,8.576,8.576,0,0,0,5.037,0l.18-4.415Z" transform="translate(158.843 89.351)" fill="#333"/><path d="M703.683,383.737s5.015-.448,6.436-1.667,0,3.249,0,3.249a4.38,4.38,0,0,1-2.9,3.4,8.576,8.576,0,0,1-5.037,0L702,384.3Z" transform="translate(164.261 89.351)" fill="#333"/><path d="M684.217,384.81a13.753,13.753,0,0,1-3.333-.533c-.737-.387,0,1.037,0,1.037s.168.81,1.5,1.085a7.069,7.069,0,0,0,2.609,0l.091-1.408Z" transform="translate(159.243 89.901)" fill="#262626"/><path d="M705.623,396.816a20.157,20.157,0,0,1-4.044,11.819c-.044.06-.093.118-.138.175a11.489,11.489,0,0,1-2.1,2.073,6.063,6.063,0,0,1-1.575.861l0,0a3.628,3.628,0,0,1-1.2.218c-1.587,0-3.386-1.051-5.054-2.7l0-.007c-.1-.1-.2-.2-.3-.309-2.92-3.058-4.405-7.994-4.405-12.136,0-5.823-3.276-9.984-.945-13.18H706.28c2.331,3.2-.658,8.069-.658,13.18" transform="translate(160.285 89.767)" fill="#f1f2f2"/><path d="M697.162,390.52a5.357,5.357,0,1,1-5.353-5.534,5.446,5.446,0,0,1,5.353,5.534" transform="translate(160.624 90.083)" fill="#4f4c4d"/><path d="M703.745,390.52a5.357,5.357,0,1,1-5.354-5.534,5.447,5.447,0,0,1,5.354,5.534" transform="translate(162.164 90.083)" fill="#4f4c4d"/><path d="M700.405,404.07c-.043.06-.091.119-.137.175a11.485,11.485,0,0,1-2.1,2.073,6.071,6.071,0,0,1-1.576.861l0,0a3.6,3.6,0,0,1-1.2.22c-1.587,0-3.386-1.051-5.054-2.7l-.005-.007c-.1-.1-.2-.2-.3-.308a11.9,11.9,0,0,1,5.517-1.243,12.47,12.47,0,0,1,4.863.925" transform="translate(161.459 94.332)" fill="#58595b"/><path d="M695.862,407.336c5.017,0,12.3-5.987,9.086-9.2-1.7-1.7-5.133-.2-9.086-.1-3.512.09-7.576-1.414-9.086.1-3.216,3.216,4.068,9.2,9.086,9.2" transform="translate(160.513 92.971)" fill="#cbb49e"/><path d="M691.944,402.254c0,.937-.5,1.7-1.116,1.7s-1.114-.759-1.114-1.7.5-1.7,1.114-1.7,1.116.759,1.116,1.7" transform="translate(161.386 93.727)" fill="#988777"/><path d="M698.537,402.254c0,.937-.5,1.7-1.113,1.7s-1.115-.759-1.115-1.7.5-1.7,1.115-1.7,1.113.759,1.113,1.7" transform="translate(162.929 93.727)" fill="#988777"/><path d="M692.511,389.566c0,1.346-.559,2.437-1.249,2.437s-1.245-1.091-1.245-2.437.558-2.436,1.245-2.436,1.249,1.091,1.249,2.436" transform="translate(161.457 90.585)" fill="#231f20"/><path d="M691.815,389.557a.452.452,0,1,1-.45-.452.451.451,0,0,1,.45.452" transform="translate(161.667 91.047)" fill="#fff"/><path d="M698.241,389.566c0,1.346-.558,2.437-1.246,2.437s-1.248-1.091-1.248-2.437.559-2.436,1.248-2.436,1.246,1.091,1.246,2.436" transform="translate(162.798 90.585)" fill="#231f20"/><path d="M697.547,389.557a.452.452,0,1,1-.452-.452.453.453,0,0,1,.452.452" transform="translate(163.007 91.047)" fill="#fff"/><path d="M698.581,384.219A1.215,1.215,0,0,0,697.366,383h-.01a1.21,1.21,0,0,0-2.416.014,1.188,1.188,0,0,0-.148-.014h-.009a1.212,1.212,0,0,0-2.42.037,1.163,1.163,0,0,0-.289-.037,1.216,1.216,0,1,0,.847,2.088h.885a1.207,1.207,0,0,0,.843.344c.025,0,.048-.006.072-.007s.047.007.072.007a1.2,1.2,0,0,0,.837-.344h.891a1.209,1.209,0,0,0,1.724-.035.487.487,0,0,0,.338-.45.455.455,0,0,0-.028-.13,1.257,1.257,0,0,0,.028-.258" transform="translate(161.654 89.354)" fill="#f1f2f2"/><path d="M676.674,407.089c-1.439-.791-2.67-1.629-3.606-1.6a159.1,159.1,0,0,1-2.747-17.688.665.665,0,1,0-1.288.141c.629,5.731,1.407,11.1,2.189,15.115.254,1.312.487,2.369.7,3.228-.486,1.014-.021,2.67,1.216,4.025,1.457,1.6,3.28,1.973,4.4,1.28,5.965-3.676,3.042-2.351-.871-4.5" transform="translate(156.546 90.569)" fill="#f1f2f2"/><path d="M672.555,402c.935-.031,2.167.807,3.606,1.6,3.913,2.152,6.836.827.871,4.5-1.124.693-2.947.318-4.4-1.28-1.237-1.355-1.7-3.011-1.216-4.025Z" transform="translate(157.059 94.063)" fill="#121010"/><path d="M629.06,409.939s-4.974-1.213-5.854,0c-2.407,3.315,1.039,16.57,1.039,16.57l.053.01v5.063h3.917v-6.3c1.009-3.987.845-15.339.845-15.339" transform="translate(145.624 95.796)" fill="#b5b6b6"/><path d="M628.129,429.435h-6.534s.981-2.616,1.742-3.059c1.034-.6,3.944-.847,4.792,0,.539.54,0,3.059,0,3.059" transform="translate(145.447 99.64)" fill="#231f20"/><path d="M654.626,406.741s-5.5-1.341-6.474,0c-2.66,3.667,1.149,18.322,1.149,18.322l.059.011v5.6h4.33V423.7c1.117-4.408.935-16.961.935-16.961" transform="translate(151.441 95.034)" fill="#b5b6b6"/><path d="M653.729,427.816h-6.053s.909-2.425,1.614-2.836c.96-.557,3.655-.784,4.439,0,.5.5,0,2.836,0,2.836" transform="translate(151.55 99.323)" fill="#231f20"/><path d="M656.932,420.377c.533,1.675.549,3.155.031,3.323-.463.153-1.195-.784-1.749-2.167a8.459,8.459,0,0,1-2.722.748c-.111,1.417-.508,2.464-.979,2.464s-.864-1.048-.975-2.464a8.7,8.7,0,0,1-2.488-.64c-.5,1.329-1.181,2.222-1.631,2.092-.508-.148-.549-1.541-.114-3.165a4.307,4.307,0,0,1-1.629-3.242c0-2.088,1.742-3.877,4.216-4.632a9.082,9.082,0,0,1,2.62-.379c3.746,0,6.787,2.205,6.835,4.942a.316.316,0,0,1,.005.069,4.231,4.231,0,0,1-1.422,3.052" transform="translate(150.848 96.477)" fill="#f4d1c2"/><g transform="translate(798.828 508.792)" opacity="0.23"><g clip-path="url(#t)"><path d="M657.723,417.256a7.709,7.709,0,0,1-4.434,1.275c-3.276,0-5.934-1.707-5.934-3.808a2.9,2.9,0,0,1,.913-2.029,9.034,9.034,0,0,1,2.62-.38c3.745,0,6.787,2.205,6.835,4.942" transform="translate(-647.354 -412.314)" fill="#3c3d3d"/></g></g><path d="M684.533,396.579a42.7,42.7,0,0,1-4.421,11.148,40.735,40.735,0,0,1-10.09,11.748,37.471,37.471,0,0,1-18.818,7.864c-1.007.118-2.026.2-3.057.234a27.365,27.365,0,0,1-12.03-2.743,62.171,62.171,0,0,1-16.627-11.609c-9.486-9.008-15.915-19.728-13.711-24.121a3.337,3.337,0,0,1,1.794-1.612,47.4,47.4,0,0,1,10.71-2.567c2.689-.39,5.621-.69,8.7-.926,13.335-1.012,29.546-.722,41.56-.247,10.064.394,14.329-.233,15.989,3.025,2.041,4.009.918,6.013,0,9.805" transform="translate(141.645 89.692)" fill="#f1f2f2"/><path d="M637.451,410.876s-4.974-1.214-5.855,0c-2.406,3.315,1.039,16.57,1.039,16.57l.054.01v5.063H636.6v-6.3c1.009-3.987.847-15.339.847-15.339" transform="translate(147.587 96.015)" fill="#f1f2f2"/><path d="M637.292,431.064h-8.383s1.26-3.358,2.236-3.925c1.329-.771,5.059-1.086,6.146,0,.693.695,0,3.925,0,3.925" transform="translate(147.158 99.782)" fill="#231f20"/><path d="M661.735,408.009s-5.5-1.343-6.474,0c-2.66,3.666,1.148,18.322,1.148,18.322l.059.011v5.6H660.8v-6.971c1.115-4.408.935-16.96.935-16.96" transform="translate(153.104 95.33)" fill="#f1f2f2"/><path d="M661.559,430.333h-9.267s1.393-3.713,2.472-4.341c1.47-.853,5.595-1.2,6.8,0,.768.768,0,4.341,0,4.341" transform="translate(152.63 99.496)" fill="#231f20"/><path d="M664.545,383.749c-1.31,4.742-7.373,8.331-14.661,8.331a19.787,19.787,0,0,1-8.628-1.892,11.939,11.939,0,0,1-8.6,3.154c-5.665-.023-10.24-3.2-10.22-7.093a5.027,5.027,0,0,1,.553-2.253c13.335-1.011,29.545-.722,41.56-.247" transform="translate(145.643 89.692)"/><path d="M634.415,418.606a4.918,4.918,0,0,1-.982,1.134,62.179,62.179,0,0,1-16.626-11.608,4.617,4.617,0,0,1,.243-.439c2.071-3.292,7.636-3.519,12.432-.507s7,8.125,4.932,11.421" transform="translate(144.327 94.782)"/><path d="M661.352,413.3a37.475,37.475,0,0,1-18.818,7.864c-.78-3.321,1.778-7.487,6.248-9.83,5.02-2.627,10.548-1.961,12.351,1.486a5.229,5.229,0,0,1,.22.48" transform="translate(150.314 95.871)"/><path d="M640.279,399.05a6.6,6.6,0,1,1-6.6-6.6,6.6,6.6,0,0,1,6.6,6.6" transform="translate(146.731 91.83)"/><path d="M618.456,386.441A6.6,6.6,0,0,1,605.7,388.8a3.34,3.34,0,0,1,1.794-1.61,47.346,47.346,0,0,1,10.711-2.567,6.581,6.581,0,0,1,.255,1.823" transform="translate(141.727 89.997)"/><path d="M658.99,404.159a4.386,4.386,0,1,1-4.386-4.387,4.385,4.385,0,0,1,4.386,4.387" transform="translate(152.145 93.543)"/><path d="M671.665,395.163a42.709,42.709,0,0,1-4.421,11.148c-1.406-.137-2.874.463-4.229-.653-.981-.608-2.678-3.618-2.678-6.038,0-3.134,1.259-10.253,4.134-10.253,3.654,0,2.436,2.559,3.532,3.825,1,1.155,2.874.785,3.663,1.971" transform="translate(154.512 91.108)"/><path d="M617.85,384.81a13.753,13.753,0,0,0,3.334-.533c.737-.387,0,1.037,0,1.037s-.168.81-1.5,1.085a7.074,7.074,0,0,1-2.61,0l-.093-1.408Z" transform="translate(144.367 89.901)" fill="#262626"/><path d="M599.046,384.885a15.267,15.267,0,0,1,.04-3.281,4.664,4.664,0,0,1,1.412-3.2c1.022-1.024,1.128,6.478,2.257,6.478Z" transform="translate(140.154 88.521)" fill="#5e5f60"/><path d="M616.138,384.885a15.215,15.215,0,0,0-.041-3.281,4.67,4.67,0,0,0-1.412-3.2c-1.022-1.024-1.127,6.478-2.257,6.478Z" transform="translate(143.302 88.521)" fill="#5e5f60"/><path d="M599.185,383.737s-5.015-.448-6.438-1.667,0,3.249,0,3.249a4.377,4.377,0,0,0,2.9,3.4,8.576,8.576,0,0,0,5.037,0l.18-4.415Z" transform="translate(138.549 89.351)" fill="#333"/><path d="M616.953,383.737s5.016-.448,6.437-1.667,0,3.249,0,3.249a4.38,4.38,0,0,1-2.9,3.4,8.576,8.576,0,0,1-5.037,0l-.18-4.415Z" transform="translate(143.967 89.351)" fill="#333"/><path d="M597.486,384.81a13.753,13.753,0,0,1-3.333-.533c-.737-.387,0,1.037,0,1.037s.169.81,1.5,1.085a7.066,7.066,0,0,0,2.609,0l.093-1.408Z" transform="translate(138.949 89.901)" fill="#262626"/><path d="M618.892,396.816a20.157,20.157,0,0,1-4.044,11.819c-.044.06-.093.118-.138.175a11.49,11.49,0,0,1-2.1,2.073,6.065,6.065,0,0,1-1.575.861l0,0a3.628,3.628,0,0,1-1.2.218c-1.587,0-3.386-1.051-5.053-2.7l0-.007c-.1-.1-.2-.2-.3-.309-2.921-3.058-4.407-7.994-4.407-12.136,0-5.823-3.276-9.984-.945-13.18h20.434c2.331,3.2-.658,8.069-.658,13.18" transform="translate(139.991 89.767)" fill="#f1f2f2"/><path d="M610.431,390.52a5.357,5.357,0,1,1-5.353-5.534,5.445,5.445,0,0,1,5.353,5.534" transform="translate(140.329 90.083)" fill="#4f4c4d"/><path d="M617.013,390.52a5.357,5.357,0,1,1-5.354-5.534,5.447,5.447,0,0,1,5.354,5.534" transform="translate(141.869 90.083)" fill="#4f4c4d"/><path d="M613.674,404.07c-.043.06-.091.119-.137.175a11.481,11.481,0,0,1-2.1,2.073,6.068,6.068,0,0,1-1.576.861l0,0a3.6,3.6,0,0,1-1.2.22c-1.588,0-3.387-1.051-5.054-2.7l0-.007c-.1-.1-.2-.2-.3-.308a11.908,11.908,0,0,1,5.517-1.243,12.47,12.47,0,0,1,4.863.925" transform="translate(141.165 94.332)" fill="#58595b"/><path d="M609.132,407.336c5.017,0,12.3-5.987,9.086-9.2-1.7-1.7-5.133-.2-9.086-.1-3.512.09-7.575-1.414-9.086.1-3.216,3.216,4.068,9.2,9.086,9.2" transform="translate(140.219 92.971)" fill="#cbb49e"/><path d="M605.213,402.254c0,.937-.5,1.7-1.114,1.7s-1.116-.759-1.116-1.7.5-1.7,1.116-1.7,1.114.759,1.114,1.7" transform="translate(141.092 93.727)" fill="#988777"/><path d="M611.807,402.254c0,.937-.5,1.7-1.113,1.7s-1.115-.759-1.115-1.7.5-1.7,1.115-1.7,1.113.759,1.113,1.7" transform="translate(142.635 93.727)" fill="#988777"/><path d="M605.781,389.566c0,1.346-.559,2.437-1.249,2.437s-1.245-1.091-1.245-2.437.558-2.436,1.245-2.436,1.249,1.091,1.249,2.436" transform="translate(141.163 90.585)" fill="#231f20"/><path d="M605.084,389.557a.452.452,0,1,1-.451-.452.451.451,0,0,1,.451.452" transform="translate(141.372 91.047)" fill="#fff"/><path d="M611.51,389.566c0,1.346-.558,2.437-1.246,2.437s-1.248-1.091-1.248-2.437.559-2.436,1.248-2.436,1.246,1.091,1.246,2.436" transform="translate(142.504 90.585)" fill="#231f20"/><path d="M610.815,389.557a.452.452,0,1,1-.452-.452.453.453,0,0,1,.452.452" transform="translate(142.713 91.047)" fill="#fff"/><path d="M611.851,384.219A1.215,1.215,0,0,0,610.635,383h-.01a1.21,1.21,0,0,0-2.416.014,1.184,1.184,0,0,0-.148-.014h-.009a1.211,1.211,0,0,0-2.42.037,1.162,1.162,0,0,0-.288-.037,1.216,1.216,0,1,0,.845,2.088h.885a1.208,1.208,0,0,0,.844.344c.023,0,.047-.006.07-.007s.047.007.072.007a1.2,1.2,0,0,0,.837-.344h.891a1.209,1.209,0,0,0,1.724-.035.487.487,0,0,0,.338-.45.455.455,0,0,0-.028-.13,1.257,1.257,0,0,0,.028-.258" transform="translate(141.36 89.354)" fill="#f1f2f2"/><path d="M485.12,392.283c.06-.362.112-.6.112-.6h.617" transform="translate(113.513 91.649)" fill="none" stroke="#bcbec0" stroke-miterlimit="10" stroke-width="0.25"/><path d="M489.343,391.678h.617s.048.243.1.607" transform="translate(114.501 91.649)" fill="none" stroke="#bcbec0" stroke-miterlimit="10" stroke-width="0.25"/><path d="M467.548,391.988s-.686.146-.085.328.661-.093.48-.18a2.332,2.332,0,0,0-.395-.148" transform="translate(109.324 91.721)" fill="#f9bb94"/><path d="M387.415,424.233l-5.212-9.614.239-.054s2.753,4.783,3.549,6.441c.548,1.143,1.724,3.127,1.724,3.127Z" transform="translate(89.432 97.004)" fill="#231f20"/><path d="M382.724,414.652a.456.456,0,1,1-.457-.462.46.46,0,0,1,.457.462" transform="translate(89.34 96.917)" fill="#bcbec0"/><path d="M382.357,414.593a.147.147,0,1,1-.295,0,.147.147,0,1,1,.295,0" transform="translate(89.399 96.976)" fill="#231f20"/><path d="M376.7,414.652a.455.455,0,1,1-.455-.462.459.459,0,0,1,.455.462" transform="translate(87.93 96.917)" fill="#bcbec0"/><path d="M387.529,422.363l-.115-.225-1.1.366a.263.263,0,0,0-.257-.065l-1.661.554a.268.268,0,0,0-.169.2L383,423.6l.165.276,1.135-.4a.26.26,0,0,0,.284.094l1.661-.553a.274.274,0,0,0,.174-.278Z" transform="translate(89.618 98.776)" fill="#231f20"/><path d="M376.231,414.6a.16.16,0,1,1-.16-.162.161.161,0,0,1,.16.162" transform="translate(87.959 96.973)" fill="#231f20"/><path d="M384.883,420.368c0-1.413-.144-3.229-1.06-4.159v-4.578h-7.256v4.578h.057c-.9.937-1.107,2.757-1.107,4.159l-.37,8.983v2.517c0,.432.21.777.457.777H384.8c.246,0,.443-.2.443-.617v-2.678Z" transform="translate(87.781 96.318)" fill="#8d8f90"/><path d="M382.415,420.368c0-1.413-.2-3.229-1.113-4.159l.053-4.578h-4.788v4.578c-.9.937-1.05,2.757-1.05,4.159l-.37,8.983v2.517c0,.432.21.777.457.777h6.726c.246,0,.443-.2.443-.617v-2.678Z" transform="translate(87.781 96.318)" fill="#bcbec0"/><path d="M384.8,425.591l-8.761-10.908.142-.117s5.091,6.013,6.61,8.158a31.619,31.619,0,0,0,2.292,2.828Z" transform="translate(87.99 97.004)" fill="#231f20"/><path d="M383.557,411.784c0,.442-1.624.8-3.628.8s-3.629-.358-3.629-.8,1.624-.8,3.629-.8,3.628.358,3.628.8" transform="translate(88.05 96.166)" fill="#d7d8d9"/><path d="M380.726,410.51a.235.235,0,0,0-.2-.176h-1.931a.2.2,0,0,0-.148.081l-.01.01-.006.01a.277.277,0,0,0-.063.176v1.224a.247.247,0,1,0,.491,0v-.863h1.4v.647a.246.246,0,0,0,.49,0v-1.013a.185.185,0,0,0-.026-.1" transform="translate(88.534 96.014)" fill="#bbbcbc"/><path d="M379.081,411.69c0,.072-.194.13-.433.13s-.433-.058-.433-.13.194-.13.433-.13.433.057.433.13" transform="translate(88.499 96.301)" fill="#bbbcbc"/><path d="M380.585,411.5c0,.051-.176.093-.394.093s-.395-.042-.395-.093.178-.094.395-.094.394.041.394.094" transform="translate(88.868 96.265)" fill="#bbbcbc"/><path d="M399.662,424.233l-5.212-9.614.239-.054s2.753,4.783,3.549,6.441c.548,1.143,1.724,3.127,1.724,3.127Z" transform="translate(92.297 97.004)" fill="#231f20"/><path d="M394.971,414.652a.456.456,0,1,1-.457-.462.46.46,0,0,1,.457.462" transform="translate(92.206 96.917)" fill="#bcbec0"/><path d="M394.6,414.593a.15.15,0,0,1-.148.151.15.15,0,1,1,.148-.151" transform="translate(92.264 96.976)" fill="#231f20"/><path d="M388.945,414.652a.455.455,0,1,1-.455-.462.459.459,0,0,1,.455.462" transform="translate(90.796 96.917)" fill="#bcbec0"/><path d="M399.775,422.363l-.115-.225-1.1.366a.263.263,0,0,0-.257-.065l-1.661.554a.268.268,0,0,0-.169.2l-1.225.407.165.276,1.135-.4a.26.26,0,0,0,.284.094l1.661-.553a.274.274,0,0,0,.174-.278Z" transform="translate(92.484 98.776)" fill="#231f20"/><path d="M388.478,414.6a.16.16,0,1,1-.16-.162.161.161,0,0,1,.16.162" transform="translate(90.825 96.973)" fill="#231f20"/><path d="M397.13,420.368c0-1.413-.144-3.229-1.06-4.159v-4.578h-7.256v4.578h.057c-.9.937-1.107,2.757-1.107,4.159l-.37,8.983v2.517c0,.432.21.777.457.777h9.194c.246,0,.443-.2.443-.617v-2.678Z" transform="translate(90.646 96.318)" fill="#8d8f90"/><path d="M394.662,420.368c0-1.413-.2-3.229-1.113-4.159l.053-4.578h-4.788v4.578c-.9.937-1.05,2.757-1.05,4.159l-.37,8.983v2.517c0,.432.21.777.457.777h6.726c.246,0,.443-.2.443-.617v-2.678Z" transform="translate(90.646 96.318)" fill="#bcbec0"/><path d="M397.05,425.591l-8.763-10.908.143-.117s5.091,6.013,6.61,8.158a31.609,31.609,0,0,0,2.292,2.828Z" transform="translate(90.855 97.004)" fill="#231f20"/><path d="M395.8,411.784c0,.442-1.624.8-3.629.8s-3.628-.358-3.628-.8,1.624-.8,3.628-.8,3.629.358,3.629.8" transform="translate(90.916 96.166)" fill="#d7d8d9"/><path d="M392.973,410.51a.235.235,0,0,0-.2-.176h-1.931a.2.2,0,0,0-.148.081l-.011.01,0,.01a.278.278,0,0,0-.063.176v1.224a.247.247,0,1,0,.491,0v-.863h1.4v.647a.247.247,0,0,0,.491,0v-1.013a.186.186,0,0,0-.027-.1" transform="translate(91.4 96.014)" fill="#bbbcbc"/><path d="M391.328,411.69c0,.072-.194.13-.433.13s-.433-.058-.433-.13.194-.13.433-.13.433.057.433.13" transform="translate(91.364 96.301)" fill="#bbbcbc"/><path d="M392.831,411.5c0,.051-.176.093-.394.093s-.395-.042-.395-.093.178-.094.395-.094.394.041.394.094" transform="translate(91.734 96.265)" fill="#bbbcbc"/><path d="M411.184,424.881l-5.212-9.614.239-.054s2.753,4.783,3.549,6.441c.548,1.143,1.724,3.127,1.724,3.127Z" transform="translate(94.993 97.156)" fill="#231f20"/><path d="M406.493,415.3a.456.456,0,1,1-.457-.462.46.46,0,0,1,.457.462" transform="translate(94.902 97.068)" fill="#bcbec0"/><path d="M406.126,415.241a.147.147,0,1,1-.295,0,.147.147,0,1,1,.295,0" transform="translate(94.96 97.127)" fill="#231f20"/><path d="M400.467,415.3a.455.455,0,1,1-.455-.462.459.459,0,0,1,.455.462" transform="translate(93.492 97.068)" fill="#bcbec0"/><path d="M411.3,423.011l-.115-.225-1.1.367a.263.263,0,0,0-.257-.065l-1.661.554a.268.268,0,0,0-.169.2l-1.225.407.165.276,1.135-.4a.26.26,0,0,0,.284.094l1.661-.553a.274.274,0,0,0,.174-.278Z" transform="translate(95.18 98.928)" fill="#231f20"/><path d="M400,415.244a.16.16,0,1,1-.16-.162.161.161,0,0,1,.16.162" transform="translate(93.521 97.125)" fill="#231f20"/><path d="M408.653,421.015c0-1.413-.144-3.229-1.06-4.159v-4.578h-7.256v4.578h.057c-.9.937-1.107,2.757-1.107,4.159l-.37,8.983v2.517c0,.432.21.777.457.777h9.194c.246,0,.443-.2.443-.617V430Z" transform="translate(93.343 96.469)" fill="#8d8f90"/><path d="M406.185,421.015c0-1.413-.2-3.229-1.113-4.159l.053-4.578h-4.788v4.578c-.9.937-1.05,2.757-1.05,4.159l-.37,8.983v2.517c0,.432.21.777.457.777H406.1c.246,0,.443-.2.443-.617V430Z" transform="translate(93.343 96.469)" fill="#bcbec0"/><path d="M408.572,426.238l-8.763-10.908.143-.117s5.091,6.013,6.611,8.158a31.613,31.613,0,0,0,2.292,2.828Z" transform="translate(93.551 97.155)" fill="#231f20"/><path d="M407.326,412.431c0,.442-1.624.8-3.628.8s-3.629-.358-3.629-.8,1.625-.8,3.629-.8,3.628.358,3.628.8" transform="translate(93.612 96.318)" fill="#d7d8d9"/><path d="M404.5,411.158a.235.235,0,0,0-.2-.176h-1.931a.2.2,0,0,0-.148.081l-.01.01-.006.01a.278.278,0,0,0-.063.176v1.224a.247.247,0,1,0,.491,0v-.863h1.4v.647a.246.246,0,0,0,.49,0v-1.013a.184.184,0,0,0-.026-.1" transform="translate(94.096 96.166)" fill="#bbbcbc"/><path d="M402.85,412.337c0,.072-.194.13-.432.13s-.434-.058-.434-.13.194-.13.434-.13.432.057.432.13" transform="translate(94.06 96.452)" fill="#bbbcbc"/><path d="M404.354,412.147c0,.051-.176.093-.394.093s-.395-.042-.395-.093.178-.094.395-.094.394.041.394.094" transform="translate(94.43 96.416)" fill="#bbbcbc"/><rect width="1238.927" height="17.825" transform="translate(0.036 526.821)" fill="#ff854e"/><path d="M0,441.37V500.6H807.44a7.033,7.033,0,0,1,2.688,0H1239V441.37Z" transform="translate(0 103.276)" fill="#006c62"/></g></g></g></g><g transform="translate(29)"><g transform="translate(601 11483)" fill="#ff854e" stroke="#fff" stroke-width="2"><circle cx="31" cy="31" r="31" stroke="none"/><circle cx="31" cy="31" r="30" fill="none"/></g><text transform="translate(625 11520)" fill="#12263f" font-size="25" font-family="Roboto-Bold, Roboto" font-weight="700"><tspan x="0" y="0">1</tspan></text><g transform="translate(695 11483)" fill="#ff854e" stroke="#fff" stroke-width="2"><circle cx="31" cy="31" r="31" stroke="none"/><circle cx="31" cy="31" r="30" fill="none"/></g><text transform="translate(719 11520)" fill="#12263f" font-size="25" font-family="Roboto-Bold, Roboto" font-weight="700"><tspan x="0" y="0">2</tspan></text><g transform="translate(785 11483)" fill="#ff854e" stroke="#fff" stroke-width="2"><circle cx="31" cy="31" r="31" stroke="none"/><circle cx="31" cy="31" r="30" fill="none"/></g><text transform="translate(809 11520)" fill="#12263f" font-size="25" font-family="Roboto-Bold, Roboto" font-weight="700"><tspan x="0" y="0">3</tspan></text><g transform="translate(879 11483)" fill="#ff854e" stroke="#fff" stroke-width="2"><circle cx="31" cy="31" r="31" stroke="none"/><circle cx="31" cy="31" r="30" fill="none"/></g><text transform="translate(903 11520)" fill="#12263f" font-size="25" font-family="Roboto-Bold, Roboto" font-weight="700"><tspan x="0" y="0">4</tspan></text></g></g></svg>