<svg xmlns="http://www.w3.org/2000/svg" xmlns:xlink="http://www.w3.org/1999/xlink" width="295" height="245" viewBox="0 0 295 245"><defs><clipPath id="a"><rect width="15.981" height="3.263" fill="none"/></clipPath></defs><g transform="translate(-1020 -10359)"><g transform="translate(3.454 -5.768)"><path d="M207.333,99.137A97.164,97.164,0,1,0,188.2,157.055a97.379,97.379,0,0,0,19.132-57.919" transform="translate(1055.68 10383.247)" fill="#fff"/><path d="M193.4,41.93a100.633,100.633,0,0,0-165.9,113.876A100.59,100.59,0,0,0,188.066,166.1a101.089,101.089,0,0,0,23.816-56.427c.277-3.01.4-6.034.408-9.055A101.035,101.035,0,0,0,193.4,41.93M141.22,193.2A97.186,97.186,0,0,1,35.4,40.4a97.156,97.156,0,0,1,173.418,60.218,97.158,97.158,0,0,1-67.6,92.579" transform="translate(1054.195 10381.767)" fill="#ff854e"/><path d="M29.108,145.519c-1.211-1.978-2.358-4.028-3.414-6.09l1.03-.528c1.042,2.036,2.177,4.058,3.371,6.013Zm157.747.945-.983-.615c1.22-1.943,2.379-3.955,3.449-5.98l1.021.537c-1.079,2.053-2.254,4.092-3.488,6.059M22.748,133.1c-.894-2.137-1.722-4.335-2.454-6.531l1.1-.366c.725,2.168,1.541,4.34,2.426,6.447Zm170.615,1-1.06-.462c.912-2.1,1.753-4.267,2.5-6.433l1.093.378c-.758,2.193-1.614,4.387-2.538,6.517M18.337,119.865c-.563-2.248-1.049-4.547-1.443-6.836l1.142-.193c.387,2.257.866,4.526,1.426,6.747ZM197.93,120.9l-1.115-.295c.579-2.212,1.086-4.476,1.5-6.731l1.138.209c-.42,2.282-.931,4.577-1.522,6.817m-181.955-14.8c-.218-2.3-.354-4.65-.4-6.972l1.157-.023c.047,2.294.178,4.608.4,6.886Zm184.475,1.07-1.152-.125c.244-2.271.4-4.586.479-6.881l1.157.038c-.075,2.322-.237,4.666-.485,6.968M16.854,92.216,15.7,92.152c.129-2.318.345-4.659.641-6.953l1.149.15c-.295,2.266-.507,4.575-.634,6.867m182.969,5.255c.005-2.294-.073-4.612-.237-6.89l1.157-.084c.166,2.308.244,4.655.237,6.977ZM18.631,78.546,17.5,78.311c.469-2.269,1.034-4.551,1.673-6.778l1.112.319c-.633,2.2-1.187,4.455-1.654,6.695m180.2,5.18c-.336-2.268-.762-4.549-1.269-6.78l1.129-.256c.516,2.261.945,4.57,1.286,6.866ZM22.445,65.3l-1.086-.4c.809-2.177,1.713-4.349,2.684-6.456l1.053.485c-.962,2.081-1.855,4.225-2.651,6.374m173.343,4.981c-.671-2.186-1.438-4.375-2.276-6.5l1.079-.424c.845,2.156,1.623,4.373,2.3,6.587ZM28.223,52.773l-1.011-.563c1.128-2.027,2.348-4.037,3.627-5.973l.967.638c-1.264,1.912-2.468,3.9-3.584,5.9m162.526,4.694c-1-2.06-2.081-4.11-3.228-6.088l1-.582c1.161,2,2.264,4.08,3.27,6.167ZM35.82,41.263l-.915-.709c1.421-1.834,2.926-3.638,4.479-5.36l.861.776c-1.534,1.7-3.021,3.481-4.425,5.293m148.016,4.284c-1.293-1.888-2.677-3.751-4.106-5.537l.9-.725c1.45,1.811,2.853,3.7,4.162,5.609ZM45.053,31.021l-.8-.837c1.68-1.6,3.439-3.16,5.231-4.629l.734.894c-1.769,1.452-3.507,2.991-5.166,4.572m130.159,3.772c-1.56-1.675-3.205-3.312-4.891-4.865l.784-.851c1.7,1.572,3.373,3.23,4.954,4.926ZM55.709,22.277l-.662-.948c1.9-1.332,3.869-2.609,5.862-3.794l.591,1c-1.963,1.17-3.913,2.431-5.79,3.747M165.08,25.443c-1.8-1.426-3.671-2.8-5.565-4.08l.648-.959c1.919,1.3,3.815,2.689,5.635,4.133ZM67.551,15.226l-.514-1.035c2.074-1.032,4.213-2,6.36-2.871l.436,1.07c-2.118.863-4.234,1.818-6.282,2.836m86.106,2.489c-1.994-1.14-4.049-2.214-6.12-3.2l.5-1.046c2.1,1,4.18,2.085,6.194,3.238ZM80.31,10.041l-.354-1.1c2.208-.708,4.472-1.34,6.728-1.879l.268,1.126c-2.228.532-4.46,1.156-6.642,1.855m60.885,1.752c-2.135-.824-4.333-1.576-6.526-2.234L135,8.451c2.221.666,4.445,1.426,6.608,2.261ZM93.715,6.841,93.533,5.7c2.283-.364,4.615-.648,6.932-.84l.1,1.152c-2.287.192-4.591.471-6.846.831M128,7.827c-2.234-.492-4.519-.9-6.787-1.224l.16-1.147c2.3.326,4.612.744,6.874,1.239ZM107.451,5.7l-.009-1.157c1.25-.01,2.52,0,3.777.045h.016c1.063.033,2.133.085,3.188.155l-.075,1.156c-1.046-.07-2.105-.131-3.167-.155-1.239-.038-2.5-.054-3.73-.044" transform="translate(1057.572 10385.136)" fill="#ff854e"/><path d="M65.959,45.292V32.446a10.488,10.488,0,0,1,.061-1.154,3.213,3.213,0,0,1-1.848-2.865,3.073,3.073,0,0,1,.46-1.617,1.792,1.792,0,0,1-.863-1.349c0-2.154,6.24-3.9,13.933-3.9s13.931,1.748,13.931,3.9a1.787,1.787,0,0,1-.859,1.349,3.091,3.091,0,0,1,.462,1.617,3.218,3.218,0,0,1-1.849,2.865,10.065,10.065,0,0,1,.063,1.154V45.292A21.541,21.541,0,0,1,99.262,63.37V115.4c0,3.768-.967,14.3-2.665,17.384a8.9,8.9,0,0,1-2.949,3.279,1.852,1.852,0,0,1,.68,1.321c0,2.567-7.434,4.65-16.6,4.65s-16.607-2.083-16.607-4.65a1.97,1.97,0,0,1,.828-1.45,9.261,9.261,0,0,1-3.617-4.075C56.93,129,56.146,118.8,56.146,115.4V63.37a21.534,21.534,0,0,1,9.813-18.078" transform="translate(1087.714 10397.783)" fill="#ff854e"/><path d="M96.654,52.439C96.6,45.9,87.782,38.814,87.782,38.814l.049-5.619c0-1.651-4.781-2.989-10.676-2.989S66.483,31.545,66.483,33.2c0,.129.047,5.964.047,5.964s-8.741,6.5-9.452,15.319c-.354,4.392-.1,62.811,1.365,67.182s3.611,6.4,5.644,7.521c2.283,1.255,8.708,1.431,13.1,1.544l.016,0h.064l.016,0c4.391-.113,11.558-.636,13.966-1.624,2.153-.88,3.31-3.066,4.777-7.441s.678-63.735.631-69.222" transform="translate(1088.3 10404.208)" fill="#fff"/><g transform="translate(1164.469 10535.567)"><g clip-path="url(#a)"><path d="M77.3,91.073c-2.613.221-7.221,1.007-9.334-.329,1.623-.26,6.794.005,7.737-1.183a5.207,5.207,0,0,0-2.4-.378c1.537-.274,10.829-1.776,10.643-.305-.213,1.658-5.417,2.092-6.646,2.2" transform="translate(-67.97 -88.241)" fill="#eae6e2"/></g></g><path d="M60.542,87.653a15.777,15.777,0,0,0,5.041,1.879c1.217.2,4.882.11,4.994,1.529-2.013.174-11.261-1.265-10.979-3.725Z" transform="translate(1090.274 10446.653)" fill="#fff"/><path d="M83.624,24.938c0,1.637-4.736,2.96-10.578,2.96s-10.578-1.323-10.578-2.96,4.736-2.961,10.578-2.961S83.624,23.3,83.624,24.938" transform="translate(1092.411 10398.095)" fill="#ff854e"/><path d="M77.59,23.671c.3,2.064-4.389,2.574-5.454,3.472,1.21.143,2.8-.629,3.885-1.072.882-.356,3.057-.5,2.642-2.057a4.258,4.258,0,0,1-1.231-.657Z" transform="translate(1099.594 10399.12)" fill="#fff"/><path d="M79.238,26.341c-.823-.071-1.682.533-2.482.751q-1.36.371-2.719.823a21.6,21.6,0,0,1-4.546.823c.612.382,1.8.045,2.508-.07.861-.143,1.879-.136,2.71-.248.913-.119,4.3-.65,4.371-1.766Z" transform="translate(1097.629 10401.333)" fill="#fff"/><path d="M62.324,23.4c-3.23,1.192.851,2.822,2.186,3.122-.483-.838-2.231-.4-2.351-1.853-.071-.878,1.4-2.093,2.214-2.214Z" transform="translate(1091.401 10398.449)" fill="#fff"/><path d="M61.45,26.066c-.254,1.37,4.729,2.3,5.811,2.168a24.751,24.751,0,0,0-3.174-1.187c-.633-.27-2.222-.926-2.323-1.612Z" transform="translate(1091.648 10400.664)" fill="#fff"/><path d="M37.265,32.208c-.078-.056-.188.234-.2.272a14.5,14.5,0,0,0,5.346,16.032c.016.01.038,0,.059-.019.4-.206.8-.413,1.2-.619.424-.221.4-.573.462-1.035a13.888,13.888,0,0,0-.349-5.292,16.627,16.627,0,0,0-6.515-9.339" transform="translate(1073.047 10405.69)" fill="#ff854e"/><path d="M36.77,39.671c-.08-.054-.181.241-.192.279A14.493,14.493,0,0,0,42.5,55.776c.016.01.04,0,.061-.019l1.175-.664c.417-.234.375-.587.422-1.053a13.914,13.914,0,0,0-.535-5.274,16.643,16.643,0,0,0-6.853-9.095" transform="translate(1072.794 10411.235)" fill="#ff854e"/><path d="M36.308,47.492c-.084-.052-.18.244-.188.282A14.491,14.491,0,0,0,42.293,63.5c.014.01.035,0,.059-.023l1.164-.681c.411-.239.366-.591.406-1.058a13.961,13.961,0,0,0-.62-5.265,16.661,16.661,0,0,0-6.994-8.985" transform="translate(1072.498 10417.046)" fill="#ff854e"/><path d="M36.966,56c-.082-.052-.18.241-.187.279a14.5,14.5,0,0,0,6.172,15.732c.016.01.037,0,.061-.023.387-.225.776-.451,1.163-.68.413-.242.368-.593.406-1.06a13.93,13.93,0,0,0-.62-5.265A16.639,16.639,0,0,0,36.966,56" transform="translate(1072.988 10423.37)" fill="#ff854e"/><path d="M43.66,40.624a13.963,13.963,0,0,0-.727,5.252c.031.467-.023.817.385,1.068l1.152.7c.021.023.042.031.059.023a14.5,14.5,0,0,0,6.486-15.606c-.009-.038-.1-.335-.183-.284a16.636,16.636,0,0,0-7.172,8.844" transform="translate(1077.878 10405.374)" fill="#ff854e"/><path d="M42.956,49.452a13.946,13.946,0,0,0-.146,5.3c.082.462.068.816.5,1.02.406.192.814.382,1.217.575.028.017.049.026.063.016a14.492,14.492,0,0,0,4.743-16.22c-.012-.038-.132-.324-.211-.265a16.645,16.645,0,0,0-6.165,9.574" transform="translate(1077.665 10411.388)" fill="#ff854e"/><path d="M43.441,57.619a13.97,13.97,0,0,0-.23,5.3c.075.46.056.816.483,1.027.4.2.807.4,1.213.593.023.021.045.03.061.016a14.49,14.49,0,0,0,5-16.142c-.012-.037-.129-.324-.207-.267a16.663,16.663,0,0,0-6.316,9.476" transform="translate(1077.989 10417.528)" fill="#ff854e"/><path d="M43.723,66.024a13.9,13.9,0,0,0-.232,5.3c.073.462.056.817.483,1.027.4.2.807.4,1.211.594.024.019.045.026.061.017a14.5,14.5,0,0,0,5-16.143c-.012-.038-.131-.328-.209-.268a16.651,16.651,0,0,0-6.313,9.476" transform="translate(1078.196 10423.773)" fill="#ff854e"/><path d="M96.908,41.547a13.889,13.889,0,0,0-.345,5.292c.063.462.035.814.46,1.035l1.2.619c.026.021.045.03.063.019a14.5,14.5,0,0,0,5.346-16.032c-.01-.038-.124-.328-.2-.272a16.652,16.652,0,0,0-6.515,9.339" transform="translate(1117.655 10405.69)" fill="#ff854e"/><path d="M97.2,48.766a13.986,13.986,0,0,0-.539,5.274c.049.465.007.819.424,1.053l1.175.664c.023.021.045.03.061.019a14.5,14.5,0,0,0,5.924-15.826c-.012-.038-.113-.333-.193-.279A16.631,16.631,0,0,0,97.2,48.766" transform="translate(1117.772 10411.235)" fill="#ff854e"/><path d="M97.586,56.477a13.923,13.923,0,0,0-.622,5.265c.042.467,0,.817.408,1.058q.58.342,1.163.68c.024.024.044.035.061.023a14.492,14.492,0,0,0,6.174-15.73c-.01-.038-.108-.333-.188-.281a16.629,16.629,0,0,0-6.994,8.985" transform="translate(1118.007 10417.046)" fill="#ff854e"/><path d="M96.926,64.987a14.005,14.005,0,0,0-.622,5.265c.042.467,0,.817.406,1.06l1.164.682c.024.023.045.031.061.021a14.493,14.493,0,0,0,6.174-15.732c-.01-.038-.106-.331-.187-.279a16.634,16.634,0,0,0-7,8.983" transform="translate(1117.517 10423.37)" fill="#ff854e"/><path d="M90.136,31.78c-.084-.051-.173.247-.183.286a14.5,14.5,0,0,0,6.486,15.6c.017.009.038,0,.061-.023.382-.235.767-.469,1.147-.7.41-.249.357-.6.387-1.068a13.928,13.928,0,0,0-.725-5.252,16.628,16.628,0,0,0-7.172-8.844" transform="translate(1112.545 10405.374)" fill="#ff854e"/><path d="M91.442,39.877c-.078-.059-.2.227-.213.263a14.5,14.5,0,0,0,4.743,16.222c.014.009.035,0,.061-.017l1.22-.573c.432-.206.417-.559.5-1.02a13.946,13.946,0,0,0-.148-5.3,16.642,16.642,0,0,0-6.163-9.574" transform="translate(1113.164 10411.388)" fill="#ff854e"/><path d="M90.857,48.143c-.078-.058-.2.23-.207.267a14.49,14.49,0,0,0,5,16.142c.016.012.037.005.061-.016.4-.2.807-.4,1.21-.594.431-.209.41-.565.485-1.027a13.928,13.928,0,0,0-.232-5.3,16.64,16.64,0,0,0-6.315-9.476" transform="translate(1112.789 10417.529)" fill="#ff854e"/><path d="M90.577,56.547c-.077-.058-.2.232-.209.268a14.5,14.5,0,0,0,5,16.143c.017.01.038,0,.061-.017.406-.2.807-.4,1.213-.594.429-.209.408-.565.481-1.025a13.909,13.909,0,0,0-.23-5.3,16.643,16.643,0,0,0-6.315-9.476" transform="translate(1112.58 10423.773)" fill="#ff854e"/><rect width="1.365" height="67.566" transform="translate(1118.92 10501.803)" fill="#ff854e"/><path d="M23.078,49.84c-.078-.056-.19.234-.2.272a14.5,14.5,0,0,0,5.346,16.03c.017.01.038,0,.061-.017l1.2-.62c.424-.22.4-.572.462-1.037a13.918,13.918,0,0,0-.349-5.29,16.637,16.637,0,0,0-6.515-9.337" transform="translate(1062.506 10418.79)" fill="#ff854e"/><path d="M22.584,57.3c-.08-.052-.181.242-.193.279a14.494,14.494,0,0,0,5.924,15.826c.016.01.038,0,.061-.019q.586-.332,1.173-.661c.415-.235.376-.589.424-1.054a13.955,13.955,0,0,0-.537-5.276A16.629,16.629,0,0,0,22.584,57.3" transform="translate(1062.254 10424.336)" fill="#ff854e"/><path d="M22.119,65.122c-.082-.051-.18.246-.186.282A14.494,14.494,0,0,0,28.1,81.137c.014.01.037,0,.059-.021.389-.228.776-.455,1.166-.681.41-.242.364-.593.4-1.06a13.929,13.929,0,0,0-.619-5.265,16.672,16.672,0,0,0-7-8.987" transform="translate(1061.957 10430.146)" fill="#ff854e"/><path d="M22.78,73.636c-.082-.052-.18.244-.188.281a14.5,14.5,0,0,0,6.174,15.732c.014.009.037,0,.061-.021.385-.228.776-.455,1.163-.682.411-.241.366-.593.406-1.06a13.926,13.926,0,0,0-.62-5.265,16.659,16.659,0,0,0-6.994-8.985" transform="translate(1062.447 10436.471)" fill="#ff854e"/><path d="M29.472,58.255a14.011,14.011,0,0,0-.725,5.253c.031.469-.023.817.385,1.068.383.234.765.469,1.15.7.021.021.042.03.058.021a14.493,14.493,0,0,0,6.487-15.6c-.009-.037-.1-.335-.183-.284a16.64,16.64,0,0,0-7.172,8.842" transform="translate(1067.339 10418.475)" fill="#ff854e"/><path d="M28.77,67.084a13.911,13.911,0,0,0-.148,5.3c.084.46.068.817.5,1.02l1.217.575c.028.019.049.026.063.016a14.5,14.5,0,0,0,4.743-16.222c-.012-.037-.134-.322-.211-.263a16.63,16.63,0,0,0-6.165,9.574" transform="translate(1067.124 10424.488)" fill="#ff854e"/><path d="M29.255,75.25a14.008,14.008,0,0,0-.232,5.3c.077.464.056.817.486,1.028l1.21.593c.024.019.047.03.061.017a14.492,14.492,0,0,0,5-16.143c-.012-.038-.129-.324-.207-.267a16.644,16.644,0,0,0-6.316,9.475" transform="translate(1067.448 10430.629)" fill="#ff854e"/><path d="M29.536,83.656a13.978,13.978,0,0,0-.232,5.3c.075.462.056.816.485,1.025.4.2.805.394,1.21.594.024.017.045.028.061.017a14.5,14.5,0,0,0,5-16.143c-.014-.038-.131-.326-.211-.268a16.649,16.649,0,0,0-6.313,9.476" transform="translate(1067.657 10436.873)" fill="#ff854e"/><rect width="1.366" height="19.415" transform="translate(1093.498 10532.536)" fill="#ff854e"/><path d="M110.978,59.178a13.882,13.882,0,0,0-.345,5.29c.063.464.037.816.458,1.035.4.209.8.415,1.2.622.023.021.044.028.059.017A14.5,14.5,0,0,0,117.7,50.111c-.012-.037-.124-.328-.2-.27a16.626,16.626,0,0,0-6.517,9.337" transform="translate(1128.109 10418.791)" fill="#ff854e"/><path d="M111.272,66.4a14.026,14.026,0,0,0-.539,5.276c.052.465.01.819.427,1.054.39.22.781.441,1.173.661.023.021.047.03.061.019a14.491,14.491,0,0,0,5.923-15.826c-.009-.037-.11-.331-.192-.279a16.657,16.657,0,0,0-6.853,9.095" transform="translate(1128.225 10424.335)" fill="#ff854e"/><path d="M111.655,74.109a13.96,13.96,0,0,0-.62,5.264c.04.469-.005.819.406,1.061l1.164.681c.024.021.042.031.061.019a14.5,14.5,0,0,0,6.174-15.73c-.012-.038-.106-.335-.19-.282a16.669,16.669,0,0,0-6.994,8.987" transform="translate(1128.46 10430.146)" fill="#ff854e"/><path d="M110.994,82.621a13.89,13.89,0,0,0-.619,5.265c.04.467-.007.817.4,1.06l1.164.682c.024.019.044.03.059.019a14.492,14.492,0,0,0,6.174-15.73c-.009-.038-.1-.335-.187-.281a16.632,16.632,0,0,0-7,8.985" transform="translate(1127.971 10436.47)" fill="#ff854e"/><path d="M104.205,49.413c-.084-.051-.174.247-.183.284a14.5,14.5,0,0,0,6.486,15.6c.017.01.04,0,.059-.019l1.152-.706c.406-.249.354-.6.385-1.067a13.9,13.9,0,0,0-.727-5.253,16.618,16.618,0,0,0-7.172-8.842" transform="translate(1122.998 10418.475)" fill="#ff854e"/><path d="M105.512,57.509c-.077-.059-.2.227-.213.263a14.5,14.5,0,0,0,4.743,16.222c.012.01.037,0,.061-.016.406-.192.816-.382,1.22-.575.432-.2.418-.559.5-1.02a13.946,13.946,0,0,0-.148-5.3,16.642,16.642,0,0,0-6.163-9.574" transform="translate(1123.618 10424.488)" fill="#ff854e"/><path d="M104.927,65.775c-.078-.058-.2.228-.207.265a14.488,14.488,0,0,0,5,16.143c.016.014.038,0,.063-.017l1.211-.593c.427-.211.406-.565.483-1.027a13.938,13.938,0,0,0-.234-5.3,16.642,16.642,0,0,0-6.313-9.475" transform="translate(1123.241 10430.629)" fill="#ff854e"/><path d="M104.647,74.18c-.077-.058-.2.23-.209.267a14.5,14.5,0,0,0,5,16.143c.016.012.037,0,.061-.017.4-.2.807-.394,1.211-.594.429-.209.408-.563.483-1.023a13.908,13.908,0,0,0-.232-5.3,16.637,16.637,0,0,0-6.315-9.476" transform="translate(1123.034 10436.874)" fill="#ff854e"/><rect width="1.366" height="19.415" transform="translate(1235.859 10532.536)" fill="#ff854e"/><rect width="1.365" height="67.566" transform="translate(1211.663 10501.803)" fill="#ff854e"/><path d="M65.877,127.34V100.91H1.461q3.553,3.689,7.108,7.381l9.274,9.635a.411.411,0,0,1,0,.64q-3.922,4.076-7.85,8.155-4.267,4.431-8.532,8.858H65.877Z" transform="translate(1047.085 10456.738)" fill="#ff854e"/><path d="M144.977,118.566a.413.413,0,0,1,0-.64q3.927-4.081,7.856-8.157,4.262-4.429,8.527-8.859H96.941v34.671h64.418q-3.553-3.692-7.108-7.385l-9.274-9.63" transform="translate(1118.023 10456.738)" fill="#ff854e"/><rect width="155.179" height="38.713" transform="translate(1087.829 10544.578)" fill="#ff854e"/><path d="M40.1,16.918l2.311-1.358a2.074,2.074,0,0,1,2.721.234,8.271,8.271,0,0,1,1.422,1.853q.672,1.145.952,1.753a3.935,3.935,0,0,1,.464,2.207,2.136,2.136,0,0,1-1.149,1.454l-.96.565,2.851,4.847-1.356.795Zm5.177,1.649a7.025,7.025,0,0,0-1.246-1.694.835.835,0,0,0-1.048-.1l-.854.5,3.022,5.142.821-.483a.861.861,0,0,0,.446-.99,8.294,8.294,0,0,0-1-2.139Z" transform="translate(1075.789 10393.032)" fill="#ff854e"/><path d="M43.887,14.684l2.513-1.22a2.335,2.335,0,0,1,1.773-.272,2.843,2.843,0,0,1,1.349,1.344q.272.447.751,1.44a5.509,5.509,0,0,1,.566,1.783,1.458,1.458,0,0,1-.432,1.286,1.036,1.036,0,0,1,.929.178,4.293,4.293,0,0,1,.988,1.2c.368.591.847,1.5,1.445,2.729a12.1,12.1,0,0,0,1.15,2.1l-1.4.681A41.838,41.838,0,0,1,51.3,21.642c-.45-.922-.791-1.417-1.032-1.483a1.256,1.256,0,0,0-.873.146l-.861.356,3.021,6.224-1.408.683Zm4.795,1.57c-.479-.99-.842-1.523-1.082-1.6a1.135,1.135,0,0,0-.835.115l-.884.432,2.112,4.347.9-.436a1.006,1.006,0,0,0,.519-.46,1.243,1.243,0,0,0-.04-.777,11.075,11.075,0,0,0-.645-1.532Z" transform="translate(1078.606 10391.508)" fill="#ff854e"/><path d="M48.09,12.686l3.7-1.464.516,1.3-2.247.889,1.8,4.556,2.126-.84.514,1.3-2.128.84L54.3,24.131l2.273-.9.516,1.3-3.732,1.475Z" transform="translate(1081.729 10390.104)" fill="#ff854e"/><path d="M57.206,9.969l1.882-.549L63.1,23.17l-1.339.39-1.61-5.516-1.375-5.177,1.365,11.139-1.361.4L53.868,14.3l1.624,5.105L57.1,24.92l-1.328.389L51.759,11.56l1.875-.549,5.133,10.77Z" transform="translate(1084.455 10388.765)" fill="#ff854e"/><rect width="1.569" height="14.322" transform="matrix(0.98, -0.199, 0.199, 0.98, 1146.766, 10397.52)" fill="#ff854e"/><path d="M64.052,8.349,65.6,8.143,67,18.7a5.622,5.622,0,0,1-.2,2.982,2.722,2.722,0,0,1-4.044.535,5.5,5.5,0,0,1-.978-2.827L60.38,8.835l1.555-.206,1.393,10.514a7.157,7.157,0,0,0,.333,1.682,1.985,1.985,0,0,0,.286.411.833.833,0,0,0,.769.209A.9.9,0,0,0,65.438,21a1.823,1.823,0,0,0,.132-1.042c-.045-.45-.089-.814-.125-1.093Z" transform="translate(1090.86 10387.816)" fill="#ff854e"/><path d="M70.893,7.894l1.963-.052.389,14.317-1.393.038-.157-5.743L71.677,11.1,70.17,22.218l-1.417.038L66.567,11.235l.275,5.349L67,22.328l-1.384.038-.39-14.318L67.177,8,69.4,19.715Z" transform="translate(1094.458 10387.593)" fill="#ff854e"/><path d="M74.035,11.91a5.109,5.109,0,0,1,1.227-3.226,2.387,2.387,0,0,1,1.945-.478,2.157,2.157,0,0,1,2.076,1.851,8.607,8.607,0,0,1-.017,2.506l-.783,6.266a6.861,6.861,0,0,1-.983,3.158,1.915,1.915,0,0,1-1.067.72l.978,1.583-.861.654L75.074,22.71a2.127,2.127,0,0,1-1.661-1.281,6.774,6.774,0,0,1-.16-3.252Zm3.688.363a6.542,6.542,0,0,0,.037-1.959.8.8,0,0,0-.748-.671.864.864,0,0,0-.927.472A5.451,5.451,0,0,0,75.6,12l-.8,6.388a7.544,7.544,0,0,0-.064,2.234.914.914,0,0,0,1.7.206,7.8,7.8,0,0,0,.485-2.175Z" transform="translate(1100.344 10387.842)" fill="#ff854e"/><path d="M83.276,9.545l1.525.329L82.558,20.28a5.636,5.636,0,0,1-1.192,2.74,2.227,2.227,0,0,1-2.182.471,2.258,2.258,0,0,1-1.807-1.33,5.528,5.528,0,0,1,.037-2.991l2.24-10.405,1.534.331L78.952,19.461a7.191,7.191,0,0,0-.254,1.7,1.993,1.993,0,0,0,.132.483.829.829,0,0,0,.654.457.893.893,0,0,0,.826-.171,1.789,1.789,0,0,0,.478-.938q.162-.656.251-1.07Z" transform="translate(1103.349 10388.278)" fill="#ff854e"/><path d="M86.689,10.1l1.8.558L86.356,24.99l-1.412-.437.45-2.724-2.309-.715-1.142,2.508-1.426-.441Zm-3.033,9.761,1.952.607,1.238-7.542-.023-.007Z" transform="translate(1105.821 10389.269)" fill="#ff854e"/><path d="M89.847,11.284l1.455.579L86.541,23.884l2.289.906-.512,1.3L84.573,24.6Z" transform="translate(1108.834 10390.15)" fill="#ff854e"/><rect width="14.324" height="1.567" transform="translate(1198.349 10416.802) rotate(-65.06)" fill="#ff854e"/><path d="M95.066,13.532,98.951,15.6l-.659,1.238-1.21-.647L91.006,27.6l-1.379-.736,6.078-11.406-1.3-.688Z" transform="translate(1112.59 10391.82)" fill="#ff854e"/><path d="M101.749,17.407l1.305.814-6.221,5.912-3.181,5.1-1.333-.83L95.5,23.3l2.431-8.277,1.293.805L97.46,21.637l.026.016Z" transform="translate(1114.59 10392.931)" fill="#ff854e"/><path d="M98.877,29.389c1.3-1.666,5.229-.458,7.885.626l1.262.544-.826-1.1c-1.677-2.327-3.775-5.862-2.461-7.517.828-1.046,1.3-1.414,1.579-1.482a3.114,3.114,0,0,0-3.115-1.14c-3.629,1.121-4.065,3.195-4.021,4.275-1.061.211-2.975,1.122-3.212,4.915a3.119,3.119,0,0,0,1.842,2.759c0-.282.244-.833,1.067-1.884" transform="translate(1117.297 10396.043)" fill="#ff854e"/><path d="M44.156,29.35c-1.354-1.626-5.243-.295-7.862.87l-1.244.582.793-1.122c1.6-2.377,3.589-5.973,2.228-7.589-.861-1.02-1.351-1.373-1.628-1.433a3.126,3.126,0,0,1,3.082-1.236c3.658,1.009,4.16,3.069,4.152,4.15,1.067.18,3.007,1.03,3.36,4.812A3.123,3.123,0,0,1,45.282,31.2c-.009-.284-.274-.826-1.126-1.851" transform="translate(1072.04 10396.132)" fill="#ff854e"/><text transform="translate(1139 10574)" fill="#fff" font-size="30" font-family="Roboto-Black, Roboto" font-weight="800"><tspan x="0" y="0">BPG</tspan></text></g><rect width="295" height="245" transform="translate(1020 10359)" fill="none"/></g></svg>