<svg xmlns="http://www.w3.org/2000/svg" width="201" height="201" viewBox="0 0 201 201">
  <g id="Grupo_848047" data-name="Grupo 848047" transform="translate(-6140 8404)">
    <rect id="Rectángulo_281777" data-name="Rectángulo 281777" width="201" height="201" rx="12" transform="translate(6140 -8404)" fill="#fff"/>
    <g id="desafios" transform="translate(6176.281 -8374.219)">
      <path id="Trazado_570363" data-name="Trazado 570363" d="M11.118,96.127,5,106.691H121.241V19Z" transform="translate(4.157 18.708)" fill="#cf9e76"/>
      <path id="Trazado_570364" data-name="Trazado 570364" d="M56.432,8A22.432,22.432,0,1,1,34,30.432,22.42,22.42,0,0,1,56.432,8Zm10.2,22.432a10.2,10.2,0,1,0-10.2,10.2A10.2,10.2,0,0,0,66.629,30.432Z" transform="translate(34.297 7.275)" fill="#fcd770"/>
      <path id="Trazado_570365" data-name="Trazado 570365" d="M55.368,66.361v-.02a29.88,29.88,0,0,1-8.524-3.528L42.479,65.5l-8.647-8.647,2.692-4.364A29.88,29.88,0,0,1,33,43.969l-.387-.1a5.341,5.341,0,0,0,1.509-3.752,5.474,5.474,0,0,0-5.486-5.486H28V30.55l5-1.183a29.88,29.88,0,0,1,3.528-8.524l-2.692-4.364,8.647-8.647,4.364,2.692A29.88,29.88,0,0,1,55.368,7L56.55,2H68.786l1.183,5a29.88,29.88,0,0,1,8.524,3.528l4.364-2.692L91.5,16.479l-2.692,4.364a29.88,29.88,0,0,1,3.528,8.524l5,1.183V42.786l-5,1.183a29.88,29.88,0,0,1-3.528,8.524L91.5,56.858,82.858,65.5l-4.364-2.692a29.88,29.88,0,0,1-8.524,3.528l-1.183,5H56.55ZM85.1,36.668A22.432,22.432,0,1,0,62.668,59.1,22.42,22.42,0,0,0,85.1,36.668Z" transform="translate(28.061 1.039)" fill="#ffc729"/>
      <path id="Trazado_570366" data-name="Trazado 570366" d="M14.236,74.3v4.446A6.118,6.118,0,0,1,2,78.747V40a8.155,8.155,0,0,0,8.157,8.157h4.079Z" transform="translate(1.039 40.533)" fill="#838f9b"/>
      <path id="Trazado_570367" data-name="Trazado 570367" d="M38.708,59.352v5.159a6.114,6.114,0,0,1-10.441,4.323,6.71,6.71,0,0,1-1.1-1.489,6.009,6.009,0,0,1-.693-2.835V52.275a2.045,2.045,0,0,0-2.039-2.039H10.157A8.155,8.155,0,0,1,2,42.079V38H30.55a8.155,8.155,0,0,1,8.157,8.157Z" transform="translate(1.039 38.455)" fill="#838f9b"/>
      <path id="Trazado_570368" data-name="Trazado 570368" d="M61.14,23.486a5.341,5.341,0,0,1-1.509,3.752,5.469,5.469,0,0,1-.612.571L46.09,37.863a12.158,12.158,0,0,1-7.5,2.57H24.432V58.786H2V46.55A16.31,16.31,0,0,1,18.315,30.236H35.3a4.015,4.015,0,0,0,2.447-.816L51.515,19.1a5.5,5.5,0,0,1,3.3-1.1h.836a5.474,5.474,0,0,1,5.486,5.486Z" transform="translate(1.039 17.668)" fill="#5cd6b3"/>
      <ellipse id="Elipse_6831" data-name="Elipse 6831" cx="12.5" cy="12" rx="12.5" ry="12" transform="translate(9 23.438)" fill="#f0d0b4"/>
      <path id="Trazado_570369" data-name="Trazado 570369" d="M0,0H4.05V4.077H0Z" transform="matrix(0.821, -0.572, 0.572, 0.821, 45.525, 101.309)"/>
      <path id="Trazado_570370" data-name="Trazado 570370" d="M0,0H33.818V4.077H0Z" transform="matrix(0.821, -0.572, 0.572, 0.821, 52.924, 96.153)"/>
      <path id="Trazado_570371" data-name="Trazado 570371" d="M122.064,28.71a32.415,32.415,0,0,0-2.816-6.795l2.908-4.7L111.219,6.282l-4.7,2.908a32.415,32.415,0,0,0-6.795-2.816L98.463,1H83L81.732,6.374A32.415,32.415,0,0,0,74.937,9.19l-4.7-2.908L59.3,17.219l2.908,4.7A32.415,32.415,0,0,0,59.4,28.71l-5.374,1.264v3.907a7.492,7.492,0,0,0-2.684,1.252L37.571,45.457a2.052,2.052,0,0,1-1.224.408H31.363A14.28,14.28,0,1,0,12.85,47.076,18.368,18.368,0,0,0,1,64.219V119.28a8.165,8.165,0,0,0,8.157,8.157h118.28V29.975ZM11.2,35.668a10.2,10.2,0,1,1,10.2,10.2A10.208,10.208,0,0,1,11.2,35.668Zm8.157,14.275H36.347a6.148,6.148,0,0,0,3.671-1.226L53.784,38.395a3.476,3.476,0,0,1,2.066-.687H56.7a3.44,3.44,0,0,1,2.111,6.155L45.887,53.916a10.247,10.247,0,0,1-6.261,2.145H23.432V74.415H5.079v-10.2A14.293,14.293,0,0,1,19.354,49.944ZM31.59,74.415H27.511V60.14H39.627a14.325,14.325,0,0,0,8.765-3.008L59.879,48.2a32.2,32.2,0,0,0,2.333,5.3L59.3,58.2,70.241,69.133l4.7-2.908a32.381,32.381,0,0,0,3.983,1.833L41.786,93.907v-9.3A10.208,10.208,0,0,0,31.59,74.415ZM5.079,78.494H31.59a6.125,6.125,0,0,1,6.118,6.118v18.352a4.08,4.08,0,1,1-8.159,0l0-12.236a4.083,4.083,0,0,0-4.079-4.079H11.2a6.125,6.125,0,0,1-6.118-6.118ZM17.315,90.73h8.157l0,12.232v0a8.184,8.184,0,0,0,.294,2.062l-8.449,5.9ZM5.079,119.28V88.637A10.091,10.091,0,0,0,11.2,90.73h2.039v28.55a4.079,4.079,0,0,1-8.157,0Zm118.28,4.079H16.181a8.073,8.073,0,0,0,1.134-4.079v-3.375l10.441-7.3c.037.039.063.086.1.124a8.159,8.159,0,0,0,13.929-5.769V98.875l40.356-28.09L83,74.415H98.463l1.264-5.374a32.415,32.415,0,0,0,6.795-2.816l4.7,2.908L122.156,58.2l-2.908-4.7a32.416,32.416,0,0,0,2.816-6.795l1.295-.3Zm0-81.148L118.724,43.3l-.3,1.215a28.3,28.3,0,0,1-3.3,7.959l-.648,1.067,2.506,4.05-6.369,6.369-4.05-2.506L105.5,62.1a28.3,28.3,0,0,1-7.959,3.3l-1.215.3-1.093,4.637H86.227L85.136,65.7l-1.215-.3a28.3,28.3,0,0,1-7.959-3.3l-1.067-.649-4.05,2.506L64.476,57.6l2.506-4.05-.648-1.067a28.237,28.237,0,0,1-3.179-7.545A7.444,7.444,0,0,0,58.1,33.772v-.565l4.635-1.091.3-1.215a28.3,28.3,0,0,1,3.3-7.959l.648-1.067-2.506-4.05,6.369-6.369,4.05,2.506,1.067-.649a28.3,28.3,0,0,1,7.959-3.3l1.215-.3,1.093-4.639h9.006l1.091,4.635,1.215.3a28.3,28.3,0,0,1,7.959,3.3l1.067.649,4.05-2.506,6.369,6.369-2.506,4.05.649,1.067a28.3,28.3,0,0,1,3.3,7.959l.3,1.215,4.637,1.093V42.21Z" transform="translate(0 0)"/>
      <path id="Trazado_570372" data-name="Trazado 570372" d="M57.472,7A24.472,24.472,0,1,0,81.944,31.472,24.5,24.5,0,0,0,57.472,7Zm0,44.865A20.393,20.393,0,1,1,77.865,31.472,20.416,20.416,0,0,1,57.472,51.865Z" transform="translate(33.258 6.236)"/>
      <path id="Trazado_570373" data-name="Trazado 570373" d="M51.236,13A12.236,12.236,0,1,0,63.472,25.236,12.248,12.248,0,0,0,51.236,13Zm0,20.393a8.157,8.157,0,1,1,8.157-8.157A8.165,8.165,0,0,1,51.236,33.393Z" transform="translate(39.494 12.472)"/>
      <path id="Trazado_570374" data-name="Trazado 570374" d="M57,57h4.079v4.079H57Z" transform="translate(58.202 58.202)"/>
      <path id="Trazado_570375" data-name="Trazado 570375" d="M57,53h4.079v4.079H57Z" transform="translate(58.202 54.044)"/>
      <path id="Trazado_570376" data-name="Trazado 570376" d="M57,49h4.079v4.079H57Z" transform="translate(58.202 49.887)"/>
      <path id="Trazado_570377" data-name="Trazado 570377" d="M11,57h4.079v4.079H11Z" transform="translate(10.393 58.202)"/>
      <path id="Trazado_570378" data-name="Trazado 570378" d="M15,57h4.079v4.079H15Z" transform="translate(14.55 58.202)"/>
      <path id="Trazado_570379" data-name="Trazado 570379" d="M19,57h4.079v4.079H19Z" transform="translate(18.708 58.202)"/>
    </g>
  </g>
</svg>
