<svg xmlns="http://www.w3.org/2000/svg" width="201" height="201" viewBox="0 0 201 201">
  <g id="Grupo_848050" data-name="Grupo 848050" transform="translate(-6140 7199)">
    <rect id="Rectángulo_281783" data-name="Rectángulo 281783" width="201" height="201" rx="12" transform="translate(6140 -7199)" fill="#fff"/>
    <g id="ola-de-calor" transform="translate(6165.491 -7207.262)">
      <path id="Trazado_570415" data-name="Trazado 570415" d="M79.921,239.465a3.169,3.169,0,0,1,2.684,0l30.8,14.405V301.3H49.12V253.871Z" transform="translate(-34.727 -131.435)" fill="#bbdeaf"/>
      <path id="Trazado_570416" data-name="Trazado 570416" d="M82.6,239.465l30.8,14.405v7.906L82.6,247.371a3.169,3.169,0,0,0-2.684,0l-30.8,14.405v-7.906l30.8-14.405A3.168,3.168,0,0,1,82.6,239.465Z" transform="translate(-34.727 -131.435)" fill="#006c62"/>
      <path id="Trazado_570417" data-name="Trazado 570417" d="M145.471,344.174v24.69h-18.9v-24.69a9.448,9.448,0,1,1,18.9,0Z" transform="translate(-89.487 -198.995)" fill="#ddebfd"/>
      <path id="Trazado_570418" data-name="Trazado 570418" d="M212.265,184.165v17.725l12.549,5.718V189.661a.9.9,0,0,0-.522-.82l-11.168-5.223A.6.6,0,0,0,212.265,184.165Z" transform="translate(-150.071 -92.122)" fill="#5d91b9"/>
      <path id="Trazado_570419" data-name="Trazado 570419" d="M13.112,228.171,50.5,210.687a3.169,3.169,0,0,1,2.684,0l37.383,17.484a1.633,1.633,0,0,0,2.171-.788l3.287-7.027a1.633,1.633,0,0,0-.788-2.171l-41.06-19.2a5.513,5.513,0,0,0-4.67,0l-41.06,19.2a1.633,1.633,0,0,0-.788,2.171l3.287,7.027a1.634,1.634,0,0,0,2.171.788Z" transform="translate(-5.302 -102.657)" fill="#f5d664"/>
      <g id="Grupo_847945" data-name="Grupo 847945" transform="translate(23.74 92.734)">
        <path id="Trazado_570420" data-name="Trazado 570420" d="M90.171,188.535a1.055,1.055,0,0,0-1.859,0c-2.151,4-7.289,13.939-7.289,17.528a8.219,8.219,0,1,0,16.437,0C97.461,202.475,92.322,192.538,90.171,188.535Z" transform="translate(-81.023 -187.979)" fill="#bed9fd"/>
      </g>
      <g id="Grupo_847946" data-name="Grupo 847946" transform="translate(5.12 73.236)">
        <path id="Trazado_570421" data-name="Trazado 570421" d="M26.621,121.99a1.055,1.055,0,0,0-1.859,0c-2.151,4-7.289,13.939-7.289,17.528a8.219,8.219,0,1,0,16.437,0C33.911,135.93,28.772,125.993,26.621,121.99Z" transform="translate(-17.473 -121.434)" fill="#bed9fd"/>
      </g>
      <g id="Grupo_847947" data-name="Grupo 847947" transform="translate(82.634 55.46)">
        <path id="Trazado_570422" data-name="Trazado 570422" d="M339.726,100.247a1.471,1.471,0,0,1-1.005,2.425,15.989,15.989,0,0,0-14.785,14.784,1.471,1.471,0,0,1-2.425,1,15.99,15.99,0,0,0-20.91,0,1.471,1.471,0,0,1-2.425-1,15.991,15.991,0,0,0-14.783-14.787,1.471,1.471,0,0,1-1-2.425,15.982,15.982,0,0,0,0-20.908,1.471,1.471,0,0,1,1-2.426,15.993,15.993,0,0,0,14.786-14.786,1.471,1.471,0,0,1,2.426-1,15.98,15.98,0,0,0,20.907,0,1.471,1.471,0,0,1,2.426,1A15.992,15.992,0,0,0,338.723,76.91a1.471,1.471,0,0,1,1,2.425,15.991,15.991,0,0,0,0,20.912Z" transform="translate(-282.028 -60.763)" fill="#ff854e"/>
        <circle id="Elipse_6833" data-name="Elipse 6833" cx="13.037" cy="13.037" r="13.037" transform="translate(15.991 15.991)" fill="#f1cd88"/>
      </g>
      <g id="Grupo_847948" data-name="Grupo 847948" transform="translate(0.001 53.262)">
        <path id="Trazado_570423" data-name="Trazado 570423" d="M330.931,327.73a2.2,2.2,0,0,0,3.054-.575l4.31-6.311a3.64,3.64,0,0,0,0-4.13l-4.027-5.9,4.027-5.9a3.641,3.641,0,0,0,0-4.131l-4.027-5.9,3.894-5.7a2.2,2.2,0,1,0-3.629-2.478l-4.176,6.115a3.64,3.64,0,0,0,0,4.131l4.027,5.9-4.027,5.9a3.64,3.64,0,0,0,0,4.131l4.027,5.9-4.027,5.9A2.2,2.2,0,0,0,330.931,327.73Z" transform="translate(-233.107 -217.634)"/>
        <path id="Trazado_570424" data-name="Trazado 570424" d="M380.692,327.73a2.2,2.2,0,0,0,3.054-.575l4.31-6.311a3.641,3.641,0,0,0,0-4.131l-4.027-5.9,4.027-5.9a3.639,3.639,0,0,0,0-4.131l-4.027-5.9,3.894-5.7a2.2,2.2,0,0,0-3.629-2.479l-4.176,6.115a3.64,3.64,0,0,0,0,4.131l4.027,5.9-4.027,5.9a3.64,3.64,0,0,0,0,4.131l4.027,5.9-4.027,5.9A2.2,2.2,0,0,0,380.692,327.73Z" transform="translate(-268.289 -217.634)"/>
        <path id="Trazado_570425" data-name="Trazado 570425" d="M430.454,327.729a2.2,2.2,0,0,0,3.054-.575l4.31-6.311a3.64,3.64,0,0,0,0-4.13l-4.027-5.9,4.027-5.9a3.641,3.641,0,0,0,0-4.131l-4.027-5.9,3.894-5.7a2.2,2.2,0,0,0-3.629-2.478l-4.176,6.115a3.64,3.64,0,0,0,0,4.131l4.027,5.9-4.027,5.9a3.64,3.64,0,0,0,0,4.131l4.027,5.9-4.027,5.9a2.2,2.2,0,0,0,.575,3.054Z" transform="translate(-303.47 -217.632)"/>
        <path id="Trazado_570426" data-name="Trazado 570426" d="M147.819,254.49H80.876V212.709l3.457,1.617a3.828,3.828,0,0,0,5.09-1.849l3.289-7.029a3.831,3.831,0,0,0-1.849-5.09L76.94,193.846v-9.487a3.115,3.115,0,0,0-1.788-2.811l-11.167-5.222A2.8,2.8,0,0,0,60,178.862v7.06l-10.2-4.77a7.693,7.693,0,0,0-6.532,0l-5.924,2.771c-.834-1.672-1.7-3.321-2.52-4.855a3.252,3.252,0,0,0-5.73,0c-1.893,3.523-3.985,7.654-5.487,11.281l-21.4,10.008a3.83,3.83,0,0,0-1.845,5.092L3.65,212.48a3.832,3.832,0,0,0,5.091,1.844l3.455-1.616v10.91a2.2,2.2,0,0,0,4.395,0V210.653l9.477-4.432a10.408,10.408,0,0,0,16.261-7.6l3.8-1.776a.96.96,0,0,1,.82,0l29.534,13.812V254.49h-18.3V232a11.646,11.646,0,1,0-23.292,0V254.49h-18.3V233.874a2.2,2.2,0,1,0-4.395,0V254.49H2.8a2.2,2.2,0,1,0,0,4.395H147.819a2.2,2.2,0,1,0,0-4.395ZM64.394,181.369l8.151,3.811v6.61l-8.151-3.813Zm-57,28.735-2.807-6,17.133-8.013a9.882,9.882,0,0,0,1.221,6.747Zm24.569-6.446a6.028,6.028,0,0,1-6.021-6.021c0-2.827,4.721-12.1,6.021-14.589,3.575,6.842,5.874,12.33,6.014,14.4,0,.067.007.13.007.19a6.028,6.028,0,0,1-6.021,6.021Zm12.3-10.8-2.58,1.207a55.006,55.006,0,0,0-2.441-6.178l5.89-2.756a3.308,3.308,0,0,1,2.809,0L88.49,204.1l-2.809,6L48.81,192.862a5.34,5.34,0,0,0-4.548,0ZM39.285,232a7.251,7.251,0,1,1,14.5,0V254.49h-14.5Z" transform="translate(-0.001 -140.081)"/>
        <path id="Trazado_570427" data-name="Trazado 570427" d="M20.394,144.635A10.428,10.428,0,0,0,30.81,134.218c0-3.734-4.106-12.159-7.551-18.568a3.252,3.252,0,0,0-5.73,0c-3.445,6.41-7.551,14.834-7.551,18.568A10.428,10.428,0,0,0,20.394,144.635Zm0-25.005c3.691,7.064,6.021,12.685,6.021,14.589a6.021,6.021,0,1,1-12.042,0C14.373,132.314,16.7,126.693,20.394,119.629Z" transform="translate(-7.055 -96.159)"/>
        <path id="Trazado_570428" data-name="Trazado 570428" d="M278.781,84.488a13.778,13.778,0,0,1-3.356,9.016,3.669,3.669,0,0,0,2.507,6.055,13.793,13.793,0,0,1,12.749,12.753,3.669,3.669,0,0,0,6.055,2.508,13.791,13.791,0,0,1,18.033,0,3.669,3.669,0,0,0,6.055-2.507,13.791,13.791,0,0,1,12.752-12.75,3.669,3.669,0,0,0,2.509-6.054,13.794,13.794,0,0,1,0-18.036,3.669,3.669,0,0,0-2.507-6.055,13.794,13.794,0,0,1-12.754-12.751,3.669,3.669,0,0,0-6.057-2.506,13.725,13.725,0,0,1-6.532,3.133,2.2,2.2,0,1,0,.785,4.324,18.119,18.119,0,0,0,7.569-3.288,18.192,18.192,0,0,0,15.326,15.322,18.191,18.191,0,0,0,0,21.673,18.189,18.189,0,0,0-15.325,15.323,18.19,18.19,0,0,0-21.672,0A18.192,18.192,0,0,0,279.6,95.324a18.184,18.184,0,0,0,0-21.672,18.193,18.193,0,0,0,15.324-15.324A18.144,18.144,0,0,0,297.625,60a2.2,2.2,0,1,0,1.968-3.93,13.8,13.8,0,0,1-2.854-1.908,3.669,3.669,0,0,0-6.057,2.507A13.795,13.795,0,0,1,277.93,69.416a3.669,3.669,0,0,0-2.507,6.057,13.768,13.768,0,0,1,3.358,9.015Z" transform="translate(-194.091 -53.262)"/>
        <path id="Trazado_570429" data-name="Trazado 570429" d="M329.107,123.076a15.235,15.235,0,1,0,15.235-15.235A15.252,15.252,0,0,0,329.107,123.076Zm15.235-10.84a10.84,10.84,0,1,1-10.84,10.84A10.852,10.852,0,0,1,344.342,112.236Z" transform="translate(-232.679 -91.849)"/>
      </g>
    </g>
  </g>
</svg>
