<svg xmlns="http://www.w3.org/2000/svg" width="201" height="201" viewBox="0 0 201 201">
  <g id="Grupo_848052" data-name="Grupo 848052" transform="translate(-6140 6403)">
    <rect id="Rectángulo_281787" data-name="Rectángulo 281787" width="201" height="201" rx="12" transform="translate(6140 -6403)" fill="#fff"/>
    <g id="quimica" transform="translate(6175.999 -6365.5)">
      <path id="Trazado_570430" data-name="Trazado 570430" d="M256.31,127.228V102.566H225.6v24.662a37.786,37.786,0,1,0,30.707,0Zm0,0" transform="translate(-152.197 -76.459)" fill="#bbdeaf"/>
      <path id="Trazado_570431" data-name="Trazado 570431" d="M293.926,273.635a30.139,30.139,0,1,1-51.017-21.728h41.757A30.174,30.174,0,0,1,293.926,273.635Zm0,0" transform="translate(-175.028 -188.331)" fill="#f7d360"/>
      <path id="Trazado_570433" data-name="Trazado 570433" d="M248.764,299.753a30.122,30.122,0,0,1-5.855-47.846h3.866a60.808,60.808,0,0,0-3.783,21.728C242.992,283.766,245.187,292.965,248.764,299.753Zm0,0" transform="translate(-175.028 -188.331)" fill="#e58e13"/>
      <path id="Trazado_570434" data-name="Trazado 570434" d="M81.518,231.062l-24.539-42.5V166.57H33.659v21.989L9.12,231.062a10.954,10.954,0,0,0,9.487,16.431H72.032A10.955,10.955,0,0,0,81.518,231.062Zm0,0" transform="translate(-5.72 -124.405)" fill="#e6e6e6"/>
      <path id="Trazado_570435" data-name="Trazado 570435" d="M56.976,166.57H33.654v21.988l-24.537,42.5a10.952,10.952,0,0,0,9.484,16.43H33.186c-3.829,0-6.222-9.127-4.308-16.43l11.144-42.5V177.27a4.2,4.2,0,0,1,4.2-4.2H56.976Zm0,0" transform="translate(-5.717 -124.405)" fill="#ccc"/>
      <path id="Trazado_570436" data-name="Trazado 570436" d="M117.887,131.916a4.97,4.97,0,0,1-4.971,4.97H82.626a4.97,4.97,0,0,1,0-9.941h30.29a4.971,4.971,0,0,1,4.971,4.971Zm0,0" transform="translate(-58.172 -94.722)" fill="#ccc"/>
      <path id="Trazado_570437" data-name="Trazado 570437" d="M153.876,131.916a4.97,4.97,0,0,1-4.971,4.97H130.669a4.97,4.97,0,0,1,0-9.941h18.237a4.971,4.971,0,0,1,4.971,4.971Zm0,0" transform="translate(-94.162 -94.722)" fill="#e6e6e6"/>
      <path id="Trazado_570438" data-name="Trazado 570438" d="M307.535,83.153a4.97,4.97,0,0,1-4.97,4.971H265.095a4.97,4.97,0,0,1,0-9.941h37.471a4.969,4.969,0,0,1,4.97,4.97Zm0,0" transform="translate(-194.862 -58.194)" fill="#72cec0"/>
      <path id="Trazado_570439" data-name="Trazado 570439" d="M342.214,83.153a4.97,4.97,0,0,1-4.97,4.971H311.389a4.97,4.97,0,1,1,0-9.941h25.855a4.969,4.969,0,0,1,4.97,4.97Zm0,0" transform="translate(-229.54 -58.194)" fill="#c9fff7"/>
      <path id="Trazado_570440" data-name="Trazado 570440" d="M97.719,348.913a3.2,3.2,0,0,1-2.863,1.654H41.431a3.307,3.307,0,0,1-2.865-4.96L56.6,314.375h23.09l18.031,31.233A3.2,3.2,0,0,1,97.719,348.913Zm0,0" transform="translate(-28.543 -235.127)" fill="#f5d664"/>
      <path id="Trazado_570441" data-name="Trazado 570441" d="M51.7,341.785a22.663,22.663,0,0,0-.435,8.783H41.431a3.307,3.307,0,0,1-2.865-4.96L56.6,314.375H58.89Zm0,0" transform="translate(-28.543 -235.127)" fill="#fff3c6"/>
      <path id="Trazado_570442" data-name="Trazado 570442" d="M106.024,102.04V98.224a1.912,1.912,0,1,0-3.823,0v5.036a1.912,1.912,0,0,0,1.134,1.746,35.882,35.882,0,0,1-26.287,66.7c.14-.213.276-.429.406-.653a13.093,13.093,0,0,0,1.216-2.842,32.055,32.055,0,0,0,42.14-30.421,32.241,32.241,0,0,0-9.845-23.105,1.914,1.914,0,0,0-1.326-.535H67.881a1.913,1.913,0,0,0-1.326.534,32.076,32.076,0,0,0-7.63,11.411l-2.375-4.113a35.921,35.921,0,0,1,17.634-16.979,1.91,1.91,0,0,0,1.134-1.746V84.333H102.2v6.244a1.912,1.912,0,1,0,3.823,0V84.333h1.68a6.881,6.881,0,1,0,0-13.763H99.911a1.912,1.912,0,0,0,0,3.823H107.7a3.058,3.058,0,1,1,0,6.116H70.233a3.058,3.058,0,1,1,0-6.116H92.264a1.912,1.912,0,0,0,0-3.823H70.233a6.881,6.881,0,1,0,0,13.763H71.5V102.04a39.74,39.74,0,0,0-17.2,16.041l-1.125-1.948V96.567h1.573a6.881,6.881,0,1,0,0-13.763H24.455a6.881,6.881,0,1,0,0,13.763h1.573v19.566L1.745,158.192a12.866,12.866,0,0,0,11.141,19.3H45.622a1.912,1.912,0,1,0,0-3.823H12.886A9.043,9.043,0,0,1,5.056,160.1l24.539-42.5a1.916,1.916,0,0,0,.256-.957V96.567h19.5v20.078a1.916,1.916,0,0,0,.256.957l24.538,42.5a9.043,9.043,0,0,1-7.831,13.564H53.27a1.912,1.912,0,0,0,0,3.823H66.312a12.76,12.76,0,0,0,7.951-2.734,39.7,39.7,0,0,0,31.761-72.716Zm-78.085-9.3H24.455a3.058,3.058,0,1,1,0-6.116h30.29a3.058,3.058,0,0,1,0,6.116Zm33.549,37.792a28.229,28.229,0,0,1,7.179-12.558h40.186A28.22,28.22,0,0,1,88.758,166.02a27.951,27.951,0,0,1-9.569-1.673,12.836,12.836,0,0,0-1.735-6.156Zm0,0" transform="translate(0 -52.491)"/>
      <path id="Trazado_570443" data-name="Trazado 570443" d="M93.665,344.165a5.1,5.1,0,0,0,0-5.22L75.633,307.713a1.911,1.911,0,0,0-1.655-.956H50.888a1.911,1.911,0,0,0-1.655.956L31.2,338.945a5.219,5.219,0,0,0,4.52,7.829H89.145A5.1,5.1,0,0,0,93.665,344.165Zm-59.154-1.912a1.283,1.283,0,0,1,0-1.4l17.48-30.276H72.875l17.48,30.276a1.4,1.4,0,0,1-1.209,2.093H35.72A1.282,1.282,0,0,1,34.511,342.253Zm0,0" transform="translate(-22.833 -229.421)"/>
      <path id="Trazado_570444" data-name="Trazado 570444" d="M170.283,387.258a1.911,1.911,0,1,0-.831,2.4A1.926,1.926,0,0,0,170.283,387.258Zm0,0" transform="translate(-124.806 -288.861)"/>
      <path id="Trazado_570445" data-name="Trazado 570445" d="M134.909,77.461a1.913,1.913,0,1,0-1.861-1.481A1.929,1.929,0,0,0,134.909,77.461Zm0,0" transform="translate(-99.631 -54.792)"/>
      <path id="Trazado_570446" data-name="Trazado 570446" d="M164.182,48.166a1.911,1.911,0,1,0-.754-2.188A1.925,1.925,0,0,0,164.182,48.166Zm0,0" transform="translate(-122.355 -33.085)"/>
      <path id="Trazado_570447" data-name="Trazado 570447" d="M146.95,3.136a1.91,1.91,0,0,0,3.563-.086,1.911,1.911,0,1,0-3.563.086Zm0,0" transform="translate(-109.973 0)"/>
      <path id="Trazado_570448" data-name="Trazado 570448" d="M413.217,286.573a1.911,1.911,0,1,0,.719-2.33A1.92,1.92,0,0,0,413.217,286.573Zm0,0" transform="translate(-309.436 -212.329)"/>
      <path id="Trazado_570449" data-name="Trazado 570449" d="M419.969,334.769a1.911,1.911,0,1,0,2.138,1.144A1.927,1.927,0,0,0,419.969,334.769Zm0,0" transform="translate(-313.465 -250.378)"/>
      <path id="Trazado_570450" data-name="Trazado 570450" d="M319.138,394.751a1.911,1.911,0,1,0,.864-2.418A1.928,1.928,0,0,0,319.138,394.751Zm0,0" transform="translate(-238.962 -293.362)"/>
      <path id="Trazado_570451" data-name="Trazado 570451" d="M285.475,328.132a1.912,1.912,0,1,0,2.125,1.107A1.934,1.934,0,0,0,285.475,328.132Zm0,0" transform="translate(-212.7 -245.406)"/>
      <path id="Trazado_570452" data-name="Trazado 570452" d="M377.043,312.465a1.91,1.91,0,1,0,.7-2.32A1.917,1.917,0,0,0,377.043,312.465Zm0,0" transform="translate(-282.339 -231.721)"/>
      <path id="Trazado_570453" data-name="Trazado 570453" d="M116.939,402.953a1.911,1.911,0,1,0-.766,2.362A1.931,1.931,0,0,0,116.939,402.953Zm0,0" transform="translate(-84.844 -300.598)"/>
      <path id="Trazado_570454" data-name="Trazado 570454" d="M134.624,352.514a1.911,1.911,0,1,0,2.072,1A1.927,1.927,0,0,0,134.624,352.514Zm0,0" transform="translate(-99.697 -263.67)"/>
    </g>
  </g>
</svg>
