<svg xmlns="http://www.w3.org/2000/svg" width="201" height="201" viewBox="0 0 201 201">
  <g id="Grupo_848053" data-name="Grupo 848053" transform="translate(-6140 6001)">
    <rect id="Rectángulo_281789" data-name="Rectángulo 281789" width="201" height="201" rx="12" transform="translate(6140 -6001)" fill="#fff"/>
    <g id="salud-mental" transform="translate(6181.819 -5969.405)">
      <g id="Grupo_847960" data-name="Grupo 847960" transform="translate(1.86 8.335)">
        <path id="Trazado_570455" data-name="Trazado 570455" d="M255.988,471.485v-.062" transform="translate(-194.257 -357.783)" fill="#fd4755" stroke="#fe646f" stroke-miterlimit="10" stroke-width="1"/>
        <g id="Grupo_847957" data-name="Grupo 847957">
          <path id="Trazado_570456" data-name="Trazado 570456" d="M213.454,13.964a8.838,8.838,0,0,1,8.838,8.838v1.552h5.227a9.643,9.643,0,0,1,5.706,17.417h6.388a13.974,13.974,0,0,1,2.812,27.661,9.643,9.643,0,0,1-5.687,17.431H229.1a12.242,12.242,0,1,1-24.485,0V22.8a8.838,8.838,0,0,1,8.838-8.838Z" transform="translate(-155.646 -13.964)" fill="#ffd63d"/>
          <path id="Trazado_570457" data-name="Trazado 570457" d="M220.306,98.612a12.251,12.251,0,0,1-15.69-11.749V22.8A8.84,8.84,0,0,1,216.9,14.663a8.838,8.838,0,0,0-5.39,8.139V86.864A12.248,12.248,0,0,0,220.306,98.612Z" transform="translate(-155.646 -13.963)" fill="#fff3c6"/>
          <path id="Trazado_570458" data-name="Trazado 570458" d="M56.458,22.8V86.865a12.242,12.242,0,0,1-24.485,0H24.335a9.643,9.643,0,0,1-5.687-17.432A13.974,13.974,0,0,1,21.46,41.771h6.389a9.644,9.644,0,0,1,5.707-17.418h5.226V22.8a8.838,8.838,0,1,1,17.676,0Z" transform="translate(-7.488 -13.964)" fill="#ffd63d"/>
          <g id="Grupo_847956" data-name="Grupo 847956" transform="translate(0 0)">
            <path id="Trazado_570459" data-name="Trazado 570459" d="M121.27,303.089a12.258,12.258,0,0,1-15.217-12.063V285.85h.588a5.36,5.36,0,0,1,5.36,5.36A12.246,12.246,0,0,0,121.27,303.089Z" transform="translate(-81.568 -218.31)" fill="#fff3c6"/>
            <path id="Trazado_570460" data-name="Trazado 570460" d="M21.635,146.361a7.2,7.2,0,0,0,7.2,7.2H18.648A13.974,13.974,0,0,1,21.46,125.9h7.378a6.628,6.628,0,0,0,0,13.256A7.2,7.2,0,0,0,21.635,146.361Z" transform="translate(-7.488 -98.095)" fill="#fff3c6"/>
            <path id="Trazado_570461" data-name="Trazado 570461" d="M102.242,15.474a6.533,6.533,0,0,0-7.931,5.6q0,.038-.008.076a3.555,3.555,0,0,1-3.528,3.206H89.236a9.75,9.75,0,0,0-9.805,9.482A9.6,9.6,0,0,0,80.5,38.422a9.71,9.71,0,0,0,2.863,3.35H77.537a9.707,9.707,0,0,1-2.863-3.35,9.645,9.645,0,0,1,8.57-14.068H88.47v-1.39a8.943,8.943,0,0,1,8.71-9,8.774,8.774,0,0,1,5.062,1.508Z" transform="translate(-57.177 -13.964)" fill="#fff3c6"/>
            <path id="Trazado_570462" data-name="Trazado 570462" d="M56.222,254.687h-10.1a9.643,9.643,0,0,1-5.687-17.432h10.1a9.644,9.644,0,0,0,5.687,17.432Z" transform="translate(-29.279 -181.786)" fill="#fff3c6"/>
          </g>
        </g>
        <g id="Grupo_847958" data-name="Grupo 847958" transform="translate(43.174 46.503)">
          <path id="Trazado_570463" data-name="Trazado 570463" d="M255.039,207.7a22.312,22.312,0,0,0-31.555,0l-2.054,2.054-2.054-2.054a22.313,22.313,0,1,0-31.555,31.555l25.823,25.823a11.01,11.01,0,0,0,15.571,0l25.823-25.823A22.312,22.312,0,0,0,255.039,207.7Z" transform="translate(-181.286 -201.161)" fill="#ff854e" stroke="#fe646f" stroke-miterlimit="10" stroke-width="1"/>
        </g>
        <g id="Grupo_847959" data-name="Grupo 847959" transform="translate(14.723 76.342)">
          <path id="Trazado_570465" data-name="Trazado 570465" d="M86.389,365.186a6.111,6.111,0,0,1-4.939-2.513L67.926,344.1a6.111,6.111,0,0,1,9.88-7.2L85.33,347.24l10.9-22.512a6.111,6.111,0,0,1,11,5.327L91.89,361.739a6.112,6.112,0,0,1-4.956,3.424c-.182.016-.364.024-.546.024Z" transform="translate(-66.755 -321.279)" fill="#bbdeaf"/>
        </g>
      </g>
      <g id="Grupo_847961" data-name="Grupo 847961" transform="translate(0 6.475)">
        <path id="Trazado_570466" data-name="Trazado 570466" d="M76.212,109.86H61.126a1.863,1.863,0,1,0,0,3.726H76.212a12.094,12.094,0,1,0,0-24.188h-.95a1.863,1.863,0,0,0,0,3.726h.95a8.368,8.368,0,1,1,0,16.735Z" transform="translate(-44.541 -68.799)"/>
        <path id="Trazado_570467" data-name="Trazado 570467" d="M233.061,101.49a12.108,12.108,0,0,0,12.094,12.094h15.086a1.863,1.863,0,0,0,0-3.726H245.155a8.368,8.368,0,1,1,0-16.736h.95a1.863,1.863,0,1,0,0-3.726h-.95A12.108,12.108,0,0,0,233.061,101.49Z" transform="translate(-175.165 -68.797)"/>
        <path id="Trazado_570468" data-name="Trazado 570468" d="M125.126,67.382a1.863,1.863,0,0,0-3.409,1.505,20.455,20.455,0,0,1-4.251,22.724L91.645,117.432a9.157,9.157,0,0,1-12.935,0L57.695,96.416l1.043-2.153A7.969,7.969,0,0,0,47.966,83.677,20.654,20.654,0,0,1,46.9,77.149,20.449,20.449,0,0,1,81.806,62.69l2.054,2.054a1.863,1.863,0,0,0,2.634,0l2.054-2.054a20.452,20.452,0,0,1,28.589-.321,1.863,1.863,0,0,0,2.576-2.692,24.059,24.059,0,0,0-16.958-6.7c-.457,0-.911.024-1.364.053a15.845,15.845,0,0,0-15.567-18.75H83.6q.186-.309.351-.628A11.5,11.5,0,0,0,73.731,16.866H70.363A10.7,10.7,0,0,0,50.83,11.151,10.7,10.7,0,0,0,31.3,16.864H27.928a11.533,11.533,0,0,0-8.495,3.746,1.863,1.863,0,1,0,2.751,2.513,7.8,7.8,0,0,1,5.744-2.534h5.226a1.863,1.863,0,0,0,1.863-1.863v-1.55a6.975,6.975,0,1,1,13.95,0v9.167a7.576,7.576,0,0,1-5.7-7.329,1.863,1.863,0,1,0-3.726,0,11.305,11.305,0,0,0,9.427,11.132V57.853A11.331,11.331,0,0,0,41.4,54.929H40.065a1.863,1.863,0,0,0,0,3.726H41.4A7.614,7.614,0,0,1,48.041,62.6a23.99,23.99,0,0,0-4.869,14.553,24.389,24.389,0,0,0,1.8,9.154,7.971,7.971,0,0,0-.586,1.012l-1.67,3.449a10.258,10.258,0,0,1-4.123.851A10.391,10.391,0,0,1,28.209,81.248s0-.009,0-.013V75.876a1.863,1.863,0,1,0-3.726,0v3.5H18.71a7.777,7.777,0,0,1-5.037-13.7H27.658a9.884,9.884,0,0,1,9.873,9.873v4.118a1.863,1.863,0,1,0,3.726,0V75.54a13.614,13.614,0,0,0-13.6-13.6H13.23a12.109,12.109,0,0,1,2.606-23.934H28.05a1.863,1.863,0,1,0,0-3.726H22.874a7.866,7.866,0,0,1-1.862-2.343,7.638,7.638,0,0,1-.783-2.449,1.863,1.863,0,0,0-3.689.523,11.346,11.346,0,0,0,1.164,3.64q.165.32.351.629H15.836A15.835,15.835,0,0,0,9.542,64.647,11.54,11.54,0,0,0,7.2,71.592,11.506,11.506,0,0,0,18.71,83.1h5.9a14.061,14.061,0,0,0,15.961,12.1l-5.73,11.834-5.693-7.82A7.974,7.974,0,1,0,16.25,108.6l13.523,18.568a8,8,0,0,0,6.447,3.28c.248,0,.491-.011.71-.032a8.016,8.016,0,0,0,6.466-4.467l.8-1.652a1.863,1.863,0,0,0-3.354-1.624l-.8,1.651a4.276,4.276,0,0,1-3.457,2.381c-.113.011-.236.016-.366.016a4.262,4.262,0,0,1-3.435-1.748L19.261,106.4a4.248,4.248,0,0,1,6.87-5l7.522,10.331a1.863,1.863,0,0,0,3.183-.284l10.9-22.509a4.249,4.249,0,0,1,7.649,3.7l-10.766,22.23a1.863,1.863,0,0,0,3.354,1.624l8-16.527,20.1,20.1a12.888,12.888,0,0,0,18.2,0L120.1,94.245a24.183,24.183,0,0,0,5.025-26.864ZM52.694,17.176a6.974,6.974,0,1,1,13.948,0v1.553A1.863,1.863,0,0,0,68.5,20.592h5.226a7.79,7.79,0,0,1,7.783,7.78,7.673,7.673,0,0,1-.867,3.567,7.861,7.861,0,0,1-1.863,2.342H73.61a1.863,1.863,0,0,0,0,3.726H85.826A12.112,12.112,0,0,1,97.417,53.625a24.04,24.04,0,0,0-11.5,6.43l-.737.737-.737-.737a24.209,24.209,0,0,0-31.747-2.126V30.146A11.3,11.3,0,0,0,62.12,19.014a1.863,1.863,0,1,0-3.726,0,7.575,7.575,0,0,1-5.7,7.329Z" transform="translate(0 -6.475)"/>
      </g>
    </g>
  </g>
</svg>
