<svg xmlns="http://www.w3.org/2000/svg" width="201" height="201" viewBox="0 0 201 201">
  <g id="Grupo_848046" data-name="Grupo 848046" transform="translate(-1054 -3295)">
    <rect id="Rectángulo_281775" data-name="Rectángulo 281775" width="201" height="201" rx="12" transform="translate(1054 3295)" fill="#fff"/>
    <g id="tractor" transform="translate(1077.677 3285.106)">
      <path id="Trazado_570338" data-name="Trazado 570338" d="M385.025,163.008V142.176a3,3,0,0,0-3-3h-4.713a3,3,0,0,0-3,3v19.655Z" transform="translate(-261.983 -63.839)" fill="#fed402"/>
      <path id="Trazado_570339" data-name="Trazado 570339" d="M378.911,162.335v-20.16a3,3,0,0,1,3-3h-4.6a3,3,0,0,0-3,3V161.83Z" transform="translate(-261.983 -63.839)" fill="#fac600"/>
      <path id="Trazado_570340" data-name="Trazado 570340" d="M179.668,125.746l-54.455-5.981L114.1,83.421H57.991v46.347a38.637,38.637,0,0,1,52.886,44.82H146c-.071-.739-.111-1.488-.111-2.247a23.045,23.045,0,0,1,37.606-17.865V130.12a4.441,4.441,0,0,0-3.827-4.374Z" transform="translate(-40.588 -24.817)" fill="#fed402"/>
      <path id="Trazado_570341" data-name="Trazado 570341" d="M336.454,210.513,282,204.532v13.161a7.744,7.744,0,0,0,7.744,7.744H340.28v-10.55a4.441,4.441,0,0,0-3.826-4.374Z" transform="translate(-197.374 -109.583)" fill="#fe860a"/>
      <path id="Trazado_570342" data-name="Trazado 570342" d="M291,217.692V205.52l-9-.989v13.161a7.744,7.744,0,0,0,7.744,7.744h9A7.744,7.744,0,0,1,291,217.692Z" transform="translate(-197.374 -109.583)" fill="#fe7701"/>
      <path id="Trazado_570343" data-name="Trazado 570343" d="M114.1,83.421H57.991v36.344h67.223Z" transform="translate(-40.588 -24.817)" fill="#c4e2ff"/>
      <path id="Trazado_570344" data-name="Trazado 570344" d="M57.991,83.421h9v36.344h-9Z" transform="translate(-40.588 -24.817)" fill="#b3dafe"/>
      <path id="Trazado_570345" data-name="Trazado 570345" d="M66.994,211.867v-7.335h-9v10A38.533,38.533,0,0,1,66.994,211.867Z" transform="translate(-40.588 -109.583)" fill="#fac600"/>
      <path id="Trazado_570346" data-name="Trazado 570346" d="M74.586,238.515a38.63,38.63,0,0,0-53.417-1.162,1.62,1.62,0,0,0-.039,2.336l4.144,4.144,4.075-4.075a1.816,1.816,0,0,1,2.568,0,1.816,1.816,0,0,0,2.147.31,28.323,28.323,0,0,1,5.265-2.18,1.817,1.817,0,0,0,1.3-1.738h0a1.816,1.816,0,0,1,1.816-1.816H52.654a1.816,1.816,0,0,1,1.816,1.816h0a1.817,1.817,0,0,0,1.3,1.738,28.3,28.3,0,0,1,5.265,2.18,1.816,1.816,0,0,0,2.147-.31,1.816,1.816,0,0,1,2.568,0l7.218,7.218a1.816,1.816,0,0,1,0,2.568,1.816,1.816,0,0,0-.31,2.147,28.314,28.314,0,0,1,2.18,5.265,1.817,1.817,0,0,0,1.738,1.3h0a1.816,1.816,0,0,1,1.816,1.816v10.208a1.816,1.816,0,0,1-1.816,1.816h0a1.817,1.817,0,0,0-1.738,1.3q-.276.92-.618,1.823H84.743a38.6,38.6,0,0,0-10.157-36.706Z" transform="translate(-14.455 -125.449)" fill="#fe860a"/>
      <path id="Trazado_570347" data-name="Trazado 570347" d="M159.194,83.421H122.423v36.344H170.31Z" transform="translate(-85.685 -24.817)" fill="#eaf6ff"/>
      <path id="Trazado_570348" data-name="Trazado 570348" d="M56.546,307.23l7.218-7.218a1.816,1.816,0,0,0,0-2.568,1.816,1.816,0,0,1-.31-2.147,28.322,28.322,0,0,0,2.18-5.265,1.817,1.817,0,0,1,1.738-1.3h0a1.816,1.816,0,0,0,1.816-1.816V276.707a1.816,1.816,0,0,0-1.816-1.816h0a1.817,1.817,0,0,1-1.738-1.3,28.3,28.3,0,0,0-2.18-5.265,1.817,1.817,0,0,1,.31-2.147,1.816,1.816,0,0,0,0-2.568l-7.218-7.218a1.816,1.816,0,0,0-2.568,0,1.817,1.817,0,0,1-2.147.31,28.323,28.323,0,0,0-5.265-2.18,1.817,1.817,0,0,1-1.3-1.738h0a1.816,1.816,0,0,0-1.816-1.816H33.241a1.816,1.816,0,0,0-1.816,1.816h0a1.817,1.817,0,0,1-1.3,1.738,28.3,28.3,0,0,0-5.265,2.18,1.817,1.817,0,0,1-2.147-.31,1.816,1.816,0,0,0-2.568,0l-7.218,7.218a1.816,1.816,0,0,0,0,2.568,1.817,1.817,0,0,1,.31,2.147,28.322,28.322,0,0,0-2.18,5.265,1.817,1.817,0,0,1-1.738,1.3h0A1.816,1.816,0,0,0,7.5,276.707v10.208a1.816,1.816,0,0,0,1.816,1.816h0a1.817,1.817,0,0,1,1.738,1.3,28.3,28.3,0,0,0,2.18,5.265,1.816,1.816,0,0,1-.31,2.147,1.816,1.816,0,0,0,0,2.568l7.218,7.218a1.816,1.816,0,0,0,2.568,0,1.816,1.816,0,0,1,2.147-.31,28.323,28.323,0,0,0,5.265,2.18,1.817,1.817,0,0,1,1.3,1.738h0a1.816,1.816,0,0,0,1.816,1.816H43.449a1.816,1.816,0,0,0,1.816-1.816h0a1.817,1.817,0,0,1,1.3-1.738,28.3,28.3,0,0,0,5.265-2.18,1.816,1.816,0,0,1,2.147.31A1.816,1.816,0,0,0,56.546,307.23Z" transform="translate(-5.249 -142.083)" fill="#32569d"/>
      <path id="Trazado_570349" data-name="Trazado 570349" d="M26.648,302.212a28.843,28.843,0,0,1,18.637-49.19,1.78,1.78,0,0,1-.02-.238h0a1.816,1.816,0,0,0-1.816-1.816H33.242a1.816,1.816,0,0,0-1.816,1.816h0a1.817,1.817,0,0,1-1.3,1.738,28.3,28.3,0,0,0-5.265,2.18,1.817,1.817,0,0,1-2.147-.31,1.816,1.816,0,0,0-2.568,0l-7.218,7.218a1.816,1.816,0,0,0,0,2.568,1.816,1.816,0,0,1,.31,2.147,28.315,28.315,0,0,0-2.18,5.265,1.817,1.817,0,0,1-1.738,1.3h0A1.816,1.816,0,0,0,7.5,276.708v10.208a1.816,1.816,0,0,0,1.816,1.816h0a1.817,1.817,0,0,1,1.738,1.3,28.292,28.292,0,0,0,2.18,5.264,1.816,1.816,0,0,1-.31,2.147,1.816,1.816,0,0,0,0,2.568l7.218,7.218a1.816,1.816,0,0,0,2.568,0,1.816,1.816,0,0,1,2.147-.31,28.312,28.312,0,0,0,5.265,2.18,1.817,1.817,0,0,1,1.3,1.738h0a1.816,1.816,0,0,0,1.816,1.816H43.45a1.816,1.816,0,0,0,1.816-1.816h0a1.779,1.779,0,0,1,.02-.238,28.734,28.734,0,0,1-18.637-8.39Z" transform="translate(-5.25 -142.084)" fill="#303a78"/>
      <circle id="Elipse_6826" data-name="Elipse 6826" cx="16.331" cy="16.331" r="16.331" transform="translate(16.765 123.397)" fill="#fff"/>
      <circle id="Elipse_6827" data-name="Elipse 6827" cx="9.042" cy="9.042" r="9.042" transform="translate(24.053 130.686)" fill="#89a8ec"/>
      <path id="Trazado_570350" data-name="Trazado 570350" d="M88.8,339.056A9.046,9.046,0,0,1,92.2,324.131a9.043,9.043,0,1,0,0,17.063A9,9,0,0,1,88.8,339.056Z" transform="translate(-56.1 -192.934)" fill="#718dd9"/>
      <circle id="Elipse_6828" data-name="Elipse 6828" cx="23.048" cy="23.048" r="23.048" transform="translate(105.301 124.477)" fill="#32569d"/>
      <path id="Trazado_570351" data-name="Trazado 570351" d="M356.9,325.979a23.047,23.047,0,0,1,20.047-22.847,23.048,23.048,0,1,0,0,45.694A23.047,23.047,0,0,1,356.9,325.979Z" transform="translate(-245.595 -178.454)" fill="#303a78"/>
      <circle id="Elipse_6829" data-name="Elipse 6829" cx="12.437" cy="12.437" r="12.437" transform="translate(115.911 135.088)" fill="#fff"/>
      <circle id="Elipse_6830" data-name="Elipse 6830" cx="5.603" cy="5.603" r="5.603" transform="translate(122.745 141.922)" fill="#89a8ec"/>
      <path id="Trazado_570352" data-name="Trazado 570352" d="M413.428,366.665a5.6,5.6,0,0,1,3.4-5.153,5.6,5.6,0,1,0,0,10.306A5.6,5.6,0,0,1,413.428,366.665Z" transform="translate(-286.282 -219.14)" fill="#718dd9"/>
      <path id="Trazado_570353" data-name="Trazado 570353" d="M103.495,63.854H41.156a3,3,0,0,1-3-3V58.465a3,3,0,0,1,3-3h62.339a3,3,0,0,1,3,3v2.388A3,3,0,0,1,103.495,63.854Z" transform="translate(-26.705 -5.249)" fill="#fed402"/>
      <path id="Trazado_570354" data-name="Trazado 570354" d="M50.159,60.853V58.465a3,3,0,0,1,3-3h-12a3,3,0,0,0-3,3v2.388a3,3,0,0,0,3,3h12A3,3,0,0,1,50.159,60.853Z" transform="translate(-26.705 -5.249)" fill="#fac600"/>
      <path id="Trazado_570355" data-name="Trazado 570355" d="M80.107,297.295a18.573,18.573,0,1,0,0,26.278A18.6,18.6,0,0,0,80.107,297.295Zm-23.1,23.1a14.08,14.08,0,1,1,19.912,0A14.1,14.1,0,0,1,57.012,320.39Z" transform="translate(-33.872 -170.706)"/>
      <path id="Trazado_570356" data-name="Trazado 570356" d="M91.944,319.44a11.288,11.288,0,1,0,0,15.971A11.305,11.305,0,0,0,91.944,319.44Zm-3.183,12.787a6.788,6.788,0,1,1,0-9.6A6.8,6.8,0,0,1,88.761,332.227Z" transform="translate(-50.863 -187.697)"/>
      <path id="Trazado_570357" data-name="Trazado 570357" d="M405.715,342.437a2.251,2.251,0,0,0,1.131-2.975,14.688,14.688,0,1,0-.281,12.619,2.251,2.251,0,0,0-4.019-2.027,10.186,10.186,0,1,1,.195-8.748,2.251,2.251,0,0,0,2.975,1.131Z" transform="translate(-265.093 -197.951)"/>
      <path id="Trazado_570358" data-name="Trazado 570358" d="M409.38,353.562a7.854,7.854,0,1,0,7.854,7.854A7.862,7.862,0,0,0,409.38,353.562Zm0,11.206a3.352,3.352,0,1,1,3.353-3.352A3.356,3.356,0,0,1,409.38,364.768Z" transform="translate(-281.032 -213.891)"/>
      <path id="Trazado_570359" data-name="Trazado 570359" d="M151.4,168.322h-8.667a25.259,25.259,0,0,0,2.428-39.683V105.3a6.73,6.73,0,0,0-5.752-6.6l-.08-.01-14.033-1.541V93.289a2.251,2.251,0,1,0-4.5,0v3.368l-6.213-.682V78.337a.751.751,0,0,1,.75-.75h4.713a.751.751,0,0,1,.75.75v4.149a2.251,2.251,0,1,0,4.5,0V78.337a5.255,5.255,0,0,0-5.144-5.246V59.878l2.817-2.113a2.251,2.251,0,0,0-2.7-3.6l-3.717,2.788a2.251,2.251,0,0,0-.9,1.8V73.085h-.32a5.258,5.258,0,0,0-5.252,5.252V95.48L86.344,92.873,76.551,60.855h.239A5.258,5.258,0,0,0,82.041,55.6V53.216a5.258,5.258,0,0,0-5.252-5.252H14.451A5.258,5.258,0,0,0,9.2,53.216V55.6a5.258,5.258,0,0,0,5.252,5.252h.7V103.5a40.822,40.822,0,0,0-9.959,6.745,3.871,3.871,0,0,0-.108,5.586l2.552,2.552-1.552,1.552a4.072,4.072,0,0,0-.223,5.51,30.647,30.647,0,0,0-2.122,5.125A4.072,4.072,0,0,0,0,134.624v10.208a4.072,4.072,0,0,0,3.739,4.054,30.632,30.632,0,0,0,2.122,5.125,4.072,4.072,0,0,0,.223,5.51l7.218,7.218a4.073,4.073,0,0,0,5.51.223,30.61,30.61,0,0,0,2.986,1.36H2.251a2.251,2.251,0,1,0,0,4.5H151.4a2.251,2.251,0,1,0,0-4.5ZM86.876,97.46l51.912,5.7a2.2,2.2,0,0,1,1.868,2.142v8.3H92.37a5.5,5.5,0,0,1-5.494-5.494ZM81.583,92.7H54.716a2.251,2.251,0,1,0,0,4.5H82.375v10.91a10.006,10.006,0,0,0,10,10h48.286v7.329a25.282,25.282,0,0,0-37.606,22.088H73.063a40.822,40.822,0,0,0-11.34-36.047,40.941,40.941,0,0,0-42.07-9.809V97.2h24.46a2.251,2.251,0,0,0,0-4.5H38.989V60.855H71.844Zm-61.93,0V60.855H34.488V92.7Zm-5.2-36.344a.751.751,0,0,1-.75-.75V53.216a.751.751,0,0,1,.75-.75H76.79a.751.751,0,0,1,.75.75V55.6a.751.751,0,0,1-.75.75Zm19.1,47.656a36.392,36.392,0,0,1,34.4,26.948,36.635,36.635,0,0,1,.529,16.563H65.168a4.046,4.046,0,0,0,1.023-2.689V134.624a4.072,4.072,0,0,0-3.739-4.054,30.632,30.632,0,0,0-2.122-5.125,4.072,4.072,0,0,0-.223-5.51l-7.218-7.218a4.072,4.072,0,0,0-5.51-.223,30.646,30.646,0,0,0-5.125-2.122,4.073,4.073,0,0,0-4.054-3.739H27.991a4.072,4.072,0,0,0-4.054,3.739,30.631,30.631,0,0,0-5.125,2.122,4.072,4.072,0,0,0-5.51.223L10.819,115.2l-2.086-2.086a36.2,36.2,0,0,1,24.82-9.1Zm4.234,64.313H28.4a4.044,4.044,0,0,0-2.881-3.46,26.123,26.123,0,0,1-4.846-2.007,4.042,4.042,0,0,0-4.482.41l-6.636-6.636a4.041,4.041,0,0,0,.41-4.482A26.135,26.135,0,0,1,7.961,147.3,4.044,4.044,0,0,0,4.5,144.42v-9.384a4.043,4.043,0,0,0,3.46-2.881,26.1,26.1,0,0,1,2.007-4.846,4.042,4.042,0,0,0-.41-4.482l6.636-6.636a4.042,4.042,0,0,0,4.482.41,26.134,26.134,0,0,1,4.846-2.007,4.044,4.044,0,0,0,2.881-3.46h9.384a4.043,4.043,0,0,0,2.881,3.46,26.1,26.1,0,0,1,4.846,2.007,4.042,4.042,0,0,0,4.482-.41l6.636,6.636a4.043,4.043,0,0,0-.41,4.482,26.132,26.132,0,0,1,2.007,4.846,4.044,4.044,0,0,0,3.46,2.881v9.384a4.044,4.044,0,0,0-3.46,2.881,26.124,26.124,0,0,1-2.007,4.846,4.043,4.043,0,0,0,.41,4.482L50,163.265a4.042,4.042,0,0,0-4.482-.41,26.134,26.134,0,0,1-4.846,2.007,4.044,4.044,0,0,0-2.881,3.461Zm6.605,0a30.606,30.606,0,0,0,2.986-1.36,4.072,4.072,0,0,0,5.51-.223l7.218-7.218a4.072,4.072,0,0,0,.223-5.51c.341-.649.652-1.315.946-1.988h42.183a25.336,25.336,0,0,0,10.509,16.3Zm63.158-20.8a20.8,20.8,0,1,1,20.8,20.8A20.821,20.821,0,0,1,107.551,147.525Z"/>
      <path id="Trazado_570360" data-name="Trazado 570360" d="M265.4,330.507a2.251,2.251,0,0,0,2.251-2.251V317.106a2.251,2.251,0,1,0-4.5,0v11.151A2.251,2.251,0,0,0,265.4,330.507Z" transform="translate(-184.178 -186.799)"/>
      <path id="Trazado_570361" data-name="Trazado 570361" d="M291.717,330.507a2.251,2.251,0,0,0,2.251-2.251V317.106a2.251,2.251,0,1,0-4.5,0v11.151A2.251,2.251,0,0,0,291.717,330.507Z" transform="translate(-202.6 -186.799)"/>
      <path id="Trazado_570362" data-name="Trazado 570362" d="M318.038,330.507a2.251,2.251,0,0,0,2.251-2.251V317.106a2.251,2.251,0,1,0-4.5,0v11.151A2.251,2.251,0,0,0,318.038,330.507Z" transform="translate(-221.022 -186.799)"/>
    </g>
  </g>
</svg>
