<svg xmlns="http://www.w3.org/2000/svg" width="59.207" height="62.912" viewBox="0 0 59.207 62.912">
  <g id="obediente" transform="translate(-15.078)">
    <g id="Grupo_847886" data-name="Grupo 847886" transform="translate(27.518 0.922)">
      <path id="Trazado_570303" data-name="Trazado 570303" d="M156.059,7.5h-39.13a.614.614,0,0,0-.614.614V25.148h4.029a3.011,3.011,0,0,1,.21,6.015V34.9h0a1.228,1.228,0,0,1,1.042,1.213v7.627a1.228,1.228,0,0,1-1.042,1.213h0v3.736a3.011,3.011,0,0,1-.21,6.015h-4.029v5.042h8.48a1.229,1.229,0,0,1,1.229,1.229v2.445s0,0,0,0h.936a1.229,1.229,0,0,1,1.229,1.229v3.919h28.486V8.114A.615.615,0,0,0,156.059,7.5Z" transform="translate(-116.315 -7.5)" fill="#fff3de"/>
    </g>
    <g id="Grupo_847887" data-name="Grupo 847887" transform="translate(27.518 0.922)">
      <path id="Trazado_570304" data-name="Trazado 570304" d="M120.344,25.148l.11,0V8.114a.614.614,0,0,1,.614-.614h-4.139a.614.614,0,0,0-.614.614V25.148Z" transform="translate(-116.315 -7.5)" fill="#ffe5c2"/>
      <path id="Trazado_570305" data-name="Trazado 570305" d="M120.344,391.63h-4.029v5.042h4.139v-5.045Z" transform="translate(-116.315 -344.427)" fill="#ffe5c2"/>
    </g>
    <g id="Grupo_847905" data-name="Grupo 847905" transform="translate(16 18.57)">
      <g id="Grupo_847888" data-name="Grupo 847888" transform="translate(16.799 12.676)">
        <path id="Trazado_570306" data-name="Trazado 570306" d="M159.3,254.29h5.688v4.2H159.3Z" transform="translate(-159.296 -254.29)" fill="#bbdeaf"/>
        <path id="Trazado_570307" data-name="Trazado 570307" d="M237.5,254.29h8.124v4.2H237.5Z" transform="translate(-227.892 -254.29)" fill="#bbdeaf"/>
      </g>
      <g id="Grupo_847890" data-name="Grupo 847890" transform="translate(34.533 11.696)">
        <path id="Trazado_570310" data-name="Trazado 570310" d="M326.447,249.392a3.082,3.082,0,0,1-3.081,3.081H304.316a.7.7,0,0,1-.7-.7V247.01a.7.7,0,0,1,.7-.7h19.049A3.082,3.082,0,0,1,326.447,249.392Z" transform="translate(-303.616 -246.31)" fill="#bbdeaf"/>
      </g>
      <g id="Grupo_847892" data-name="Grupo 847892" transform="translate(22.487 11.696)">
        <path id="Trazado_570312" data-name="Trazado 570312" d="M209.507,246.925v4.934a.614.614,0,0,1-.614.614H206.2a.614.614,0,0,1-.614-.614v-4.934a.614.614,0,0,1,.614-.614h2.693A.614.614,0,0,1,209.507,246.925Z" transform="translate(-205.585 -246.311)" fill="#bbdeaf"/>
      </g>
      <g id="Grupo_847895" data-name="Grupo 847895" transform="translate(6.592 9.735)">
        <path id="Trazado_570318" data-name="Trazado 570318" d="M86.432,231.581v7.627a1.229,1.229,0,0,1-1.229,1.229h-7.75a1.229,1.229,0,0,1-1.229-1.229v-7.627a1.229,1.229,0,0,1,1.229-1.229H85.2A1.229,1.229,0,0,1,86.432,231.581Z" transform="translate(-76.225 -230.352)" fill="#bbdeaf"/>
      </g>
      <g id="Grupo_847896" data-name="Grupo 847896" transform="translate(6.592 9.735)">
        <path id="Trazado_570319" data-name="Trazado 570319" d="M80.375,239.208v-7.627a1.229,1.229,0,0,1,1.229-1.229h-4.15a1.229,1.229,0,0,0-1.229,1.229v7.627a1.229,1.229,0,0,0,1.229,1.229H81.6A1.229,1.229,0,0,1,80.375,239.208Z" transform="translate(-76.225 -230.352)" fill="#ebf5e7"/>
      </g>
      <g id="Grupo_847899" data-name="Grupo 847899" transform="translate(0 34.596)">
        <path id="Trazado_570320" data-name="Trazado 570320" d="M59.25,436.485a1.255,1.255,0,0,0,.006-.126v-2.445a1.229,1.229,0,0,0-1.229-1.229h-16.6a1.229,1.229,0,0,0-1.229,1.229v2.445a1.255,1.255,0,0,0,.006.126Z" transform="translate(-38.03 -432.685)" fill="#bbdeaf"/>
        <g id="Grupo_847897" data-name="Grupo 847897" transform="translate(0 3.677)">
          <path id="Trazado_570322" data-name="Trazado 570322" d="M45.969,467.756H23.192a.614.614,0,0,1-.614-.614v-3.3a1.229,1.229,0,0,1,1.229-1.229H44.74a1.229,1.229,0,0,1,1.229,1.229Z" transform="translate(-22.578 -462.608)" fill="#bbdeaf"/>
        </g>
      </g>
      <g id="Grupo_847904" data-name="Grupo 847904" transform="translate(4.832)">
        <g id="Grupo_847900" data-name="Grupo 847900" transform="translate(0 23.531)">
          <path id="Trazado_570324" data-name="Trazado 570324" d="M75.632,345.644a3.012,3.012,0,0,1-3.011,3.011h-7.7a3.011,3.011,0,0,1,0-6.023h7.7A3.012,3.012,0,0,1,75.632,345.644Z" transform="translate(-61.905 -342.633)" fill="#bbdeaf"/>
        </g>
        <g id="Grupo_847901" data-name="Grupo 847901" transform="translate(0 23.531)">
          <path id="Trazado_570325" data-name="Trazado 570325" d="M66.007,345.644a3.012,3.012,0,0,1,3.011-3.011h-4.1a3.011,3.011,0,0,0,0,6.023h4.1A3.012,3.012,0,0,1,66.007,345.644Z" transform="translate(-61.905 -342.633)" fill="#bbdeaf"/>
        </g>
        <g id="Grupo_847902" data-name="Grupo 847902" transform="translate(0)">
          <path id="Trazado_570326" data-name="Trazado 570326" d="M75.632,154.139a3.011,3.011,0,0,1-3.011,3.011h-7.7a3.011,3.011,0,0,1,0-6.023h7.7A3.011,3.011,0,0,1,75.632,154.139Z" transform="translate(-61.905 -151.128)" fill="#bbdeaf"/>
        </g>
        <g id="Grupo_847903" data-name="Grupo 847903">
          <path id="Trazado_570327" data-name="Trazado 570327" d="M66.007,154.139a3.011,3.011,0,0,1,3.011-3.011h-4.1a3.011,3.011,0,0,0,0,6.023h4.1A3.011,3.011,0,0,1,66.007,154.139Z" transform="translate(-61.905 -151.128)" fill="#bbdeaf"/>
        </g>
      </g>
    </g>
    <g id="Grupo_847908" data-name="Grupo 847908" transform="translate(39.075 6.648)">
      <g id="Grupo_847906" data-name="Grupo 847906">
        <circle id="Elipse_6825" data-name="Elipse 6825" cx="8.622" cy="8.622" r="8.622" fill="#ffd63d"/>
      </g>
    </g>
    <g id="Grupo_847909" data-name="Grupo 847909" transform="translate(15.078 0)">
      <path id="Trazado_570329" data-name="Trazado 570329" d="M70.282,29.344H68.8V13.393a.922.922,0,0,0-.95-.921.947.947,0,0,0-.893.96V29.344H60.778a.922.922,0,0,0,0,1.843h9.5a2.16,2.16,0,1,1,0,4.32H51.454v-4.32h5.024a.922.922,0,1,0,0-1.843H51.233a1.624,1.624,0,0,0-1.489.98H43.224a1.537,1.537,0,0,0-1.43-.98H39.1a1.537,1.537,0,0,0-1.43.98H33.72v-.791a2.149,2.149,0,0,0-1.042-1.839V25.348a3.933,3.933,0,0,0-1.132-7.7H28.439V1.843H66.955v7.25a.922.922,0,0,0,.95.921.947.947,0,0,0,.893-.96V1.536A1.536,1.536,0,0,0,67.262,0H28.132A1.536,1.536,0,0,0,26.6,1.536V17.648H23.843a3.933,3.933,0,0,0-1.132,7.7v2.347a2.149,2.149,0,0,0-1.042,1.839V37.16A2.149,2.149,0,0,0,22.712,39v2.347a3.933,3.933,0,0,0,1.132,7.7H26.6v3.2h-7.2a2.153,2.153,0,0,0-2.15,2.15v1.526h-.014a2.153,2.153,0,0,0-2.15,2.15v3.3a1.538,1.538,0,0,0,1.536,1.536H67.262A1.536,1.536,0,0,0,68.8,61.376V37.35h1.484a4,4,0,0,0,0-8.006ZM43.33,32.168h6.281v2.359H43.33Zm-3.922-.98h2.079v4.32H39.408Zm-5.688.98h3.845v2.359H33.72ZM21.753,21.581a2.092,2.092,0,0,1,2.09-2.09h7.7a2.09,2.09,0,0,1,0,4.18h-7.7a2.092,2.092,0,0,1-2.09-2.09ZM23.82,37.468a.308.308,0,0,1-.307-.307V29.533a.308.308,0,0,1,.307-.307h7.75a.308.308,0,0,1,.307.307v7.627a.308.308,0,0,1-.307.307Zm7.015,1.843V41.18H24.555V39.311ZM24.555,27.383V25.514h6.281v1.869ZM23.843,47.2a2.09,2.09,0,1,1,0-4.18h7.7a2.09,2.09,0,1,1,0,4.18ZM38.469,61.069H16.921v-3a.308.308,0,0,1,.307-.307h5.7a.922.922,0,1,0,0-1.843H19.086V54.4a.308.308,0,0,1,.307-.307H36a.308.308,0,0,1,.307.307v1.526H27.233a.922.922,0,1,0,0,1.843H38.162a.308.308,0,0,1,.307.307Zm28.486,0H40.312v-3a2.153,2.153,0,0,0-2.15-2.15h-.014V54.4A2.153,2.153,0,0,0,36,52.245H28.439v-3.2h3.108a3.933,3.933,0,0,0,1.132-7.7V39A2.149,2.149,0,0,0,33.72,37.16v-.791h3.95a1.537,1.537,0,0,0,1.43.98h2.693a1.537,1.537,0,0,0,1.43-.98h6.519a1.624,1.624,0,0,0,1.489.98H66.955V61.069Z" transform="translate(-15.078 0)"/>
      <path id="Trazado_570330" data-name="Trazado 570330" d="M202.872,56.151a9.544,9.544,0,1,0,9.544-9.544,9.554,9.554,0,0,0-9.544,9.544Zm17.244,0a7.7,7.7,0,1,1-7.7-7.7,7.709,7.709,0,0,1,7.7,7.7Z" transform="translate(-179.797 -40.88)"/>
      <path id="Trazado_570331" data-name="Trazado 570331" d="M247.917,102.988a.922.922,0,1,0-1.3,1.3l2.835,2.835a.922.922,0,0,0,1.3,0l4.394-4.394a.922.922,0,1,0-1.3-1.3l-3.742,3.742Z" transform="translate(-217.926 -88.729)"/>
      <path id="Trazado_570332" data-name="Trazado 570332" d="M243.681,327.991a.922.922,0,0,0,.922.922h16.948a.922.922,0,1,0,0-1.843H244.6A.921.921,0,0,0,243.681,327.991Z" transform="translate(-215.591 -286.88)"/>
      <path id="Trazado_570333" data-name="Trazado 570333" d="M320.159,363.546h-8.738a.922.922,0,1,0,0,1.843h8.738a.922.922,0,1,0,0-1.843Z" transform="translate(-274.2 -318.875)"/>
      <path id="Trazado_570334" data-name="Trazado 570334" d="M244.6,365.389h5.016a.922.922,0,1,0,0-1.843H244.6a.922.922,0,1,0,0,1.843Z" transform="translate(-215.591 -318.875)"/>
      <path id="Trazado_570335" data-name="Trazado 570335" d="M261.55,400.023H244.6a.922.922,0,1,0,0,1.843H261.55a.922.922,0,1,0,0-1.843Z" transform="translate(-215.59 -350.87)"/>
      <path id="Trazado_570336" data-name="Trazado 570336" d="M350.859,436.5h-4.437a.922.922,0,0,0,0,1.843h4.437a.922.922,0,1,0,0-1.843Z" transform="translate(-304.899 -382.865)"/>
      <path id="Trazado_570337" data-name="Trazado 570337" d="M254.287,436.5H244.6a.922.922,0,1,0,0,1.843h9.685a.922.922,0,1,0,0-1.843Z" transform="translate(-215.591 -382.865)"/>
    </g>
  </g>
</svg>
