<svg xmlns="http://www.w3.org/2000/svg" width="201" height="201" viewBox="0 0 201 201">
  <g id="Grupo_848048" data-name="Grupo 848048" transform="translate(-6140 8003)">
    <rect id="Rectángulo_281779" data-name="Rectángulo 281779" width="201" height="201" rx="12" transform="translate(6140 -8003)" fill="#fff"/>
    <g id="peligro-biologico" transform="translate(6169.811 -7997)">
      <g id="Grupo_847918" data-name="Grupo 847918" transform="translate(2.09 32.157)">
        <path id="Trazado_570380" data-name="Trazado 570380" d="M158.347,156.588,97.7,51.98,88.71,54.157,27.893,159.495l4.172,7.225.233-.907,10.276,2.641H151.511A7.9,7.9,0,0,0,158.347,156.588Z" transform="translate(-22.226 -47.973)" fill="#aa9ea9"/>
        <path id="Trazado_570381" data-name="Trazado 570381" d="M27.663,146.187,85.65,46.165l-2.66-4.587-.039-.068a7.9,7.9,0,0,0-13.673,0L8.593,146.187a7.9,7.9,0,0,0,6.836,11.866H34.5A7.9,7.9,0,0,1,27.663,146.187Z" transform="translate(-7.515 -37.571)" fill="#9b8e99"/>
        <path id="Trazado_570382" data-name="Trazado 570382" d="M160.946,174.172l-57.859-99.8a.9.9,0,0,0-1.553.006L43.56,174.791a.771.771,0,0,0,.628,1.164h115.73A1.188,1.188,0,0,0,160.946,174.172Z" transform="translate(-33.46 -63.817)" fill="#fee97d"/>
        <path id="Trazado_570383" data-name="Trazado 570383" d="M103.087,74.371a.9.9,0,0,0-1.553.006L43.56,174.791a.772.772,0,0,0,.628,1.164h8.356a7.861,7.861,0,0,1,1.064-3.522l53.164-91.7Z" transform="translate(-33.46 -63.817)" fill="#fedf30"/>
      </g>
      <g id="Grupo_847919" data-name="Grupo 847919" transform="translate(0 30.071)">
        <path id="Trazado_570384" data-name="Trazado 570384" d="M140.015,139.727,101.592,73.45a2.086,2.086,0,0,0-3.609,2.092l38.423,66.277a5.817,5.817,0,0,1-5.032,8.734H10a5.817,5.817,0,0,1-5.032-8.734L65.657,37.142a5.816,5.816,0,0,1,10.064,0l17.8,30.71a2.086,2.086,0,1,0,3.609-2.092L79.33,35.05a9.988,9.988,0,0,0-17.282,0L1.363,139.727a9.988,9.988,0,0,0,8.641,15h121.37a9.988,9.988,0,0,0,8.641-15Z" transform="translate(0 -30.071)"/>
        <path id="Trazado_570385" data-name="Trazado 570385" d="M78.7,166.107a2.086,2.086,0,0,0-3.609-2.092L31.505,239.192a2.086,2.086,0,0,0,1.8,3.132H153.15a2.086,2.086,0,0,0,1.8-3.132l-8.545-14.739a2.086,2.086,0,1,0-3.609,2.092l6.729,11.607H36.93Z" transform="translate(-22.54 -126.014)"/>
        <path id="Trazado_570386" data-name="Trazado 570386" d="M219.739,62.688a2.086,2.086,0,0,0-3.609,0L204.252,83.177a2.086,2.086,0,1,0,3.609,2.092l10.074-17.377,45.113,77.815a2.086,2.086,0,0,0,3.609-2.092Z" transform="translate(-147.245 -52.866)"/>
        <path id="Trazado_570387" data-name="Trazado 570387" d="M175.481,209.259a2.086,2.086,0,0,0-2.037-3.64,15.234,15.234,0,0,0-6.458,19.589,16.664,16.664,0,0,0-1.243,2.221,15.251,15.251,0,0,0-12.548,19.187,2.086,2.086,0,0,0,4.02-1.115,11.085,11.085,0,0,1,7.16-13.483,16.668,16.668,0,0,0,11.4,18.286c-.03.031-.059.063-.09.093a11.1,11.1,0,0,1-10.87,2.773,2.086,2.086,0,0,0-1.152,4.009,15.272,15.272,0,0,0,14.958-3.818A15.427,15.427,0,0,0,180.5,251.1c.125,0,.249.009.375.009.238,0,.475-.008.711-.018a15.272,15.272,0,0,0,16.85,6.091,2.086,2.086,0,1,0-1.152-4.009,11.1,11.1,0,0,1-10.87-2.773c-.06-.059-.116-.121-.174-.181A16.686,16.686,0,0,0,197.37,231.9a11.088,11.088,0,0,1,7.516,13.6,2.086,2.086,0,1,0,4.02,1.115A15.246,15.246,0,0,0,196,227.384a16.694,16.694,0,0,0-1.223-2.177,15.234,15.234,0,0,0-6.458-19.589,2.086,2.086,0,1,0-2.037,3.64,11.082,11.082,0,0,1,5.337,12.413,16.636,16.636,0,0,0-21.47,0,11.083,11.083,0,0,1,5.335-12.413Zm-7.111,25.167a12.5,12.5,0,0,1,.353-2.942,11.083,11.083,0,0,1,9.454,15.154A12.529,12.529,0,0,1,168.369,234.426Zm15.525,12.14a11.083,11.083,0,0,1,9.147-15.055,12.5,12.5,0,0,1-9.147,15.055Zm-3.016-24.649a12.471,12.471,0,0,1,8.848,3.675,11.065,11.065,0,0,1-17.7,0A12.47,12.47,0,0,1,180.879,221.916Z" transform="translate(-110.189 -156.606)"/>
        <path id="Trazado_570388" data-name="Trazado 570388" d="M250.855,122.97v-1.793a2.086,2.086,0,0,0-4.172,0v1.793a2.086,2.086,0,0,0,4.172,0Z" transform="translate(-178.079 -94.334)"/>
        <path id="Trazado_570389" data-name="Trazado 570389" d="M81.926,405.483a2.086,2.086,0,0,0,0,4.172h2.312a2.086,2.086,0,0,0,0-4.172Z" transform="translate(-57.636 -301.079)"/>
        <path id="Trazado_570390" data-name="Trazado 570390" d="M410.838,409.655a2.086,2.086,0,1,0,0-4.172h-2.312a2.086,2.086,0,0,0,0,4.172Z" transform="translate(-293.407 -301.079)"/>
      </g>
    </g>
  </g>
</svg>
