<svg xmlns="http://www.w3.org/2000/svg" width="201" height="201" viewBox="0 0 201 201">
  <g id="Grupo_848049" data-name="Grupo 848049" transform="translate(-6140 7602)">
    <rect id="Rectángulo_281781" data-name="Rectángulo 281781" width="201" height="201" rx="12" transform="translate(6140 -7602)" fill="#fff"/>
    <g id="cultivo" transform="translate(6185.627 -7556.373)">
      <g id="Grupo_847941" data-name="Grupo 847941" transform="translate(1.77 1.77)">
        <g id="Grupo_847922" data-name="Grupo 847922" transform="translate(10.621 67.264)">
          <path id="Trazado_570391" data-name="Trazado 570391" d="M67.183,49.621a10.612,10.612,0,0,0,10.479-8.974h.018A127.25,127.25,0,0,1,98,39h4.585V63.781h-3.54A10.629,10.629,0,0,0,88.425,74.4,10.629,10.629,0,0,0,77.8,63.781h-3.54v3.54A10.629,10.629,0,0,0,84.884,77.942H51.252A10.629,10.629,0,0,0,61.873,67.322v-3.54h-3.54A10.629,10.629,0,0,0,47.712,74.4,10.629,10.629,0,0,0,37.092,63.781h-3.54v3.54A10.629,10.629,0,0,0,44.172,77.942H7A125.944,125.944,0,0,1,53.341,47.2,10.563,10.563,0,0,0,60.1,49.621h7.08Z" transform="translate(-7 -39)" fill="#cf9e76"/>
        </g>
        <g id="Grupo_847923" data-name="Grupo 847923" transform="translate(0 38.942)">
          <path id="Trazado_570392" data-name="Trazado 570392" d="M26.436,30.275A51.828,51.828,0,0,1,60.458,48.153v.018a9.918,9.918,0,0,0-2.814-.389H54.1v3.54a10.623,10.623,0,0,0,3.859,8.2A125.944,125.944,0,0,0,11.621,90.264H1V23A10.629,10.629,0,0,0,11.621,33.621H18.7A10.636,10.636,0,0,0,26.436,30.275Z" transform="translate(-1 -23)" fill="#dfb28b"/>
        </g>
        <g id="Grupo_847924" data-name="Grupo 847924" transform="translate(92.045 92.045)">
          <path id="Trazado_570393" data-name="Trazado 570393" d="M67.161,56.54A10.629,10.629,0,0,1,56.54,67.161H53v-3.54A10.629,10.629,0,0,1,63.621,53h3.54Z" transform="translate(-53 -53)" fill="#b4dd7f"/>
        </g>
        <g id="Grupo_847925" data-name="Grupo 847925" transform="translate(77.884 92.045)">
          <path id="Trazado_570394" data-name="Trazado 570394" d="M59.161,63.621v3.54h-3.54A10.629,10.629,0,0,1,45,56.54V53h3.54A10.629,10.629,0,0,1,59.161,63.621Z" transform="translate(-45 -53)" fill="#b4dd7f"/>
        </g>
        <g id="Grupo_847926" data-name="Grupo 847926" transform="translate(51.333 92.045)">
          <path id="Trazado_570395" data-name="Trazado 570395" d="M44.161,56.54A10.629,10.629,0,0,1,33.54,67.161H30v-3.54A10.629,10.629,0,0,1,40.621,53h3.54Z" transform="translate(-30 -53)" fill="#b4dd7f"/>
        </g>
        <g id="Grupo_847927" data-name="Grupo 847927" transform="translate(37.172 92.045)">
          <path id="Trazado_570396" data-name="Trazado 570396" d="M36.161,63.621v3.54h-3.54A10.629,10.629,0,0,1,22,56.54V53h3.54A10.629,10.629,0,0,1,36.161,63.621Z" transform="translate(-22 -53)" fill="#b4dd7f"/>
        </g>
        <g id="Grupo_847928" data-name="Grupo 847928" transform="translate(67.264 63.724)">
          <path id="Trazado_570397" data-name="Trazado 570397" d="M53.019,42.186A10.612,10.612,0,0,1,42.54,51.161H39v-3.54A10.629,10.629,0,0,1,49.621,37h3.54v3.54A8.379,8.379,0,0,1,53.019,42.186Z" transform="translate(-39 -37)" fill="#b4dd7f"/>
        </g>
        <g id="Grupo_847929" data-name="Grupo 847929" transform="translate(53.103 63.724)">
          <path id="Trazado_570398" data-name="Trazado 570398" d="M45.161,47.621v3.54h-3.54A10.61,10.61,0,0,1,31,40.54V37h3.54a9.918,9.918,0,0,1,2.814.389A10.609,10.609,0,0,1,45.161,47.621Z" transform="translate(-31 -37)" fill="#b4dd7f"/>
        </g>
        <g id="Grupo_847930" data-name="Grupo 847930" transform="translate(26.551 63.724)">
          <path id="Trazado_570399" data-name="Trazado 570399" d="M30.161,40.54A10.629,10.629,0,0,1,19.54,51.161H16v-3.54A10.629,10.629,0,0,1,26.621,37h3.54Z" transform="translate(-16 -37)" fill="#b4dd7f"/>
        </g>
        <g id="Grupo_847931" data-name="Grupo 847931" transform="translate(12.391 63.724)">
          <path id="Trazado_570400" data-name="Trazado 570400" d="M22.161,47.621v3.54h-3.54A10.629,10.629,0,0,1,8,40.54V37h3.54A10.629,10.629,0,0,1,22.161,47.621Z" transform="translate(-8 -37)" fill="#b4dd7f"/>
        </g>
        <g id="Grupo_847932" data-name="Grupo 847932" transform="translate(14.161 35.402)">
          <path id="Trazado_570401" data-name="Trazado 570401" d="M20.276,31.815a10.636,10.636,0,0,1-7.735,3.345H9v-3.54A10.629,10.629,0,0,1,19.621,21h3.54v3.54A10.542,10.542,0,0,1,20.276,31.815Z" transform="translate(-9 -21)" fill="#b4dd7f"/>
        </g>
        <g id="Grupo_847933" data-name="Grupo 847933" transform="translate(0 35.402)">
          <path id="Trazado_570402" data-name="Trazado 570402" d="M15.161,31.621v3.54h-3.54A10.629,10.629,0,0,1,1,24.54V21H4.54A10.629,10.629,0,0,1,15.161,31.621Z" transform="translate(-1 -21)" fill="#b4dd7f"/>
        </g>
        <g id="Grupo_847934" data-name="Grupo 847934" transform="translate(49.563 28.322)">
          <path id="Trazado_570403" data-name="Trazado 570403" d="M71.482,21.673V38.241H57.322V25.85a1.775,1.775,0,0,0-1.77-1.77H44.931a1.775,1.775,0,0,0-1.77,1.77V38.241H29V21.673L35.868,17H64.614Z" transform="translate(-29 -17)" fill="#e6e9ed"/>
        </g>
        <g id="Grupo_847935" data-name="Grupo 847935" transform="translate(63.724 35.402)">
          <path id="Trazado_570404" data-name="Trazado 570404" d="M51.161,22.77V35.161H37V22.77A1.775,1.775,0,0,1,38.77,21H49.391A1.775,1.775,0,0,1,51.161,22.77Z" transform="translate(-37 -21)" fill="#aab2bd"/>
        </g>
        <g id="Grupo_847936" data-name="Grupo 847936" transform="translate(56.448 18.551)">
          <path id="Trazado_570405" data-name="Trazado 570405" d="M47.245,11.48,61.6,21.251H32.89Z" transform="translate(-32.89 -11.48)" fill="#fc6e51"/>
        </g>
        <g id="Grupo_847937" data-name="Grupo 847937" transform="translate(70.804 14.692)">
          <path id="Trazado_570406" data-name="Trazado 570406" d="M69.322,26.134V27.3a2.717,2.717,0,0,1-4.231,2.248L62.241,27.6,55.373,22.93h-.018L41,13.159,46.682,9.3,68.136,23.886a2.723,2.723,0,0,1,1.186,2.248Z" transform="translate(-41 -9.3)" fill="#ff826e"/>
        </g>
        <g id="Grupo_847938" data-name="Grupo 847938" transform="translate(51.333 0)">
          <path id="Trazado_570407" data-name="Trazado 570407" d="M49.471,11.833l-5.682,3.859-12.6-8.567A2.723,2.723,0,0,1,30,4.877V3.708A2.717,2.717,0,0,1,34.231,1.46Z" transform="translate(-30 -1)" fill="#ff826e"/>
        </g>
        <g id="Grupo_847939" data-name="Grupo 847939" transform="translate(42.482)">
          <path id="Trazado_570408" data-name="Trazado 570408" d="M72.793,3.708V4.877a2.723,2.723,0,0,1-1.186,2.248L59,15.692l-5.682,3.859L38.966,29.322h-.018L32.08,33.995v.018l-2.85,1.929A2.717,2.717,0,0,1,25,33.694V32.525a2.723,2.723,0,0,1,1.186-2.248L47.64,15.692l5.682-3.859L68.562,1.46a2.717,2.717,0,0,1,4.231,2.248Z" transform="translate(-25 -1)" fill="#ff826e"/>
        </g>
        <g id="Grupo_847940" data-name="Grupo 847940" transform="translate(7.08 3.54)">
          <ellipse id="Elipse_6832" data-name="Elipse 6832" cx="12.5" cy="12" rx="12.5" ry="12" transform="translate(0.149 0.436)" fill="#fcd770"/>
        </g>
      </g>
      <g id="Grupo_847942" data-name="Grupo 847942" transform="translate(0 0)">
        <path id="Trazado_570409" data-name="Trazado 570409" d="M22.931,42.041A12.386,12.386,0,0,0,12.31,36H7v5.31A12.405,12.405,0,0,0,19.391,53.7h7.08A12.405,12.405,0,0,0,38.862,41.31V36h-5.31a12.386,12.386,0,0,0-10.621,6.041Zm-1.77,8.119h-1.77a8.861,8.861,0,0,1-8.85-8.85V39.54h1.77a8.861,8.861,0,0,1,8.85,8.85ZM33.551,39.54h1.77v1.77a8.861,8.861,0,0,1-8.85,8.85H24.7v-1.77A8.861,8.861,0,0,1,33.551,39.54Z" transform="translate(5.391 27.724)"/>
        <path id="Trazado_570410" data-name="Trazado 570410" d="M95.585,49.563V38.108l.085.058a4.477,4.477,0,0,0,7-3.7V33.3a4.473,4.473,0,0,0-1.959-3.7L81.4,16.462l10.458-7.11a4.478,4.478,0,0,0,1.959-3.7V4.477a4.476,4.476,0,0,0-6.994-3.7L72.574,10.463,58.328.775a4.477,4.477,0,0,0-7,3.7v1.17a4.475,4.475,0,0,0,1.959,3.7l10.46,7.112L44.444,29.593a4.47,4.47,0,0,0-1.961,3.7v1.17a4.476,4.476,0,0,0,6.994,3.7l.087-.057V49.563H41.206a53.39,53.39,0,0,0-10.852-2.931,12.319,12.319,0,0,0,1.508-5.919V35.4h-5.31a12.386,12.386,0,0,0-10.621,6.041A12.386,12.386,0,0,0,5.31,35.4H0v74.344H97.355a12.405,12.405,0,0,0,12.391-12.391V67.264H103.4a128.118,128.118,0,0,0-18.434,1.363v-4.9h-5.31a12.386,12.386,0,0,0-10.621,6.041,12.435,12.435,0,0,0-6.806-5.434A53.5,53.5,0,0,0,48.623,53.1h61.123v-3.54ZM26.551,38.942h1.77v1.77a8.861,8.861,0,0,1-8.85,8.85H17.7v-1.77A8.861,8.861,0,0,1,26.551,38.942Zm-23.011,0H5.31a8.861,8.861,0,0,1,8.85,8.85v1.77h-1.77a8.861,8.861,0,0,1-8.85-8.85Zm46.023,67.264a8.861,8.861,0,0,1-8.85-8.85v-1.77h1.77a8.861,8.861,0,0,1,8.85,8.85v1.77Zm5.31,0v-1.77a8.861,8.861,0,0,1,8.85-8.85h1.77v1.77a8.861,8.861,0,0,1-8.85,8.85Zm35.4,0a8.861,8.861,0,0,1-8.85-8.85v-1.77h1.77a8.861,8.861,0,0,1,8.85,8.85v1.77Zm15.931-8.85a8.861,8.861,0,0,1-8.85,8.85h-1.77v-1.77a8.861,8.861,0,0,1,8.85-8.85h1.77Zm0-26.551V92.045h-1.77a12.386,12.386,0,0,0-10.621,6.041,12.386,12.386,0,0,0-10.621-6.041h-5.31v5.31a12.344,12.344,0,0,0,3.737,8.85H65.3a12.349,12.349,0,0,0,3.735-8.85v-5.31h-5.31A12.386,12.386,0,0,0,53.1,98.086a12.386,12.386,0,0,0-10.621-6.041h-5.31v5.31a12.344,12.344,0,0,0,3.737,8.85H16.694a124.882,124.882,0,0,1,41.8-26.962,12.3,12.3,0,0,0,7,2.181h7.08a12.4,12.4,0,0,0,11.948-9.158A124.4,124.4,0,0,1,103.4,70.8Zm-26.551-3.54h1.77v1.77a8.861,8.861,0,0,1-8.85,8.85H70.8v-1.77A8.861,8.861,0,0,1,79.654,67.264Zm-12.391,8.85v1.77h-1.77a8.861,8.861,0,0,1-8.85-8.85v-1.77h1.77A8.861,8.861,0,0,1,67.264,76.114ZM56.8,63.724H53.1v5.31a12.322,12.322,0,0,0,2.581,7.541,128.32,128.32,0,0,0-44.019,29.631H3.54V49.368a12.349,12.349,0,0,0,8.85,3.735h7.08a12.331,12.331,0,0,0,8.335-3.25A49.721,49.721,0,0,1,56.8,63.724Zm41.919-31.2a.936.936,0,0,1,.409.775v1.17a.969.969,0,0,1-1.464.775L75.723,20.321,78.249,18.6ZM72.574,22.463l8.617,5.859H63.955ZM55.282,6.422a.936.936,0,0,1-.409-.775V4.477A.965.965,0,0,1,56.337,3.7l13.09,8.9L66.9,14.318Zm-7.8,28.819a.97.97,0,0,1-1.464-.775V33.3a.935.935,0,0,1,.411-.775L88.811,3.7a.938.938,0,0,1,1.464.775v1.17a.935.935,0,0,1-.411.775ZM53.1,35.7l5.647-3.841H86.4L92.045,35.7V49.563H81.425V38.942a3.544,3.544,0,0,0-3.54-3.54H67.264a3.544,3.544,0,0,0-3.54,3.54V49.563H53.1Zm24.781,13.86H67.264V38.942H77.884Z" transform="translate(0 0)"/>
        <path id="Trazado_570411" data-name="Trazado 570411" d="M36,32H46.621v3.54H36Z" transform="translate(27.724 24.643)"/>
        <path id="Trazado_570412" data-name="Trazado 570412" d="M44,32H61.7v3.54H44Z" transform="translate(33.884 24.643)"/>
        <path id="Trazado_570413" data-name="Trazado 570413" d="M56,32H66.621v3.54H56Z" transform="translate(43.126 24.643)"/>
        <path id="Trazado_570414" data-name="Trazado 570414" d="M18.161,30.322A14.161,14.161,0,1,0,4,16.161,14.177,14.177,0,0,0,18.161,30.322Zm0-24.781A10.621,10.621,0,1,1,7.54,16.161,10.631,10.631,0,0,1,18.161,5.54Z" transform="translate(3.08 1.54)"/>
      </g>
    </g>
  </g>
</svg>
