<svg xmlns="http://www.w3.org/2000/svg" width="201" height="201" viewBox="0 0 201 201">
  <g id="Grupo_848051" data-name="Grupo 848051" transform="translate(-6140 6800)">
    <rect id="Rectángulo_281785" data-name="Rectángulo 281785" width="201" height="201" rx="12" transform="translate(6140 -6800)" fill="#fff"/>
    <g id="Page-1" transform="translate(6187 -6753.819)">
      <g id="_085---Electric-Fence" data-name="085---Electric-Fence" transform="translate(0 0.917)">
        <g id="Grupo_847951" data-name="Grupo 847951" transform="translate(1.778 30.366)">
          <rect id="Rectangle-path" width="7.11" height="74.66" rx="1" fill="#606060"/>
          <path id="Shape" d="M26.11,34.544v47.3a1.778,1.778,0,0,1-1.778,1.778H20.778A1.778,1.778,0,0,1,19,81.846V29.62A28.1,28.1,0,0,0,26.11,34.544Z" transform="translate(12.997 -8.964)" fill="#606060"/>
          <path id="Shape-2" data-name="Shape" d="M44.11,29.62V81.846a1.778,1.778,0,0,1-1.778,1.778H38.778A1.778,1.778,0,0,1,37,81.846v-47.3a28.1,28.1,0,0,0,7.11-4.924Z" transform="translate(26.994 -8.964)" fill="#606060"/>
          <rect id="Rectangle-path-2" data-name="Rectangle-path" width="7.11" height="74.66" rx="1" transform="translate(95.992)" fill="#606060"/>
        </g>
        <path id="Shape-3" data-name="Shape" d="M70.884,30.442a28.33,28.33,0,1,1-8.3-20.145A28.442,28.442,0,0,1,70.884,30.442Z" transform="translate(10.887 -0.076)" fill="#ff854e"/>
        <path id="Shape-4" data-name="Shape" d="M43.553,8H31.689a1.778,1.778,0,0,0-1.683,1.216L24.092,26.992a1.778,1.778,0,0,0,1.685,2.339H30.55a1.778,1.778,0,0,1,1.712,2.245l-3.5,12.852a.748.748,0,0,0,1.344.613L44.918,24.985a1.778,1.778,0,0,0-1.479-2.764H38.931a.585.585,0,0,1-.494-.889L45.059,10.72A1.778,1.778,0,0,0,43.553,8Z" transform="translate(18.663 4.59)" fill="#ffdc00"/>
        <path id="Shape-5" data-name="Shape" d="M41.368,22.221H36.86a.585.585,0,0,1-.494-.889L42.988,10.72A1.778,1.778,0,0,0,41.482,8H36.149a1.778,1.778,0,0,1,1.506,2.72L31.037,21.332a.585.585,0,0,0,.494.889h4.5a1.778,1.778,0,0,1,1.477,2.764l-8.758,11.86-2.064,7.583a.748.748,0,0,0,1.344.613L42.846,24.985a1.778,1.778,0,0,0-1.477-2.764Z" transform="translate(20.735 4.59)" fill="#fec108"/>
        <path id="Shape-6" data-name="Shape" d="M26.558,31.887h4.769l-3.5,12.852a2.517,2.517,0,0,0,1.4,2.969,2.567,2.567,0,0,0,1.067.229,2.428,2.428,0,0,0,2.035-1.067L47.178,26.748a3.555,3.555,0,0,0-2.958-5.527H41.869l5.488-8.781A3.555,3.555,0,0,0,44.334,7H32.47a3.555,3.555,0,0,0-3.377,2.432L23.179,27.208a3.555,3.555,0,0,0,3.379,4.679ZM32.47,10.555H44.334L37.713,21.166a2.362,2.362,0,0,0,2,3.61l4.551-.069L32.7,40.373l2.055-7.553a3.555,3.555,0,0,0-3.422-4.488H26.558Z" transform="translate(17.883 3.813)"/>
        <path id="Shape-7" data-name="Shape" d="M103.1,29.506H99.547a3.555,3.555,0,0,0-3.555,3.555v5.333H82.668a30.22,30.22,0,1,0-58.67,0H10.666V33.061A3.555,3.555,0,0,0,7.11,29.506H3.555A3.555,3.555,0,0,0,0,33.061v71.1a3.555,3.555,0,0,0,3.555,3.555H7.11a3.555,3.555,0,0,0,3.555-3.555V98.833H32v5.333a3.555,3.555,0,0,0,3.555,3.555h3.555a3.555,3.555,0,0,0,3.555-3.555V98.833H63.994v5.333a3.555,3.555,0,0,0,3.555,3.555H71.1a3.555,3.555,0,0,0,3.555-3.555V98.833H95.992v5.333a3.555,3.555,0,0,0,3.555,3.555H103.1a3.555,3.555,0,0,0,3.555-3.555v-71.1a3.555,3.555,0,0,0-3.555-3.555ZM95.992,41.95V66.836H74.66V52.667A30.273,30.273,0,0,0,81.568,41.95ZM53.329,4.619A26.664,26.664,0,1,1,26.664,31.284,26.664,26.664,0,0,1,53.329,4.619ZM63.994,66.836H42.663V59.523a29.713,29.713,0,0,0,21.331,0ZM25.089,41.95A30.273,30.273,0,0,0,32,52.667V66.836H10.666V41.95ZM3.555,104.166v-71.1H7.11v71.1Zm7.11-8.888V70.391H32V95.278Zm28.442,8.888H35.552v-48.5a30.323,30.323,0,0,0,3.555,2.266Zm3.555-8.888V70.391H63.994V95.278ZM71.1,104.166H67.55V57.934A30.324,30.324,0,0,0,71.1,55.667Zm3.555-8.888V70.391H95.992V95.278Zm24.887,8.888v-71.1H103.1v71.1Z" transform="translate(0 -0.917)"/>
      </g>
    </g>
  </g>
</svg>
