<svg xmlns="http://www.w3.org/2000/svg" width="201" height="201" viewBox="0 0 201 201">
  <g id="Grupo_848054" data-name="Grupo 848054" transform="translate(-6140 5599)">
    <rect id="Rectángulo_281791" data-name="Rectángulo 281791" width="201" height="201" rx="12" transform="translate(6140 -5599)" fill="#fff"/>
    <g id="la-carretera" transform="translate(6167.162 -5562)">
      <path id="Trazado_570469" data-name="Trazado 570469" d="M130.953,196.343h-2.206v-.051H94.741a7.1,7.1,0,0,1,0-14.2h15.747V163.2H94.741a25.992,25.992,0,0,0,0,51.985h2.206v.051h34.031a7.1,7.1,0,0,1,0,14.2H68.749v18.892h62.229a25.992,25.992,0,1,0-.026-51.985Z" transform="translate(-42.065 -122.785)" fill="#7a7979"/>
      <g id="Grupo_847964" data-name="Grupo 847964" transform="translate(33.835 40.414)">
        <path id="Trazado_570470" data-name="Trazado 570470" d="M116.466,315.647h2.206v.051H152.7a6.893,6.893,0,0,1,2.511.456,9.688,9.688,0,0,0,.634-3.449,9.938,9.938,0,0,0-3.6-7.608,9.841,9.841,0,0,0-18-3.854,9.827,9.827,0,0,0-16.533,0,9.841,9.841,0,0,0-18,3.854,10.22,10.22,0,0,0-2.079,2.358A25.579,25.579,0,0,0,116.466,315.647Z" transform="translate(-97.625 -263.663)" fill="#4c4c4c"/>
        <path id="Trazado_570471" data-name="Trazado 570471" d="M172.892,163.2H157.145a25.833,25.833,0,0,0-5.452.583,35.716,35.716,0,0,0,4.235,8.165l7.05,10.169h9.89V163.2Z" transform="translate(-138.304 -163.2)" fill="#4c4c4c"/>
      </g>
      <g id="Grupo_847965" data-name="Grupo 847965" transform="translate(30.513 49.066)">
        <path id="Trazado_570472" data-name="Trazado 570472" d="M87.457,256.026a1.249,1.249,0,0,1-1.141-.735,21.887,21.887,0,0,1-2.1-9.408,22.145,22.145,0,0,1,.964-6.441,1.259,1.259,0,1,1,2.409.735A19.715,19.715,0,0,0,88.6,254.2a1.278,1.278,0,0,1-.609,1.7A1.265,1.265,0,0,1,87.457,256.026Z" transform="translate(-84.211 -228.543)" fill="#c9c9c9"/>
        <path id="Trazado_570473" data-name="Trazado 570473" d="M107.583,202.672a1.267,1.267,0,0,1-.938-2.13,24.764,24.764,0,0,1,2.206-2.1,1.26,1.26,0,1,1,1.623,1.927,22.471,22.471,0,0,0-1.953,1.851A1.2,1.2,0,0,1,107.583,202.672Z" transform="translate(-100.838 -198.138)" fill="#c9c9c9"/>
      </g>
      <path id="Trazado_570474" data-name="Trazado 570474" d="M127.1,245.744H64.9a1.268,1.268,0,1,1,0-2.536h62.229a24.724,24.724,0,1,0,0-49.449h-2.206a1.491,1.491,0,0,1-.355-.051H90.888a8.368,8.368,0,1,1,0-16.737h14.48V160.616H90.888a24.724,24.724,0,1,0,0,49.449h2.206a1.491,1.491,0,0,1,.355.051H127.1a8.368,8.368,0,1,1,0,16.736H64.9a1.268,1.268,0,1,1,0-2.536h62.229a5.832,5.832,0,1,0,0-11.665H93.069a1.49,1.49,0,0,1-.355-.051H90.888a27.26,27.26,0,1,1,0-54.52h15.747a1.256,1.256,0,0,1,1.268,1.268V178.24a1.256,1.256,0,0,1-1.268,1.268H90.888a5.832,5.832,0,1,0,0,11.665h34.031a1.49,1.49,0,0,1,.355.051H127.1a27.26,27.26,0,1,1,0,54.52Z" transform="translate(-38.212 -118.933)" fill="#231f20"/>
      <path id="Trazado_570475" data-name="Trazado 570475" d="M202.394,5.2h-1.623c-21.884.558-34.183,25.51-21.681,43.49l18.562,26.7a4.811,4.811,0,0,0,7.912,0l18.562-26.7C236.577,30.733,224.278,5.78,202.394,5.2Zm-.812,39.483a12.147,12.147,0,1,1,12.147-12.147A12.148,12.148,0,0,1,201.582,44.68Z" transform="translate(-121.316 -3.91)" fill="#f9b630"/>
      <g id="Grupo_847966" data-name="Grupo 847966" transform="translate(52.77 9.249)">
        <path id="Trazado_570476" data-name="Trazado 570476" d="M335.28,78.618a15.17,15.17,0,0,0-10.219,8.52,13.558,13.558,0,0,0-3.6,2.587,12.158,12.158,0,0,1-3.728,6.974,13.1,13.1,0,0,0-.254,2.637,13.64,13.64,0,0,0,8.875,12.755l5.655-8.14A27.664,27.664,0,0,0,335.28,78.618Z" transform="translate(-281.969 -68.398)" fill="#d88a0e"/>
        <path id="Trazado_570477" data-name="Trazado 570477" d="M189.336,49.624A14.124,14.124,0,0,0,182.21,37.35a28.084,28.084,0,0,0-7.3,26.4h.3A14.112,14.112,0,0,0,189.336,49.624Z" transform="translate(-174.088 -37.35)" fill="#d88a0e"/>
      </g>
      <g id="Grupo_847967" data-name="Grupo 847967" transform="translate(51.474 -0.001)">
        <path id="Trazado_570478" data-name="Trazado 570478" d="M197.645,74.826a6.077,6.077,0,0,1-5-2.612l-18.562-26.7a28.848,28.848,0,0,1-2.029-29.8,28.283,28.283,0,0,1,24.75-15.7c.558-.025,1.141-.025,1.7,0a28.166,28.166,0,0,1,24.724,15.7,29.725,29.725,0,0,1,3.17,14.708,28.8,28.8,0,0,1-5.2,15.088l-18.562,26.7A6.077,6.077,0,0,1,197.645,74.826Zm0-72.271h-.786a25.692,25.692,0,0,0-22.518,14.3,26.24,26.24,0,0,0,1.851,27.184l18.537,26.728a3.483,3.483,0,0,0,2.916,1.522,3.55,3.55,0,0,0,2.916-1.522l18.537-26.7a26.24,26.24,0,0,0,1.851-27.184A25.669,25.669,0,0,0,198.431,2.555h-.786Z" transform="translate(-168.853 0.001)" fill="#231f20"/>
        <path id="Trazado_570479" data-name="Trazado 570479" d="M244.365,88.321a13.4,13.4,0,1,1,13.415-13.389A13.436,13.436,0,0,1,244.365,88.321Zm0-24.268a10.879,10.879,0,1,0,10.879,10.879A10.893,10.893,0,0,0,244.365,64.053Z" transform="translate(-215.572 -46.283)" fill="#231f20"/>
      </g>
      <path id="Trazado_570480" data-name="Trazado 570480" d="M194.891,61.811a1.253,1.253,0,0,1-1.04-.532,24.075,24.075,0,0,1,4.463-32.23,1.261,1.261,0,1,1,1.6,1.953,21.56,21.56,0,0,0-3.981,28.832,1.27,1.27,0,0,1-.33,1.775A1.167,1.167,0,0,1,194.891,61.811Zm10.093-33.955a1.277,1.277,0,0,1-.482-2.46c.482-.178.989-.355,1.471-.507a1.275,1.275,0,1,1,.761,2.434c-.431.127-.888.3-1.319.456A1.176,1.176,0,0,1,204.984,27.856Z" transform="translate(-132.934 -18.684)" fill="#ffedcc"/>
      <g id="Grupo_847968" data-name="Grupo 847968" transform="translate(92.108 58.039)">
        <path id="Trazado_570481" data-name="Trazado 570481" d="M346.584,236.9H334.209a1.268,1.268,0,1,1,0-2.536h12.375a1.268,1.268,0,0,1,0,2.536Z" transform="translate(-332.941 -234.368)" fill="#231f20"/>
        <path id="Trazado_570482" data-name="Trazado 570482" d="M410.489,236.9h-3.474a1.268,1.268,0,0,1,0-2.536h3.474a1.268,1.268,0,1,1,0,2.536Z" transform="translate(-387.717 -234.368)" fill="#231f20"/>
      </g>
      <path id="Trazado_570483" data-name="Trazado 570483" d="M52.328,35.556a6.517,6.517,0,1,0,0,13.034H78.7a6.517,6.517,0,0,0,0-13.034h-.152a4.742,4.742,0,0,0-9.484,0,8.216,8.216,0,1,0-16.432,0Z" transform="translate(-24.808 -20.551)" fill="#71ccff"/>
      <path id="Trazado_570484" data-name="Trazado 570484" d="M74.849,46.109H48.476a7.785,7.785,0,0,1-.888-15.519,9.5,9.5,0,0,1,18-2.865,6.008,6.008,0,0,1,10.27,2.891,7.778,7.778,0,0,1-1.014,15.494ZM48.476,33.049a5.249,5.249,0,0,0,0,10.5H74.849a5.249,5.249,0,0,0,0-10.5H74.7a1.256,1.256,0,0,1-1.268-1.268,3.474,3.474,0,0,0-6.948,0,1.268,1.268,0,0,1-2.536,0,6.948,6.948,0,1,0-13.9,0,1.256,1.256,0,0,1-1.268,1.268Z" transform="translate(-20.955 -16.776)" fill="#231f20"/>
      <path id="Trazado_570485" data-name="Trazado 570485" d="M71.471,53.463h-3.2a1.268,1.268,0,1,1,0-2.536h3.2a.909.909,0,0,0,.913-.913V47.225a4.533,4.533,0,0,1,4.007-4.514,4.4,4.4,0,0,1,3.4,1.141,4.455,4.455,0,0,1,1.445,3.271,1.268,1.268,0,1,1-2.536,0,1.85,1.85,0,0,0-.634-1.395,1.925,1.925,0,0,0-1.471-.482,1.958,1.958,0,0,0-1.7,1.978V50.04A3.409,3.409,0,0,1,71.471,53.463Z" transform="translate(-40.755 -32.118)" fill="#c0e7f9"/>
      <g id="Grupo_847969" data-name="Grupo 847969" transform="translate(12.838 26.797)">
        <path id="Trazado_570486" data-name="Trazado 570486" d="M40.31,110.747H31.1a1.268,1.268,0,0,1,0-2.536H40.31a1.268,1.268,0,1,1,0,2.536Z" transform="translate(-25.627 -108.211)" fill="#231f20"/>
        <path id="Trazado_570487" data-name="Trazado 570487" d="M14.588,110.747h-.482a1.268,1.268,0,1,1,0-2.536h.482a1.256,1.256,0,0,1,1.268,1.268A1.272,1.272,0,0,1,14.588,110.747Z" transform="translate(-12.838 -108.211)" fill="#231f20"/>
      </g>
      <path id="Trazado_570488" data-name="Trazado 570488" d="M354.08,115.154a5.984,5.984,0,0,0,0,11.969h24.192a5.984,5.984,0,0,0,0-11.969h-.127a4.336,4.336,0,1,0-8.672,0,7.557,7.557,0,1,0-15.113,0Z" transform="translate(-252.235 -80.952)" fill="#71ccff"/>
      <path id="Trazado_570489" data-name="Trazado 570489" d="M374.42,124.539H350.228a7.256,7.256,0,0,1-.913-14.454,8.82,8.82,0,0,1,16.635-2.713,5.57,5.57,0,0,1,4.007-1.674,5.627,5.627,0,0,1,5.477,4.412,7.25,7.25,0,0,1-1.014,14.429ZM350.228,112.57a4.717,4.717,0,0,0,0,9.433H374.42a4.717,4.717,0,0,0,0-9.433h-.127a1.256,1.256,0,0,1-1.268-1.268,3.068,3.068,0,0,0-6.137,0,1.268,1.268,0,0,1-2.536,0,6.289,6.289,0,0,0-12.578,0,1.256,1.256,0,0,1-1.268,1.268Z" transform="translate(-248.383 -77.1)" fill="#231f20"/>
      <path id="Trazado_570490" data-name="Trazado 570490" d="M371.352,131.259h-2.941a1.268,1.268,0,0,1,0-2.536h2.941a.736.736,0,0,0,.736-.736V125.4a4.17,4.17,0,0,1,6.974-3.17,4.185,4.185,0,0,1,1.369,3.094,1.268,1.268,0,1,1-2.536,0,1.733,1.733,0,0,0-.532-1.217,1.638,1.638,0,0,0-1.268-.406,1.682,1.682,0,0,0-1.471,1.7v2.587A3.3,3.3,0,0,1,371.352,131.259Z" transform="translate(-266.565 -91.149)" fill="#c0e7f9"/>
      <g id="Grupo_847970" data-name="Grupo 847970" transform="translate(88.279 44.903)">
        <path id="Trazado_570491" data-name="Trazado 570491" d="M342.755,183.861h-8.444a1.268,1.268,0,1,1,0-2.536h8.444a1.256,1.256,0,0,1,1.268,1.268A1.272,1.272,0,0,1,342.755,183.861Z" transform="translate(-329.188 -181.325)" fill="#231f20"/>
        <path id="Trazado_570492" data-name="Trazado 570492" d="M319.177,183.861h-.431a1.268,1.268,0,1,1,0-2.536h.431a1.256,1.256,0,0,1,1.268,1.268A1.272,1.272,0,0,1,319.177,183.861Z" transform="translate(-317.478 -181.325)" fill="#231f20"/>
      </g>
      <g id="Grupo_847971" data-name="Grupo 847971" transform="translate(37.309 78.579)">
        <path id="Trazado_570493" data-name="Trazado 570493" d="M124.461,323.55a4.7,4.7,0,0,0,.228-1.471,4.767,4.767,0,1,0-9.535,0,4.694,4.694,0,0,0,.228,1.471,4.775,4.775,0,0,0,1.04,9.433,4.723,4.723,0,0,0,3.5-1.522,4.774,4.774,0,1,0,4.539-7.912Z" transform="translate(-111.655 -317.312)" fill="#08b26c"/>
        <path id="Trazado_570494" data-name="Trazado 570494" d="M191.329,323.55a4.7,4.7,0,0,0,.228-1.471,4.767,4.767,0,1,0-9.535,0,4.694,4.694,0,0,0,.228,1.471,4.775,4.775,0,0,0,1.04,9.433,4.723,4.723,0,0,0,3.5-1.522,4.774,4.774,0,1,0,4.539-7.912Z" transform="translate(-161.964 -317.312)" fill="#08b26c"/>
        <path id="Trazado_570495" data-name="Trazado 570495" d="M258.093,323.55a4.7,4.7,0,0,0,.228-1.471,4.767,4.767,0,1,0-9.535,0,4.694,4.694,0,0,0,.228,1.471,4.775,4.775,0,0,0,1.04,9.433,4.723,4.723,0,0,0,3.5-1.522,4.774,4.774,0,1,0,4.539-7.912Z" transform="translate(-212.194 -317.312)" fill="#08b26c"/>
      </g>
      <g id="Grupo_847972" data-name="Grupo 847972" transform="translate(36.041 77.311)">
        <path id="Trazado_570496" data-name="Trazado 570496" d="M119.569,330.4a6.108,6.108,0,0,1-3.5-1.116,6.042,6.042,0,1,1-6.01-10.422,5.112,5.112,0,0,1-.025-.634,6.035,6.035,0,1,1,12.07,0,5.318,5.318,0,0,1-.025.634,6.084,6.084,0,0,1,3.525,5.5A6.018,6.018,0,0,1,119.569,330.4Zm-3.5-4.083a1.327,1.327,0,0,1,.938.406,3.418,3.418,0,0,0,2.561,1.116,3.5,3.5,0,0,0,.761-6.923,1.289,1.289,0,0,1-.837-.609,1.192,1.192,0,0,1-.1-1.014,3.9,3.9,0,0,0,.178-1.065,3.5,3.5,0,1,0-7,0,3.032,3.032,0,0,0,.178,1.065,1.256,1.256,0,0,1-.938,1.623,3.5,3.5,0,0,0,.761,6.923,3.47,3.47,0,0,0,2.561-1.116A1.327,1.327,0,0,1,116.07,326.317Z" transform="translate(-106.535 -312.192)" fill="#231f20"/>
        <path id="Trazado_570497" data-name="Trazado 570497" d="M186.436,330.4a6.108,6.108,0,0,1-3.5-1.116,6.042,6.042,0,1,1-6.01-10.422,5.109,5.109,0,0,1-.025-.634,6.035,6.035,0,1,1,12.07,0,5.325,5.325,0,0,1-.025.634,6.044,6.044,0,0,1-2.511,11.538Zm-3.5-4.083a1.327,1.327,0,0,1,.938.406,3.418,3.418,0,0,0,2.561,1.116,3.5,3.5,0,0,0,.761-6.923,1.289,1.289,0,0,1-.837-.609,1.192,1.192,0,0,1-.1-1.014,3.9,3.9,0,0,0,.178-1.065,3.5,3.5,0,1,0-7,0,3.031,3.031,0,0,0,.178,1.065,1.256,1.256,0,0,1-.938,1.623,3.5,3.5,0,0,0,.761,6.923A3.47,3.47,0,0,0,182,326.722,1.327,1.327,0,0,1,182.937,326.317Z" transform="translate(-156.843 -312.192)" fill="#231f20"/>
        <path id="Trazado_570498" data-name="Trazado 570498" d="M253.2,330.4a6.108,6.108,0,0,1-3.5-1.116,6.042,6.042,0,1,1-6.01-10.422,5.109,5.109,0,0,1-.025-.634,6.035,6.035,0,1,1,12.07,0,5.322,5.322,0,0,1-.025.634,6.084,6.084,0,0,1,3.525,5.5A6.018,6.018,0,0,1,253.2,330.4Zm-3.5-4.083a1.327,1.327,0,0,1,.938.406,3.418,3.418,0,0,0,2.561,1.116,3.5,3.5,0,0,0,.761-6.923,1.289,1.289,0,0,1-.837-.609,1.192,1.192,0,0,1-.1-1.014,3.9,3.9,0,0,0,.178-1.065,3.5,3.5,0,1,0-7,0,3.031,3.031,0,0,0,.178,1.065,1.256,1.256,0,0,1-.938,1.623,3.5,3.5,0,0,0,.761,6.923,3.47,3.47,0,0,0,2.561-1.116A1.327,1.327,0,0,1,249.7,326.317Z" transform="translate(-207.074 -312.192)" fill="#231f20"/>
        <path id="Trazado_570499" data-name="Trazado 570499" d="M141.185,385.789a1.256,1.256,0,0,1-1.268-1.268V370.6a1.268,1.268,0,1,1,2.536,0v13.922A1.272,1.272,0,0,1,141.185,385.789Z" transform="translate(-131.65 -355.181)" fill="#231f20"/>
        <path id="Trazado_570500" data-name="Trazado 570500" d="M208.052,385.789a1.256,1.256,0,0,1-1.268-1.268V370.6a1.268,1.268,0,1,1,2.536,0v13.922A1.288,1.288,0,0,1,208.052,385.789Z" transform="translate(-181.958 -355.181)" fill="#231f20"/>
        <path id="Trazado_570501" data-name="Trazado 570501" d="M274.817,385.789a1.256,1.256,0,0,1-1.268-1.268V370.6a1.268,1.268,0,1,1,2.536,0v13.922A1.272,1.272,0,0,1,274.817,385.789Z" transform="translate(-232.19 -355.181)" fill="#231f20"/>
      </g>
    </g>
  </g>
</svg>
