<svg xmlns="http://www.w3.org/2000/svg" xmlns:xlink="http://www.w3.org/1999/xlink" width="560.117" height="275.61" viewBox="0 0 560.117 275.61">
  <defs>
    <clipPath id="clip-path">
      <rect id="Rect치ngulo_281763" data-name="Rect치ngulo 281763" width="560.117" height="275.61" fill="none"/>
    </clipPath>
  </defs>
  <g id="Grupo_847806" data-name="Grupo 847806" transform="translate(0 -0.004)">
    <g id="Grupo_847805" data-name="Grupo 847805" transform="translate(0 0.004)" clip-path="url(#clip-path)">
      <path id="Trazado_570040" data-name="Trazado 570040" d="M581.892,262.725c-.029.451-.067.9-.1,1.362a96.55,96.55,0,0,1-1.516,10.5c0,.012-.005.022-.007.033-.017.09-.036.178-.054.268,0,.007,0,.015,0,.023l-132.786-.234-344.574-.607s-45.711-31.587-60.611-81.384c-.013-.042-.026-.083-.036-.125a106.983,106.983,0,0,1-4.37-37.9c.009-.133.018-.268.029-.4a113.04,113.04,0,0,1,8.707-35.779A142.006,142.006,0,0,1,56.03,99.919q1.3-2.15,2.722-4.2C89.544,51.239,162.8,40.918,185.476,50.453,216.3,63.411,257.178,28.4,345.536,4.371,385.942-6.62,457.409,2.709,496.159,37.219c.043.038.086.076.128.116,24.815,22.168,36.134,54.7,17.126,98.882-.02.045-.04.092-.061.138-.009.025-.022.052-.033.076-18.507,42.831,18.922,51.949,45.457,74,.132.108.261.216.393.328a83.132,83.132,0,0,1,7.69,7.275q.77.833,1.512,1.691a56.878,56.878,0,0,1,8.163,12.231q.474.968.912,1.969a53.435,53.435,0,0,1,3.211,9.852,61,61,0,0,1,1.392,11.388,73.144,73.144,0,0,1-.157,7.558" transform="translate(-29.783 -0.004)" fill="#ebf3fa"/>
      <path id="Trazado_570041" data-name="Trazado 570041" d="M513.69,278.514l-.339.04L42.2,334.76a106.982,106.982,0,0,1-4.37-37.9c.009-.133.018-.268.029-.4L496.286,179.533l.071-.018c25.018,22.173,36.462,54.742,17.333,99" transform="translate(-29.783 -142.201)" fill="#f8fbff"/>
      <path id="Trazado_570042" data-name="Trazado 570042" d="M372.007,248.236,80.74,315.117a141.872,141.872,0,0,1,9.465-18.563q1.3-2.152,2.722-4.2Z" transform="translate(-63.957 -196.638)" fill="#f8fbff"/>
      <rect id="Rect치ngulo_281762" data-name="Rect치ngulo 281762" width="96.236" height="131.325" transform="translate(334.666 141.452)" fill="#fff3e9"/>
      <path id="Trazado_570043" data-name="Trazado 570043" d="M1773.509,498.31l67.032,43.858h64.718l-33.569-43.858Z" transform="translate(-1404.864 -394.731)" fill="#ed9f4a"/>
      <path id="Trazado_570044" data-name="Trazado 570044" d="M2106.214,499.083l33.74,43.7h-1.924v85.174l-65.016,21.056V538.205Z" transform="translate(-1642.114 -395.343)" fill="#f9ddbf"/>
      <path id="Trazado_570045" data-name="Trazado 570045" d="M2199.109,603.809h1.359a8.361,8.361,0,0,1,8.361,8.36v21.246H2191.02V611.9a8.089,8.089,0,0,1,8.089-8.089" transform="translate(-1735.59 -478.301)" fill="#efcdaf"/>
      <path id="Trazado_570046" data-name="Trazado 570046" d="M1906.85,843.143h1.359a8.36,8.36,0,0,1,8.36,8.36v21.246h-17.809V851.232a8.089,8.089,0,0,1,8.089-8.089" transform="translate(-1504.08 -667.886)" fill="#f9ddbf"/>
      <path id="Trazado_570047" data-name="Trazado 570047" d="M1726.85,843.143h1.359a8.36,8.36,0,0,1,8.36,8.36v21.246h-17.809V851.232a8.089,8.089,0,0,1,8.089-8.089" transform="translate(-1361.496 -667.886)" fill="#f9ddbf"/>
      <path id="Trazado_570048" data-name="Trazado 570048" d="M1576.191,544.6h104.474l34.721-46.291-19.546,0-83.916.006Z" transform="translate(-1248.56 -394.73)" fill="#ed9f4a"/>
      <path id="Trazado_570049" data-name="Trazado 570049" d="M1576.191,544.616h56.494l63.156-46.287-83.916.006Z" transform="translate(-1248.56 -394.746)" fill="#e58638"/>
      <path id="Trazado_570050" data-name="Trazado 570050" d="M2266.669,888.236l15.166,31.224h46.075l-24.022-31.11Z" transform="translate(-1795.515 -703.606)" fill="#ed9f4a"/>
      <path id="Trazado_570051" data-name="Trazado 570051" d="M2351.867,888.785l24.021,31.11h0v55.866c-4.211,3.083-8.637-1.7-12.861-.255-9.209,3.158-17.089-22.3-17.089-22.3s-.26.051-.771.127h-15.253V919.9h-.1Z" transform="translate(-1845.533 -704.041)" fill="#f9ddbf"/>
      <path id="Trazado_570052" data-name="Trazado 570052" d="M2146.18,1038.45v27.182q4.172,1.216,8.062,2.171a166.569,166.569,0,0,0,23.24,4.087h7.629v-33.44Z" transform="translate(-1700.07 -822.596)" fill="#fff3e9"/>
      <path id="Trazado_570053" data-name="Trazado 570053" d="M2125.6,921.737h41.822l24.721-32.957-12.458,0-28.646.006Z" transform="translate(-1683.768 -704.037)" fill="#ed9f4a"/>
      <path id="Trazado_570054" data-name="Trazado 570054" d="M2384.672,1087.039v37.582h2.275c.724-.107,1.092-.18,1.092-.18a82.458,82.458,0,0,0,24.093-4.478v-32.47a13.958,13.958,0,0,0-13.957-13.957,13.507,13.507,0,0,0-13.5,13.5" transform="translate(-1888.989 -850.389)" fill="#efcdaf"/>
      <path id="Trazado_570055" data-name="Trazado 570055" d="M2422.8,961.719a6.018,6.018,0,1,1-6.017,6.018,6.019,6.019,0,0,1,6.017-6.018" transform="translate(-1914.422 -761.815)" fill="#efcdaf"/>
      <path id="Trazado_570056" data-name="Trazado 570056" d="M2125.6,921.745h7.938l46.148-32.955-28.646.006Z" transform="translate(-1683.768 -704.045)" fill="#e58638"/>
      <path id="Trazado_570057" data-name="Trazado 570057" d="M634.451,1147.362c-52.775-9.893-116.75-18.987-169.3-11.029s-72.745,18.7-130.458-6.008c-12.628-5.405-22.908-5.79-32.173-5.886l-3.5.057c-31.072,1.307-52.1,21.949-117.349,7.872a87.376,87.376,0,0,0-30.12-.7c-6.135-8.569-24.354-31.878-39.419-29.453-15.049,2.422,22.227,22.606,36.374,29.912q-2.526.413-4.983.921c-8.566-3.993-24.629-10.449-33.807-7.614-8.97,2.77,13.517,6.734,28.155,8.905a155.2,155.2,0,0,0-34.069,13Z" transform="translate(-82.222 -872.971)" fill="#a8d29f"/>
      <path id="Trazado_570058" data-name="Trazado 570058" d="M345.221,1285.076l-5.016-.214c-.994-.047-1.985-.1-2.967-.151l-1.758-.106c-2.317-.149-4.574-.337-6.705-.591-16.688-1.993-40.259,7.272-40.259,7.272H370.7c-.581-5.143-12.6-5.682-25.481-6.21" transform="translate(-228.544 -1016.895)" fill="#82b378"/>
      <path id="Trazado_570059" data-name="Trazado 570059" d="M2108.108,1096.167c.023-5.585,8.473-11.446,8.473-11.446-1.46-.115-5.19,1.768-5.19,1.768,1-.884,5.651-2.345,5.651-2.345,1.5-.961,6.19-1.538,6.459-1.615s-4.805-.692-4.805-.692l6.093.408s5.478-.677,9.476-1.081,14.955,1.25,14.955,1.25c-.5-.423-4.536-1.25-4.536-1.25,5.129.519,12.665,1.922,12.675,1.924,4.375.291,7.279.546,7.279.546l2.652,47.643s-44.057-.231-50.285,0-9.457-8.765-10.841-19.376a34.059,34.059,0,0,1,1.945-15.734" transform="translate(-1668.188 -856.382)" fill="#edbd77"/>
      <path id="Trazado_570060" data-name="Trazado 570060" d="M2299,1091.835s14.186-1.078,23.181,10.339a15.085,15.085,0,0,1,.93,1.326,10.949,10.949,0,0,0-1.215-3.262c1.845,1.538,2.489,5.727,2.489,5.727h0a23.415,23.415,0,0,1,1.594,6.188c1.12,1.37,2.069,2.463,2.069,2.463l-2-1.829a35.558,35.558,0,0,1-1.033,12.35,3.857,3.857,0,0,1,2.454.2,4,4,0,0,0-2.56.193,34.314,34.314,0,0,1-1.224,3.673,48.569,48.569,0,0,1-1.571,5.74,26.413,26.413,0,0,0,.631-3.62c-2.525,5.137-6.255,8.766-10.6,8.8-11.764.1-26.253-1.706-29.388-17.064s3.439-30.845,16.24-31.232" transform="translate(-1807.647 -864.863)" fill="#ffcf83"/>
      <path id="Trazado_570061" data-name="Trazado 570061" d="M2474.2,1299.345a5.95,5.95,0,0,1-.219.659c-.018.043.071-.211.219-.659" transform="translate(-1959.734 -1029.261)" fill="#ffcf83"/>
      <path id="Trazado_570062" data-name="Trazado 570062" d="M2323.708,1160.658a20.283,20.283,0,0,0,10.54-2.6c3.623-2.217,5.989-5.792,7.034-10.626,1.778-8.228.9-14.979-2.6-20.065-3.272-4.755-8.8-7.851-15.98-8.954a12.586,12.586,0,0,0-12.137,4.53c-4.468,5.359-5.752,14.411-3.122,22.013,1.858,5.372,6.822,8.69,13.277,8.877.184.005.368.008.551.008,6.5,0,12.364-3.324,14.377-8.209,2.052-4.98,1.945-9.852-.3-13.717-2.28-3.925-6.584-6.478-12.121-7.189-5.012-.645-7.717,1.689-9.1,3.76-2.673,4-2.666,10.485-.875,13.618,1.726,3.019,6.5,5.348,10.65,5.2a7,7,0,0,0,6.434-3.9,8.71,8.71,0,0,0-.267-8.776,6.526,6.526,0,0,0-5.487-3.107,3.7,3.7,0,0,0-3.415,3.646c-.124,1.413.358,2.985,1.518,3.256,2.158.5,2.924-.675,2.955-.725,0,0,1.166-1.924-.285-2.2-1.661-.317-1.224.972-1.224.972-.024.036.41,1.778-1.312,1.375-.71-.166-1.176-1.319-1.062-2.626a3.09,3.09,0,0,1,2.856-3.106,5.912,5.912,0,0,1,4.961,2.844,8.131,8.131,0,0,1,.226,8.189,6.426,6.426,0,0,1-5.921,3.565c-3.948.135-8.486-2.059-10.114-4.905-1.508-2.638-1.914-8.858.853-12.994,1.853-2.769,4.8-3.981,8.533-3.5,5.35.687,9.5,3.137,11.684,6.9,2.15,3.7,2.244,8.387.264,13.193s-7.888,8.022-14.362,7.834c-6.2-.179-10.959-3.348-12.734-8.477-2.566-7.416-1.325-16.232,3.017-21.44a12.026,12.026,0,0,1,11.591-4.323c7.017,1.077,12.4,4.087,15.582,8.7,3.4,4.946,4.247,11.541,2.5,19.6-1.009,4.669-3.284,8.116-6.763,10.245-7.03,4.3-18.119,1.7-18.216,1.673l1.255.678a29.485,29.485,0,0,0,6.731.76" transform="translate(-1826.742 -885.791)" fill="#edbd77"/>
      <path id="Trazado_570063" data-name="Trazado 570063" d="M1913.308,1145.2h0c.018-4.384,6.652-8.986,6.652-8.986-1.147-.091-4.075,1.388-4.075,1.388.785-.694,4.437-1.841,4.437-1.841,1.177-.755,4.859-1.207,5.071-1.268s-3.773-.543-3.773-.543l4.784.32s4.3-.532,7.44-.849,11.741.981,11.741.981a20.909,20.909,0,0,0-3.562-.981c4.026.407,9.941,1.509,9.951,1.51,3.434.228,5.714.428,5.714.428l2.082,37.4s-34.589-.181-39.478,0-7.425-6.882-8.511-15.212a26.733,26.733,0,0,1,1.527-12.353" transform="translate(-1514.25 -897.785)" fill="#edbd77"/>
      <path id="Trazado_570064" data-name="Trazado 570064" d="M2063.175,1141.794s11.136-.847,18.2,8.117a11.812,11.812,0,0,1,.731,1.047,8.594,8.594,0,0,0-.955-2.567c1.448,1.207,1.954,4.5,1.954,4.5l0,0a18.348,18.348,0,0,1,1.253,4.856c.879,1.076,1.624,1.934,1.624,1.934l-1.569-1.437a27.92,27.92,0,0,1-.811,9.7,3.031,3.031,0,0,1,1.927.161,3.136,3.136,0,0,0-2.011.152,26.874,26.874,0,0,1-.959,2.879,38.163,38.163,0,0,1-1.237,4.522,20.71,20.71,0,0,0,.5-2.857c-1.982,4.035-4.911,6.886-8.322,6.915-9.235.079-20.611-1.34-23.072-13.4s2.7-24.217,12.75-24.52" transform="translate(-1623.737 -904.442)" fill="#ffcf83"/>
      <path id="Trazado_570065" data-name="Trazado 570065" d="M2200.72,1304.763a4.641,4.641,0,0,1-.169.506c-.014.033.054-.162.169-.506" transform="translate(-1743.139 -1033.553)" fill="#ffcf83"/>
      <path id="Trazado_570066" data-name="Trazado 570066" d="M2082.574,1195.828a15.925,15.925,0,0,0,8.274-2.045,12.331,12.331,0,0,0,5.522-8.342c1.4-6.46.71-11.76-2.038-15.753-2.569-3.733-6.908-6.164-12.546-7.03a9.88,9.88,0,0,0-9.529,3.557c-3.508,4.207-4.516,11.314-2.451,17.282,1.459,4.217,5.355,6.822,10.424,6.969q.217.006.433.006c5.1,0,9.706-2.609,11.286-6.445,1.611-3.91,1.528-7.734-.235-10.769-1.79-3.081-5.169-5.086-9.516-5.644-3.935-.507-6.058,1.326-7.146,2.952-2.1,3.137-2.093,8.231-.686,10.691,1.354,2.37,5.1,4.2,8.361,4.086a5.5,5.5,0,0,0,5.051-3.062,6.837,6.837,0,0,0-.21-6.89,5.124,5.124,0,0,0-4.307-2.439,2.9,2.9,0,0,0-2.681,2.863c-.1,1.109.281,2.343,1.192,2.556,1.694.4,2.3-.529,2.32-.569,0,0,.915-1.51-.224-1.727-1.3-.249-.961.763-.961.763-.018.028.322,1.4-1.03,1.08-.557-.13-.924-1.036-.834-2.062a2.426,2.426,0,0,1,2.242-2.438,4.642,4.642,0,0,1,3.9,2.233,6.384,6.384,0,0,1,.177,6.43,5.044,5.044,0,0,1-4.648,2.8c-3.1.106-6.662-1.616-7.94-3.851-1.184-2.072-1.5-6.955.669-10.2a6.525,6.525,0,0,1,6.7-2.749c4.2.539,7.458,2.463,9.173,5.416,1.688,2.906,1.762,6.585.207,10.358s-6.193,6.3-11.276,6.15c-4.867-.14-8.6-2.629-10-6.655-2.014-5.822-1.04-12.744,2.369-16.832a9.442,9.442,0,0,1,9.1-3.395c5.508.846,9.739,3.209,12.233,6.834,2.673,3.883,3.334,9.061,1.966,15.391a11.883,11.883,0,0,1-5.31,8.043c-5.519,3.378-14.224,1.333-14.3,1.313l.985.532a23.132,23.132,0,0,0,5.285.6" transform="translate(-1638.73 -920.874)" fill="#edbd77"/>
      <path id="Trazado_570067" data-name="Trazado 570067" d="M1533.374,876.627s16.235,62.642,14.778,67.592-9.609,21.774-9.609,21.774h7.845a5.915,5.915,0,0,0,3.042-5.436c-.13-3.882,10.872-19.026,10.872-19.026s-4.315-24.048,0-33.521c18.585-40.794-12.544-40.407-26.927-31.384" transform="translate(-1214.644 -690.494)" fill="#cca283"/>
      <path id="Trazado_570068" data-name="Trazado 570068" d="M1125.79,999.751s4.66,33.651,4.918,35.722,2.459,4.659,2.33,8.024-1.295,14.754-4.918,17.6a10.306,10.306,0,0,0-4.013,6.341h9.836s1.682-3.365,1.424-5.695,2.719-4.789,2.848-9.577,0-13.719,1.294-16.825.906-24.461,5.177-29.25-18.9-6.342-18.9-6.342" transform="translate(-890.448 -791.941)" fill="#cca283"/>
      <path id="Trazado_570069" data-name="Trazado 570069" d="M972.066,812.451a38.953,38.953,0,0,0,1.655-11.6c0-1.445-.053-2.889-.16-4.44,0,0,12.839-23.325,3.691-32.259,0,0-.053-1.123-3-2.033-2.675-.856-7.756-1.445-17.332-.909-.268,0-.535.054-.8.054-3.584.214-7.864.268-12.571.107-22.9-.641-55.314-4.816-60.664-4.012-.963.16-1.979.321-3.1.534a72.64,72.64,0,0,1-8.773,1.071c-2.622.161-8.934-2.835-14.23-1.177a92.693,92.693,0,0,0-17.065,10.7,127.628,127.628,0,0,0-20.864,20.756,139.029,139.029,0,0,0-12.892,18.831l0,.005h-.016c-1.438.151-3.124,1.344-4.841,1.566-2.331.3-2.776,1.45-2.776,1.45a3.937,3.937,0,0,0,1.535,1.828,2.3,2.3,0,0,1-.245.04c-2.332.3-2.777,1.451-2.777,1.451.957,2.269,3.337,2.683,5.054,2.687h.006s0,.008,0,.012c-.535,2.248-1.123,5.564-.107,7.115,1.6,2.408-.321,11.341-.16,14.337.214,3-1.07,5.242-1.017,5.992.053.695,2.033,3.583,4.44,3.477,2.407-.161,5.3-.429,6.74-3.423,1.5-3.05,2.353-4.923,3.8-5.189,1.391-.268,9.416-8.078,11.127-11.5.909-1.712,3.584-5.35,13.213-7.328a74.742,74.742,0,0,1,11.608-1.284c1.491,3.076,3.415,5.585,5.691,6.218,1.163,8.42,2.323,16.853,2.449,17.858.259,2.071,2.46,4.659,2.33,8.025s-1.295,14.755-4.918,17.6a10.311,10.311,0,0,0-4.012,6.342h9.837s1.683-3.365,1.424-5.695,2.717-4.788,2.847-9.577,0-13.719,1.294-16.826c.833-2,.97-11.556,2.1-19.392,5.21-1.062,10.361-1.987,13.111-.864,5.243,2.139,30.493,8.72,48.521,1.551a7.723,7.723,0,0,1,3.906.855,33.9,33.9,0,0,0,10.7,2.188c2.841,11.919,5.316,23.681,4.638,25.984-1.456,4.95-9.609,21.774-9.609,21.774h7.846a5.916,5.916,0,0,0,3.042-5.436c-.13-3.883,10.872-19.026,10.872-19.026s.692-21.353,5.3-31.987a21.879,21.879,0,0,0,2.076-3.633,4.975,4.975,0,0,0,1.088-2.82" transform="translate(-631.203 -599.853)" fill="#efcdaf"/>
      <path id="Trazado_570070" data-name="Trazado 570070" d="M1677.457,1137.22s5.708-6.144,2.16-7.532-2.16,2.777-2.16,4.4Z" transform="translate(-1328.565 -894.649)" fill="#2b478b"/>
      <path id="Trazado_570071" data-name="Trazado 570071" d="M1009.023,762.121c-6.633,3.263-13.962,6.26-18.3,6.367-9.468.16-32.471-5.3-41.833-5.885s-47.29,8.185-56.224,5.35a1.469,1.469,0,0,0-.7-.107c-1.979-.161-4.976,1.23-8.666,3.478-2.087,1.337-4.386,2.941-6.794,4.76-15.568,11.768-35.789,31.99-35.789,31.99a139.021,139.021,0,0,1,12.892-18.831,127.62,127.62,0,0,1,20.864-20.756,92.69,92.69,0,0,1,17.065-10.7c5.3-1.658,11.608,1.338,14.23,1.177a72.6,72.6,0,0,0,8.773-1.071c1.124-.213,2.14-.373,3.1-.534,5.349-.8,37.768,3.371,60.664,4.012,4.708.161,8.987.107,12.572-.107.267,0,.534-.054.8-.054,9.576-.535,14.657.054,17.332.909" transform="translate(-665.971 -599.854)" fill="#ffe7d7"/>
      <path id="Trazado_570072" data-name="Trazado 570072" d="M1190.694,823.817c-1.388-5.786-15.273-1.389-28.464,3.933s-18.976.695-29.547,3.7-10.4,17.651-10.734,18.513c-3.717,9.488,24.313,4.166,34.586,8.717s35.317,1.928,34.16-5.477,1.389-23.6,0-29.39" transform="translate(-888.471 -650.411)" fill="#2b478b"/>
      <path id="Trazado_570073" data-name="Trazado 570073" d="M1208.142,768.012c11.339-.463,14.579-6.48,28.233-3.935,11.224,2.092,19.166.745,23.306-2.631-22.871-.654-55.318-4.795-60.634-3.99-.967.146-2.014.324-3.115.507.308,2,2.206,10.455,12.21,10.048" transform="translate(-947.343 -599.929)" fill="#2b478b"/>
      <path id="Trazado_570074" data-name="Trazado 570074" d="M839.62,811.282a127.624,127.624,0,0,0-20.864,20.756,139.022,139.022,0,0,0-12.892,18.831c-1.445.16-3.157,1.337-4.868,1.551-2.3.321-2.782,1.445-2.782,1.445a4.193,4.193,0,0,0,1.552,1.872H799.5c-2.3.322-2.782,1.5-2.782,1.5.963,2.248,3.371,2.674,5.082,2.674-.535,2.248-1.124,5.564-.107,7.115,1.6,2.408-.321,11.34-.16,14.337.214,3-1.07,5.242-1.016,5.992.053.695,2.033,3.583,4.44,3.477,2.407-.161,5.3-.429,6.74-3.423,1.5-3.049,2.354-4.923,3.8-5.189,1.391-.268,9.416-8.078,11.128-11.5.909-1.712,3.584-5.35,13.213-7.328-1.391-8.881-7.115-20.436-1.07-30.065a26.619,26.619,0,0,0,1.766-3.477,24.166,24.166,0,0,0,.909-3.21,23.737,23.737,0,0,0,.214-7.757,32,32,0,0,0-2.033-7.6" transform="translate(-631.109 -642.648)" fill="#2b478b"/>
      <path id="Trazado_570075" data-name="Trazado 570075" d="M1529.6,794.686a26.549,26.549,0,0,0-8-16.257s-.19-4.156-20.337-2.962c-2.434,2.425-4.346,5.676-3.86,9.733,1.19,9.949-15.037,11.654-13.255,23.727,1.548,10.481,22.151,14.878,33.9,6.165.01-1.407-.032-2.883-.134-4.436a73.369,73.369,0,0,0,4.191-9.5l2.776,49.55,2.641.147s3.24-45.753,2.083-56.167" transform="translate(-1175.535 -614.107)" fill="#2b478b"/>
      <path id="Trazado_570076" data-name="Trazado 570076" d="M669.886,1212.364h-65.13L600.6,1182.7H670.81a2.812,2.812,0,0,1,2.785,3.2Z" transform="translate(-475.757 -936.865)" fill="#e29952"/>
      <path id="Trazado_570077" data-name="Trazado 570077" d="M630.491,1212.364h-65.13l-3.708-26.459a2.812,2.812,0,0,1,2.785-3.2h66.978a2.812,2.812,0,0,1,2.785,3.2Z" transform="translate(-444.884 -936.865)" fill="#c18e4c"/>
      <path id="Trazado_570078" data-name="Trazado 570078" d="M1917.414,1083.18l-.146-60.724a2.857,2.857,0,0,0-2.861-2.835l-7.334.044a2.855,2.855,0,0,0-2.835,2.861l.145,60.654Z" transform="translate(-1508.42 -807.681)" fill="#c18e4c"/>
      <path id="Trazado_570079" data-name="Trazado 570079" d="M437.415,1083.18l-.146-60.724a2.857,2.857,0,0,0-2.861-2.835l-7.334.044a2.856,2.856,0,0,0-2.835,2.861l.145,60.654Z" transform="translate(-336.056 -807.681)" fill="#c18e4c"/>
      <path id="Trazado_570080" data-name="Trazado 570080" d="M404.824,1077.818l324.348-.552a2.857,2.857,0,0,0,2.836-2.861l-.044-7.333a2.858,2.858,0,0,0-2.86-2.837l-324.35.552a2.857,2.857,0,0,0-2.836,2.861l.044,7.333a2.856,2.856,0,0,0,2.861,2.836" transform="translate(-318.375 -843.022)" fill="#ffcf83"/>
      <path id="Trazado_570081" data-name="Trazado 570081" d="M404.824,1217.818l324.348-.552a2.857,2.857,0,0,0,2.836-2.861l-.044-7.333a2.858,2.858,0,0,0-2.86-2.837l-324.35.552a2.857,2.857,0,0,0-2.836,2.861l.044,7.334a2.856,2.856,0,0,0,2.861,2.836" transform="translate(-318.375 -953.921)" fill="#ffcf83"/>
      <path id="Trazado_570082" data-name="Trazado 570082" d="M452.037,1076.088a1.386,1.386,0,1,1-1.386-1.386,1.386,1.386,0,0,1,1.386,1.386" transform="translate(-355.88 -851.313)" fill="#c18e4c"/>
      <path id="Trazado_570083" data-name="Trazado 570083" d="M452.037,1106.088a1.386,1.386,0,1,1-1.386-1.386,1.386,1.386,0,0,1,1.386,1.386" transform="translate(-355.88 -875.077)" fill="#c18e4c"/>
      <path id="Trazado_570084" data-name="Trazado 570084" d="M452.037,1215.088a1.386,1.386,0,1,1-1.386-1.386,1.386,1.386,0,0,1,1.386,1.386" transform="translate(-355.88 -961.42)" fill="#c18e4c"/>
      <path id="Trazado_570085" data-name="Trazado 570085" d="M452.037,1245.088a1.386,1.386,0,1,1-1.386-1.386,1.386,1.386,0,0,1,1.386,1.386" transform="translate(-355.88 -985.184)" fill="#c18e4c"/>
      <path id="Trazado_570086" data-name="Trazado 570086" d="M1931.037,1076.088a1.386,1.386,0,1,1-1.386-1.386,1.386,1.386,0,0,1,1.386,1.386" transform="translate(-1527.452 -851.313)" fill="#c18e4c"/>
      <path id="Trazado_570087" data-name="Trazado 570087" d="M1931.037,1106.088a1.386,1.386,0,1,1-1.386-1.386,1.386,1.386,0,0,1,1.386,1.386" transform="translate(-1527.452 -875.077)" fill="#c18e4c"/>
      <path id="Trazado_570088" data-name="Trazado 570088" d="M1931.037,1215.088a1.386,1.386,0,1,1-1.386-1.386,1.386,1.386,0,0,1,1.386,1.386" transform="translate(-1527.452 -961.42)" fill="#c18e4c"/>
      <path id="Trazado_570089" data-name="Trazado 570089" d="M1931.037,1245.088a1.386,1.386,0,1,1-1.386-1.386,1.386,1.386,0,0,1,1.386,1.386" transform="translate(-1527.452 -985.184)" fill="#c18e4c"/>
      <path id="Trazado_570090" data-name="Trazado 570090" d="M559.5,1320.5H.622a.623.623,0,0,1-.622-.621v-.182a.623.623,0,0,1,.622-.622H559.5a.623.623,0,0,1,.621.622v.182a.623.623,0,0,1-.621.621" transform="translate(0 -1044.892)" fill="#2e3552"/>
      <path id="Trazado_570091" data-name="Trazado 570091" d="M225.138,1255.371s-2.648,2.455-2.131,4.2,2.906,2.906,3.229,5.038,1.614,3.294,2.777,3.294h5.542s.856-1.5-1.211-1.952-2.846-2.957-2.717-5.282a41.6,41.6,0,0,0-.194-5.425l-4.392-1.033Z" transform="translate(-176.599 -993.507)" fill="#2c3a64"/>
      <path id="Trazado_570092" data-name="Trazado 570092" d="M389.636,1288.641a8.214,8.214,0,0,0,2.045.266h12.992c-.051-.4-.375-1.683-2.379-2.009-2.391-.389-6.588-1.81-7.3-4.973s-5.878.969-5.878.969-.645,5.165.518,5.747" transform="translate(-308.094 -1014.517)" fill="#2c3a64"/>
      <path id="Trazado_570093" data-name="Trazado 570093" d="M366.674,906.393s-.785,9.791-1.707,21.559c-1.254,15.987-2.761,35.624-2.91,39.344-.258,6.46-1.292,16.793-1.292,16.793s-2.453,2.455-7.363,1.42a169.044,169.044,0,0,1-5.625-30.357c-.02-.255-.039-.513-.058-.771-1.162-15.888-2.97-49.343-2.97-49.343Z" transform="translate(-273.089 -716.915)" fill="#35488b"/>
      <path id="Trazado_570094" data-name="Trazado 570094" d="M366.674,906.393s-.785,9.791-1.707,21.559l-17.19,27.2c-.02-.255-.039-.513-.058-.771-1.162-15.888-2.97-49.343-2.97-49.343Z" transform="translate(-273.089 -716.915)" fill="#2c3a64"/>
      <path id="Trazado_570095" data-name="Trazado 570095" d="M274.977,892.788s-14.144,35.457-23.444,52.12-12.207,21.313-12.207,21.313-5.328-2.131-5.813-3.584c0,0,3.557-32.169,9.785-40.01,3.519-4.431,7.653-17.729,7.847-22.379s1.259-13.854,1.259-13.854Z" transform="translate(-184.974 -702.147)" fill="#35488b"/>
      <path id="Trazado_570096" data-name="Trazado 570096" d="M555.365,893.547a59.652,59.652,0,0,1,5.663,3.01,13,13,0,0,1,2.2,3.861c-.127.227-.376.3-.828-.015s-1.722-1.62-1.768-1.378,3.388,4.285,2.781,5.14-4.051.6-6.018-.8-3.929-6.539-4.225-6.82c-2.508-2.38,2.193-3,2.193-3" transform="translate(-437.605 -707.813)" fill="#ffb27d"/>
      <path id="Trazado_570097" data-name="Trazado 570097" d="M452.884,724.886c1.386-1.206,1.422-1.511,1.422-1.511s-8.851-15.3-9.618-16.776-5.51-24.457-5.51-24.457l-16.4-4.754s11.55,29.868,13.568,33.559c3.334,6.1,14.216,15.077,14.216,15.077a5.119,5.119,0,0,0,2.321-1.138" transform="translate(-334.9 -536.586)" fill="#e58638"/>
      <path id="Trazado_570098" data-name="Trazado 570098" d="M462.966,619.44s5.771,10.154,11.412,11.479a15.414,15.414,0,0,0-1.608-5.744c.562-.664,1.056-1.273,1.484-1.818a34.11,34.11,0,0,0,2.1-2.933l-1.915-5.147-1.3-3.492a16.8,16.8,0,0,1-2.03,2.925,13.808,13.808,0,0,1-8.139,4.73" transform="translate(-366.733 -484.619)" fill="#ffb27d"/>
      <path id="Trazado_570099" data-name="Trazado 570099" d="M501.941,625.852a10.711,10.711,0,0,0,3.148,8.647,34.084,34.084,0,0,0,2.1-2.933l-1.915-5.147a10.937,10.937,0,0,0-3.328-.567" transform="translate(-397.568 -495.76)" fill="#ed975d"/>
      <path id="Trazado_570100" data-name="Trazado 570100" d="M508.754,593.576s-8.623-3.362-6.447-8.7,2.529-9.366,8.126-7.445,5.829,4.391,5.537,6.349-4.917,10.532-7.216,9.8" transform="translate(-397.618 -457.021)" fill="#ffb27d"/>
      <path id="Trazado_570101" data-name="Trazado 570101" d="M317.712,695.322c3.477,5,29.485,11.681,29.174,8.222a37.7,37.7,0,0,1,0-6.827q.1-1.113.276-2.358A54.443,54.443,0,0,1,352.9,677.19q.394-.761.819-1.537a52.479,52.479,0,0,0,3.6-8.1c1.8-5.207,2.531-10.19,1.619-13.446a.179.179,0,0,0-.014-.045c-5.435-2.514-7.541-12.262-7.541-12.262s-18.546,3.329-28.936,28.049c0,0-1,2.714-2.137,6.4-1.385,4.469-2.98,10.359-3.256,14.561-.135,2,.031,3.612.656,4.513" transform="translate(-251.118 -508.395)" fill="#ee9849"/>
      <path id="Trazado_570102" data-name="Trazado 570102" d="M493.211,559.729c-.06-.12-.236-.247-.664-.378a1.793,1.793,0,0,1,.868-.032,2.281,2.281,0,0,1,1.934-1.6,1.359,1.359,0,0,0-.866.8c1.513-.958,4.316-1.237,11.315,1.095,9.223,3.072,4.615,8.427,3.217,8.856s-3.972-2.326-6.286-2.7-3.567,2.848-4.449,3.115-.381-.466-1.3-1.2-1.455.994-1.435,2.208-1.8,2.428-1.8,2.428a17.174,17.174,0,0,0-1.038-2c-1.057-1.939-.77-8.975.24-10.242l.269-.339" transform="translate(-389.759 -441.788)" fill="#2b478b"/>
      <path id="Trazado_570103" data-name="Trazado 570103" d="M491.991,542.561s1.069-8.579,7.274-8.1,8.839,3.68,9.243,8.443Z" transform="translate(-389.725 -423.351)" fill="#edbd77"/>
      <path id="Trazado_570104" data-name="Trazado 570104" d="M468,565.749c.228-.048.463-.1.7-.142.09-.017.18-.035.27-.048a37.615,37.615,0,0,1,7.621-.49,39.679,39.679,0,0,1,5.6.563c.293.052.58.1.86.162.387.08.763.162,1.126.252,4.368,1.067,7.265,2.859,7.2,4.8-.062,2.054-2.945,3.726-7.769,4.458a6.69,6.69,0,0,0,.3-1.088,5.062,5.062,0,0,0,1.792-2.683c.024-.687-.535-1.343-1.509-1.909a18.12,18.12,0,0,0-7.911-1.775c-3.574-.114-6.709.487-8.373,1.468,0,0-.076,3.239-.034,3.974.034.442.083.863.145,1.247-4.009-1.081-6.619-2.794-6.561-4.641.059-1.8,2.641-3.311,6.543-4.15" transform="translate(-365.54 -447.595)" fill="#ffcf83"/>
      <path id="Trazado_570105" data-name="Trazado 570105" d="M317.223,750.17c22.379-6.75,25.939-33.432,25.939-33.432s-12.742,9.737-22.683,18.871c-1.385,4.468-2.98,10.359-3.256,14.561" transform="translate(-251.284 -567.756)" fill="#e58638"/>
      <path id="Trazado_570106" data-name="Trazado 570106" d="M193.587,939.533l2.247-20.939,3.238.348A10.122,10.122,0,0,1,219.16,921.1l3.237.348-2.248,20.938a4.229,4.229,0,0,1-4.643,3.743l-18.177-1.951a4.229,4.229,0,0,1-3.743-4.643M210.042,911.4a9.33,9.33,0,0,0-10.168,7.63l18.484,1.984a9.331,9.331,0,0,0-8.316-9.614" transform="translate(-153.328 -721.273)" fill="#c65447"/>
      <path id="Trazado_570107" data-name="Trazado 570107" d="M266.559,876.835a45.966,45.966,0,0,1,.383,4.925,8.822,8.822,0,0,1-1.129,2.757c-.2.011-.809.036-.793-.387s.291-.819.114-.749-.228,1.668-1.035,1.627-3.183-.937-3.086-2.793,2.627-5.256,2.687-5.564c.512-2.613,2.858.185,2.858.185" transform="translate(-206.756 -693.545)" fill="#ffb27d"/>
      <path id="Trazado_570108" data-name="Trazado 570108" d="M272.886,712.723c1.775.814,2.435-.016,2.435-.016s10.342-17.27,11.431-18.658,20.181-9.582,20.181-9.582,7.77-2.97,8.077-7.683c.267-4.1-2.058-6.612-4.6-8.13a8.6,8.6,0,0,0-9.664.624c-6.262,4.864-18.677,14.647-20.675,17.3-4.447,5.9-9.376,24.412-9.376,24.412a6.15,6.15,0,0,0,2.2,1.732" transform="translate(-214.424 -528.719)" fill="#ee9849"/>
      <path id="Trazado_570109" data-name="Trazado 570109" d="M596.849,998.025s9.094-4.181,17.824-2.246c0,0-10.6-4.717-17.824,2.246" transform="translate(-472.787 -787.558)" fill="#82b378"/>
      <path id="Trazado_570110" data-name="Trazado 570110" d="M591.951,1020.652s9.943,1.152,16.4,7.34c0,0-6.607-9.538-16.4-7.34" transform="translate(-468.907 -808.238)" fill="#82b378"/>
      <path id="Trazado_570111" data-name="Trazado 570111" d="M589.254,970.011s9.943,1.152,16.4,7.34c0,0-6.608-9.537-16.4-7.34" transform="translate(-466.77 -768.123)" fill="#82b378"/>
      <path id="Trazado_570112" data-name="Trazado 570112" d="M660.368,1018.8s3.754-3.629,8.385-4.185c0,0-6.033-.49-8.385,4.185" transform="translate(-523.102 -803.707)" fill="#82b378"/>
      <path id="Trazado_570113" data-name="Trazado 570113" d="M647.969,1149.514s3.754-3.629,8.385-4.186c0,0-6.033-.49-8.385,4.186" transform="translate(-513.281 -907.247)" fill="#82b378"/>
      <path id="Trazado_570114" data-name="Trazado 570114" d="M549.368,939.931s3.754-3.629,8.385-4.186c0,0-6.033-.49-8.385,4.186" transform="translate(-435.175 -741.228)" fill="#82b378"/>
      <path id="Trazado_570115" data-name="Trazado 570115" d="M567.235,1039.367s5.2.435,8.672,3.553c0,0-3.6-4.863-8.672-3.553" transform="translate(-449.328 -823.146)" fill="#82b378"/>
      <path id="Trazado_570116" data-name="Trazado 570116" d="M567.7,983.613a9.014,9.014,0,0,1,4.677,1.917s-1.944-2.623-4.677-1.917" transform="translate(-449.699 -779.062)" fill="#82b378"/>
      <path id="Trazado_570117" data-name="Trazado 570117" d="M625.692,953.611a9.014,9.014,0,0,1,4.677,1.917s-1.944-2.622-4.677-1.917" transform="translate(-495.634 -755.297)" fill="#82b378"/>
      <path id="Trazado_570118" data-name="Trazado 570118" d="M632.817,1049.243a9.012,9.012,0,0,1,4.086-2.976s-3.252.279-4.086,2.976" transform="translate(-501.278 -828.789)" fill="#82b378"/>
      <path id="Trazado_570119" data-name="Trazado 570119" d="M708.817,1160.578a9.015,9.015,0,0,1,4.322,2.621s-1.512-2.893-4.322-2.621" transform="translate(-561.481 -919.324)" fill="#82b378"/>
      <path id="Trazado_570120" data-name="Trazado 570120" d="M692.44,1050.889a9.014,9.014,0,0,1,4.322,2.621s-1.512-2.893-4.322-2.621" transform="translate(-548.508 -832.436)" fill="#82b378"/>
      <path id="Trazado_570121" data-name="Trazado 570121" d="M628.216,1141.359s5.2.435,8.672,3.553c0,0-3.6-4.863-8.672-3.553" transform="translate(-497.634 -903.937)" fill="#82b378"/>
      <path id="Trazado_570122" data-name="Trazado 570122" d="M693.8,1151.236a9.012,9.012,0,0,1,4.086-2.976s-3.252.279-4.086,2.976" transform="translate(-549.584 -909.581)" fill="#82b378"/>
      <path id="Trazado_570123" data-name="Trazado 570123" d="M1717.364,123.919a11.883,11.883,0,1,1-11.883-11.883,11.883,11.883,0,0,1,11.883,11.883" transform="translate(-1341.563 -88.749)" fill="#f8fbff"/>
    </g>
  </g>
</svg>
