<svg xmlns="http://www.w3.org/2000/svg" xmlns:xlink="http://www.w3.org/1999/xlink" width="609" height="354" viewBox="0 0 609 354">
  <defs>
    <clipPath id="clip-path">
      <rect id="Rectángulo_281764" data-name="Rectángulo 281764" width="388.985" height="249.189" fill="none"/>
    </clipPath>
    <clipPath id="clip-path-2">
      <path id="Trazado_570275" data-name="Trazado 570275" d="M561.287,238.993s-1.377,2.115-3.81,5.19c0,0-14.045-7.011-33.188-2.177-22.475,5.675-29.393,17.223-30.4,16.564a50.28,50.28,0,0,1-6.6-5.064l35.982-33.6Z" transform="translate(-487.29 -219.911)" fill="none"/>
    </clipPath>
    <linearGradient id="linear-gradient" x1="-5.573" y1="-0.778" x2="-5.562" y2="-0.778" gradientUnits="objectBoundingBox">
      <stop offset="0" stop-color="#b89391"/>
      <stop offset="1" stop-color="#f9c3c0"/>
    </linearGradient>
    <clipPath id="clip-path-4">
      <path id="Trazado_570278" data-name="Trazado 570278" d="M230.978,199.581a285.393,285.393,0,0,0,29.761,7.128c31.737,5.693,89.186,23.282,130.845,9.323,39.36-13.189,33.268,10.555,29.411,12.681-10.782,5.941-16.062,10.562-34.325,9.242s-34.985-5.721-48.187-5.282-51.487,4.181-70.19.66c-8.6-1.618-28.837-11.8-48.23-22.883-15.616-8.924-19.459-15.055-10.2-15.055,4.243,0,11.239,1.288,21.117,4.186" transform="translate(-204.896 -195.395)" fill="none"/>
    </clipPath>
    <linearGradient id="linear-gradient-2" x1="-0.481" y1="-1.894" x2="-0.478" y2="-1.894" gradientUnits="objectBoundingBox">
      <stop offset="0" stop-color="#efe3d8"/>
      <stop offset="1" stop-color="#b0a8ad"/>
    </linearGradient>
    <clipPath id="clip-path-5">
      <path id="Trazado_570279" data-name="Trazado 570279" d="M100.425,131.5c3.854,2.629,7.569,5.258,10.819,3.9,17.471-7.281,51.528,5.15,51.528,5.15s-3.52,4.951-8.251,4.841-16.563-5.28-20.414-4.841-7.806,0-21.338,0S88.731,152.547,83.561,158.6,68.269,173.12,65.188,181.26s-4.621,12.762-15.4,18.7-16.062,10.562-34.325,9.242c-9.025-.653,42.391-39.121,48.753-48.5,6.264-9.234,14.37-28.81,24.2-32.968a6.389,6.389,0,0,1,2.516-.506c3.142,0,6.365,2.135,9.5,4.271" transform="translate(-14.401 -127.23)" fill="none"/>
    </clipPath>
    <linearGradient id="linear-gradient-3" x1="0.005" y1="-0.539" x2="0.008" y2="-0.539" xlink:href="#linear-gradient-2"/>
    <clipPath id="clip-path-7">
      <path id="Trazado_570286" data-name="Trazado 570286" d="M243.289,90.6c5.814,11.068,17.9,34.032,16.429,47.234s-18.483,38.138-18.483,38.138-6.454,30.365-8.654,34.179-2.934,3.667-3.52,7.041-2.348,26.748-2.347,29.044a18.267,18.267,0,0,0,1.432,7.879c.711,1.68,3.183,5.442,3.183,6.176s-11.622,8.211-12.649,7.478-1.263-2.262-1.263-4.17a19.274,19.274,0,0,0-.312-5.378c-.587-4.253-4.358-5.364-4.651-9.911s4.14-28.917,4.433-31.411-1.027-8.508-1.027-11.441-2.493-33.885-2.493-33.885-8.655-15.109-9.535-18.336-3.227-34.618-3.227-43.273-5.408-37.115,8.507-48.113a5.722,5.722,0,0,1,3.648-1.237c9.957,0,25.953,21.275,30.531,29.988" transform="translate(-199.568 -60.614)" fill="none"/>
    </clipPath>
    <linearGradient id="linear-gradient-4" x1="-0.198" y1="-0.964" x2="-0.195" y2="-0.964" gradientUnits="objectBoundingBox">
      <stop offset="0" stop-color="#fff3eb"/>
      <stop offset="1" stop-color="#efe3d8"/>
    </linearGradient>
    <clipPath id="clip-path-8">
      <path id="Trazado_570287" data-name="Trazado 570287" d="M576.981,50.92c1.32,3.3,4.841,36.305,9.241,53.468s-10.561,36.3-17.822,41.145-33,25.744-37.185,31.025-8.582,10.341-11,18.483-2.42,42.026-2.64,46.647-.146,8.654,1.467,11.148,3.454,2.858,2.574,4.031-11.523,9.249-12.843,7.928-1.07-3.59-1.364-5.937-3.025-6.695-3.611-10.362.428-30.865.428-40.693-3.814-25.817-3.081-29.484,2.347-5.281,5.868-11.441,8.8-18.776,9.094-20.976-10.561-32.272-9.094-55.008,11.5-30.136,16.136-31.978c11.481-4.564,34.691-9.975,41.733-13.276a9.957,9.957,0,0,1,4.226-1.045c4.363,0,6.85,3.761,7.876,6.326" transform="translate(-501.049 -44.594)" fill="none"/>
    </clipPath>
    <linearGradient id="linear-gradient-5" x1="-2.378" y1="0.011" x2="-2.373" y2="0.011" xlink:href="#linear-gradient-4"/>
  </defs>
  <g id="Grupo_848045" data-name="Grupo 848045" transform="translate(-181 -1364)">
    <rect id="Rectángulo_281773" data-name="Rectángulo 281773" width="609" height="354" transform="translate(181 1364)" fill="#fff"/>
    <g id="Grupo_847884" data-name="Grupo 847884" transform="translate(353.008 1450.421)">
      <g id="Grupo_847867" data-name="Grupo 847867" transform="translate(0 0)">
        <g id="Grupo_847866" data-name="Grupo 847866" clip-path="url(#clip-path)">
          <path id="Trazado_570269" data-name="Trazado 570269" d="M245.3,405.94s5.211,4.759,7.906,6.74,1.375,3.246-1.32,3.63-13.984,1.224-16.5-.738-2.739-2.155-2.739-2.155Z" transform="translate(-0.223 -171.213)" fill="#665451"/>
          <path id="Trazado_570270" data-name="Trazado 570270" d="M311.633,397.581s6.06,6.38,8.755,8.36,1.3,2.649-1.4,3.035-14.033,1.113-16.545-.849-2.878-2.792-2.878-2.792Z" transform="translate(-106.073 -167.687)" fill="#51413f"/>
          <path id="Trazado_570271" data-name="Trazado 570271" d="M503.819,402.72s6.392,6.727,9.087,8.707.866,2.568-1.829,2.953-15.425,1.019-17.938-.943-2.448-2.71-2.448-2.71Z" transform="translate(-408.978 -169.855)" fill="#51413f"/>
          <path id="Trazado_570272" data-name="Trazado 570272" d="M610.289,411.306a109.876,109.876,0,0,0,8.418,7.809c2.7,1.98.464,2.416-2.231,2.8s-14.5,1.637-17.011-.325-2.047-2.558-2.047-2.558Z" transform="translate(-576.367 -173.476)" fill="#665451"/>
          <path id="Trazado_570273" data-name="Trazado 570273" d="M551.93,186.439c-5.083,7.093-21.785,35.742-23.831,42.159s-4.375,12.705-3.765,21.177S535.864,289.8,537.29,294.2c.889,2.745.872,4.99,2.053,8.361.713,2.034,7.114,8.366,7.047,8.8-.222,1.45-11.831,8.353-13.533,7.585s-1.835-7.293-2.939-9.385c-.294-.558-3.864-4.741-4.3-5.495-1.844-3.224-9.45-26.385-12.921-35.579s-14.189-24.14-14.8-27.83,3.014-5.567,4.131-12.574,1.6-20.675,1.1-22.837,53.877-25.906,48.794-18.813" transform="translate(-451.144 -78.078)" fill="#b0a8ad"/>
          <path id="Trazado_570274" data-name="Trazado 570274" d="M487.29,253.507l35.982-33.6,38.016,19.082a93.329,93.329,0,0,1-14.77,16.863c2.2,6.686,2.7,12.437,1.082,12.989-1.439.493-4.079-3.3-6.306-8.817-1.06.756-2.15,1.476-3.265,2.15.377.925.744,1.894,1.091,2.907,2.381,6.956,2.959,13.057,1.292,13.628s-4.948-4.606-7.33-11.562c-.246-.719-.468-1.425-.675-2.121a28.847,28.847,0,0,1-8.956,2.193,40.354,40.354,0,0,1-9.016-.407c-.05.139-.1.275-.149.415-2.564,6.89-4.8,11.276-6.453,10.661-1.622-.6-1.316-5.167.342-12.523-1.46-.445-2.863-.947-4.205-1.489-2.188,4.585-6.829,13.721-8.713,12.779-2.712-1.357.8-11.2,2.26-16.33a51.5,51.5,0,0,1-10.227-6.821" transform="translate(-454.068 -92.752)" fill="#f9c3c0"/>
        </g>
      </g>
      <g id="Grupo_847869" data-name="Grupo 847869" transform="translate(33.222 127.159)">
        <g id="Grupo_847868" data-name="Grupo 847868" clip-path="url(#clip-path-2)">
          <rect id="Rectángulo_281765" data-name="Rectángulo 281765" width="52.489" height="80.055" transform="translate(2.599 52.94) rotate(-100.802)" fill="url(#linear-gradient)"/>
        </g>
      </g>
      <g id="Grupo_847871" data-name="Grupo 847871" transform="translate(0 0)">
        <g id="Grupo_847870" data-name="Grupo 847870" clip-path="url(#clip-path)">
          <path id="Trazado_570276" data-name="Trazado 570276" d="M319.254,249.857S310.307,279.582,307.8,283.2s-3.228,3.412-4.092,6.725-4.242,26.51-4.744,28.75a40.407,40.407,0,0,0-.691,8.86c.09,2.622,2.76,4.7,2.7,5.432s-11.6,8.055-12.561,7.239-1.214-5.656-.783-8.291c.308-1.882-2.964-9.423-2.88-13.979s6.353-26.85,6.852-29.311-.319-8.564-.076-11.487.321-33.975.321-33.975Z" transform="translate(-94.918 -102.559)" fill="#b0a8ad"/>
          <path id="Trazado_570277" data-name="Trazado 570277" d="M26.426,25.14a186.507,186.507,0,0,1,22.99.467c8.547.578,27.131-2.42,34.216-1.839,13.422,1.1,71.6,10.85,98.008,8.869S207.383,28.9,214.864,28.9s40.266,9.022,40.266,9.022,38.726,9.681,50.167,4.4S317.4,28.676,327.96,28.9s8.031-.11,11.222,1.21,4.29,5.5,6.821,6.931,7.151,2.42,9.792,5.72,9.131,18.593,15.072,23.1,6.271,6.491,8.691,7.591,8.141,5.391,9.022,7.921.44,9.9-2.42,12.322a16.777,16.777,0,0,1-5.5,3.191s-3.52,4.951-8.251,4.84-16.563-5.28-20.413-4.84-7.806,0-21.337,0-24.039,11.991-29.209,18.043-15.292,14.522-18.373,22.663-4.621,12.762-15.4,18.7-16.062,10.561-34.325,9.241-34.985-5.721-48.187-5.281-51.487,4.181-70.19.66-92.413-47.527-92.853-53.248-6.957-45.376-3-57.7c1.438-4.473,3.18-10.118,4.96-13.585C1.762,44.706,7.048,167.956,7.048,167.956A24.782,24.782,0,0,1,1.762,153.7C1.321,144.9-9.118,27.2,26.426,25.14" transform="translate(0 -9.993)" fill="#efe3d8"/>
        </g>
      </g>
      <g id="Grupo_847873" data-name="Grupo 847873" transform="translate(51.572 112.983)">
        <g id="Grupo_847872" data-name="Grupo 847872" clip-path="url(#clip-path-4)">
          <rect id="Rectángulo_281767" data-name="Rectángulo 281767" width="231.038" height="47.712" transform="translate(225.984 47.718) rotate(-179.045)" fill="url(#linear-gradient-2)"/>
        </g>
      </g>
      <g id="Grupo_847875" data-name="Grupo 847875" transform="translate(232.287 73.568)">
        <g id="Grupo_847874" data-name="Grupo 847874" clip-path="url(#clip-path-5)">
          <rect id="Rectángulo_281768" data-name="Rectángulo 281768" width="174.758" height="128.893" transform="translate(132.401 130.641) rotate(-161.361)" fill="url(#linear-gradient-3)"/>
        </g>
      </g>
      <g id="Grupo_847877" data-name="Grupo 847877" transform="translate(0 0)">
        <g id="Grupo_847876" data-name="Grupo 847876" clip-path="url(#clip-path)">
          <path id="Trazado_570280" data-name="Trazado 570280" d="M52.741,39.48a24.424,24.424,0,0,0,5.5-6.547c2.751-4.511,6.271-6.821,7.811-5.611s.55,9.574,0,12.158-2.861,7.755-3.741,7.865-9.571-7.865-9.571-7.865" transform="translate(291.611 -11.389)" fill="#231f1d"/>
          <path id="Trazado_570281" data-name="Trazado 570281" d="M67.54,23.906c10.641-7.334,7.166-20.525,8.969-20.733S80.3,16.912,78.626,22.125s-4.15,7.745-6.669,7.672c-6.741-.2-11.629-.919-4.417-5.89" transform="translate(272.737 -1.337)" fill="#b7aa9e"/>
          <path id="Trazado_570282" data-name="Trazado 570282" d="M.012,44.209C8.218,39.041,9.8,32.494,19.161,32.69c10.561.22,8.031-.11,11.222,1.21s4.29,5.5,6.821,6.931,7.151,2.42,9.791,5.721,9.131,18.592,15.072,23.1,6.271,6.491,8.691,7.591,8.141,5.391,9.021,7.921.441,9.9-2.42,12.322a16.776,16.776,0,0,1-5.5,3.191S-1.041,44.871.012,44.209" transform="translate(308.799 -13.786)" fill="#efe3d8"/>
          <path id="Trazado_570283" data-name="Trazado 570283" d="M55.842,52.694A30.605,30.605,0,0,0,62.405,48.6c1.01-.818,6.2,6,15,2.774,8.754-3.21,18.576,2.664,18.336,6.307-.286,4.353,7.174,9.769,16.979,18.116,8.141,6.931,13.5,15.845,19.693,16.356,1.631.135,6.126-2.085,6.711-.4.88,2.53.44,9.9-2.42,12.322a16.767,16.767,0,0,1-5.5,3.19,14.942,14.942,0,0,1-7.921,1.98c-4.731-.11-18.909-7.407-22.774-7.7-3.981-.3-10.892,3.359-21.453,2.53-10.8-.848-15.693-13.294-26.183-.33C43.147,115.759,32.353,127.376,28.7,114.72,26.661,107.631,9.2,93.714,15.649,81.592c2.485-4.669,26.669,1.677,13.055-15.339-5.28-6.6-16.6.136-19.1-1.24C-4.689,57.123-.4,49.36,5.674,48.294c0,0,38.726,9.681,50.167,4.4" transform="translate(249.455 -20.369)" fill="#302b28"/>
          <path id="Trazado_570284" data-name="Trazado 570284" d="M7.911,128.132s8.1,1.717,6.784,4.8-3.08,6.087-6.821.293.036-5.091.036-5.091" transform="translate(370.547 -54.031)"/>
          <path id="Trazado_570285" data-name="Trazado 570285" d="M7.275,122.169c2.64-.317,3.777-2.2,4.657.33s.441,9.9-2.42,12.322a16.776,16.776,0,0,1-5.5,3.191S-.166,128.843.381,128.33c1.383-1.3,3.667,6.747,6.675,3.594,2.448-2.568-1.57-4.2-2.861-4.621-1.162-.383-4.237-.992-4.194-1.614.253-3.706,5.441-3.3,7.275-3.52" transform="translate(376.646 -51.117)" fill="#231f1d"/>
        </g>
      </g>
      <g id="Grupo_847879" data-name="Grupo 847879" transform="translate(213.316 35.049)">
        <g id="Grupo_847878" data-name="Grupo 847878" clip-path="url(#clip-path-7)">
          <rect id="Rectángulo_281770" data-name="Rectángulo 281770" width="210.647" height="75.268" transform="matrix(-0.045, -0.999, 0.999, -0.045, -4.24, 210.853)" fill="url(#linear-gradient-4)"/>
        </g>
      </g>
      <g id="Grupo_847881" data-name="Grupo 847881" transform="translate(13.295 25.786)">
        <g id="Grupo_847880" data-name="Grupo 847880" clip-path="url(#clip-path-8)">
          <rect id="Rectángulo_281771" data-name="Rectángulo 281771" width="115.091" height="230.427" transform="translate(88.38 231.828) rotate(-173.396)" fill="url(#linear-gradient-5)"/>
        </g>
      </g>
      <g id="Grupo_847883" data-name="Grupo 847883" transform="translate(0 0)">
        <g id="Grupo_847882" data-name="Grupo 847882" clip-path="url(#clip-path)">
          <path id="Trazado_570288" data-name="Trazado 570288" d="M582.528,69.265c3.632-1.444,3,9.445.548,24.812-1.9,11.936,28.367,2.892,25.416,16.554-1.541,7.128-16.545,42.919-17.9,48.993-3.265,14.682-25.295,19.511-24.2,17.6,3.52-6.161,8.8-18.776,9.094-20.976s-10.561-32.271-9.094-55.008,11.5-30.136,16.136-31.978" transform="translate(-547.136 -29.16)" fill="#302b28"/>
          <path id="Trazado_570289" data-name="Trazado 570289" d="M85.661,82.922c1.124.5-3.07-5.648-4.041-5.78-2.842-.387-7.045,3.661-7.106,4.1s1.584,1.684,5.726,1.684,4.447-.435,5.421,0" transform="translate(260.048 -32.525)" fill="#191615"/>
          <path id="Trazado_570290" data-name="Trazado 570290" d="M78.91,82.6c0,1.7,1.7,2.356,3.557,2.356s3.935-.681,3.935-2.377-.77-2.914-2.622-2.914-4.87,1.239-4.87,2.935" transform="translate(256.955 -33.602)"/>
          <path id="Trazado_570291" data-name="Trazado 570291" d="M417.514,60.243c4.388,2.915,11.75,13.872,9.681,18.717-3.416,8-24.644,11.619-15.842,30.982s0,39.824-12.028,39.824-13.5-31.519-25.524-49.551-41.452-35.746-35.291-42.2,58.308-11.521,79,2.229" transform="translate(-233.821 -21.728)" fill="#302b28"/>
          <path id="Trazado_570292" data-name="Trazado 570292" d="M441.7,124.657c11.17-21.36,37.259,36.142,23.177,43.77s-26.111-15.842-26.7-21.123-1.121-13.771,3.52-22.646" transform="translate(-333.11 -50.583)" fill="#302b28"/>
          <path id="Trazado_570293" data-name="Trazado 570293" d="M586.1,71.766c3.829-.459,5.721,4.424,0,15.425s-14.962,11.881-14.522,7.041,7.882-21.671,14.522-22.467" transform="translate(-531.22 -30.256)" fill="#302b28"/>
          <path id="Trazado_570294" data-name="Trazado 570294" d="M124.6,48.581s12.762,5.887,13.422,8,3.036,10.252-1.65,11.469-9.791-3.411-9.791-3.411Z" transform="translate(177.726 -20.49)" fill="#3a3533"/>
          <path id="Trazado_570295" data-name="Trazado 570295" d="M157.2,61.3c.39-1.82-.77-2.375-3.08-6.776S150.711,38.9,141.909,35.6s-9.68-1.98-10.561,0,.44,15.733,5.391,19.693S156.687,63.706,157.2,61.3" transform="translate(155.906 -14.168)" fill="#231f1d"/>
          <path id="Trazado_570296" data-name="Trazado 570296" d="M139.419,21.721s-12.957,1.04-19.827-4.394S108.468-.428,106.708.012,108,14.2,111.4,18.494s15.257,14.766,27.578,11c6.448-1.973.44-7.77.44-7.77" transform="translate(185.617 0)" fill="#b7aa9e"/>
          <path id="Trazado_570297" data-name="Trazado 570297" d="M659.786,235.129s-3.692,17.18-2.812,26.642,2.1,16.062,2.812,22.883.929,13.2.929,13.2,5.721-17.6,5.281-30.144-6.21-32.583-6.21-32.583" transform="translate(-656.839 -99.17)" fill="#b7aa9e"/>
          <path id="Trazado_570298" data-name="Trazado 570298" d="M278.285,390.587a.58.58,0,0,0-.882.181,10.736,10.736,0,0,0-1.228,4.022c-.109,2.229,4.183-.586,3.513-2.288a4.536,4.536,0,0,0-1.4-1.916" transform="translate(-50.467 -164.683)" fill="#665451"/>
          <path id="Trazado_570299" data-name="Trazado 570299" d="M341.4,379.925a.58.58,0,0,0-.882.181,10.735,10.735,0,0,0-1.228,4.022c-.109,2.229,4.183-.586,3.513-2.287a4.541,4.541,0,0,0-1.4-1.916" transform="translate(-150.082 -160.186)" fill="#665451"/>
          <path id="Trazado_570300" data-name="Trazado 570300" d="M541.435,391.208a.58.58,0,0,0-.882.181,10.726,10.726,0,0,0-1.228,4.022c-.109,2.229,4.183-.586,3.513-2.287a4.542,4.542,0,0,0-1.4-1.916" transform="translate(-465.777 -164.945)" fill="#665451"/>
          <path id="Trazado_570301" data-name="Trazado 570301" d="M642.935,398.39a.58.58,0,0,0-.882.181,10.734,10.734,0,0,0-1.227,4.022c-.109,2.23,4.183-.586,3.513-2.287a4.535,4.535,0,0,0-1.4-1.916" transform="translate(-625.969 -167.974)" fill="#665451"/>
          <path id="Trazado_570302" data-name="Trazado 570302" d="M86.349,83.261c0,.36.524.651,1.172.651s1.172-.291,1.172-.651-.524-.651-1.172-.651-1.172.291-1.172.651" transform="translate(250.363 -34.842)" fill="#ccc"/>
        </g>
      </g>
    </g>
    <g id="Grupo_847865" data-name="Grupo 847865" transform="translate(214.914 1380.986)">
      <path id="Trazado_570205" data-name="Trazado 570205" d="M247.528,315.025c-3.777-12.247-1.162-27.965,2.766-23.689s7.105,12.7,7.105,12.7-.255-21.263,5.439-15.064,7.118,8.838,8.01,10.49,3.793-16.468,6.737-11.017a48.1,48.1,0,0,1,4.047,9.743s6.292-21.46,11.622-15.658,4.719,15.694,4.719,15.694,4.547-14.687,7.386-9.429a20.9,20.9,0,0,1,2.3,10.777S320.52,286.76,322.81,293.6a17.519,17.519,0,0,1-.682,12.608s16.18-17.24,16.661-10.311a17,17,0,0,1-3.356,11.447s8.726-8.818,9.846-3.872-6.128,18.672-6.128,18.672Z" transform="translate(-193.301 -48.16)" fill="#8baa66"/>
      <path id="Trazado_570212" data-name="Trazado 570212" d="M359.673,163.807s23.6,12.707,27.774,16.882,28.137,73.7,28.137,73.7-54.53,5.541-53.37,3.531-2.542-94.115-2.542-94.115" transform="translate(-195.823 -45.555)" fill="#ff854e"/>
      <path id="Trazado_570213" data-name="Trazado 570213" d="M379.915,212.745c-1.058-4.1-2.448-8.495-5.439-11.591a.514.514,0,0,0-.854.5c1.569,4.5,3.306,8.688,4.3,13.387.909,4.3,1.215,8.964,3.027,12.988.389.863,1.656.369,1.681-.456.143-4.855-1.5-10.142-2.716-14.826" transform="translate(-196.131 -46.377)" fill="#b03c21"/>
      <path id="Trazado_570214" data-name="Trazado 570214" d="M287.4,142.861c.136-.068,50.329-1.7,50.329-1.7l9.031,24.234-59.9-2.927Z" transform="translate(-194.212 -45.053)" fill="#b34b33"/>
      <path id="Trazado_570215" data-name="Trazado 570215" d="M241.676,171.424c3.54-3.54,22.266-5.6,33.946-12.344s59.723-4.176,81.143,4.538,17.064,29.952,17.064,29.952l-8.758,90.675,14.023,75.969-150.851-2.552Z" transform="translate(-192.915 -45.365)" fill="#ff854e"/>
      <path id="Trazado_570216" data-name="Trazado 570216" d="M323.289,184.794a.758.758,0,0,0-1.46.4c3.719,17.224,6.279,34.028,6.644,51.679.039,1.878,3.064,1.818,2.88,0,.16-17.363-2.274-35.671-8.064-52.082" transform="translate(-194.985 -46.007)" fill="#b03c21"/>
      <path id="Trazado_570217" data-name="Trazado 570217" d="M256.288,165.864s29.272,26.775,29.272,62.718-17.349,118.361-56.533,118.361l-.785,17.786,155.32,2.541L368.2,293.185c3.623-45.461,4.757-87.87,0-123.041l-15.147-7.729s4.8,26.088,4.8,43.586v17.5s-15.248-.726-28.318-.726-32.312,2.9-32.312,2.9-3.79-28.838-12.19-43.388-16.717-19.874-16.717-19.874Z" transform="translate(-192.915 -45.524)" fill="#fade94"/>
      <path id="Trazado_570218" data-name="Trazado 570218" d="M240.877,171.79c-20.331,34.782-50.828,94.888-48.65,103.174s33.754,34.231,35.251,32.733,27.558-42.026,27.558-42.026,17.79-34.339,10.892-64.111-25.051-29.77-25.051-29.77" transform="translate(-192.116 -45.732)" fill="#ff854e"/>
      <path id="Trazado_570219" data-name="Trazado 570219" d="M240.683,317.8c-14.432-2.69-28.591.577-28.591-4.869s4.8-24.018,9.8-32.675,23.689-17.971,23.689-17.971l10.347,7.447s-13.342,12.344-15.248,18.241,0,29.827,0,29.827" transform="translate(-192.558 -47.734)" fill="#c7543a"/>
      <path id="Trazado_570220" data-name="Trazado 570220" d="M254.611,271.514a5.193,5.193,0,0,0-5.8.459c-13.1,10.625-17.819,36.3-14.327,39.79,3.744,3.744,72.511,18.861,73.656,16.877s0-27.135,0-27.135Z" transform="translate(-193.028 -47.922)" fill="#faaf70"/>
      <path id="Trazado_570221" data-name="Trazado 570221" d="M382.506,252.765c0-1.125,7.845-15.944,11.164-19.264s14.432-9.362,19.6-9.362,14.139,4.51,14.139,8.517-8.511,23.068-8.511,23.068Z" transform="translate(-196.328 -46.89)" fill="#faaf70"/>
      <path id="Trazado_570222" data-name="Trazado 570222" d="M396.411,239.456a42.982,42.982,0,0,1-3.1,7.092c-1,1.82-2.785,3.536-3.279,5.547a.655.655,0,0,0,.95.73c2.026-.992,3.264-3.708,4.249-5.641a28.582,28.582,0,0,0,2.509-7.361.69.69,0,0,0-1.329-.367" transform="translate(-196.494 -47.217)" fill="#e08b43"/>
      <path id="Trazado_570223" data-name="Trazado 570223" d="M320.059,294.292l17.1-42.757a5.217,5.217,0,0,1,4.87-3.213h73.818a5.036,5.036,0,0,1,4.854,6.845l-24.885,60.7a5.2,5.2,0,0,1-4.584,3.167c-15.565.755-80.007,3.65-80.007-.166,0-4.342,8.837-24.581,8.837-24.581" transform="translate(-194.751 -47.425)" fill="#304d5c"/>
      <path id="Trazado_570224" data-name="Trazado 570224" d="M409.452,252.565c-4.844-1.238-10.264-.8-15.234-.832q-7.985-.057-15.968.2c-5.656.184-11.305.483-16.945.944-4.368.357-9.31.337-13.413,2.074-6.534,2.767-8.53,9.634-10.487,15.851-3.26,10.363-8.533,19.434-12.956,29.252-.224.5.408,1.13.823.636,5.037-5.991,8.4-13.6,11.262-20.84,3.063-7.738,4.319-20.763,13.8-23.243,4.728-1.237,10.08-1.05,14.951-1.329,5.315-.3,10.632-.545,15.955-.664q6.985-.155,13.973-.07c4.7.058,9.593.729,14.236-.034,1.01-.166.911-1.713,0-1.946" transform="translate(-195.043 -47.499)" fill="#3e6375"/>
      <path id="Trazado_570225" data-name="Trazado 570225" d="M305.375,303.143c1.725-9.94,10.257-16.844,11.164-20.018s6.472-23.928,9.258-22.318,2.9,5.53,2.9,10.431-5.1,18.286-2.178,19.972,10.988-.886,12.676.8,3.3,7.168,3.3,18.248-3.631,15.8-3.631,15.8l-29.137,2.356Z" transform="translate(-194.622 -47.699)" fill="#faaf70"/>
      <path id="Trazado_570226" data-name="Trazado 570226" d="M338.517,291.478c6.5,0,16.01-4.382,18.075-6.447s4.837-12.887,8.713-12.164.846,14.767-.681,17.411-16.066,12.541-23.145,12.541-2.962-11.341-2.962-11.341" transform="translate(-195.328 -47.967)" fill="#faaf70"/>
      <path id="Trazado_570227" data-name="Trazado 570227" d="M341.131,312.817c5.525,0,17.691-4.88,20.558-6.535s7.455-10.442,7.061-12.573-1.386-7.414-4.611-5.552-24.1,13.722-24.1,13.722Z" transform="translate(-195.389 -48.297)" fill="#faaf70"/>
      <path id="Trazado_570228" data-name="Trazado 570228" d="M365.139,300.575c2.078,5.99.674,9.083-.553,11.209s-9.712,4.9-9.712,4.9-.66,4.991-3.177,6.444-12.071,3.812-12.071,3.812l1.5-15.248Z" transform="translate(-195.38 -48.581)" fill="#faaf70"/>
      <path id="Trazado_570229" data-name="Trazado 570229" d="M365.087,291.184a.5.5,0,0,0-.607-.345c-.91.232-1.147.883-1.729,1.6a14.212,14.212,0,0,1-2.085,2.074,14.539,14.539,0,0,1-2.744,1.767,7.546,7.546,0,0,0-2.389,1.292.352.352,0,0,0,.154.583c1.883.567,4.584-1.247,6-2.319,1.248-.946,3.759-2.876,3.4-4.655" transform="translate(-195.729 -48.365)" fill="#e08b43"/>
      <path id="Trazado_570230" data-name="Trazado 570230" d="M363.123,303.769c-1.362.031-2.414,1.405-3.661,1.938a21.157,21.157,0,0,1-4.678,1.078c-.562.1-.472.9,0,1.05a7.953,7.953,0,0,0,5.38-.465c1.325-.538,3.411-1.417,3.538-3.023a.584.584,0,0,0-.579-.579" transform="translate(-195.706 -48.651)" fill="#e08b43"/>
      <path id="Trazado_570231" data-name="Trazado 570231" d="M353.608,316.75a3.608,3.608,0,0,0-1.567.324,5.909,5.909,0,0,1-1.837.2c-.457-.019-.461.586-.1.735,1.011.418,3.214.645,3.767-.613.1-.229.048-.6-.264-.65" transform="translate(-195.606 -48.938)" fill="#e08b43"/>
      <path id="Trazado_570232" data-name="Trazado 570232" d="M327.641,298.332c-1.282-.2-2.509.407-3.824.183a5.54,5.54,0,0,1-1.8-.6c-.441-.256-1.623-1.536-.673-2.034a.35.35,0,0,0-.269-.638c-2.22.725-1.814,2.989-.154,4.177,1.757,1.258,5.706,1.975,7.1-.149a.642.642,0,0,0-.381-.938" transform="translate(-194.935 -48.462)" fill="#e08b43"/>
      <path id="Trazado_570233" data-name="Trazado 570233" d="M301.256,141.16c2.9,10.529-5.628,22.147-5.628,22.147s11.618,19.424,25.051,19.424,17.246-19.424,17.246-19.424l-5.447-22.147Z" transform="translate(-194.406 -45.053)" fill="#faaf70"/>
      <path id="Trazado_570234" data-name="Trazado 570234" d="M336.134,155.616,332.58,141.16H301.356c1.3,4.719.305,9.655-1.19,13.667,12.173,7.685,28.908,5.206,35.968.789" transform="translate(-194.507 -45.053)" fill="#e08b43"/>
      <path id="Trazado_570235" data-name="Trazado 570235" d="M311.341,166.122s11.572,21.058,10.483,19.061,7.76-23.417,7.76-23.417L343.608,180.4,323.776,193.9l-25.641-11.3Z" transform="translate(-194.461 -45.509)" fill="#c7543a"/>
      <path id="Trazado_570236" data-name="Trazado 570236" d="M287.313,142.83l-10.62,17.291,25.6,22.056,8.577-16.474Z" transform="translate(-193.987 -45.091)" fill="#c7543a"/>
      <path id="Trazado_570237" data-name="Trazado 570237" d="M337.512,177.511l-7.216-16.2,8.4-20.15,14.749,21.307Z" transform="translate(-195.173 -45.053)" fill="#c7543a"/>
      <path id="Trazado_570238" data-name="Trazado 570238" d="M247.49,257.861c-10.892-5.22-28.975,1.325-35.34,11.126-.379.586.409,1.451,1,1,4.991-3.779,9.466-7.368,15.612-9.167a30.973,30.973,0,0,1,10.436-.977,36.469,36.469,0,0,0-17.467,12.883c-4.356,6.02-9.339,17.51-5.768,24.8a.43.43,0,0,0,.777-.1c1.106-3.386.66-7.069,1.465-10.573a33.613,33.613,0,0,1,25.914-25.477,1.248,1.248,0,0,0,1.024-1.224c.566.021,1.136.036,1.714.041,1.182.009,1.782-1.78.632-2.331" transform="translate(-192.557 -47.595)" fill="#b03c21"/>
      <path id="Trazado_570239" data-name="Trazado 570239" d="M222.537,304.1a1.353,1.353,0,0,0-1.31-1.31,1.319,1.319,0,0,0-1.037.552,1.191,1.191,0,0,0-.276.192,2.492,2.492,0,0,0-.615.907,2.962,2.962,0,0,0,.158,2.277,1.165,1.165,0,0,0,1.586.417,3.234,3.234,0,0,0,1.493-3.035" transform="translate(-192.714 -48.63)" fill="#b03c21"/>
      <path id="Trazado_570240" data-name="Trazado 570240" d="M275.18,216.819c-.1-.576-.826-.507-1.1-.145-1.886,2.458-2.307,6.026-3.315,8.932-.389,1.122-.835,2.234-1.284,3.348.472-10.818-.709-23.121-5.829-32.6-.332-.615-1.159-.163-1.057.446,1.9,11.417,4.4,22.089,3.574,33.8a86.831,86.831,0,0,1-9.566,33.855c-1.22,1.792,1.907,3.638,2.91,1.7a88.769,88.769,0,0,0,9.515-31.362,36.8,36.8,0,0,0,3.847-7.912c1.187-3.081,2.9-6.721,2.309-10.058" transform="translate(-193.537 -46.268)" fill="#b03c21"/>
      <path id="Trazado_570241" data-name="Trazado 570241" d="M304.81,176.063c-.361,1.077-.706,2.158-1.058,3.238-6.531-4.947-13.075-10.365-20.172-14.367a.718.718,0,0,0-.865,1.123c6.185,6.3,13.814,11.53,20.732,17a1.63,1.63,0,0,0,2.678-.707c.623-1.8,1.214-3.61,1.8-5.422.644-1.987-2.46-2.823-3.118-.86" transform="translate(-194.116 -45.578)" fill="#b03c21"/>
      <path id="Trazado_570242" data-name="Trazado 570242" d="M345.573,164.094a28.18,28.18,0,0,1-7.421,13.186,11.079,11.079,0,0,0-3.016-2.856.518.518,0,0,0-.768.441c-.207,2.04,1.536,3.79,2.854,5.193a1.332,1.332,0,0,0,1.845,0,29.084,29.084,0,0,0,9.213-15.218c.433-1.754-2.278-2.5-2.708-.746" transform="translate(-195.263 -45.539)" fill="#b03c21"/>
      <path id="Trazado_570243" data-name="Trazado 570243" d="M334.291,200.122a2.076,2.076,0,0,0-.957.513,1.3,1.3,0,0,0,0,1.832,2.076,2.076,0,0,0,.957.513,1.482,1.482,0,1,0,0-2.858" transform="translate(-195.232 -46.356)" fill="#b03c21"/>
      <path id="Trazado_570244" data-name="Trazado 570244" d="M248.709,118.51c7.76,6.716,57.408-4.356,82.822-8.169S385.877,89.851,382.405,85.7c-3.379-4.042-60.585-8.305-60.585-8.305L267.27,93.278l-15.157,16.428Z" transform="translate(-193.368 -43.643)" fill="#cbaa57"/>
      <path id="Trazado_570245" data-name="Trazado 570245" d="M292.54,111.293a7.8,7.8,0,1,1-7.795-7.795,7.795,7.795,0,0,1,7.795,7.795" transform="translate(-193.993 -44.22)" fill="#dd9a61"/>
      <path id="Trazado_570246" data-name="Trazado 570246" d="M349.17,104.316a7.486,7.486,0,1,1-7.487-7.487,7.486,7.486,0,0,1,7.487,7.487" transform="translate(-195.259 -44.072)" fill="#dd9a61"/>
      <path id="Trazado_570247" data-name="Trazado 570247" d="M284.831,106.078c7.76,19.061,9.666,39.21,31.858,41.525S342.421,103.8,341.6,91.187,323.5,72.722,302.531,76.67s-21.1,18.016-21.1,18.016Z" transform="translate(-194.092 -43.6)" fill="#faaf70"/>
      <path id="Trazado_570248" data-name="Trazado 570248" d="M276.137,86.342c.727-7.261,7.625-30.86,9.621-33.4s23.483-11.98,27.411-9.712S336.5,74.73,336.5,74.73Z" transform="translate(-193.975 -42.879)" fill="#e2c783"/>
      <path id="Trazado_570249" data-name="Trazado 570249" d="M280.128,93.376c2.03,8.877,12.979,51.237,29.726,53.551s22.545-5.421,25.908-11.9,8.371-34.528,5.919-53.178l-5.1,1.188s.263,26.389-.454,34.119c-.936,10.093-10.491.4-18.115.4s-14.327,8.767-16.531,8.767-9.08-10.116-12.461-18.471a45.925,45.925,0,0,1-3.516-14.7Z" transform="translate(-194.063 -43.742)" fill="#731e4f"/>
      <path id="Trazado_570250" data-name="Trazado 570250" d="M248.708,118.393c10.075-15.521,42.75-32.3,73.792-34.868a280.923,280.923,0,0,1,59.9,2.056S364.024,73.873,330.4,72.239s-57.59,12.934-70.388,23.077-11.3,23.077-11.3,23.077" transform="translate(-193.367 -43.526)" fill="#e2c783"/>
      <path id="Trazado_570251" data-name="Trazado 570251" d="M306.7,89.778c-1.346-1.007-3.445-.155-4.912.288a18.1,18.1,0,0,0-5.116,2.4c-.861.6-.368,2.169.758,1.8,1.683-.557,3.363-1.136,5.092-1.536,1.45-.335,3.369-.138,4.388-1.328a1.056,1.056,0,0,0-.209-1.623" transform="translate(-194.419 -43.906)" fill="#731e4f"/>
      <path id="Trazado_570252" data-name="Trazado 570252" d="M330.169,88.142a10.011,10.011,0,0,0-7.61-.439,1.21,1.21,0,0,0,.643,2.331c2.139-.315,3.807.268,5.815.837a1.5,1.5,0,0,0,1.151-2.729" transform="translate(-194.983 -43.859)" fill="#731e4f"/>
      <path id="Trazado_570253" data-name="Trazado 570253" d="M307.057,102.188c-.383-1.117-1.788-2.288-2.975-1.405a1.533,1.533,0,0,0-.726,1.264,1.471,1.471,0,0,0,.047.353,1.428,1.428,0,0,0-.04.2,5.889,5.889,0,0,0,.835,3.028,1.547,1.547,0,0,0,1.548.742,1.6,1.6,0,0,0,1.293-1.114,4.762,4.762,0,0,0,.018-3.07" transform="translate(-194.577 -44.153)" fill="#731e4f"/>
      <path id="Trazado_570254" data-name="Trazado 570254" d="M328.27,100.093c-.184-1.166-1.363-2.564-2.685-1.9a1.53,1.53,0,0,0-.934,1.119.842.842,0,0,1-.09.547,5.889,5.889,0,0,0,.3,3.127,1.545,1.545,0,0,0,1.4,1,1.6,1.6,0,0,0,1.466-.871,4.766,4.766,0,0,0,.551-3.021" transform="translate(-195.044 -44.099)" fill="#731e4f"/>
      <path id="Trazado_570255" data-name="Trazado 570255" d="M318.3,94.435s6.934,19.235,4.954,19.789c-5.5,1.543-7.979-.531-7.979-.531s-.428-16.444-.428-17.947,3.454-1.311,3.454-1.311" transform="translate(-194.831 -44.02)" fill="#e08b43"/>
      <path id="Trazado_570256" data-name="Trazado 570256" d="M324.3,128.453c-1.5-.313-2.944.31-4.454.459a25.014,25.014,0,0,1-4.944-.058c-1.237-.123-1.454,1.834-.289,2.139,2.82.738,7.862,1.444,10.149-.79a1.055,1.055,0,0,0-.462-1.749" transform="translate(-194.809 -44.771)" fill="#faaf70"/>
      <path id="Trazado_570257" data-name="Trazado 570257" d="M329.667,70.119c-17.545-1.448-38.79,2.191-52.734,13.746-.58.481.158,1.286.763.99,8.266-4.063,15.935-8.318,24.988-10.539a82.491,82.491,0,0,1,26.984-1.933c1.448.127,1.445-2.144,0-2.264" transform="translate(-193.988 -43.476)" fill="#cbaa57"/>
      <path id="Trazado_570258" data-name="Trazado 570258" d="M319.616,50.786a15.044,15.044,0,0,0-5.384.23,7.79,7.79,0,0,0-3.606-2.415.25.25,0,0,0-.279.363,13.005,13.005,0,0,0,2.2,2.464c-.725.206-1.445.447-2.155.712-.68-.871-1.384-1.725-2.127-2.558-.31-.348-.932.116-.654.5q.871,1.222,1.7,2.481a44.611,44.611,0,0,0-5.366,2.68c-.518.3-.064,1.044.464.793a49.508,49.508,0,0,1,5.654-2.309c.643,1.023,1.263,2.06,1.842,3.119.992,1.817,1.629,4.34,3.309,5.6.244.185.527-.074.551-.316.213-2.2-1.687-4.606-2.815-6.388-.522-.824-1.076-1.618-1.645-2.4.33-.1.656-.2.988-.291.528-.14,1.065-.249,1.6-.347a11.673,11.673,0,0,1,1.088,1.24c1.262,1.7,1.914,3.891,3.336,5.429a.344.344,0,0,0,.581-.241c.049-2.182-1.59-4.349-2.865-6-.169-.219-.353-.454-.548-.694a25.4,25.4,0,0,0,4.136-.873c.346-.115.428-.72,0-.788" transform="translate(-194.585 -43.006)" fill="#cbaa57"/>
      <path id="Trazado_570259" data-name="Trazado 570259" d="M287.757,85.724c-6.22,1.543-12.209,5.205-17.63,8.524-5.468,3.347-11.279,7.049-15.68,11.758-.324.346.1.964.525.682,5.413-3.582,10.318-7.8,15.887-11.189,5.551-3.38,11.674-5.707,17.2-9.059a.394.394,0,0,0-.3-.716" transform="translate(-193.492 -43.827)" fill="#cbaa57"/>
      <path id="Trazado_570260" data-name="Trazado 570260" d="M361.191,79.71a12.892,12.892,0,0,0-5.742-1.888c-1.348-1.337-3.62-2.1-5.206-2.642-.536-.183-.742.639-.231.836a14.529,14.529,0,0,1,3.07,1.68,42.3,42.3,0,0,0-7.9.847c-.557.1-.309.912.231.836a34.073,34.073,0,0,1,8.361-.079c2.416.264,4.788,1.14,7.205,1.2a.429.429,0,0,0,.215-.793" transform="translate(-195.496 -43.593)" fill="#cbaa57"/>
      <path id="Trazado_570261" data-name="Trazado 570261" d="M308.728,139.707c-.876-.206-1.745.073-2.632-.236a3.618,3.618,0,0,1-2.233-2.1.412.412,0,0,0-.794.219,3.937,3.937,0,0,0,2.331,3.2c1.055.49,2.886.748,3.6-.423a.456.456,0,0,0-.27-.664" transform="translate(-194.571 -44.963)" fill="#a1427a"/>
      <path id="Trazado_570262" data-name="Trazado 570262" d="M323.931,141.719a6.423,6.423,0,0,1-2.1.858,3,3,0,0,1-2.24-.687c-.533-.445-1.458.125-1.027.792a3.518,3.518,0,0,0,3.257,1.562c1.137-.077,2.626-.721,2.806-1.986a.484.484,0,0,0-.7-.538" transform="translate(-194.911 -45.065)" fill="#a1427a"/>
      <path id="Trazado_570263" data-name="Trazado 570263" d="M333.781,133.233c-.838.929-1.9,1.773-3.226,1.361-.513-.16-.878.651-.374.885,1.552.718,4.171.027,4.123-2.029a.31.31,0,0,0-.523-.217" transform="translate(-195.165 -44.876)" fill="#a1427a"/>
      <path id="Trazado_570264" data-name="Trazado 570264" d="M300.909,130.571a3.96,3.96,0,0,1-1.246-.32c-.414-.217-.562-.617-.807-.985a.484.484,0,0,0-.871.113c-.591,1.58,1.973,3.092,3.123,1.947a.456.456,0,0,0-.2-.756" transform="translate(-194.456 -44.786)" fill="#a1427a"/>
      <path id="Trazado_570265" data-name="Trazado 570265" d="M292.78,119.889a13.815,13.815,0,0,1-.634-1.4.718.718,0,0,0-1.3.169,2.639,2.639,0,0,0,.441,2.191c.406.611,1.134,1.2,1.885.859a.534.534,0,0,0,.264-.461c.037-.521-.4-.945-.659-1.356" transform="translate(-194.299 -44.544)" fill="#a1427a"/>
      <path id="Trazado_570266" data-name="Trazado 570266" d="M314.772,120.644A4.543,4.543,0,0,0,310.253,123a.7.7,0,0,0,1.09.841,8.946,8.946,0,0,1,1.655-1.49c.61-.38,1.219-.749,1.855-1.085a.343.343,0,0,0-.081-.62" transform="translate(-194.728 -44.599)" fill="#a1427a"/>
      <path id="Trazado_570267" data-name="Trazado 570267" d="M321.84,120.555a.579.579,0,0,0,0,1.105,20.245,20.245,0,0,1,2.029.743,8.116,8.116,0,0,0,1.77.944.507.507,0,0,0,.616-.615c-.348-1.626-2.955-2.543-4.415-2.177" transform="translate(-194.977 -44.596)" fill="#a1427a"/>
      <path id="Trazado_570268" data-name="Trazado 570268" d="M341.117,98.335a.511.511,0,0,0-.93.392,15.613,15.613,0,0,1,.464,2.783,10.652,10.652,0,0,0,.235,2.379.474.474,0,0,0,.856.111c.933-1.694.226-4.074-.624-5.666" transform="translate(-195.391 -44.1)" fill="#a1427a"/>
    </g>
    <g id="Grupo_847885" data-name="Grupo 847885" transform="translate(181 1655.285)">
      <path id="Trazado_570057" data-name="Trazado 570057" d="M659.362,1149.49c-55.252-10.357-122.23-19.878-177.25-11.546s-76.16,19.574-136.582-6.29c-13.221-5.659-23.984-6.062-33.683-6.162l-3.667.06c-32.531,1.368-54.55,22.979-122.858,8.242a91.482,91.482,0,0,0-31.534-.73c-6.423-8.972-25.5-33.375-41.27-30.836-15.755,2.536,23.271,23.667,38.082,31.316q-2.644.432-5.217.964c-8.968-4.181-25.785-10.939-35.394-7.972-9.392,2.9,14.152,7.051,29.477,9.323a162.48,162.48,0,0,0-35.668,13.606Z" transform="translate(-103.798 -1102.043)" fill="#a8d29f"/>
      <path id="Trazado_570058" data-name="Trazado 570058" d="M347.883,1285.139l-5.252-.224c-1.04-.049-2.078-.1-3.107-.158l-1.84-.111c-2.426-.156-4.789-.353-7.02-.619-17.471-2.087-42.149,7.613-42.149,7.613h86.045c-.609-5.384-13.192-5.949-26.677-6.5" transform="translate(-248.318 -1244.194)" fill="#82b378"/>
      <path id="Trazado_570061" data-name="Trazado 570061" d="M2474.212,1299.345a6.2,6.2,0,0,1-.229.69c-.019.045.074-.221.229-.69" transform="translate(-1958.181 -1256.408)" fill="#ffcf83"/>
      <path id="Trazado_570065" data-name="Trazado 570065" d="M2200.728,1304.763a4.874,4.874,0,0,1-.177.53c-.015.035.057-.169.177-.53" transform="translate(-1744.255 -1260.647)" fill="#ffcf83"/>
    </g>
  </g>
</svg>
