<svg id="Grupo_847980" data-name="Grupo 847980" xmlns="http://www.w3.org/2000/svg" xmlns:xlink="http://www.w3.org/1999/xlink" width="446.582" height="395.206" viewBox="0 0 446.582 395.206">
  <defs>
    <clipPath id="clip-path">
      <rect id="Rectángulo_281827" data-name="Rectángulo 281827" width="446.582" height="395.206" fill="none"/>
    </clipPath>
    <clipPath id="clip-path-3">
      <rect id="Rectángulo_281813" data-name="Rectángulo 281813" width="19.072" height="34.27" transform="translate(194.771 42.49)" fill="none"/>
    </clipPath>
  </defs>
  <g id="Grupo_847979" data-name="Grupo 847979" clip-path="url(#clip-path)">
    <g id="Grupo_847978" data-name="Grupo 847978">
      <g id="Grupo_847977" data-name="Grupo 847977" clip-path="url(#clip-path)">
        <path id="Trazado_570504" data-name="Trazado 570504" d="M366.671,213.52l-.136-1.943s.866-.059,2.319-.057c1.461-.016,3.537.053,6.02.239a91.227,91.227,0,0,1,17.931,3.2,84.146,84.146,0,0,1,16.894,6.823,57,57,0,0,1,5.2,3.035l1.908,1.257-1.092,1.612-1.861-1.225a55.327,55.327,0,0,0-5.069-2.962,82.367,82.367,0,0,0-16.508-6.667,89.271,89.271,0,0,0-17.547-3.133c-2.426-.182-4.453-.249-5.864-.233-1.418,0-2.191.052-2.191.052" fill="#108f6e"/>
        <path id="Trazado_570505" data-name="Trazado 570505" d="M418.781,236.46a7.329,7.329,0,0,1-2.692-4.4,6.118,6.118,0,0,1,.817-4.748,5.336,5.336,0,0,1,4.336-2.272,8.823,8.823,0,0,1,5.485,2.015,8.5,8.5,0,0,1,2.879,5.1,5.211,5.211,0,0,1-1.459,4.6,6.261,6.261,0,0,1-4.6,1.655,7.624,7.624,0,0,1-4.766-1.943" fill="#fce300"/>
        <path id="Trazado_570506" data-name="Trazado 570506" d="M419.474,232.483a13.863,13.863,0,0,0,1.886.734,9.679,9.679,0,0,0,3.7.641,7.4,7.4,0,0,0-1.113-3.718,14.047,14.047,0,0,0-1.236-1.716,11.978,11.978,0,0,0,4.382-2.153,9.041,9.041,0,0,0,1.523-1.459,15.531,15.531,0,0,0-5.921-1.8,9.885,9.885,0,0,0-4.328.694,9.2,9.2,0,0,0-3.46,2.29,11.417,11.417,0,0,0-.816,4.029,14.242,14.242,0,0,0,.5,4.03,12.6,12.6,0,0,0,2.292,4.645,10.3,10.3,0,0,0,1.2-1.71,10.151,10.151,0,0,0,1.382-4.507" fill="#108f6e"/>
        <path id="Trazado_570507" data-name="Trazado 570507" d="M427.341,378.416c0,9.273-89.6,16.79-200.124,16.79s-200.125-7.517-200.125-16.79,89.6-16.79,200.125-16.79,200.124,7.517,200.124,16.79" fill="#ededed"/>
        <path id="Trazado_570508" data-name="Trazado 570508" d="M91.1,209.193l-.711,1.97s-.8-.288-2.262-.74-3.557-1.072-6.1-1.719a151.283,151.283,0,0,0-18.922-3.57,139.718,139.718,0,0,0-19.209-1c-2.618.133-4.808.147-6.328.315l-2.39.237-.209-2.083,2.437-.242c1.55-.17,3.777-.187,6.443-.321a141.974,141.974,0,0,1,19.512,1.016,153.387,153.387,0,0,1,19.186,3.621c2.584.657,4.718,1.281,6.207,1.748s2.348.769,2.348.769" fill="#108f6e"/>
        <path id="Trazado_570509" data-name="Trazado 570509" d="M25.206,198.351a9.273,9.273,0,0,1,6.132.962,5.986,5.986,0,0,1,2.906,4.413,6.255,6.255,0,0,1-1.7,4.87,8.1,8.1,0,0,1-4.9,2.767,11,11,0,0,1-2.909.082,7.831,7.831,0,0,1-2.625-.833,6.644,6.644,0,0,1-3.39-4.005,5.664,5.664,0,0,1,1.113-5.076,8.454,8.454,0,0,1,2.262-2,8.166,8.166,0,0,1,3.108-1.185" fill="#fce300"/>
        <path id="Trazado_570510" data-name="Trazado 570510" d="M28.213,201.734a15.173,15.173,0,0,0-2.049.975,7.733,7.733,0,0,0-3.021,2.847,10.8,10.8,0,0,0,3.812,1.4,14.751,14.751,0,0,0,2.162.284,11.147,11.147,0,0,0-1.1,4.977,10.951,10.951,0,0,0,.215,2.24,14.106,14.106,0,0,0,4.683-3.208,12.83,12.83,0,0,0,2.6-3.532,12.044,12.044,0,0,0,1.285-4.249,10.012,10.012,0,0,0-2.1-3.912,11.956,11.956,0,0,0-3.68-2.909,16.268,16.268,0,0,0-6.394-1.4,9.825,9.825,0,0,0,.646,2.17,12.611,12.611,0,0,0,2.943,4.312" fill="#108f6e"/>
        <path id="Trazado_570511" data-name="Trazado 570511" d="M226.394,81.414s-16.21-8.023-19.047-25.651,25.3-24.316,36.967,4.863c0,0-2.115-31.61,17.135-35.055s16.141,35.016,10.3,41.114c0,0,8.086-5.857,16.016-.994s5.369,23.911-20.2,28.976-41.171-13.253-41.171-13.253" fill="#ffd200"/>
        <path id="Trazado_570512" data-name="Trazado 570512" d="M244.058,86.3c-4.493-9.93-12.655-20.557-12.738-20.663l.446-.343c.082.107,8.284,10.783,12.8,20.774Z" fill="#fff"/>
        <rect id="Rectángulo_281806" data-name="Rectángulo 281806" width="39.45" height="0.561" transform="translate(257.448 84.595) rotate(-80.252)" fill="#fff"/>
        <path id="Trazado_570513" data-name="Trazado 570513" d="M133.888,116.227s-6.679-14.649-20.452-14.644-15.769,14.549-7.713,25.345A57.148,57.148,0,0,0,73.5,118.484c-19.007.733-33.055,14.782-28.923,30.483s25.342,19.282,31.4,17.629c0,0-20.935,14.875-12.671,28.373s34.156,0,34.156,0Z" fill="#bce13e"/>
        <path id="Trazado_570514" data-name="Trazado 570514" d="M106.094,154.368c-.235-.1-23.675-9.762-35.657-10.953l.111-1.118c12.147,1.207,35.739,10.935,35.976,11.033Z" fill="#fff"/>
        <path id="Trazado_570515" data-name="Trazado 570515" d="M70.825,154.3l-.665-.906c4.7-3.45,13.986-6.9,14.379-7.048l.389,1.053c-.094.036-9.527,3.545-14.1,6.9" fill="#fff"/>
        <path id="Trazado_570516" data-name="Trazado 570516" d="M95.3,150.013c-.132-.363-3.229-8.916-3.5-12.394l1.121-.088c.261,3.327,3.4,12.011,3.437,12.1Z" fill="#fff"/>
        <path id="Trazado_570517" data-name="Trazado 570517" d="M75.294,188.622l-.566-.97c11.668-6.808,20.928-8.188,21.019-8.2l.159,1.113c-.09.012-9.148,1.369-20.612,8.058" fill="#fff"/>
        <path id="Trazado_570518" data-name="Trazado 570518" d="M125.49,131.543c-.369-.4-9.079-9.9-11.456-17.632l1.074-.33c2.3,7.483,11.12,17.1,11.208,17.2Z" fill="#fff"/>
        <path id="Trazado_570519" data-name="Trazado 570519" d="M66.942,220.213l-.923-6.849a85.292,85.292,0,0,0-11.619-.815,85.071,85.071,0,0,0-31.736,5.781l-.411,4.853-2.335-3.659q-2.319,1.069-4.451,2.3l1.472,8.971-5.362-6.468a30.01,30.01,0,0,0-9.462,10.436,18.775,18.775,0,0,0-1.7,12.59,20.5,20.5,0,0,0,5.016,9.821A24.343,24.343,0,0,0,9.611,260.8a30.91,30.91,0,0,0,5.161,2.844c7.448,3.262,17.152,4.457,27.624,3.692l2.482-7.875,3.454,7.246c2.367-.342,4.77-.769,7.163-1.3l-.666-4.715,3.919,3.94q1.389-.355,2.773-.752c16.579-4.793,27.048-12.658,33.36-19.374s8.479-12.253,8.479-12.253-9.525-13.45-32.945-18.146Z" fill="#ffd200"/>
        <rect id="Rectángulo_281807" data-name="Rectángulo 281807" width="78.461" height="1.123" transform="translate(18.619 246.312) rotate(-10.67)" fill="#fff"/>
        <path id="Trazado_570520" data-name="Trazado 570520" d="M44.652,242.534c-5.494-.318-16.383-5.069-16.844-5.271l.451-1.029c.111.048,11.165,4.871,16.458,5.178Z" fill="#fff"/>
        <path id="Trazado_570521" data-name="Trazado 570521" d="M49.073,251.175l-1.09-.272c1.175-4.7,7.254-10.973,7.512-11.238l.805.784c-.061.064-6.125,6.323-7.227,10.726" fill="#fff"/>
        <path id="Trazado_570522" data-name="Trazado 570522" d="M74.885,236.806c-6.305-1.444-12.894-8.12-13.172-8.4l.8-.786c.065.067,6.637,6.723,12.619,8.094Z" fill="#fff"/>
        <path id="Trazado_570523" data-name="Trazado 570523" d="M376.276,286.613l-1.477,6.579a86.008,86.008,0,0,0,41.35,10.147l2.021-4.3.9,4.138q2.484-.19,4.852-.6l1.694-8.707,2.714,7.735a29.289,29.289,0,0,0,12.193-6.342,18.321,18.321,0,0,0,5.824-10.942,20.013,20.013,0,0,0-1.262-10.685,23.675,23.675,0,0,0-2.6-4.737,30.082,30.082,0,0,0-3.758-4.35c-5.709-5.509-14.182-9.89-24.023-12.738l-4.939,6.363-.7-7.8c-2.281-.49-4.624-.913-7-1.237l-.988,4.54-2.25-4.933q-1.391-.146-2.792-.251c-16.793-1.233-29.035,2.416-37.086,6.421s-11.909,8.338-11.909,8.338,4.157,15.534,23.993,27.765Z" fill="#ffd200"/>
        <rect id="Rectángulo_281808" data-name="Rectángulo 281808" width="1.124" height="76.55" transform="matrix(0.168, -0.986, 0.986, 0.168, 353.862, 266.289)" fill="#fff"/>
        <path id="Trazado_570524" data-name="Trazado 570524" d="M417.087,285.073c-.085-.082-8.563-8.238-13.3-10.311l.449-1.03c4.921,2.153,13.277,10.192,13.63,10.533Z" fill="#fff"/>
        <path id="Trazado_570525" data-name="Trazado 570525" d="M393.347,272.707l-.483-1.014c.078-.037,7.742-3.708,10.24-7.362l.928.635c-2.668,3.9-10.359,7.586-10.685,7.741" fill="#fff"/>
        <path id="Trazado_570526" data-name="Trazado 570526" d="M382.823,281.344c-.038-.083-3.794-8.395-8.8-11.676l.616-.939c5.283,3.461,9.052,11.8,9.209,12.156Z" fill="#fff"/>
        <rect id="Rectángulo_281809" data-name="Rectángulo 281809" width="41.25" height="2.367" transform="matrix(0.359, -0.933, 0.933, 0.359, 307.137, 375.887)" fill="#bce13e"/>
        <rect id="Rectángulo_281810" data-name="Rectángulo 281810" width="2.367" height="41.25" transform="translate(321.961 338.243) rotate(-21.054)" fill="#bce13e"/>
        <rect id="Rectángulo_281811" data-name="Rectángulo 281811" width="12.806" height="2.367" transform="translate(316.887 352.683)" fill="#bce13e"/>
        <rect id="Rectángulo_281812" data-name="Rectángulo 281812" width="18.557" height="2.367" transform="translate(313.944 361.146)" fill="#bce13e"/>
        <path id="Trazado_570527" data-name="Trazado 570527" d="M64.178,376.362a9.01,9.01,0,0,0,1.335,2.748c.974,1.336,2.454,3,2.634,3.717s-.685,1.372-1.515,1.083a61.529,61.529,0,0,1-8.228-4.078c-1.407-1.082-1.8-1.479-1.768-1.732a43.579,43.579,0,0,1,2.247-4.016c.5-.747,4.249-.723,5.3,2.278" fill="#91b31e"/>
        <path id="Trazado_570528" data-name="Trazado 570528" d="M79.775,368.36a9,9,0,0,0,2.486,1.776c1.494.707,3.588,1.458,4.091,2.005s.053,1.533-.814,1.676a61.6,61.6,0,0,1-9.176.351c-1.754-.279-2.292-.438-2.381-.677a43.821,43.821,0,0,1,.054-4.6c.078-.894,3.386-2.666,5.74-.53" fill="#91b31e"/>
        <path id="Trazado_570529" data-name="Trazado 570529" d="M80.049,315.722s2.893,19.366,3.014,24.436-3.014,28.531-3.014,28.531H73.938s.6-11.432.6-13.221-.6-17.4-.6-17.4l.6-21.727s3.572-2.194,5.514-.622" fill="#0e1a34"/>
        <path id="Trazado_570530" data-name="Trazado 570530" d="M65.909,316.4S64,321.37,64.593,331.609s1.087,12.626,1.087,12.626-6.853,26.642-7.748,29.823a14.574,14.574,0,0,0,6.661,2.485s7.257-17.894,9.842-24.256a40.109,40.109,0,0,0,3.354-16.4c.026-5.567.622-20.578.622-20.578Z" fill="#0e1a34"/>
        <path id="Trazado_570531" data-name="Trazado 570531" d="M75.28,350.9l-.538-.165a74.6,74.6,0,0,0,2.91-21.655l.562,0A75.217,75.217,0,0,1,75.28,350.9" fill="#fff"/>
        <path id="Trazado_570532" data-name="Trazado 570532" d="M84.834,312.932s-12.6-2.176-17.16-4.7-4-4.773-3.369-6.387,2.6-5.054,2.6-5.054l4.464,3.194-.113.995-.762,1.739s1.457.923,3.655,2.144,11.148,5.324,11.148,5.324,2.175,1.8-.46,2.748" fill="#ff9a5c"/>
        <path id="Trazado_570533" data-name="Trazado 570533" d="M84.5,312.825a8.087,8.087,0,0,0,2.371,1.7c.1.851.59,1.211.865,1.179s.281-1.31.281-1.31c.245.589,1.211,1.178,1.342.818a2.135,2.135,0,0,0,0-.949s.393.523.688.523.655-.261.524-.916a6.338,6.338,0,0,0-.917-2.161c-.393-.523-.622-1.047-1.473-1.244a14.09,14.09,0,0,0-2.128-.163,18.489,18.489,0,0,0-2.455,0Z" fill="#ff9a5c"/>
        <path id="Trazado_570534" data-name="Trazado 570534" d="M75.208,272.906s-1.676-3.649-6.41-2.268-3.254,5.818-6.311,7.691-7.592,2.86-8.776,8.086,2.465,5.621,0,8.777-3.352,5.423-.69,8.677,7.351,2.268,10.282.691,15.751-7.593,15.751-7.593a4.766,4.766,0,0,0,0-6.509c-2.973-3.358-2.17-8.48-2.17-8.48s1.085-.2,1.48-3.155-.549-6.812-3.156-5.917" fill="#753519"/>
        <path id="Trazado_570535" data-name="Trazado 570535" d="M307.607,25.159l1.651-1.2a50.533,50.533,0,0,0,14.936,11.594c9.27,4.674,12.45,6.457,13.292,6.61s4.827.843,6.206,2.6,1.533,2.758,1.226,2.835-1.839-2.145-1.839-2.145,1.534,1.977,1.38,2.714-1.014-.522-1.322-.829-1.076-1.2-1.076-1.2a12.151,12.151,0,0,1,1.691,2.766c.061.646-1.014-.184-1.844-1.106s-1.752-1.353-1.967-1.076-.308,1.414-.646,1.2-.4-1.076-.553-1.691c-.547-.012-3.045-.912-7.543-1.811s-22.49-8.8-26.588-13.894,3-5.376,3-5.376" fill="#ff9a5c"/>
        <path id="Trazado_570536" data-name="Trazado 570536" d="M421.572,209.766h0a11.817,11.817,0,0,0,2.847-6.058,10.833,10.833,0,0,0-1.438-6.342l1.316,1.4c.778.85,1.867,1.939,2.869,3.1l3.819,4.82a13.823,13.823,0,0,0-3.072,6.135,11.392,11.392,0,0,0,.5,6.517,11.312,11.312,0,0,0,3.481-5.592,10.5,10.5,0,0,0,.285-3.223,8.966,8.966,0,0,0-.791-3.326l.665.839c.378.52.834,1.246,1.311,1.957l1.891,2.858a12.918,12.918,0,0,0,.513,3.462,11.793,11.793,0,0,0,1.174,3.1,12.267,12.267,0,0,0,4.972,4.71,11.943,11.943,0,0,0-1.294-6.79,10.667,10.667,0,0,0-2.037-2.725,13.006,13.006,0,0,0-3.058-1.935l-1.183-1.789-1.213-1.833-.684-1.034-.791-1.006-4.262-5.379a12.81,12.81,0,0,0,12.955,1.506,12.324,12.324,0,0,0-6.6-3.326,10.581,10.581,0,0,0-6.778,1.323l-4.224-4.5a39.035,39.035,0,0,0-3.064-2.93l-1.43-1.292a13.5,13.5,0,0,0,3.25,1.21,17.11,17.11,0,0,0,3.3.384,12.734,12.734,0,0,0,6.508-1.827,14.592,14.592,0,0,0-3.412-1.888,9.92,9.92,0,0,0-3.541-.6,10.93,10.93,0,0,0-6.588,2.282l-1.43-1.292-3.355-2.6a41.862,41.862,0,0,0-3.422-2.5l-1.611-1.059a13.686,13.686,0,0,0,3.408.709,12.522,12.522,0,0,0,3.283-.033,13.073,13.073,0,0,0,6.232-2.761,12.146,12.146,0,0,0-7.255-1.5,11.018,11.018,0,0,0-6.215,3.223l-1.611-1.059c-.971-.629-2.343-1.339-3.68-2.108l-1.976-1.108-1.783-.853-1.74-.833a14.516,14.516,0,0,0,6.72-.3,13.079,13.079,0,0,0,5.77-3.63,14.938,14.938,0,0,0-3.859-.8,9.123,9.123,0,0,0-3.56.39,10.838,10.838,0,0,0-5.661,4.065l-.813-.388-2.2-.894c-1.8-.784-4.282-1.642-6.776-2.45-2.512-.75-5.052-1.409-6.987-1.771-1.926-.4-3.243-.526-3.243-.526l-.03.32s.911.1,2.273.343,3.163.646,4.952,1.1c1.774.507,3.556.993,4.855,1.478l2.183.747a13.91,13.91,0,0,0,.68,6.851,12.554,12.554,0,0,0,3.783,5.209,11.363,11.363,0,0,0,.069-6.608,10.187,10.187,0,0,0-3.922-5.225l1.78.723c1.064.442,2.507.977,3.878,1.677,1.381.672,2.783,1.307,3.8,1.844l1.675.941a13.328,13.328,0,0,0-.318,6.827,11.655,11.655,0,0,0,2.984,5.731,11.229,11.229,0,0,0,1.014-6.5,10.429,10.429,0,0,0-1.009-3.078,11.411,11.411,0,0,0-2.1-2.661l1.675.941c1.03.524,2.279,1.427,3.572,2.256a55.179,55.179,0,0,1,5.015,3.55,13.264,13.264,0,0,0-1.3,6.709,12.219,12.219,0,0,0,2.129,6.128,11.383,11.383,0,0,0,1.945-6.317,9.875,9.875,0,0,0-.555-3.2,11.9,11.9,0,0,0-1.7-2.928l1.522,1.173a38.341,38.341,0,0,1,3.212,2.743l3.137,2.834a13.2,13.2,0,0,1,.978.99l.362.385a13.525,13.525,0,0,0-2.267,6.511,10.812,10.812,0,0,0,.263,3.18,14.008,14.008,0,0,0,1.041,3.184" fill="#bce13e"/>
        <path id="Trazado_570537" data-name="Trazado 570537" d="M70.343,69.325h0a14.005,14.005,0,0,0-3.989,6.853,12.726,12.726,0,0,0,.714,7.805l-1.349-1.851c-.828-1.1-1.864-2.609-2.875-4.137l-2.813-4.18c-.392-.564-.689-1.054-.9-1.4l-.328-.537a15.324,15.324,0,0,0,4.214-7.057,13.092,13.092,0,0,0,.407-3.875,15.057,15.057,0,0,0-.584-4.025,14.044,14.044,0,0,0-4.6,6.488,13.171,13.171,0,0,0,.155,7.806l-2.13-3.483c-.526-.875-1.081-1.733-1.449-2.4l-.61-1.121A14.768,14.768,0,0,0,52.6,56.293a14.475,14.475,0,0,0-5.554-5.939A14.328,14.328,0,0,0,48.1,58.543,13.763,13.763,0,0,0,53.88,64.4l.335.617c.21.4.515.956.925,1.6l2.93,4.79c1.035,1.762,2.2,3.441,3.051,4.712l1.425,2.117a15.357,15.357,0,0,0-7.106-3.6,14.886,14.886,0,0,0-8,.59,16.75,16.75,0,0,0,3.443,2.913,12.828,12.828,0,0,0,3.871,1.55,13.614,13.614,0,0,0,8.23-.8l1.285,1.9,2.971,4.079c2.121,3,4.418,5.86,4.418,5.86A15.7,15.7,0,0,0,68.1,88.645a13.672,13.672,0,0,0-3.745-1.062,14.913,14.913,0,0,0-7.951,1.2,14.471,14.471,0,0,0,7.549,3.9,13.877,13.877,0,0,0,8.176-1.344l1.409,1.81c.83,1.1,2,2.509,3.173,3.923l3.212,3.891,1.5,1.733a14.374,14.374,0,0,0-15.309-1.085h0a14.734,14.734,0,0,0,7.734,3.428,13.818,13.818,0,0,0,8.085-1.755l1.5,1.733c.894,1.046,2.1,2.424,3.347,3.774l3.391,3.736,1.572,1.67a14.316,14.316,0,0,0-15.322-.381c4.978,3.754,10.706,4.065,15.856.947,0,0,1.07,1.133,2.677,2.831,1.638,1.669,3.79,3.923,6.017,6.106,2.2,2.205,4.455,4.361,6.16,5.962S110,132.308,110,132.308l.254-.286s-3.262-2.954-6.407-6.036c-1.588-1.525-3.131-3.1-4.308-4.255l-1.927-1.965a14.713,14.713,0,0,0,2.555-7.805,14.256,14.256,0,0,0-2.142-7.811,13.273,13.273,0,0,0-.955,15.06s-2.569-2.615-5.065-5.3c-1.266-1.326-2.5-2.679-3.419-3.7l-1.538-1.7a14.154,14.154,0,0,0,1.091-15.57,13.24,13.24,0,0,0-1.613,14.994L85,106.229c-.9-1.039-2.1-2.424-3.3-3.808s-2.38-2.787-3.25-3.851L76.989,96.8a14.858,14.858,0,0,0,3.238-7.535,14.019,14.019,0,0,0-1.377-7.93,13.994,13.994,0,0,0-3.517,7.1A13.085,13.085,0,0,0,76.5,96.2l-1.458-1.767-3.1-3.972c-2.29-2.863-4.411-5.853-4.411-5.853a14.888,14.888,0,0,0,3.662-7.333,14.642,14.642,0,0,0-.844-7.953" fill="#91b31e"/>
        <path id="Trazado_570538" data-name="Trazado 570538" d="M257.436,34.46a5.843,5.843,0,0,1-1.421-1.146,3.94,3.94,0,0,0-.881-1.167,3.11,3.11,0,0,0-1.394-.6,6.436,6.436,0,0,0,1.137,2.295.567.567,0,0,0,.783-.079,7.573,7.573,0,0,0,1.068,1.8s1.632-.562.708-1.108" fill="#ff9a5c"/>
        <path id="Trazado_570539" data-name="Trazado 570539" d="M370.619,224.1A142.942,142.942,0,1,1,227.676,81.156,142.943,142.943,0,0,1,370.619,224.1" fill="#1a6652"/>
        <path id="Trazado_570540" data-name="Trazado 570540" d="M256.432,324.178A127.789,127.789,0,0,1,193.185,85.356,142.957,142.957,0,1,0,365.056,263.7a127.686,127.686,0,0,1-108.624,60.473" fill="#19614f"/>
        <path id="Trazado_570541" data-name="Trazado 570541" d="M276.13,34.752s-3.412,3.072-4.555,3.072-12.511-3.405-14.656-3.856-2.032.225-2.878.79,1.814,2.274,1.814,2.274,10.152,5.177,15.4,6.418,9.446-3.013,9.446-3.013,1.375-5.522-4.572-5.685" fill="#ff9a5c"/>
        <path id="Trazado_570542" data-name="Trazado 570542" d="M235.3,37.868s7.982.873,13.5-.528c0,0,3.415,5.733,4.706,7.85l-.561,2.733a18.478,18.478,0,0,1-12.877,6.262s-6-8.29-4.763-16.317" fill="#108f6e"/>
        <path id="Trazado_570543" data-name="Trazado 570543" d="M247.821,47.549a6.619,6.619,0,0,1-2.93-.693l.566-1.04a5.24,5.24,0,0,0,4.174.182c1.861-.8,3.256-2.876,4.146-6.166,1.012-3.747.506-6.739-1.463-8.652-2.3-2.231-5.952-2.439-8.556-1.653-5.333,1.608-4.791,9.1-4.785,9.174l-1.179.1c-.007-.085-.63-8.519,5.622-10.4,3.53-1.063,7.435-.286,9.722,1.937,1.6,1.556,3.21,4.52,1.781,9.809-.991,3.667-2.619,6.005-4.836,6.952a5.735,5.735,0,0,1-2.262.457" fill="#108f6e"/>
        <path id="Trazado_570544" data-name="Trazado 570544" d="M254.019,33.08s-1.025-.4-1.435.3c-.425.725,1.288,1.3,2.736,1.152s.149-1.2-1.3-1.456" fill="#ff9a5c"/>
        <path id="Trazado_570545" data-name="Trazado 570545" d="M253.992,34.1a1.957,1.957,0,0,0-1.7.274c-.692.594,1.532,1.433,3.228,1.281s.175-1.281-1.524-1.555" fill="#ff9a5c"/>
        <path id="Trazado_570546" data-name="Trazado 570546" d="M286.321,118.4a10.094,10.094,0,0,1-1.494,3.076c-1.091,1.494-2.747,3.352-2.948,4.159s.767,1.535,1.7,1.212,7.633-3.352,9.208-4.564,2.019-1.655,1.979-1.938a49.131,49.131,0,0,0-2.515-4.5c-.555-.836-4.755-.809-5.926,2.55" fill="#91b31e"/>
        <path id="Trazado_570547" data-name="Trazado 570547" d="M253.8,35.071a1.528,1.528,0,0,0-1.508.328c-.615.636,1.354,1.5,2.864,1.336s.8-1.555-1.356-1.664" fill="#ff9a5c"/>
        <path id="Trazado_570548" data-name="Trazado 570548" d="M236.151,46.21s-21.988-4.965-22.8-4.97-3.549-.512-4.867,1.313a2.626,2.626,0,0,0,1.419,1.724c1.217.609,2.84-.6,2.84-.6l26.567,9.363a5.409,5.409,0,0,0-3.159-6.831" fill="#108f6e"/>
        <path id="Trazado_570549" data-name="Trazado 570549" d="M210.671,44.729h0a1.975,1.975,0,0,1-.892-.2,2.9,2.9,0,0,1-1.571-1.925l-.05-.275.274-.051a4.84,4.84,0,0,1,.831-.062,5.748,5.748,0,0,1,3.658,1.245l.28.228-.289.215a4.354,4.354,0,0,1-2.241.826m-1.817-1.937a2.417,2.417,0,0,0,1.176,1.233,1.421,1.421,0,0,0,.641.142,3.381,3.381,0,0,0,1.581-.507,5.267,5.267,0,0,0-2.989-.883c-.158,0-.3.007-.409.015" fill="#108f6e"/>
        <path id="Trazado_570550" data-name="Trazado 570550" d="M351.582,337.817H311.965l6.684-7.7h39.618Z" fill="#ffd200"/>
        <g id="Grupo_847976" data-name="Grupo 847976" opacity="0.79">
          <g id="Grupo_847975" data-name="Grupo 847975">
            <g id="Grupo_847974" data-name="Grupo 847974" clip-path="url(#clip-path-3)">
              <path id="Trazado_570551" data-name="Trazado 570551" d="M208.484,42.553s-15.6,15.583-13.522,34.207h18.882s-4.663-23.03-1.1-33.082a5.327,5.327,0,0,0-4.259-1.125" fill="#9ae5e5"/>
            </g>
          </g>
        </g>
        <path id="Trazado_570552" data-name="Trazado 570552" d="M284.8,55.309s-15.256,12.064-17,16.235,6.885,13.093,6.885,13.093,8.147,29,10.96,33.848a35.5,35.5,0,0,0,6.886-2.619s-2.716-26.186-3.977-29.678c0,0,19.79-18.508,23.182-24S287.154,53.4,284.8,55.309" fill="#0e1a34"/>
        <path id="Trazado_570553" data-name="Trazado 570553" d="M294.909,103.024a10.074,10.074,0,0,1,.045,3.419c-.305,1.825-.951,4.228-.769,5.041a1.21,1.21,0,0,0,2.06.321c.685-.705,5.317-6.42,6.181-8.209s1.062-2.386.9-2.621a48.858,48.858,0,0,0-4.264-2.888c-.871-.5-4.612,1.41-4.152,4.937" fill="#91b31e"/>
        <path id="Trazado_570554" data-name="Trazado 570554" d="M274.4,84.645c-.2-6.452,10.587-16.843,11.046-17.282l.388.407c-.111.105-11.061,10.655-10.872,16.858Z" fill="#fff"/>
        <path id="Trazado_570555" data-name="Trazado 570555" d="M275.855,86.075l18.8,17.124a41.75,41.75,0,0,0,4.109-5.078s-6.849-13.345-9.683-16.061-13.227,4.015-13.227,4.015" fill="#0e1a34"/>
        <path id="Trazado_570556" data-name="Trazado 570556" d="M333.075,327.487a10.1,10.1,0,0,1-2.656,2.153c-1.621.892-3.908,1.873-4.433,2.519s.045,1.716,1.023,1.816,8.334.2,10.274-.233,2.531-.644,2.614-.918a48.826,48.826,0,0,0-.374-5.136c-.148-.993-3.964-2.747-6.448-.2" fill="#91b31e"/>
        <path id="Trazado_570557" data-name="Trazado 570557" d="M204.651,80.123l-1.14.033s-.011-.445-.113-1.268c-.087-.818-.278-1.988-.567-3.38a50.884,50.884,0,0,0-3.309-9.894,55.976,55.976,0,0,0-5.143-9.1c-.771-1.2-1.541-2.117-2.038-2.785l-.8-1.039.888-.716.813,1.057c.507.68,1.289,1.61,2.076,2.836a57.184,57.184,0,0,1,5.243,9.28,52.074,52.074,0,0,1,3.384,10.122c.3,1.431.493,2.635.585,3.489s.119,1.365.119,1.365" fill="#108f6e"/>
        <path id="Trazado_570558" data-name="Trazado 570558" d="M191.51,46.273c1.679,1.892,1.753,4.458.2,5.7a4.4,4.4,0,0,1-5.868-6.3c1.354-1.461,3.9-1.2,5.668.6" fill="#fce300"/>
        <path id="Trazado_570559" data-name="Trazado 570559" d="M190.823,48.642a7.331,7.331,0,0,0-1.036-.659,4.894,4.894,0,0,0-2.2-.55,4.889,4.889,0,0,0,.478,2.155,9.225,9.225,0,0,0,.5,1.088,6.278,6.278,0,0,0-3.581,1.689,7.6,7.6,0,0,0,5.279,1.383,6.37,6.37,0,0,0,2.305-.667,5.618,5.618,0,0,0,1.174-2.137,7.191,7.191,0,0,0-.971-5.842,6.777,6.777,0,0,0-1.943,3.54" fill="#108f6e"/>
        <path id="Trazado_570560" data-name="Trazado 570560" d="M354.345,312.17a10.087,10.087,0,0,1-.467,3.387c-.573,1.759-1.573,4.039-1.513,4.869a1.208,1.208,0,0,0,1.987.626c.783-.6,6.218-5.552,7.341-7.193s1.406-2.2,1.28-2.456a48.75,48.75,0,0,0-3.784-3.494c-.787-.623-4.771.705-4.844,4.261" fill="#91b31e"/>
        <path id="Trazado_570561" data-name="Trazado 570561" d="M173.558,59.793A27.673,27.673,0,0,0,184.423,79c10.422,8.03,20.223,4.749,20.223,4.749s.675-10.315-9.746-18.345a27.673,27.673,0,0,0-21.342-5.611" fill="#91b31e"/>
        <rect id="Rectángulo_281814" data-name="Rectángulo 281814" width="0.563" height="33.736" transform="translate(177.751 63.381) rotate(-52.384)" fill="#fff"/>
        <rect id="Rectángulo_281815" data-name="Rectángulo 281815" width="6.321" height="0.562" transform="translate(181.201 70.479) rotate(-1.835)" fill="#fff"/>
        <rect id="Rectángulo_281816" data-name="Rectángulo 281816" width="0.562" height="6.321" transform="translate(183.905 62.971) rotate(-12.946)" fill="#fff"/>
        <rect id="Rectángulo_281817" data-name="Rectángulo 281817" width="6.321" height="0.562" transform="translate(188.077 75.777) rotate(-1.835)" fill="#fff"/>
        <rect id="Rectángulo_281818" data-name="Rectángulo 281818" width="0.562" height="6.321" transform="translate(190.78 68.269) rotate(-12.946)" fill="#fff"/>
        <rect id="Rectángulo_281819" data-name="Rectángulo 281819" width="6.321" height="0.562" transform="translate(194.952 81.075) rotate(-1.835)" fill="#fff"/>
        <rect id="Rectángulo_281820" data-name="Rectángulo 281820" width="0.562" height="6.321" transform="translate(197.656 73.567) rotate(-12.946)" fill="#fff"/>
        <path id="Trazado_570562" data-name="Trazado 570562" d="M221.782,59.548a22.04,22.04,0,0,0-15.3,8.653c-6.4,8.3-3.782,16.107-3.782,16.107s8.215.537,14.61-7.763a22.04,22.04,0,0,0,4.469-17" fill="#bce13e"/>
        <path id="Trazado_570563" data-name="Trazado 570563" d="M153.554,78.945l5.884-9.447a104.318,104.318,0,0,0-10.347-26.35,83.948,83.948,0,0,0-14.2-18.514l-7.947,5.585s1.045-2.264,2.163-4.509l2.222-4.46a106.421,106.421,0,0,0-18.14-12.96c-2.872-1.58-5.388-2.906-7.727-3.933a36.794,36.794,0,0,0-5.974-2.142,33.536,33.536,0,0,0-4.255,9,50.28,50.28,0,0,0-1.7,6.777A66.516,66.516,0,0,0,92.5,26.033l4.968,2.007,4.933,1.929-5.01.193-5.035.143a76.743,76.743,0,0,0,10.659,39.507,78.98,78.98,0,0,0,4.5,6.84c1.561,2.143,3.151,4.171,4.8,6.042l7.01-.432,6.989-.482-8.806,6.427a92.529,92.529,0,0,0,19.653,14.668c2.671,1.485,4.893,2.527,6.453,3.212s2.463,1.017,2.463,1.017l8.24-5.709,8.24-5.709s.05-.518.053-1.545-.013-2.5-.113-4.389a108.9,108.9,0,0,0-1.951-15.3Z" fill="#91b31e"/>
        <path id="Trazado_570564" data-name="Trazado 570564" d="M156.872,99.625c-3.107-4.546-10.761-15.8-20.128-30.365C127.353,54.7,116.218,36.847,106.31,18.806c7.265,19.287,17.17,38.144,25.913,53.218,8.737,15.112,16.348,26.479,19.539,31.141l2.555-1.77Z" fill="#fff"/>
        <path id="Trazado_570565" data-name="Trazado 570565" d="M165.169,88.471l6.154-3.7a67.023,67.023,0,0,0,1.767-18.225,54.2,54.2,0,0,0-2.8-14.865l-6.205.925,2.556-1.983,2.563-1.948A65.975,65.975,0,0,0,162.411,35.9a36.449,36.449,0,0,0-6.268-7.385c-2.633,1.415-7.043,5.437-10.742,11.8l2.3,2.56,2.305,2.515-2.954-1.318L144.1,42.727a49.8,49.8,0,0,0-5.291,25.713,57.123,57.123,0,0,0,1.574,10.09l8.309,3.57-6.943,1.106a60.159,60.159,0,0,0,6.968,14.173c1.094,1.635,2.063,2.888,2.755,3.739s1.112,1.306,1.112,1.306l6.41-.841,6.41-.841a35.14,35.14,0,0,0,1.714-3.427,69.812,69.812,0,0,0,3.384-9.368Z" fill="#bce13e"/>
        <path id="Trazado_570566" data-name="Trazado 570566" d="M160.983,101.323c-.444-3.526-1.508-12.241-2.627-23.355s-2.313-24.641-2.907-37.9a259.551,259.551,0,0,0-.5,38.166c.6,11.238,1.6,20,2.059,23.614l1.987-.261Z" fill="#fff"/>
        <path id="Trazado_570567" data-name="Trazado 570567" d="M339.4,144.113s9.466-26.3,8.282-51.807,6.311-44.651,18.539-43.163,22.878,47.638-23.666,97.731Z" fill="#bce13e"/>
        <path id="Trazado_570568" data-name="Trazado 570568" d="M343.488,143.155l-.952-.6c.173-.273,17.185-27.689,17.844-57.932l1.123.024c-.665,30.561-17.841,58.23-18.015,58.506" fill="#fff"/>
        <path id="Trazado_570569" data-name="Trazado 570569" d="M341.533,147.243s16.972-8.848,34.382-10.4,29.708-8.4,27.571-16.557-34.426-11.127-64.117,25.067Z" fill="#91b31e"/>
        <path id="Trazado_570570" data-name="Trazado 570570" d="M342.413,145.107l-.72-.863c.171-.143,17.4-14.377,38.113-17.654l.176,1.11c-20.4,3.227-37.4,17.265-37.569,17.407" fill="#fff"/>
        <path id="Trazado_570571" data-name="Trazado 570571" d="M418.34,142.856a126.585,126.585,0,0,0-18.009-.842,58.931,58.931,0,0,0-22.072,5.018c-7.785,3.469-12.019,9.7-14.419,15.164a38.589,38.589,0,0,0-2.9,10.1,31.632,31.632,0,0,0,9.349,5,27.537,27.537,0,0,0,21.926-1.361,50.164,50.164,0,0,0,18.316-16.147,56.393,56.393,0,0,0,7.808-16.928" fill="#bce13e"/>
        <path id="Trazado_570572" data-name="Trazado 570572" d="M361.005,172.455l-.129-.324s3.119-1.245,7.741-3.246,10.751-4.752,16.8-7.681,12-6.029,16.4-8.476c2.211-1.205,4.023-2.263,5.289-3.009l1.993-1.163.179.3-1.995,1.165c-1.268.747-3.083,1.806-5.3,3.013-4.406,2.451-10.367,5.565-16.422,8.485s-12.181,5.689-16.81,7.688-7.75,3.249-7.75,3.249" fill="#fff"/>
        <path id="Trazado_570573" data-name="Trazado 570573" d="M394.329,156.884a8.341,8.341,0,0,1,.08-2.637,20.5,20.5,0,0,1,2.568-6.84l.3.176a20.24,20.24,0,0,0-2.51,6.713,10.759,10.759,0,0,0-.141,1.859,4.563,4.563,0,0,0,.05.664Z" fill="#fff"/>
        <path id="Trazado_570574" data-name="Trazado 570574" d="M385.632,161.347l.258-.236a5.386,5.386,0,0,0,.6.521,11.919,11.919,0,0,0,1.886,1.167,21.5,21.5,0,0,0,8.434,2.093l-.029.35a21.826,21.826,0,0,1-8.572-2.118,9.289,9.289,0,0,1-2.577-1.777" fill="#fff"/>
        <path id="Trazado_570575" data-name="Trazado 570575" d="M369.466,168.763l.268-.223a6.215,6.215,0,0,0,.664.626,13.642,13.642,0,0,0,2.106,1.428,24.816,24.816,0,0,0,9.557,2.8l-.043.349a25.183,25.183,0,0,1-9.69-2.825,10.576,10.576,0,0,1-2.862-2.155" fill="#fff"/>
        <path id="Trazado_570576" data-name="Trazado 570576" d="M376.4,165.571a12.332,12.332,0,0,1,.315-3.916,31.113,31.113,0,0,1,4.318-9.983l.288.19a30.71,30.71,0,0,0-4.25,9.883,16.005,16.005,0,0,0-.352,2.774,7.312,7.312,0,0,0,.027,1Z" fill="#fff"/>
        <path id="Trazado_570577" data-name="Trazado 570577" d="M400.37,153.787l.246-.249a5.58,5.58,0,0,0,1.51.919,13.1,13.1,0,0,0,5.014,1.015l-.013.352a13.515,13.515,0,0,1-5.167-1.048,5.579,5.579,0,0,1-1.59-.989" fill="#fff"/>
        <path id="Trazado_570578" data-name="Trazado 570578" d="M403.727,207.61c-1.868-8.161-5.6-20.6-17.077-29.888s-25.708-2.817-25.708-2.817-2.556,15.4,9.516,24.107,25,9.012,33.269,8.6" fill="#91b31e"/>
        <path id="Trazado_570579" data-name="Trazado 570579" d="M360.853,175.02l.177-.23L396.622,202l-.174.233Z" fill="#fff"/>
        <path id="Trazado_570580" data-name="Trazado 570580" d="M385.325,193.492a6.665,6.665,0,0,1,2.014-.877,16.175,16.175,0,0,1,6.111-.39l-.03.29a15.877,15.877,0,0,0-5.993.389,8.568,8.568,0,0,0-1.447.547,3.7,3.7,0,0,0-.482.276Z" fill="#fff"/>
        <path id="Trazado_570581" data-name="Trazado 570581" d="M378.8,188.609l.271.105a4.716,4.716,0,0,0-.163.644,10.26,10.26,0,0,0-.167,1.843,19.064,19.064,0,0,0,1.468,7.049l-.27.106a19.368,19.368,0,0,1-1.5-7.158,7.926,7.926,0,0,1,.362-2.589" fill="#fff"/>
        <path id="Trazado_570582" data-name="Trazado 570582" d="M367.026,179.607l.272.105a5.262,5.262,0,0,0-.19.737,11.773,11.773,0,0,0-.2,2.11,21.767,21.767,0,0,0,1.669,8.071l-.271.1a22.063,22.063,0,0,1-1.7-8.174,9.048,9.048,0,0,1,.422-2.954" fill="#fff"/>
        <path id="Trazado_570583" data-name="Trazado 570583" d="M372.128,183.4a9.959,9.959,0,0,1,3.007-1.3,24.291,24.291,0,0,1,9.123-.568l-.031.29a23.972,23.972,0,0,0-9.018.576,12.891,12.891,0,0,0-2.181.819,5.871,5.871,0,0,0-.728.413Z" fill="#fff"/>
        <path id="Trazado_570584" data-name="Trazado 570584" d="M389.77,196.992l.271.1a4.81,4.81,0,0,0-.189,1.467,11.326,11.326,0,0,0,.873,4.154l-.27.107a11.628,11.628,0,0,1-.9-4.279,4.8,4.8,0,0,1,.215-1.553" fill="#fff"/>
        <path id="Trazado_570585" data-name="Trazado 570585" d="M70.8,288.7s-.4-.568-2.71.464-7.644,8.069-9.222,11.83a38.777,38.777,0,0,0,5.34,4.065,27.5,27.5,0,0,1,3.076-2.244,65.713,65.713,0,0,1-.771,10.92,64.539,64.539,0,0,1-1.679,6.553A28.912,28.912,0,0,0,81.256,321.8s.121-9.768.425-13.53,2.063-7.948,1.092-11.467-5.12-4.834-8.476-8.271Z" fill="#ffd200"/>
        <path id="Trazado_570586" data-name="Trazado 570586" d="M77.448,279.8a9.741,9.741,0,0,0-1.8-4.9c-1.634-2.042-5.228-1.307-6.7,1.8a10.556,10.556,0,0,0-1.172,4.608,1.093,1.093,0,0,0-1.413.042c-1.095.747.564,3.379,2.234,2.924a5.78,5.78,0,0,0,1.413,1.7c0,2.124.434,2.69.434,2.69,1.552,1.879,3.376,3.735,4.6,2.918s-.245-1.96-.653-2.614a.682.682,0,0,1,.11-.994c3.676-.491,2.941-8.169,2.941-8.169" fill="#ff9a5c"/>
        <path id="Trazado_570587" data-name="Trazado 570587" d="M74.848,276.445s-.954,3.58-3.086,4.368a4.373,4.373,0,0,0,.781-1.031s-2.731,2.548-4.248,2.3c0,0-.97-.424-1.274-3.822s3.277-5.339,3.277-5.339h4.065l2.851,3.276.294,2.306a3.066,3.066,0,0,1-2.66-2.063" fill="#753519"/>
        <path id="Trazado_570588" data-name="Trazado 570588" d="M77.789,317.01s-12.6-2.176-17.16-4.7-4-4.773-3.369-6.387,2.6-5.054,2.6-5.054l4.464,3.194-.113.995-.762,1.739s1.457.924,3.655,2.144,11.148,5.325,11.148,5.325,2.175,1.794-.46,2.747" fill="#ff9a5c"/>
        <path id="Trazado_570589" data-name="Trazado 570589" d="M99.579,340.035l-2.55-13.853a3.307,3.307,0,0,0-1.89-2.415l-15.2-6.861.827-1.833,15.2,6.861a5.315,5.315,0,0,1,3.04,3.884l2.55,13.852Z" fill="#108f6e"/>
        <path id="Trazado_570590" data-name="Trazado 570590" d="M106.76,331.807s3.092-2.107,4.638-2.328,1.987,1.445,3.091,1.164a4.9,4.9,0,0,0,1.988-1.184l2.208,1.174s.221-.613,1.767,0,.662-.05,1.546.613a3.719,3.719,0,0,0,2.208.561,4.417,4.417,0,0,1,2.208,0c1.1.322,2.754-.539,5.3,0s4.858-.543,6.183,0,1.988,2.47,3.092,1.948a19.942,19.942,0,0,0,2.871-1.948l1.766,3.092s.663-1.426,1.546,0a7.4,7.4,0,0,0,2.871,2.309,4.391,4.391,0,0,1,1.1,1.354,17.157,17.157,0,0,1,1.2,4.049v1.325l-33.216-1.325L105.214,334.9Z" fill="#753519"/>
        <path id="Trazado_570591" data-name="Trazado 570591" d="M104.385,335.229l-2.55-13.854a3.3,3.3,0,0,0-1.89-2.414l-15.2-6.862.828-1.833,15.2,6.862a5.313,5.313,0,0,1,3.04,3.882l2.55,13.854Z" fill="#108f6e"/>
        <path id="Trazado_570592" data-name="Trazado 570592" d="M101.757,331.807s-2.81,8.727-3.55,10.206,1.775,6.8,1.775,6.8l26.477,13.016,25.884-17.9Z" fill="#108f6e"/>
        <path id="Trazado_570593" data-name="Trazado 570593" d="M96.812,374.216a3.561,3.561,0,0,1-2-.529c-1.337-.875-1.811-2.735-1.536-6.029.539-6.468,5.033-24.423,5.224-25.185l1.089.274c-.046.186-4.662,18.627-5.194,25-.232,2.795.1,4.383,1.032,4.995,1.411.922,4.7-.03,10.052-2.921,10.055-5.427,17.561-10.376,17.635-10.425l.62.937c-.075.049-7.62,5.025-17.722,10.478-4.266,2.3-7.193,3.4-9.2,3.4" fill="#108f6e"/>
        <path id="Trazado_570594" data-name="Trazado 570594" d="M152.365,349.737s-1.586,1.767-1.676,2.871,1.676,0,1.676,0,.883,1.2,1.767.491,0-1.569,0-1.569l.392-1.793Z" fill="#753519"/>
        <path id="Trazado_570595" data-name="Trazado 570595" d="M228.427,374.908l-1.5,1.162-1.328-1.786c-.827-1.141-2-2.772-3.347-4.772-2.711-3.986-6.153-9.417-9.285-15.03-3.15-5.6-5.952-11.4-7.885-15.825-.912-2.237-1.673-4.1-2.2-5.4l-.748-2.086,1.785-.647s.267.747.736,2.054l2.175,5.33c1.908,4.368,4.678,10.1,7.8,15.65,3.1,5.559,6.515,10.944,9.2,14.891,1.331,1.981,2.494,3.6,3.31,4.719l1.295,1.744" fill="#108f6e"/>
        <path id="Trazado_570596" data-name="Trazado 570596" d="M206.351,321.677a7.816,7.816,0,0,1-.263,5.126,5.691,5.691,0,0,1-3.321,3.327,5.407,5.407,0,0,1-4.725-.628,7.947,7.947,0,0,1-3.239-4.556,9.468,9.468,0,0,1-.317-1.5,8.7,8.7,0,0,1,.007-1.48,7.673,7.673,0,0,1,.7-2.637,5.173,5.173,0,0,1,3.661-2.974,5.977,5.977,0,0,1,4.619,1.113,7.079,7.079,0,0,1,1.742,1.8,10.842,10.842,0,0,1,1.134,2.408" fill="#fce300"/>
        <path id="Trazado_570597" data-name="Trazado 570597" d="M203.586,324.545a13.428,13.428,0,0,0-1.089-1.652,12.135,12.135,0,0,0-1.224-1.375,6.106,6.106,0,0,0-1.477-1.148,6.067,6.067,0,0,0-.8,1.755,10.152,10.152,0,0,0-.273,1.84,13.807,13.807,0,0,0,.016,2.055,11.272,11.272,0,0,0-4.67-.648,8.939,8.939,0,0,0-2.02.353c2.186,4.226,5.178,5.821,7.482,6.412a9.148,9.148,0,0,0,4.011.187,10.813,10.813,0,0,0,2.979-2.72A13.159,13.159,0,0,0,209.1,320.9a9.806,9.806,0,0,0-1.907.732,10.248,10.248,0,0,0-3.608,2.914" fill="#108f6e"/>
        <path id="Trazado_570598" data-name="Trazado 570598" d="M157.224,353.324s-1.325,2.6-1.1,3.259,1.1,0,1.1,0,1.325.589,1.988.295a7.768,7.768,0,0,0,1.766-1.736h-2.441Z" fill="#753519"/>
        <path id="Trazado_570599" data-name="Trazado 570599" d="M164.066,370.811s-5.546-.593-5.533,0,0,2.285,0,2.285a1.535,1.535,0,0,0-2.442,0,7.336,7.336,0,0,0-1.57,3.608,2.287,2.287,0,0,1-1.92,1.544,2.281,2.281,0,0,0-1.916,1.548,36.271,36.271,0,0,0,5.406,1.325,18.162,18.162,0,0,0,3.779,0,17.359,17.359,0,0,1,4.2.1c1.988.344,4.2.785,6.183,1.006s5.521-1.546,5.521-1.546a62.5,62.5,0,0,1,8.613.221,10.425,10.425,0,0,0,5.079-.662l.884-1.99a5.48,5.48,0,0,1-2.871-1.852c-1.105-1.458-2.43-5.295-3.313-5.585a19.979,19.979,0,0,1-3.312-2.291s-2.209-3.409-2.43-5.563-3.091-3.535-3.091-3.535a3.921,3.921,0,0,0-2.209,2.194,2.238,2.238,0,0,1-2.6,1.341s-1.149.192-1.811,2.111a20.918,20.918,0,0,0-.884,3.452s-2.65-.9-3.975,0,.221,2.291.221,2.291" fill="#753519"/>
        <rect id="Rectángulo_281821" data-name="Rectángulo 281821" width="2.247" height="9.222" transform="matrix(0.843, -0.538, 0.538, 0.843, 125.351, 361.52)" fill="#108f6e"/>
        <rect id="Rectángulo_281822" data-name="Rectángulo 281822" width="41.251" height="2.368" transform="matrix(0.359, -0.933, 0.933, 0.359, 331.394, 375.888)" fill="#91b31e"/>
        <rect id="Rectángulo_281823" data-name="Rectángulo 281823" width="2.368" height="41.25" transform="translate(346.216 338.243) rotate(-21.054)" fill="#91b31e"/>
        <rect id="Rectángulo_281824" data-name="Rectángulo 281824" width="12.805" height="2.367" transform="translate(341.142 352.683)" fill="#91b31e"/>
        <rect id="Rectángulo_281825" data-name="Rectángulo 281825" width="18.559" height="2.367" transform="translate(338.197 361.146)" fill="#91b31e"/>
        <path id="Trazado_570600" data-name="Trazado 570600" d="M332.6,215.88a18.766,18.766,0,0,0-4.19,6.362,5.251,5.251,0,0,0,3.569,7.06,30.671,30.671,0,0,1,.621,4.732,12.929,12.929,0,0,0,3.569.466,9.711,9.711,0,0,0,2.327-.621v-4.965a12.939,12.939,0,0,0,3.026-4.034c.7-1.94,1.319-6.673-.931-9s-6.752-1.372-7.991,0" fill="#ff9a5c"/>
        <path id="Trazado_570601" data-name="Trazado 570601" d="M298.911,200.807s-.083.348-1.871.9-3.067.042-3.578,1.49.511,4.259-.6,4.855a5.047,5.047,0,0,0-1.448,1.023s2.808,3.577,3.747,5.11a5.521,5.521,0,0,0,1.7-2.811c.426-1.788,3.335-.929,4-1.533a13.522,13.522,0,0,0,1.378-1.533s-.956-6.231-3.339-7.5" fill="#91b31e"/>
        <path id="Trazado_570602" data-name="Trazado 570602" d="M336.833,219.086s-3.121-2.177-3.847-4.21.145-3.907,1.924-3.7a17.009,17.009,0,0,1,2.721.5s1.657-2.1,4.53.58a8.432,8.432,0,0,1,2.511,6.46s3.629,1.016,2.177,4.428a8.616,8.616,0,0,1-4.688,4.519s-.465,2.211-1.7,2.329a7.9,7.9,0,0,0-1.97.411l.228-4.139a2.168,2.168,0,0,0,1.815-1.379c.653-1.379-1.379-1.161-1.379-1.161s-1.162-2.1-.654-2.9c0,0-1.814-.726-1.669-1.742" fill="#753519"/>
        <path id="Trazado_570603" data-name="Trazado 570603" d="M321.472,227.087a74.607,74.607,0,0,1-10.323-10.2c-4.745-5.821-7.65-9.985-7.65-9.985a11.83,11.83,0,0,0-.969-4.454,6.679,6.679,0,0,0-1.646-2.421c-.581-.775-.578.629.156,2l.734,1.367s-1.9-3.035-2.6-2.934.133,1.1.5,1.633a4.2,4.2,0,0,1,.5,1.467s-1.367-2.1-1.834-1.733.5,1.633,1.267,2.634.9,2.567,1.367,3.4c0,0,6.6,17.124,16,24.481s4.495-5.247,4.495-5.247" fill="#ff9a5c"/>
        <path id="Trazado_570604" data-name="Trazado 570604" d="M303.327,207.129a10.308,10.308,0,0,1,.285-1.232c.079-.121.337-1.045.531-1.625s-.086-1.138-.409-.859a3.522,3.522,0,0,0-1.03,1.933,6.085,6.085,0,0,0,.623,1.783" fill="#ff9a5c"/>
        <path id="Trazado_570605" data-name="Trazado 570605" d="M347.192,244.38s4.211,5.107,5.821,5.912,5.859-2.733,8.051-6.8a61.21,61.21,0,0,0,3.326-7.15s2.847-2.064,3.652-4.032c0,0,.292-.88,0-1.077s-1.131,1.233-1.574,1.775c0,0,1.282-2.219,1.084-2.712s-2.021,2.071-2.021,2.071,1.43-2.613.937-2.662-1.874,2.317-1.874,2.317-.049-1.627-.542-1.528-.345,1.923-.345,1.923-.493,2.267-.789,3.007-6.508,7.84-7.3,8.037c0,0-2.515-3.55-4.832-4.24s-3.6,5.158-3.6,5.158" fill="#ff9a5c"/>
        <path id="Trazado_570606" data-name="Trazado 570606" d="M325.65,260.21s5.833,61.806,6.851,67.01c0,0,5.527.667,7.41,0,0,0-.415-37.632,0-41.5s3.751-23.62,2.55-26.289-16.811.781-16.811.781" fill="#0e1a34"/>
        <path id="Trazado_570607" data-name="Trazado 570607" d="M343.929,259.162s2.075,24.723,3.106,28.508,12.206,19.781,12.206,19.781l-4.9,4.956S344.2,302.132,341.26,298.395s-8.007-19.35-8.007-19.35,2.936-23.753,10.676-19.883" fill="#0e1a34"/>
        <path id="Trazado_570608" data-name="Trazado 570608" d="M257.372,119.6c-5.69-1.766-9.81-2.32-13.145-4.2s-6.671-3.272-9.222-3.165-7.848-1.284-10.987,0-6.462,7.75-11.275,8.931-16.9-1.369-20.273-3.527-4.334-6.474-3.364-8.633a18.2,18.2,0,0,0,1.166-7.419c-.2-1.41,4.9-4.177,6.671-6.03s3.435-7.892-.743-10.912a142.332,142.332,0,0,0-54.314,25.116,8.757,8.757,0,0,0,1.3,3.366c1.177,1.962-.71,3.139-.65,3.727s1.112.521.194,1.634.016.917-.843,1.7a25.175,25.175,0,0,1-2.233,1.962c-.588.392-.392,1.569-1.569,2.943s-3.336,2.55-3.336,4.708-3.335,5.1-3.728,6.279-3.727,5.689-3.923,8.632a51.523,51.523,0,0,0,0,7.848,18.471,18.471,0,0,1-.148,5.886,45.816,45.816,0,0,0-1.03,8.044c-.2,3.924,1.374,5.69,5.1,6.867s10.781,4.513,12.552,7.064,2.752,5.689,4.125,6.082,2.551,4.512,7.063,7.651,12.95,3.537,16.677,7.557,10.6,13.814,12.361,19.217,4.708,7.393,7.848,10.028,7.063,5.577,10.006,5.773,4.143-1.037,4.033-2.088-3.837-4.19-4.426-4.975-1.765-6.082-3.531-9.81-1.962-3.88-1.374-5.668,1.766-5.705,3.532-6.689,3.139-.266,4.316-2,1.593-2.708,1.483-3.789-1.875-1.753-3.641-1.908-2.354-1.725-4.709-2.117-5.689-1.374-6.474-2.747a3.7,3.7,0,0,0-3.728-1.569c-1.177.2-4.709.784-7.063-1.57s-2.551-6.867-2.943-9.221-.785-3.139-.2-4.9.588-3.151,3.335-4.42,7.259-2.262,10.006,0,8.241.5,9.418-.878,4.512-5.493,7.259-5.689,7.259,0,9.025-1.57,8.437-4.879,9.614-7.541,5.69-10.382,5.69-12.9,8.24-7.421,10.594-6.636,5.494-2.943,6.671-2.943,4.709.588,6.671-1.766,3.531-3.936,5.1-6.186,2.747-5.782-2.943-7.548" fill="#108f6e"/>
        <path id="Trazado_570609" data-name="Trazado 570609" d="M245.138,304.551a103.9,103.9,0,0,0-12.237-6.508c-5.62-2.367-9.762-10.742-11.241-12.471s-2.662-16.816,0-19.479,5.343-7.1,7.553-10.649,3.1-5.917,2.209-7.4-.887-9.878,0-11.3,5.325-4.083,7.4-3.787,8.579-1.525,11.241-.023,12.721,6.82,17.158,7.119,8.875,4.145,12.425,2.074,8.76.3,11.776,4.734,6.565,8.952,11.594,11.871,4.592,5.582,7.473,6.174,9.317,2.348,12.8,4.733,2.343,5.325-.536,8.875-6.459,9.171-8.811,12.721-1.494,8.875,0,10.354.312,7.691-1.759,9.466-6.508,4.733-8.283,7.988-1.6,5.667-5.683,7.123-13.25,5.6-18.871,6.928-10.354,1.646-14.2,4.891-4.388,12.056-8.007,13.567-14.476,8.306-18.618,7.867-4.135-1.268-1.772-4.256,8.346-8.249,11.716-13.046-1.069-9.429,1.889-11.371,3.476-7.71,4.4-9.411.676-11.148-9.617-16.788" fill="#108f6e"/>
        <path id="Trazado_570610" data-name="Trazado 570610" d="M330.13,172.293c.592,1.206,3.747,2.586,6.114,3.77s4.59-.637,5.549-3.77,5.1-3.725,7.27-2.541,4.536,1.775,6.114,1.38c1.557-.389,4.578-1.55,4.656-1.58a143.333,143.333,0,0,0-41.3-55.805,30.818,30.818,0,0,1-4.185,4.737A14.8,14.8,0,0,0,310.485,124c-.668,1.381-2.641,7.3-1.852,9.861s.461,4.339,3.386,6.508,5.528,2.907,4.226,6.877-.315,8.212-1.7,10.331a7.116,7.116,0,0,0,1.7,9.022c3.235,2.761,7.377,2.17,8.363,2.367s4.93,2.124,5.522,3.33" fill="#108f6e"/>
        <path id="Trazado_570611" data-name="Trazado 570611" d="M232.9,205.5a6.6,6.6,0,0,1-1.972,4.486c-1.972,1.775-3.945,4.93-1.972,5.325s6.113.976,7.1,1.573,6.113,3.357,7.494,2.371,2.366-3.353,3.747-3.55,1.775-3.693,2.958-4.805,5.325-5.056,5.72-8.211.788-7.889,0-9.072-6.311-1.972-6.9-3.55-4.109-2.761-6.788-1.183-3.862,5.127-4.256,7.691-5.325,4.439-5.128,8.925" fill="#108f6e"/>
        <path id="Trazado_570612" data-name="Trazado 570612" d="M317.7,121.773l-1.625-1.221s.485-.64,1.281-1.889,1.894-3.047,3.108-5.279a125.557,125.557,0,0,0,7.552-17.06,148.878,148.878,0,0,0,5.2-17.951c.624-2.475.934-4.584,1.235-6.041.277-1.463.435-2.3.435-2.3l2,.344s-.16.846-.441,2.327c-.3,1.476-.619,3.609-1.25,6.116a150.778,150.778,0,0,1-5.274,18.193,127.418,127.418,0,0,1-7.678,17.342c-1.24,2.279-2.356,4.135-3.188,5.412-.813,1.278-1.361,2.006-1.361,2.006" fill="#108f6e"/>
        <path id="Trazado_570613" data-name="Trazado 570613" d="M343.5,62.589c-.6,4.379-3.975,7.429-7.464,6.819s-5.849-4.354-5.29-8.364c.4-4.035,3.6-7.1,7.141-6.858s6.056,4.01,5.613,8.4" fill="#fce300"/>
        <path id="Trazado_570614" data-name="Trazado 570614" d="M339.5,64.357a13.072,13.072,0,0,0-.313-2.156,8.722,8.722,0,0,0-1.745-3.628,8.7,8.7,0,0,0-2.42,3.12,16.411,16.411,0,0,0-.893,1.944,11.309,11.309,0,0,0-6.426-2.961,13.391,13.391,0,0,0,4.255,8.885,11.1,11.1,0,0,0,3.615,2.3,10.185,10.185,0,0,0,4.229-.948c2.344-1.043,5.046-3.29,6.73-7.952a11.923,11.923,0,0,0-7.032,1.4" fill="#108f6e"/>
        <path id="Trazado_570615" data-name="Trazado 570615" d="M290.887,22.039a20.107,20.107,0,0,0-5.032,2.289c-3.329,1.922-10.8,9.318-10.8,9.318s2.736,4.956,6.212,7.618a55.443,55.443,0,0,0,5.1-2.589s2.071,9.984-2.071,16.123a11.072,11.072,0,0,0,6.287,3.4c3.919.591,8.061.516,11.463,2.957s8.949,2.22,11.315,0c0,0,2-7.691,0-14.865a37.961,37.961,0,0,0-4.881-11.168l1.258.962s4.289-4.66,4.511-8.284c0,0-4.955-5.1-8.505-7.024s-7.43-1.259-10.371,0a13.069,13.069,0,0,1-4.491,1.26" fill="#108f6e"/>
        <path id="Trazado_570616" data-name="Trazado 570616" d="M283.176,12.9c.034.328.879,4.394,2.856,6.371s3.515.769,4.064.989.879,1.757.879,2.856,1.757,2.2,3.4.988.769-6.81.769-6.81a6.774,6.774,0,0,0,.234-4.394s.842-2.087.249-3.3-1.472-.879-1.911,0c0,0-2.087-3.845-5.163-3.186s-5.821,2.307-5.382,6.481" fill="#ff9a5c"/>
        <path id="Trazado_570617" data-name="Trazado 570617" d="M297.456,10.59c-.989-1.318-.33-4.723-1.613-6.7s-3.989-1.318-3.989-1.318S291.2-.394,288.668.045s-4.833,3.844-4.833,3.844a8.23,8.23,0,0,0-3.735,0c-2.416.44-5.162,2.087-4.174,4.5s4.724,2.28,4.724,2.28-.989,4.75,2.48,3.432c.1-.039.189-.093.285-.139a10.752,10.752,0,0,1-.239-1.069,5.148,5.148,0,0,1,2.94-5.656,10.3,10.3,0,0,1,2.442-.825c3.076-.659,5.163,3.185,5.163,3.185.44-.878,1.318-1.208,1.911,0s-.249,3.3-.249,3.3a7.1,7.1,0,0,1,.09,3.346,2.2,2.2,0,0,0,.37.059c3.221,0,2.6-4.394,1.613-5.712" fill="#753519"/>
        <path id="Trazado_570618" data-name="Trazado 570618" d="M283.415,13.966s3.784-1.6,4.053-7.262c0,0,1.164,3.53,6.253,2.9,0,0-.4-4.716-4.593-5.9s-7.261,5.81-7.261,5.81a4.88,4.88,0,0,0,1.548,4.453" fill="#753519"/>
        <path id="Trazado_570619" data-name="Trazado 570619" d="M290.4,99.608c-.793-6.656-2.108-13.3-2.121-13.365l.551-.11c.013.067,1.332,6.731,2.128,13.408Z" fill="#fff"/>
        <path id="Trazado_570620" data-name="Trazado 570620" d="M85.16,310.123a15.969,15.969,0,0,1,1.825.137c.652.114,1.072,1.039,1.257,1.409s-.628.333-1.035-.185-.492-.647-.492-.647a2.258,2.258,0,0,0-.969,0c-.351.129-.779-.286-.85-.577s.264-.137.264-.137" fill="#ff9a5c"/>
        <path id="Trazado_570621" data-name="Trazado 570621" d="M77.451,316.9a8.087,8.087,0,0,0,2.371,1.7c.1.851.59,1.211.865,1.179s.281-1.31.281-1.31c.245.589,1.211,1.178,1.342.818a2.135,2.135,0,0,0,0-.949s.393.524.688.524.654-.262.523-.917a6.316,6.316,0,0,0-.916-2.161c-.393-.523-.622-1.047-1.473-1.244A14.09,14.09,0,0,0,79,314.382a18.489,18.489,0,0,0-2.455,0Z" fill="#ff9a5c"/>
        <path id="Trazado_570622" data-name="Trazado 570622" d="M77.789,314.867v-.528a11.077,11.077,0,0,1,2.867-.558c.476.167.923.835,1.185,1.086s-4.052,0-4.052,0" fill="#ff9a5c"/>
        <path id="Trazado_570623" data-name="Trazado 570623" d="M145.8,377.337a10.295,10.295,0,1,1-10.295-10.3,10.295,10.295,0,0,1,10.295,10.3" fill="#0e1a34"/>
        <path id="Trazado_570624" data-name="Trazado 570624" d="M135.5,381.936a4.6,4.6,0,1,1,4.6-4.6,4.6,4.6,0,0,1-4.6,4.6m0-8.636a4.037,4.037,0,1,0,4.037,4.036A4.041,4.041,0,0,0,135.5,373.3" fill="#fff"/>
        <path id="Trazado_570625" data-name="Trazado 570625" d="M259,209.757a31.055,31.055,0,0,0-3.957,4.429c-1.63,2.321,2.793,1.158,3.957,1.39s1.4,1.914,3.724,1.306a13.114,13.114,0,0,0,2.328-.607c2.1-.7,2.793-.466,4.888-.7s1.683-1.754,2.82-3.088,1.191-2.5,0-3.662-1.889,2.328-4.216,0-2.25-4.327-4.384-3.328-1.58,1.352-2.555,2.224S259,209.757,259,209.757" fill="#108f6e"/>
        <path id="Trazado_570626" data-name="Trazado 570626" d="M334.747,231.782a17.338,17.338,0,0,1-12.527-5.353,27.4,27.4,0,0,0-5.974,7.137s4.189,4.888,8.922,7.138c0,0-2.144,18.032-1.009,24.284,0,0,7.526,1.4,12.181,1.707a39.519,39.519,0,0,0,10.4-1.164l-1.319-22.267,1.319,1.552s4.81-4.422,4.888-6.827c0,0-6.86-6.44-9.831-7.448s-4.155,1.473-7.046,1.241" fill="#91b31e"/>
        <path id="Trazado_570627" data-name="Trazado 570627" d="M340.01,295.831l-.562-.009c.009-.507.207-12.42.561-14.065.345-1.615,2.414-12.857,2.435-12.97l.553.1c-.021.114-2.093,11.364-2.439,12.987-.342,1.59-.546,13.833-.548,13.956" fill="#fff"/>
        <path id="Trazado_570628" data-name="Trazado 570628" d="M251.029,384.074H239.546s-6.289-42.086,0-50.976,19.471-5.862,11.483,50.976" fill="#ffd200"/>
        <path id="Trazado_570629" data-name="Trazado 570629" d="M235.819,384.074h-10.25s-13.444-4.193-19.883-14.442,3.112-14.6,10.1-10.21,20.033,24.652,20.033,24.652" fill="#ffd200"/>
        <path id="Trazado_570630" data-name="Trazado 570630" d="M239.546,384.074h-6.29s-14.908-14.722-16.772-32.519,12.347-12.018,18.636,3.612a100.065,100.065,0,0,1,6.988,28.907Z" fill="#91b31e"/>
        <path id="Trazado_570631" data-name="Trazado 570631" d="M254.756,384.074h10.249s13.445-4.193,19.884-14.442-3.112-14.6-10.1-10.21-20.033,24.652-20.033,24.652" fill="#ffd200"/>
        <path id="Trazado_570632" data-name="Trazado 570632" d="M251.029,384.074h6.289s14.909-14.722,16.772-32.519-12.347-12.018-18.636,3.612a100.081,100.081,0,0,0-6.987,28.907Z" fill="#91b31e"/>
        <path id="Trazado_570633" data-name="Trazado 570633" d="M286.341,197.316l.609-1.243.791,1.136,1.243.609-1.136.791-.609,1.242-.791-1.135-1.242-.609Z" fill="#fff"/>
        <path id="Trazado_570634" data-name="Trazado 570634" d="M308.153,202.462l.371-.756.481.691.756.37-.691.481-.37.757-.482-.691-.756-.371Z" fill="#fff"/>
        <path id="Trazado_570635" data-name="Trazado 570635" d="M311.671,192.283l.37-.756.482.691.756.37-.691.481-.37.757-.482-.691-.756-.371Z" fill="#fff"/>
        <path id="Trazado_570636" data-name="Trazado 570636" d="M281.08,188.483l.37-.756.482.691.756.37-.691.481-.37.757-.482-.691-.756-.371Z" fill="#fff"/>
        <path id="Trazado_570637" data-name="Trazado 570637" d="M285.645,216.38l.37-.756.482.691.756.37-.691.481-.37.757-.482-.691-.756-.371Z" fill="#fff"/>
        <path id="Trazado_570638" data-name="Trazado 570638" d="M208.252,45.657l-.228-.163c.222-.312.348-.478.348-.478l.224.17s-.126.165-.344.471" fill="#fff"/>
        <path id="Trazado_570639" data-name="Trazado 570639" d="M200.782,61.746l-.275-.06.057-.248.273.065c-.019.081-.037.162-.055.243m.341-1.376-.271-.073q.154-.57.326-1.131l.269.083q-.171.555-.324,1.121m.683-2.233-.266-.09c.126-.374.259-.743.4-1.108l.263.1q-.2.544-.392,1.1m.815-2.189-.261-.106q.224-.552.455-1.085l.258.112q-.229.53-.452,1.079m.93-2.147-.255-.117q.25-.543.506-1.062l.253.124c-.169.343-.338.7-.5,1.055m1.032-2.1-.249-.129q.279-.536.554-1.037l.246.135q-.273.5-.551,1.031m1.124-2.051-.244-.141q.308-.532.6-1.012l.241.145c-.192.318-.391.654-.594,1.008m1.21-2-.237-.15c.232-.366.448-.7.642-.986l.234.155c-.194.29-.408.618-.639.981" fill="#fff"/>
        <path id="Trazado_570640" data-name="Trazado 570640" d="M200.54,62.932l-.277-.051c.036-.194.074-.39.114-.583l.275.056q-.06.288-.112.578" fill="#fff"/>
        <path id="Trazado_570641" data-name="Trazado 570641" d="M210.323,46.365l-.276-.052c.07-.375.114-.579.114-.579l.275.058s-.043.2-.113.573" fill="#fff"/>
        <path id="Trazado_570642" data-name="Trazado 570642" d="M208.855,60.4q-.018-.589-.022-1.176l.281,0q0,.583.021,1.17Zm.264-2.347-.281,0q.009-.591.03-1.174l.281.01q-.021.579-.03,1.169m.083-2.337-.281-.015q.033-.6.074-1.173l.28.02q-.04.574-.073,1.168m.167-2.336-.28-.024q.052-.6.112-1.17l.28.03c-.039.377-.077.766-.112,1.164m.243-2.328-.279-.033q.072-.61.148-1.165l.279.037q-.075.553-.148,1.161m.313-2.319-.278-.042c.065-.427.127-.816.185-1.161l.276.046c-.057.344-.119.732-.183,1.157" fill="#fff"/>
        <path id="Trazado_570643" data-name="Trazado 570643" d="M209.006,62.919q-.027-.3-.049-.591l.28-.021c.015.2.031.391.049.587Z" fill="#fff"/>
        <path id="Trazado_570644" data-name="Trazado 570644" d="M204.515,66.864c-.014-.194-.026-.386-.035-.579l.281-.013c.009.19.021.381.034.572Zm-.071-1.706c0-.151,0-.3,0-.451,0-.228,0-.453.007-.678l.281,0c-.005.223-.007.448-.007.673,0,.148,0,.3,0,.446Zm.327-2.242-.28-.014q.03-.569.078-1.127l.28.025q-.048.552-.078,1.116m.19-2.231-.279-.033q.066-.565.147-1.118l.278.04q-.079.549-.146,1.111m.324-2.216-.277-.05c.066-.375.137-.744.21-1.107l.276.056q-.111.542-.209,1.1m.446-2.2-.273-.063q.129-.56.268-1.1l.272.071q-.138.533-.267,1.088m.56-2.17-.27-.077q.159-.557.323-1.081l.268.083q-.162.522-.321,1.075m.667-2.141-.266-.09c.125-.371.251-.726.375-1.064l.263.1q-.185.5-.372,1.058m.77-2.106-.261-.1c.15-.379.294-.728.428-1.044l.259.11c-.134.314-.277.661-.426,1.038m.879-2.063-.255-.117c.3-.652.489-1.007.5-1.022l.248.132s-.193.363-.49,1.007" fill="#fff"/>
        <path id="Trazado_570645" data-name="Trazado 570645" d="M67.127,301.952c-.121-.074-.247-.139-.367-.215a44.074,44.074,0,0,0-6.015-3.651,2.486,2.486,0,0,1-.245-.138,23.133,23.133,0,0,0-1.631,3.042,38.81,38.81,0,0,0,5.339,4.065s1.344-1.117,2.438-1.848a10.442,10.442,0,0,1,.481-1.255" fill="#ffd200"/>
      </g>
    </g>
  </g>
</svg>
