<svg xmlns="http://www.w3.org/2000/svg" width="1251.138" height="146.819" viewBox="0 0 1251.138 146.819"><g transform="translate(-174.431 -830.062)"><path d="M0,0,73.41,73.41,0,146.82H176.514l75.225-75.225L180.144,0Z" transform="translate(174.431 830.062)" fill="#ff854e"/><path d="M334.3,0l73.41,73.409L334.3,146.82H510.819l75.225-75.225L514.449,0Z" transform="translate(35.447 830.062)" fill="#ffd63d"/><path d="M0,0,73.41,73.41,0,146.82H176.514l75.225-75.225L180.144,0Z" transform="translate(569.92 830.062)" fill="#ffce7e"/><path d="M334.3,0l73.41,73.409L334.3,146.82H510.819l75.225-75.225L514.449,0Z" transform="translate(433.499 830.062)" fill="#79be60"/><path d="M334.3,0l73.41,73.409L334.3,146.82H510.819l75.225-75.225L514.449,0Z" transform="translate(632.524 830.062)" fill="#bbdeaf"/><path d="M1.445,0V-14.219h4.2a6.586,6.586,0,0,1,3.345.84A5.726,5.726,0,0,1,11.25-11a7.564,7.564,0,0,1,.8,3.535v.713a7.532,7.532,0,0,1-.806,3.555A5.658,5.658,0,0,1,8.95-.83,6.892,6.892,0,0,1,5.537,0ZM3.916-12.227V-1.973H5.527A3.71,3.71,0,0,0,8.511-3.188,5.3,5.3,0,0,0,9.57-6.68v-.791a5.434,5.434,0,0,0-1.006-3.535,3.566,3.566,0,0,0-2.92-1.221ZM18.936.2a4.91,4.91,0,0,1-3.657-1.421,5.154,5.154,0,0,1-1.4-3.784V-5.3a6.34,6.34,0,0,1,.61-2.827A4.645,4.645,0,0,1,16.2-10.068a4.531,4.531,0,0,1,2.461-.693A4.147,4.147,0,0,1,22-9.385a5.823,5.823,0,0,1,1.177,3.9v.957h-6.9a3.173,3.173,0,0,0,.874,2.07,2.624,2.624,0,0,0,1.929.762,3.213,3.213,0,0,0,2.656-1.318L23.008-1.8a4.272,4.272,0,0,1-1.694,1.47A5.3,5.3,0,0,1,18.936.2Zm-.283-9.053a2,2,0,0,0-1.577.684,3.543,3.543,0,0,0-.767,1.9H20.83v-.176a2.884,2.884,0,0,0-.635-1.8A1.983,1.983,0,0,0,18.652-8.857ZM25.645,0V-8.809H24.033v-1.758h1.611v-.723a4.227,4.227,0,0,1,.527-2.129,3.28,3.28,0,0,1,1.465-1.338,5.273,5.273,0,0,1,2.275-.449,6.633,6.633,0,0,1,1.5.166q.718.166,1.489.42l-.361,1.963a7.554,7.554,0,0,0-2.461-.469,2.2,2.2,0,0,0-1.572.474,1.9,1.9,0,0,0-.488,1.421v.664H30.1v1.758h-2.08V0Zm8.379,0H31.65V-10.566h2.373Zm4.834-10.566.068,1.221A3.8,3.8,0,0,1,42-10.762q3.3,0,3.359,3.779V0H42.988V-6.846a2.176,2.176,0,0,0-.435-1.489,1.828,1.828,0,0,0-1.421-.483,2.287,2.287,0,0,0-2.139,1.3V0H36.621V-10.566ZM50.3,0H47.93V-10.566H50.3Zm-2.52-13.311a1.259,1.259,0,0,1,.347-.908,1.309,1.309,0,0,1,.991-.361,1.326,1.326,0,0,1,1,.361,1.25,1.25,0,0,1,.352.908,1.221,1.221,0,0,1-.352.894,1.336,1.336,0,0,1-1,.356,1.32,1.32,0,0,1-.991-.356A1.23,1.23,0,0,1,47.783-13.311ZM58.418-8.4a5.872,5.872,0,0,0-.967-.078,2.177,2.177,0,0,0-2.2,1.25V0H52.881V-10.566h2.266l.059,1.182a2.674,2.674,0,0,1,2.383-1.377,2.222,2.222,0,0,1,.84.137Zm9,8.4H65.049V-15h2.373Zm2.139-5.381a6.231,6.231,0,0,1,.615-2.8A4.493,4.493,0,0,1,71.9-10.093a4.87,4.87,0,0,1,2.559-.669,4.615,4.615,0,0,1,3.472,1.377,5.416,5.416,0,0,1,1.44,3.652l.01.557a6.286,6.286,0,0,1-.6,2.793,4.439,4.439,0,0,1-1.719,1.9A4.906,4.906,0,0,1,74.482.2,4.584,4.584,0,0,1,70.9-1.294a5.7,5.7,0,0,1-1.343-3.97Zm2.373.205a4.258,4.258,0,0,0,.674,2.554,2.191,2.191,0,0,0,1.875.923,2.167,2.167,0,0,0,1.87-.937,4.7,4.7,0,0,0,.669-2.744,4.2,4.2,0,0,0-.688-2.539,2.2,2.2,0,0,0-1.87-.937,2.178,2.178,0,0,0-1.846.923A4.614,4.614,0,0,0,71.934-5.176Zm15.381,2.3a1.076,1.076,0,0,0-.522-.967,5.557,5.557,0,0,0-1.733-.586,8.911,8.911,0,0,1-2.021-.645,2.7,2.7,0,0,1-1.777-2.49,2.813,2.813,0,0,1,1.152-2.285,4.556,4.556,0,0,1,2.93-.918,4.74,4.74,0,0,1,3.062.938A2.975,2.975,0,0,1,89.57-7.393H87.2a1.462,1.462,0,0,0-.508-1.138,1.946,1.946,0,0,0-1.348-.454,2.1,2.1,0,0,0-1.274.361,1.139,1.139,0,0,0-.493.967.962.962,0,0,0,.459.85,6.312,6.312,0,0,0,1.855.61,8.783,8.783,0,0,1,2.192.732,3.1,3.1,0,0,1,1.182,1.021A2.6,2.6,0,0,1,89.648-3a2.753,2.753,0,0,1-1.182,2.31,5.039,5.039,0,0,1-3.1.884,5.464,5.464,0,0,1-2.314-.469,3.809,3.809,0,0,1-1.582-1.289,3.051,3.051,0,0,1-.566-1.768h2.3a1.672,1.672,0,0,0,.635,1.294,2.467,2.467,0,0,0,1.553.454,2.4,2.4,0,0,0,1.426-.356A1.1,1.1,0,0,0,87.314-2.871ZM.771,21.619a6.231,6.231,0,0,1,.615-2.8,4.493,4.493,0,0,1,1.729-1.914,4.87,4.87,0,0,1,2.559-.669,4.615,4.615,0,0,1,3.472,1.377,5.416,5.416,0,0,1,1.44,3.652l.01.557a6.286,6.286,0,0,1-.6,2.793,4.439,4.439,0,0,1-1.719,1.9,4.906,4.906,0,0,1-2.583.674,4.584,4.584,0,0,1-3.579-1.489,5.7,5.7,0,0,1-1.343-3.97Zm2.373.205a4.258,4.258,0,0,0,.674,2.554,2.191,2.191,0,0,0,1.875.923,2.167,2.167,0,0,0,1.87-.937,4.7,4.7,0,0,0,.669-2.744,4.2,4.2,0,0,0-.688-2.539,2.2,2.2,0,0,0-1.87-.937,2.178,2.178,0,0,0-1.846.923A4.614,4.614,0,0,0,3.145,21.824Zm18.73,0a6.347,6.347,0,0,1-1.1,3.916A3.579,3.579,0,0,1,17.754,27.2a3.447,3.447,0,0,1-2.891-1.338L14.746,27H12.6V12h2.373v5.449a3.435,3.435,0,0,1,2.764-1.211,3.62,3.62,0,0,1,3.037,1.436,6.452,6.452,0,0,1,1.1,4.014ZM19.5,21.619a4.486,4.486,0,0,0-.605-2.578,2.016,2.016,0,0,0-1.758-.859,2.2,2.2,0,0,0-2.168,1.348v4.355a2.226,2.226,0,0,0,2.188,1.377,2,2,0,0,0,1.719-.83,4.347,4.347,0,0,0,.625-2.51Zm6.836-5.186v11.5a3.476,3.476,0,0,1-.806,2.476,3.088,3.088,0,0,1-2.358.854,4.743,4.743,0,0,1-1.26-.166V29.227a3.656,3.656,0,0,0,.84.088q1.182,0,1.211-1.289V16.434ZM23.76,13.689a1.259,1.259,0,0,1,.347-.908,1.309,1.309,0,0,1,.991-.361,1.326,1.326,0,0,1,1,.361,1.25,1.25,0,0,1,.352.908,1.221,1.221,0,0,1-.352.894,1.336,1.336,0,0,1-1,.356,1.32,1.32,0,0,1-.991-.356A1.23,1.23,0,0,1,23.76,13.689ZM33.525,27.2a4.91,4.91,0,0,1-3.657-1.421,5.154,5.154,0,0,1-1.4-3.784V21.7a6.34,6.34,0,0,1,.61-2.827,4.645,4.645,0,0,1,1.714-1.938,4.531,4.531,0,0,1,2.461-.693,4.147,4.147,0,0,1,3.335,1.377,5.823,5.823,0,0,1,1.177,3.9v.957h-6.9a3.173,3.173,0,0,0,.874,2.07,2.624,2.624,0,0,0,1.929.762,3.213,3.213,0,0,0,2.656-1.318L37.6,25.2a4.272,4.272,0,0,1-1.694,1.47A5.3,5.3,0,0,1,33.525,27.2Zm-.283-9.053a2,2,0,0,0-1.577.684,3.543,3.543,0,0,0-.767,1.9H35.42v-.176a2.884,2.884,0,0,0-.635-1.8A1.983,1.983,0,0,0,33.242,18.143Zm9.336-4.277v2.568h1.865v1.758H42.578v5.9a1.3,1.3,0,0,0,.239.874,1.109,1.109,0,0,0,.854.269,3.656,3.656,0,0,0,.83-.1v1.836a5.844,5.844,0,0,1-1.562.225q-2.734,0-2.734-3.018V18.191H38.467V16.434h1.738V13.865ZM48.779,27H46.406V16.434h2.373ZM46.26,13.689a1.259,1.259,0,0,1,.347-.908,1.309,1.309,0,0,1,.991-.361,1.326,1.326,0,0,1,1,.361,1.25,1.25,0,0,1,.352.908,1.221,1.221,0,0,1-.352.894,1.336,1.336,0,0,1-1,.356,1.32,1.32,0,0,1-.991-.356A1.23,1.23,0,0,1,46.26,13.689Zm8.828,10.3,2.236-7.559h2.451L56.113,27H54.053L50.361,16.434h2.461Zm5.576-2.373a6.231,6.231,0,0,1,.615-2.8,4.493,4.493,0,0,1,1.729-1.914,4.87,4.87,0,0,1,2.559-.669,4.615,4.615,0,0,1,3.472,1.377,5.416,5.416,0,0,1,1.44,3.652l.01.557a6.286,6.286,0,0,1-.6,2.793,4.439,4.439,0,0,1-1.719,1.9,4.906,4.906,0,0,1-2.583.674,4.584,4.584,0,0,1-3.579-1.489,5.7,5.7,0,0,1-1.343-3.97Zm2.373.205a4.258,4.258,0,0,0,.674,2.554,2.191,2.191,0,0,0,1.875.923,2.167,2.167,0,0,0,1.87-.937,4.7,4.7,0,0,0,.669-2.744,4.2,4.2,0,0,0-.688-2.539,2.321,2.321,0,0,0-3.716-.015A4.614,4.614,0,0,0,63.037,21.824Zm15.381,2.3a1.076,1.076,0,0,0-.522-.967,5.557,5.557,0,0,0-1.733-.586,8.911,8.911,0,0,1-2.021-.645,2.7,2.7,0,0,1-1.777-2.49,2.813,2.813,0,0,1,1.152-2.285,4.556,4.556,0,0,1,2.93-.918,4.74,4.74,0,0,1,3.062.938,2.975,2.975,0,0,1,1.167,2.432H78.3a1.462,1.462,0,0,0-.508-1.138,1.946,1.946,0,0,0-1.348-.454,2.1,2.1,0,0,0-1.274.361,1.139,1.139,0,0,0-.493.967.962.962,0,0,0,.459.85,6.312,6.312,0,0,0,1.855.61,8.783,8.783,0,0,1,2.192.732,3.1,3.1,0,0,1,1.182,1.021A2.6,2.6,0,0,1,80.752,24a2.753,2.753,0,0,1-1.182,2.31,5.039,5.039,0,0,1-3.1.884,5.464,5.464,0,0,1-2.314-.469,3.809,3.809,0,0,1-1.582-1.289,3.051,3.051,0,0,1-.566-1.768h2.3a1.672,1.672,0,0,0,.635,1.294,2.467,2.467,0,0,0,1.553.454,2.4,2.4,0,0,0,1.426-.356A1.1,1.1,0,0,0,78.418,24.129Z" transform="translate(264.431 891)" fill="#12263f"/><path d="M6.67-5.479H3.916V0H1.445V-14.219h5a5.82,5.82,0,0,1,3.8,1.1,3.9,3.9,0,0,1,1.338,3.193,4,4,0,0,1-.688,2.388A4.38,4.38,0,0,1,8.975-6.055L12.168-.127V0H9.521ZM3.916-7.461H6.455a2.824,2.824,0,0,0,1.953-.63,2.2,2.2,0,0,0,.7-1.724,2.338,2.338,0,0,0-.649-1.768,2.759,2.759,0,0,0-1.938-.645H3.916ZM18.35.2a4.91,4.91,0,0,1-3.657-1.421,5.154,5.154,0,0,1-1.4-3.784V-5.3A6.34,6.34,0,0,1,13.9-8.13a4.645,4.645,0,0,1,1.714-1.938,4.531,4.531,0,0,1,2.461-.693,4.147,4.147,0,0,1,3.335,1.377,5.823,5.823,0,0,1,1.177,3.9v.957h-6.9a3.173,3.173,0,0,0,.874,2.07,2.624,2.624,0,0,0,1.929.762,3.213,3.213,0,0,0,2.656-1.318L22.422-1.8a4.272,4.272,0,0,1-1.694,1.47A5.3,5.3,0,0,1,18.35.2Zm-.283-9.053a2,2,0,0,0-1.577.684,3.543,3.543,0,0,0-.767,1.9h4.521v-.176a2.884,2.884,0,0,0-.635-1.8A1.983,1.983,0,0,0,18.066-8.857ZM30.742,0a3.662,3.662,0,0,1-.273-.986A3.694,3.694,0,0,1,27.7.2a3.728,3.728,0,0,1-2.6-.908,2.906,2.906,0,0,1-1.006-2.246,3,3,0,0,1,1.255-2.593,6.081,6.081,0,0,1,3.589-.9h1.455v-.693a1.851,1.851,0,0,0-.459-1.313,1.819,1.819,0,0,0-1.4-.493,2.09,2.09,0,0,0-1.328.405,1.254,1.254,0,0,0-.518,1.03H24.316a2.634,2.634,0,0,1,.576-1.626,3.839,3.839,0,0,1,1.567-1.187,5.506,5.506,0,0,1,2.212-.43,4.434,4.434,0,0,1,2.959.933,3.326,3.326,0,0,1,1.133,2.622v4.766a5.4,5.4,0,0,0,.4,2.275V0ZM28.135-1.709a2.7,2.7,0,0,0,1.323-.342,2.284,2.284,0,0,0,.933-.918V-4.961H29.111a3.5,3.5,0,0,0-1.982.459,1.487,1.487,0,0,0-.664,1.3,1.387,1.387,0,0,0,.454,1.089A1.758,1.758,0,0,0,28.135-1.709ZM37.773,0H35.4V-15h2.373Zm5.107,0H40.508V-10.566h2.373Zm-2.52-13.311a1.259,1.259,0,0,1,.347-.908,1.309,1.309,0,0,1,.991-.361,1.326,1.326,0,0,1,1,.361,1.25,1.25,0,0,1,.352.908,1.221,1.221,0,0,1-.352.894,1.336,1.336,0,0,1-1,.356,1.32,1.32,0,0,1-.991-.356A1.23,1.23,0,0,1,40.361-13.311ZM48-1.895h5.625V0H45.049V-1.553l5.361-7.1H45.146v-1.914h8.271v1.5ZM61.836,0a3.662,3.662,0,0,1-.273-.986A3.694,3.694,0,0,1,58.789.2a3.728,3.728,0,0,1-2.6-.908,2.906,2.906,0,0,1-1.006-2.246A3,3,0,0,1,56.44-5.552a6.081,6.081,0,0,1,3.589-.9h1.455v-.693a1.851,1.851,0,0,0-.459-1.313,1.819,1.819,0,0,0-1.4-.493A2.09,2.09,0,0,0,58.3-8.55a1.254,1.254,0,0,0-.518,1.03H55.41a2.634,2.634,0,0,1,.576-1.626,3.838,3.838,0,0,1,1.567-1.187,5.506,5.506,0,0,1,2.212-.43,4.434,4.434,0,0,1,2.959.933,3.326,3.326,0,0,1,1.133,2.622v4.766a5.4,5.4,0,0,0,.4,2.275V0ZM59.229-1.709a2.7,2.7,0,0,0,1.323-.342,2.284,2.284,0,0,0,.933-.918V-4.961H60.205a3.5,3.5,0,0,0-1.982.459,1.487,1.487,0,0,0-.664,1.3,1.387,1.387,0,0,0,.454,1.089A1.758,1.758,0,0,0,59.229-1.709ZM71.875-8.4a5.872,5.872,0,0,0-.967-.078,2.177,2.177,0,0,0-2.2,1.25V0H66.338V-10.566H68.6l.059,1.182a2.674,2.674,0,0,1,2.383-1.377,2.222,2.222,0,0,1,.84.137ZM84.756-1.035A3.68,3.68,0,0,1,81.787.2a3.28,3.28,0,0,1-2.6-1.006,4.279,4.279,0,0,1-.884-2.91v-6.846h2.373V-3.75q0,2.012,1.67,2.012a2.345,2.345,0,0,0,2.334-1.24v-7.588h2.373V0H84.814Zm6.914-9.531.068,1.221a3.8,3.8,0,0,1,3.076-1.416q3.3,0,3.359,3.779V0H95.8V-6.846a2.176,2.176,0,0,0-.435-1.489,1.828,1.828,0,0,0-1.421-.483,2.287,2.287,0,0,0-2.139,1.3V0H89.434V-10.566ZM106.9,0a3.662,3.662,0,0,1-.273-.986A3.694,3.694,0,0,1,103.857.2a3.728,3.728,0,0,1-2.6-.908,2.906,2.906,0,0,1-1.006-2.246,3,3,0,0,1,1.255-2.593,6.081,6.081,0,0,1,3.589-.9h1.455v-.693a1.851,1.851,0,0,0-.459-1.313,1.819,1.819,0,0,0-1.4-.493,2.09,2.09,0,0,0-1.328.405,1.254,1.254,0,0,0-.518,1.03h-2.373a2.634,2.634,0,0,1,.576-1.626,3.839,3.839,0,0,1,1.567-1.187,5.506,5.506,0,0,1,2.212-.43,4.434,4.434,0,0,1,2.959.933,3.326,3.326,0,0,1,1.133,2.622v4.766a5.4,5.4,0,0,0,.4,2.275V0ZM104.3-1.709a2.7,2.7,0,0,0,1.323-.342,2.284,2.284,0,0,0,.933-.918V-4.961h-1.279a3.5,3.5,0,0,0-1.982.459,1.487,1.487,0,0,0-.664,1.3,1.387,1.387,0,0,0,.454,1.089A1.758,1.758,0,0,0,104.3-1.709ZM3.74,27H1.367V16.434H3.74ZM1.221,13.689a1.259,1.259,0,0,1,.347-.908,1.309,1.309,0,0,1,.991-.361,1.326,1.326,0,0,1,1,.361,1.25,1.25,0,0,1,.352.908,1.221,1.221,0,0,1-.352.894,1.336,1.336,0,0,1-1,.356,1.32,1.32,0,0,1-.991-.356A1.23,1.23,0,0,1,1.221,13.689Zm7.3,2.744.068,1.221a3.8,3.8,0,0,1,3.076-1.416q3.3,0,3.359,3.779V27H12.656V20.154a2.176,2.176,0,0,0-.435-1.489,1.828,1.828,0,0,0-1.421-.483,2.287,2.287,0,0,0-2.139,1.3V27H6.289V16.434Zm12.646,7.559,2.236-7.559h2.451L22.2,27H20.137L16.445,16.434h2.461Zm10.693,3.2a4.91,4.91,0,0,1-3.657-1.421,5.154,5.154,0,0,1-1.4-3.784V21.7a6.34,6.34,0,0,1,.61-2.827,4.645,4.645,0,0,1,1.714-1.938,4.531,4.531,0,0,1,2.461-.693,4.147,4.147,0,0,1,3.335,1.377,5.823,5.823,0,0,1,1.177,3.9v.957H29.2a3.173,3.173,0,0,0,.874,2.07A2.624,2.624,0,0,0,32,25.3a3.213,3.213,0,0,0,2.656-1.318L35.938,25.2a4.272,4.272,0,0,1-1.694,1.47A5.3,5.3,0,0,1,31.865,27.2Zm-.283-9.053A2,2,0,0,0,30,18.826a3.543,3.543,0,0,0-.767,1.9H33.76v-.176a2.884,2.884,0,0,0-.635-1.8A1.983,1.983,0,0,0,31.582,18.143Zm12.285,5.986a1.076,1.076,0,0,0-.522-.967,5.557,5.557,0,0,0-1.733-.586,8.911,8.911,0,0,1-2.021-.645,2.7,2.7,0,0,1-1.777-2.49,2.813,2.813,0,0,1,1.152-2.285,4.556,4.556,0,0,1,2.93-.918,4.74,4.74,0,0,1,3.062.938,2.975,2.975,0,0,1,1.167,2.432H43.75a1.462,1.462,0,0,0-.508-1.138,1.946,1.946,0,0,0-1.348-.454,2.1,2.1,0,0,0-1.274.361,1.139,1.139,0,0,0-.493.967.962.962,0,0,0,.459.85,6.312,6.312,0,0,0,1.855.61,8.783,8.783,0,0,1,2.192.732,3.1,3.1,0,0,1,1.182,1.021A2.6,2.6,0,0,1,46.2,24a2.753,2.753,0,0,1-1.182,2.31,5.039,5.039,0,0,1-3.1.884,5.464,5.464,0,0,1-2.314-.469,3.809,3.809,0,0,1-1.582-1.289,3.051,3.051,0,0,1-.566-1.768h2.3a1.672,1.672,0,0,0,.635,1.294,2.467,2.467,0,0,0,1.553.454,2.4,2.4,0,0,0,1.426-.356A1.1,1.1,0,0,0,43.867,24.129ZM51.24,13.865v2.568h1.865v1.758H51.24v5.9a1.3,1.3,0,0,0,.239.874,1.109,1.109,0,0,0,.854.269,3.656,3.656,0,0,0,.83-.1v1.836A5.844,5.844,0,0,1,51.6,27.2q-2.734,0-2.734-3.018V18.191H47.129V16.434h1.738V13.865ZM57.441,27H55.068V16.434h2.373Zm-2.52-13.311a1.259,1.259,0,0,1,.347-.908,1.309,1.309,0,0,1,.991-.361,1.326,1.326,0,0,1,1,.361,1.25,1.25,0,0,1,.352.908,1.221,1.221,0,0,1-.352.894,1.336,1.336,0,0,1-1,.356,1.32,1.32,0,0,1-.991-.356A1.23,1.23,0,0,1,54.922,13.689Zm4.688,7.949a6.18,6.18,0,0,1,1.157-3.931,3.714,3.714,0,0,1,3.071-1.47A3.48,3.48,0,0,1,66.68,17.5l.107-1.064h2.139V26.678a4.258,4.258,0,0,1-1.294,3.281,4.928,4.928,0,0,1-3.491,1.2,5.627,5.627,0,0,1-2.271-.483,4.034,4.034,0,0,1-1.685-1.265l1.123-1.426a3.392,3.392,0,0,0,2.7,1.3,2.621,2.621,0,0,0,1.865-.64,2.451,2.451,0,0,0,.684-1.88v-.713A3.494,3.494,0,0,1,63.818,27.2a3.705,3.705,0,0,1-3.032-1.475A6.38,6.38,0,0,1,59.609,21.639Zm2.363.205a4.254,4.254,0,0,0,.649,2.5,2.088,2.088,0,0,0,1.8.913,2.284,2.284,0,0,0,2.129-1.23V19.383a2.251,2.251,0,0,0-2.109-1.2,2.1,2.1,0,0,0-1.821.928A4.763,4.763,0,0,0,61.973,21.844ZM77.676,27a3.662,3.662,0,0,1-.273-.986,3.992,3.992,0,0,1-5.371.273,2.906,2.906,0,0,1-1.006-2.246,3,3,0,0,1,1.255-2.593,6.081,6.081,0,0,1,3.589-.9h1.455v-.693a1.851,1.851,0,0,0-.459-1.313,1.819,1.819,0,0,0-1.4-.493,2.09,2.09,0,0,0-1.328.405,1.254,1.254,0,0,0-.518,1.03H71.25a2.634,2.634,0,0,1,.576-1.626,3.839,3.839,0,0,1,1.567-1.187,5.505,5.505,0,0,1,2.212-.43,4.434,4.434,0,0,1,2.959.933A3.326,3.326,0,0,1,79.7,19.793v4.766a5.4,5.4,0,0,0,.4,2.275V27Zm-2.607-1.709a2.7,2.7,0,0,0,1.323-.342,2.284,2.284,0,0,0,.933-.918V22.039H76.045a3.5,3.5,0,0,0-1.982.459,1.487,1.487,0,0,0-.664,1.3,1.387,1.387,0,0,0,.454,1.089A1.758,1.758,0,0,0,75.068,25.291Zm11.455.01A2.146,2.146,0,0,0,88,24.783a1.768,1.768,0,0,0,.625-1.279h2.236a3.486,3.486,0,0,1-.615,1.841A4.035,4.035,0,0,1,88.682,26.7a4.656,4.656,0,0,1-2.129.5,4.505,4.505,0,0,1-3.516-1.436,5.694,5.694,0,0,1-1.3-3.965v-.244a5.6,5.6,0,0,1,1.289-3.862,4.464,4.464,0,0,1,3.516-1.45,4.341,4.341,0,0,1,3.071,1.1,3.935,3.935,0,0,1,1.245,2.886H88.623A2.173,2.173,0,0,0,88,18.729a2,2,0,0,0-1.479-.586,2.088,2.088,0,0,0-1.777.835,4.261,4.261,0,0,0-.635,2.534v.381a4.331,4.331,0,0,0,.62,2.563A2.086,2.086,0,0,0,86.523,25.3ZM95.176,27H92.8V16.434h2.373Zm-2.52-13.311A1.259,1.259,0,0,1,93,12.781a1.309,1.309,0,0,1,.991-.361,1.326,1.326,0,0,1,1,.361,1.25,1.25,0,0,1,.352.908,1.221,1.221,0,0,1-.352.894,1.336,1.336,0,0,1-1,.356A1.32,1.32,0,0,1,93,14.583,1.23,1.23,0,0,1,92.656,13.689Zm4.658,7.93a6.231,6.231,0,0,1,.615-2.8,4.493,4.493,0,0,1,1.729-1.914,4.87,4.87,0,0,1,2.559-.669,4.615,4.615,0,0,1,3.472,1.377,5.416,5.416,0,0,1,1.44,3.652l.01.557a6.286,6.286,0,0,1-.6,2.793,4.439,4.439,0,0,1-1.719,1.9,4.906,4.906,0,0,1-2.583.674,4.584,4.584,0,0,1-3.579-1.489,5.7,5.7,0,0,1-1.343-3.97Zm2.373.205a4.258,4.258,0,0,0,.674,2.554,2.191,2.191,0,0,0,1.875.923,2.167,2.167,0,0,0,1.87-.937,4.7,4.7,0,0,0,.669-2.744,4.2,4.2,0,0,0-.688-2.539,2.321,2.321,0,0,0-3.716-.015A4.614,4.614,0,0,0,99.688,21.824ZM102.871,12h2.705l-2.705,2.959h-1.9Zm8.477,4.434.068,1.221a3.8,3.8,0,0,1,3.076-1.416q3.3,0,3.359,3.779V27h-2.373V20.154a2.176,2.176,0,0,0-.435-1.489,1.828,1.828,0,0,0-1.421-.483,2.287,2.287,0,0,0-2.139,1.3V27h-2.373V16.434ZM7.529,54a3.662,3.662,0,0,1-.273-.986A3.694,3.694,0,0,1,4.482,54.2a3.728,3.728,0,0,1-2.6-.908A2.906,2.906,0,0,1,.879,51.041a3,3,0,0,1,1.255-2.593,6.081,6.081,0,0,1,3.589-.9H7.178v-.693a1.851,1.851,0,0,0-.459-1.313,1.819,1.819,0,0,0-1.4-.493,2.09,2.09,0,0,0-1.328.405,1.254,1.254,0,0,0-.518,1.03H1.1a2.634,2.634,0,0,1,.576-1.626,3.838,3.838,0,0,1,1.567-1.187,5.506,5.506,0,0,1,2.212-.43,4.434,4.434,0,0,1,2.959.933,3.326,3.326,0,0,1,1.133,2.622v4.766a5.4,5.4,0,0,0,.4,2.275V54ZM4.922,52.291a2.7,2.7,0,0,0,1.323-.342,2.284,2.284,0,0,0,.933-.918V49.039H5.9a3.5,3.5,0,0,0-1.982.459,1.487,1.487,0,0,0-.664,1.3,1.387,1.387,0,0,0,.454,1.089A1.758,1.758,0,0,0,4.922,52.291Zm6.67-3.652a6.282,6.282,0,0,1,1.133-3.921,3.63,3.63,0,0,1,3.037-1.479,3.449,3.449,0,0,1,2.715,1.172V39H20.85V54H18.7l-.117-1.094A3.5,3.5,0,0,1,15.742,54.2a3.609,3.609,0,0,1-3-1.494A6.512,6.512,0,0,1,11.592,48.639Zm2.373.205a4.4,4.4,0,0,0,.62,2.515,2.012,2.012,0,0,0,1.763.9,2.241,2.241,0,0,0,2.129-1.3V46.451a2.207,2.207,0,0,0-2.109-1.27,2.027,2.027,0,0,0-1.777.913A4.9,4.9,0,0,0,13.965,48.844ZM27.979,54.2a4.91,4.91,0,0,1-3.657-1.421,5.154,5.154,0,0,1-1.4-3.784V48.7a6.34,6.34,0,0,1,.61-2.827,4.645,4.645,0,0,1,1.714-1.938,4.531,4.531,0,0,1,2.461-.693,4.147,4.147,0,0,1,3.335,1.377,5.823,5.823,0,0,1,1.177,3.9v.957h-6.9a3.173,3.173,0,0,0,.874,2.07,2.624,2.624,0,0,0,1.929.762,3.213,3.213,0,0,0,2.656-1.318L32.051,52.2a4.272,4.272,0,0,1-1.694,1.47A5.3,5.3,0,0,1,27.979,54.2ZM27.7,45.143a2,2,0,0,0-1.577.684,3.543,3.543,0,0,0-.767,1.9h4.521v-.176a2.884,2.884,0,0,0-.635-1.8A1.983,1.983,0,0,0,27.7,45.143ZM38.4,52.3a2.146,2.146,0,0,0,1.475-.518A1.768,1.768,0,0,0,40.5,50.5h2.236a3.486,3.486,0,0,1-.615,1.841A4.035,4.035,0,0,1,40.557,53.7a4.656,4.656,0,0,1-2.129.5,4.505,4.505,0,0,1-3.516-1.436,5.694,5.694,0,0,1-1.3-3.965v-.244A5.6,5.6,0,0,1,34.9,44.688a4.464,4.464,0,0,1,3.516-1.45,4.341,4.341,0,0,1,3.071,1.1,3.935,3.935,0,0,1,1.245,2.886H40.5a2.173,2.173,0,0,0-.62-1.494,2,2,0,0,0-1.479-.586,2.088,2.088,0,0,0-1.777.835,4.261,4.261,0,0,0-.635,2.534v.381a4.331,4.331,0,0,0,.62,2.563A2.086,2.086,0,0,0,38.4,52.3Zm12.529.664a3.68,3.68,0,0,1-2.969,1.23,3.28,3.28,0,0,1-2.6-1.006,4.279,4.279,0,0,1-.884-2.91V43.434h2.373V50.25q0,2.012,1.67,2.012a2.345,2.345,0,0,0,2.334-1.24V43.434h2.373V54H50.986ZM61.953,54a3.662,3.662,0,0,1-.273-.986,3.992,3.992,0,0,1-5.371.273A2.906,2.906,0,0,1,55.3,51.041a3,3,0,0,1,1.255-2.593,6.081,6.081,0,0,1,3.589-.9H61.6v-.693a1.851,1.851,0,0,0-.459-1.313,1.819,1.819,0,0,0-1.4-.493,2.09,2.09,0,0,0-1.328.405,1.254,1.254,0,0,0-.518,1.03H55.527a2.634,2.634,0,0,1,.576-1.626,3.838,3.838,0,0,1,1.567-1.187,5.506,5.506,0,0,1,2.212-.43,4.434,4.434,0,0,1,2.959.933,3.326,3.326,0,0,1,1.133,2.622v4.766a5.4,5.4,0,0,0,.4,2.275V54Zm-2.607-1.709a2.7,2.7,0,0,0,1.323-.342,2.284,2.284,0,0,0,.933-.918V49.039H60.322a3.5,3.5,0,0,0-1.982.459,1.487,1.487,0,0,0-.664,1.3,1.387,1.387,0,0,0,.454,1.089A1.758,1.758,0,0,0,59.346,52.291Zm6.67-3.652a6.282,6.282,0,0,1,1.133-3.921,3.63,3.63,0,0,1,3.037-1.479A3.449,3.449,0,0,1,72.9,44.41V39h2.373V54H73.125l-.117-1.094A3.5,3.5,0,0,1,70.166,54.2a3.609,3.609,0,0,1-3-1.494A6.512,6.512,0,0,1,66.016,48.639Zm2.373.205a4.4,4.4,0,0,0,.62,2.515,2.012,2.012,0,0,0,1.763.9,2.241,2.241,0,0,0,2.129-1.3V46.451a2.207,2.207,0,0,0-2.109-1.27,2.027,2.027,0,0,0-1.777.913A4.9,4.9,0,0,0,68.389,48.844ZM84.063,54a3.662,3.662,0,0,1-.273-.986,3.992,3.992,0,0,1-5.371.273,2.906,2.906,0,0,1-1.006-2.246,3,3,0,0,1,1.255-2.593,6.081,6.081,0,0,1,3.589-.9h1.455v-.693a1.851,1.851,0,0,0-.459-1.313,1.819,1.819,0,0,0-1.4-.493,2.09,2.09,0,0,0-1.328.405,1.254,1.254,0,0,0-.518,1.03H77.637a2.634,2.634,0,0,1,.576-1.626,3.839,3.839,0,0,1,1.567-1.187,5.506,5.506,0,0,1,2.212-.43,4.434,4.434,0,0,1,2.959.933,3.326,3.326,0,0,1,1.133,2.622v4.766a5.4,5.4,0,0,0,.4,2.275V54Zm-2.607-1.709a2.7,2.7,0,0,0,1.323-.342,2.284,2.284,0,0,0,.933-.918V49.039H82.432a3.5,3.5,0,0,0-1.982.459,1.487,1.487,0,0,0-.664,1.3,1.387,1.387,0,0,0,.454,1.089A1.758,1.758,0,0,0,81.455,52.291Z" transform="translate(458.431 877)" fill="#12263f"/><path d="M4.053,0H1.592V-14.219H4.053ZM6.416-5.361A6.282,6.282,0,0,1,7.549-9.282a3.63,3.63,0,0,1,3.037-1.479A3.449,3.449,0,0,1,13.3-9.59V-15h2.373V0H13.525l-.117-1.094A3.5,3.5,0,0,1,10.566.2a3.609,3.609,0,0,1-3-1.494A6.512,6.512,0,0,1,6.416-5.361Zm2.373.205a4.4,4.4,0,0,0,.62,2.515,2.012,2.012,0,0,0,1.763.9,2.241,2.241,0,0,0,2.129-1.3V-7.549a2.207,2.207,0,0,0-2.109-1.27,2.027,2.027,0,0,0-1.777.913A4.9,4.9,0,0,0,8.789-5.156ZM22.8.2a4.91,4.91,0,0,1-3.657-1.421,5.154,5.154,0,0,1-1.4-3.784V-5.3a6.34,6.34,0,0,1,.61-2.827,4.645,4.645,0,0,1,1.714-1.938,4.531,4.531,0,0,1,2.461-.693,4.147,4.147,0,0,1,3.335,1.377,5.823,5.823,0,0,1,1.177,3.9v.957h-6.9a3.173,3.173,0,0,0,.874,2.07,2.624,2.624,0,0,0,1.929.762A3.213,3.213,0,0,0,25.6-3.018L26.875-1.8a4.272,4.272,0,0,1-1.694,1.47A5.3,5.3,0,0,1,22.8.2ZM22.52-8.857a2,2,0,0,0-1.577.684,3.543,3.543,0,0,0-.767,1.9H24.7v-.176a2.884,2.884,0,0,0-.635-1.8A1.983,1.983,0,0,0,22.52-8.857Zm8.564-1.709.068,1.221a3.8,3.8,0,0,1,3.076-1.416q3.3,0,3.359,3.779V0H35.215V-6.846a2.176,2.176,0,0,0-.435-1.489,1.828,1.828,0,0,0-1.421-.483,2.287,2.287,0,0,0-2.139,1.3V0H28.848V-10.566Zm11.895-2.568v2.568h1.865v1.758H42.979v5.9a1.3,1.3,0,0,0,.239.874,1.109,1.109,0,0,0,.854.269,3.656,3.656,0,0,0,.83-.1V-.029A5.845,5.845,0,0,1,43.34.2q-2.734,0-2.734-3.018V-8.809H38.867v-1.758h1.738v-2.568ZM49.18,0H46.807V-10.566H49.18ZM46.66-13.311a1.259,1.259,0,0,1,.347-.908A1.309,1.309,0,0,1,48-14.58a1.326,1.326,0,0,1,1,.361,1.25,1.25,0,0,1,.352.908,1.221,1.221,0,0,1-.352.894,1.336,1.336,0,0,1-1,.356,1.32,1.32,0,0,1-.991-.356A1.23,1.23,0,0,1,46.66-13.311ZM52.393,0V-8.809H50.781v-1.758h1.611v-.723a4.227,4.227,0,0,1,.527-2.129,3.28,3.28,0,0,1,1.465-1.338,5.273,5.273,0,0,1,2.275-.449,6.633,6.633,0,0,1,1.5.166q.718.166,1.489.42l-.361,1.963a7.554,7.554,0,0,0-2.461-.469,2.2,2.2,0,0,0-1.572.474,1.9,1.9,0,0,0-.488,1.421v.664h2.08v1.758h-2.08V0Zm8.379,0H58.4V-10.566h2.373Zm6.973-1.7a2.146,2.146,0,0,0,1.475-.518A1.768,1.768,0,0,0,69.844-3.5H72.08a3.486,3.486,0,0,1-.615,1.841A4.035,4.035,0,0,1,69.9-.3a4.656,4.656,0,0,1-2.129.5A4.505,4.505,0,0,1,64.258-1.24a5.694,5.694,0,0,1-1.3-3.965v-.244a5.6,5.6,0,0,1,1.289-3.862,4.464,4.464,0,0,1,3.516-1.45,4.341,4.341,0,0,1,3.071,1.1A3.935,3.935,0,0,1,72.08-6.777H69.844a2.173,2.173,0,0,0-.62-1.494,2,2,0,0,0-1.479-.586,2.088,2.088,0,0,0-1.777.835,4.261,4.261,0,0,0-.635,2.534v.381a4.331,4.331,0,0,0,.62,2.563A2.086,2.086,0,0,0,67.744-1.7ZM80.186,0a3.662,3.662,0,0,1-.273-.986A3.694,3.694,0,0,1,77.139.2a3.728,3.728,0,0,1-2.6-.908,2.906,2.906,0,0,1-1.006-2.246A3,3,0,0,1,74.79-5.552a6.081,6.081,0,0,1,3.589-.9h1.455v-.693a1.851,1.851,0,0,0-.459-1.313,1.819,1.819,0,0,0-1.4-.493,2.09,2.09,0,0,0-1.328.405,1.254,1.254,0,0,0-.518,1.03H73.76a2.634,2.634,0,0,1,.576-1.626A3.839,3.839,0,0,1,75.9-10.332a5.506,5.506,0,0,1,2.212-.43,4.434,4.434,0,0,1,2.959.933,3.326,3.326,0,0,1,1.133,2.622v4.766a5.4,5.4,0,0,0,.4,2.275V0ZM77.578-1.709A2.7,2.7,0,0,0,78.9-2.051a2.284,2.284,0,0,0,.933-.918V-4.961H78.555a3.5,3.5,0,0,0-1.982.459,1.487,1.487,0,0,0-.664,1.3,1.387,1.387,0,0,0,.454,1.089A1.758,1.758,0,0,0,77.578-1.709ZM90.225-8.4a5.872,5.872,0,0,0-.967-.078,2.177,2.177,0,0,0-2.2,1.25V0H84.688V-10.566h2.266l.059,1.182a2.674,2.674,0,0,1,2.383-1.377,2.222,2.222,0,0,1,.84.137ZM4.189,13.865v2.568H6.055v1.758H4.189v5.9a1.3,1.3,0,0,0,.239.874,1.109,1.109,0,0,0,.854.269,3.656,3.656,0,0,0,.83-.1v1.836a5.844,5.844,0,0,1-1.562.225q-2.734,0-2.734-3.018V18.191H.078V16.434H1.816V13.865Zm2.939,7.754a6.231,6.231,0,0,1,.615-2.8,4.493,4.493,0,0,1,1.729-1.914,4.87,4.87,0,0,1,2.559-.669A4.615,4.615,0,0,1,15.5,17.615a5.416,5.416,0,0,1,1.44,3.652l.01.557a6.286,6.286,0,0,1-.6,2.793,4.439,4.439,0,0,1-1.719,1.9,4.906,4.906,0,0,1-2.583.674,4.584,4.584,0,0,1-3.579-1.489,5.7,5.7,0,0,1-1.343-3.97Zm2.373.205a4.258,4.258,0,0,0,.674,2.554,2.191,2.191,0,0,0,1.875.923,2.167,2.167,0,0,0,1.87-.937,4.7,4.7,0,0,0,.669-2.744A4.2,4.2,0,0,0,13.9,19.08a2.2,2.2,0,0,0-1.87-.937,2.178,2.178,0,0,0-1.846.923A4.614,4.614,0,0,0,9.5,21.824Zm9.014-.186a6.282,6.282,0,0,1,1.133-3.921,3.63,3.63,0,0,1,3.037-1.479A3.449,3.449,0,0,1,25.4,17.41V12h2.373V27H25.625l-.117-1.094A3.5,3.5,0,0,1,22.666,27.2a3.609,3.609,0,0,1-3-1.494A6.512,6.512,0,0,1,18.516,21.639Zm2.373.205a4.4,4.4,0,0,0,.62,2.515,2.012,2.012,0,0,0,1.763.9,2.241,2.241,0,0,0,2.129-1.3V19.451a2.207,2.207,0,0,0-2.109-1.27,2.027,2.027,0,0,0-1.777.913A4.9,4.9,0,0,0,20.889,21.844Zm8.916-.225a6.231,6.231,0,0,1,.615-2.8,4.493,4.493,0,0,1,1.729-1.914,4.87,4.87,0,0,1,2.559-.669,4.615,4.615,0,0,1,3.472,1.377,5.416,5.416,0,0,1,1.44,3.652l.01.557a6.286,6.286,0,0,1-.6,2.793,4.439,4.439,0,0,1-1.719,1.9,4.906,4.906,0,0,1-2.583.674,4.584,4.584,0,0,1-3.579-1.489,5.7,5.7,0,0,1-1.343-3.97Zm2.373.205a4.258,4.258,0,0,0,.674,2.554,2.191,2.191,0,0,0,1.875.923,2.167,2.167,0,0,0,1.87-.937,4.7,4.7,0,0,0,.669-2.744,4.2,4.2,0,0,0-.688-2.539,2.321,2.321,0,0,0-3.716-.015A4.614,4.614,0,0,0,32.178,21.824Zm15.381,2.3a1.076,1.076,0,0,0-.522-.967,5.557,5.557,0,0,0-1.733-.586,8.911,8.911,0,0,1-2.021-.645,2.7,2.7,0,0,1-1.777-2.49,2.813,2.813,0,0,1,1.152-2.285,4.556,4.556,0,0,1,2.93-.918,4.74,4.74,0,0,1,3.062.938,2.975,2.975,0,0,1,1.167,2.432H47.441a1.462,1.462,0,0,0-.508-1.138,1.946,1.946,0,0,0-1.348-.454,2.1,2.1,0,0,0-1.274.361,1.139,1.139,0,0,0-.493.967.962.962,0,0,0,.459.85,6.312,6.312,0,0,0,1.855.61,8.783,8.783,0,0,1,2.192.732,3.1,3.1,0,0,1,1.182,1.021A2.6,2.6,0,0,1,49.893,24a2.753,2.753,0,0,1-1.182,2.31,5.039,5.039,0,0,1-3.1.884,5.464,5.464,0,0,1-2.314-.469,3.809,3.809,0,0,1-1.582-1.289,3.051,3.051,0,0,1-.566-1.768h2.3a1.672,1.672,0,0,0,.635,1.294,2.467,2.467,0,0,0,1.553.454,2.4,2.4,0,0,0,1.426-.356A1.1,1.1,0,0,0,47.559,24.129ZM59.463,27H57.09V12h2.373ZM61.6,21.619a6.231,6.231,0,0,1,.615-2.8,4.493,4.493,0,0,1,1.729-1.914,4.87,4.87,0,0,1,2.559-.669,4.615,4.615,0,0,1,3.472,1.377,5.416,5.416,0,0,1,1.44,3.652l.01.557a6.286,6.286,0,0,1-.6,2.793,4.439,4.439,0,0,1-1.719,1.9,4.906,4.906,0,0,1-2.583.674,4.584,4.584,0,0,1-3.579-1.489,5.7,5.7,0,0,1-1.343-3.97Zm2.373.205a4.258,4.258,0,0,0,.674,2.554,2.191,2.191,0,0,0,1.875.923,2.167,2.167,0,0,0,1.87-.937,4.7,4.7,0,0,0,.669-2.744,4.2,4.2,0,0,0-.688-2.539,2.321,2.321,0,0,0-3.716-.015A4.614,4.614,0,0,0,63.975,21.824Zm15.381,2.3a1.076,1.076,0,0,0-.522-.967,5.557,5.557,0,0,0-1.733-.586,8.911,8.911,0,0,1-2.021-.645,2.7,2.7,0,0,1-1.777-2.49,2.813,2.813,0,0,1,1.152-2.285,4.556,4.556,0,0,1,2.93-.918,4.74,4.74,0,0,1,3.062.938,2.975,2.975,0,0,1,1.167,2.432H79.238a1.462,1.462,0,0,0-.508-1.138,1.946,1.946,0,0,0-1.348-.454,2.1,2.1,0,0,0-1.274.361,1.139,1.139,0,0,0-.493.967.962.962,0,0,0,.459.85,6.312,6.312,0,0,0,1.855.61,8.783,8.783,0,0,1,2.192.732A3.1,3.1,0,0,1,81.3,22.557,2.6,2.6,0,0,1,81.689,24a2.753,2.753,0,0,1-1.182,2.31,5.039,5.039,0,0,1-3.1.884,5.464,5.464,0,0,1-2.314-.469,3.809,3.809,0,0,1-1.582-1.289,3.051,3.051,0,0,1-.566-1.768h2.3a1.672,1.672,0,0,0,.635,1.294,2.467,2.467,0,0,0,1.553.454,2.4,2.4,0,0,0,1.426-.356A1.1,1.1,0,0,0,79.355,24.129ZM6.748,45.6a5.872,5.872,0,0,0-.967-.078,2.177,2.177,0,0,0-2.2,1.25V54H1.211V43.434H3.477l.059,1.182a2.674,2.674,0,0,1,2.383-1.377,2.222,2.222,0,0,1,.84.137ZM10.771,54H8.4V43.434h2.373ZM8.252,40.689a1.259,1.259,0,0,1,.347-.908,1.309,1.309,0,0,1,.991-.361,1.326,1.326,0,0,1,1,.361,1.25,1.25,0,0,1,.352.908,1.221,1.221,0,0,1-.352.894,1.336,1.336,0,0,1-1,.356,1.32,1.32,0,0,1-.991-.356A1.23,1.23,0,0,1,8.252,40.689ZM18.008,54.2a4.91,4.91,0,0,1-3.657-1.421,5.154,5.154,0,0,1-1.4-3.784V48.7a6.34,6.34,0,0,1,.61-2.827,4.645,4.645,0,0,1,1.714-1.938,4.531,4.531,0,0,1,2.461-.693,4.147,4.147,0,0,1,3.335,1.377,5.823,5.823,0,0,1,1.177,3.9v.957h-6.9a3.173,3.173,0,0,0,.874,2.07,2.624,2.624,0,0,0,1.929.762A3.213,3.213,0,0,0,20.8,50.982L22.08,52.2a4.272,4.272,0,0,1-1.694,1.47A5.3,5.3,0,0,1,18.008,54.2Zm-.283-9.053a2,2,0,0,0-1.577.684,3.543,3.543,0,0,0-.767,1.9H19.9v-.176a2.884,2.884,0,0,0-.635-1.8A1.983,1.983,0,0,0,17.725,45.143ZM30.01,51.129a1.076,1.076,0,0,0-.522-.967,5.557,5.557,0,0,0-1.733-.586,8.911,8.911,0,0,1-2.021-.645,2.7,2.7,0,0,1-1.777-2.49,2.813,2.813,0,0,1,1.152-2.285,4.556,4.556,0,0,1,2.93-.918,4.74,4.74,0,0,1,3.062.938,2.975,2.975,0,0,1,1.167,2.432H29.893a1.462,1.462,0,0,0-.508-1.138,1.946,1.946,0,0,0-1.348-.454,2.1,2.1,0,0,0-1.274.361,1.139,1.139,0,0,0-.493.967.962.962,0,0,0,.459.85,6.312,6.312,0,0,0,1.855.61,8.783,8.783,0,0,1,2.192.732,3.1,3.1,0,0,1,1.182,1.021A2.6,2.6,0,0,1,32.344,51a2.753,2.753,0,0,1-1.182,2.31,5.039,5.039,0,0,1-3.1.884,5.464,5.464,0,0,1-2.314-.469,3.809,3.809,0,0,1-1.582-1.289A3.051,3.051,0,0,1,23.6,50.67h2.3a1.672,1.672,0,0,0,.635,1.294,2.467,2.467,0,0,0,1.553.454,2.4,2.4,0,0,0,1.426-.356A1.1,1.1,0,0,0,30.01,51.129Zm3.984-2.49a6.18,6.18,0,0,1,1.157-3.931,3.714,3.714,0,0,1,3.071-1.47,3.48,3.48,0,0,1,2.842,1.26l.107-1.064h2.139V53.678a4.258,4.258,0,0,1-1.294,3.281,4.928,4.928,0,0,1-3.491,1.2,5.627,5.627,0,0,1-2.271-.483,4.034,4.034,0,0,1-1.685-1.265l1.123-1.426a3.392,3.392,0,0,0,2.7,1.3,2.621,2.621,0,0,0,1.865-.64,2.451,2.451,0,0,0,.684-1.88v-.713A3.494,3.494,0,0,1,38.2,54.2a3.705,3.705,0,0,1-3.032-1.475A6.38,6.38,0,0,1,33.994,48.639Zm2.363.205a4.254,4.254,0,0,0,.649,2.5,2.088,2.088,0,0,0,1.8.913,2.284,2.284,0,0,0,2.129-1.23V46.383a2.251,2.251,0,0,0-2.109-1.2,2.1,2.1,0,0,0-1.821.928A4.763,4.763,0,0,0,36.357,48.844Zm8.945-.225a6.231,6.231,0,0,1,.615-2.8,4.493,4.493,0,0,1,1.729-1.914,4.87,4.87,0,0,1,2.559-.669,4.615,4.615,0,0,1,3.472,1.377,5.416,5.416,0,0,1,1.44,3.652l.01.557a6.286,6.286,0,0,1-.6,2.793,4.439,4.439,0,0,1-1.719,1.9,4.906,4.906,0,0,1-2.583.674,4.584,4.584,0,0,1-3.579-1.489,5.7,5.7,0,0,1-1.343-3.97Zm2.373.205a4.258,4.258,0,0,0,.674,2.554,2.191,2.191,0,0,0,1.875.923,2.167,2.167,0,0,0,1.87-.937,4.7,4.7,0,0,0,.669-2.744,4.2,4.2,0,0,0-.688-2.539,2.321,2.321,0,0,0-3.716-.015A4.614,4.614,0,0,0,47.676,48.824Zm15.381,2.3a1.076,1.076,0,0,0-.522-.967,5.557,5.557,0,0,0-1.733-.586,8.911,8.911,0,0,1-2.021-.645A2.7,2.7,0,0,1,57,46.441a2.813,2.813,0,0,1,1.152-2.285,4.556,4.556,0,0,1,2.93-.918,4.74,4.74,0,0,1,3.062.938,2.975,2.975,0,0,1,1.167,2.432H62.939a1.462,1.462,0,0,0-.508-1.138,1.946,1.946,0,0,0-1.348-.454,2.1,2.1,0,0,0-1.274.361,1.139,1.139,0,0,0-.493.967.962.962,0,0,0,.459.85,6.312,6.312,0,0,0,1.855.61,8.783,8.783,0,0,1,2.192.732A3.1,3.1,0,0,1,65,49.557,2.6,2.6,0,0,1,65.391,51a2.753,2.753,0,0,1-1.182,2.31,5.039,5.039,0,0,1-3.1.884,5.464,5.464,0,0,1-2.314-.469,3.809,3.809,0,0,1-1.582-1.289,3.051,3.051,0,0,1-.566-1.768h2.3a1.672,1.672,0,0,0,.635,1.294,2.467,2.467,0,0,0,1.553.454,2.4,2.4,0,0,0,1.426-.356A1.1,1.1,0,0,0,63.057,51.129Z" transform="translate(662.431 877)" fill="#12263f"/><path d="M3.916-5.283V0H1.445V-14.219H6.885a5.5,5.5,0,0,1,3.784,1.24A4.168,4.168,0,0,1,12.07-9.7,4.03,4.03,0,0,1,10.7-6.445,5.771,5.771,0,0,1,6.855-5.283Zm0-1.982H6.885A2.924,2.924,0,0,0,8.9-7.886,2.279,2.279,0,0,0,9.59-9.678a2.459,2.459,0,0,0-.7-1.841,2.71,2.71,0,0,0-1.934-.708H3.916ZM19.531-8.4a5.872,5.872,0,0,0-.967-.078,2.177,2.177,0,0,0-2.2,1.25V0H13.994V-10.566H16.26l.059,1.182A2.674,2.674,0,0,1,18.7-10.762a2.222,2.222,0,0,1,.84.137Zm.7,3.018a6.231,6.231,0,0,1,.615-2.8,4.493,4.493,0,0,1,1.729-1.914,4.87,4.87,0,0,1,2.559-.669,4.615,4.615,0,0,1,3.472,1.377,5.416,5.416,0,0,1,1.44,3.652l.01.557a6.286,6.286,0,0,1-.6,2.793,4.439,4.439,0,0,1-1.719,1.9A4.906,4.906,0,0,1,25.156.2a4.584,4.584,0,0,1-3.579-1.489,5.7,5.7,0,0,1-1.343-3.97Zm2.373.205a4.258,4.258,0,0,0,.674,2.554,2.191,2.191,0,0,0,1.875.923,2.167,2.167,0,0,0,1.87-.937A4.7,4.7,0,0,0,27.7-5.381a4.2,4.2,0,0,0-.688-2.539,2.2,2.2,0,0,0-1.87-.937,2.178,2.178,0,0,0-1.846.923A4.614,4.614,0,0,0,22.607-5.176Zm9.043-.186a6.18,6.18,0,0,1,1.157-3.931,3.714,3.714,0,0,1,3.071-1.47A3.48,3.48,0,0,1,38.721-9.5l.107-1.064h2.139V-.322a4.258,4.258,0,0,1-1.294,3.281,4.928,4.928,0,0,1-3.491,1.2,5.627,5.627,0,0,1-2.271-.483,4.034,4.034,0,0,1-1.685-1.265L33.35.986a3.392,3.392,0,0,0,2.7,1.3,2.621,2.621,0,0,0,1.865-.64,2.451,2.451,0,0,0,.684-1.88V-.947A3.494,3.494,0,0,1,35.859.2a3.705,3.705,0,0,1-3.032-1.475A6.38,6.38,0,0,1,31.65-5.361Zm2.363.205a4.254,4.254,0,0,0,.649,2.5,2.088,2.088,0,0,0,1.8.913,2.284,2.284,0,0,0,2.129-1.23V-7.617a2.251,2.251,0,0,0-2.109-1.2,2.1,2.1,0,0,0-1.821.928A4.763,4.763,0,0,0,34.014-5.156ZM48.936-8.4a5.872,5.872,0,0,0-.967-.078,2.177,2.177,0,0,0-2.2,1.25V0H43.4V-10.566h2.266l.059,1.182a2.674,2.674,0,0,1,2.383-1.377,2.222,2.222,0,0,1,.84.137ZM56.455,0a3.662,3.662,0,0,1-.273-.986A3.694,3.694,0,0,1,53.408.2a3.728,3.728,0,0,1-2.6-.908A2.906,2.906,0,0,1,49.8-2.959,3,3,0,0,1,51.06-5.552a6.081,6.081,0,0,1,3.589-.9H56.1v-.693a1.851,1.851,0,0,0-.459-1.313,1.819,1.819,0,0,0-1.4-.493,2.09,2.09,0,0,0-1.328.405A1.254,1.254,0,0,0,52.4-7.52H50.029a2.634,2.634,0,0,1,.576-1.626,3.838,3.838,0,0,1,1.567-1.187,5.506,5.506,0,0,1,2.212-.43,4.434,4.434,0,0,1,2.959.933,3.326,3.326,0,0,1,1.133,2.622v4.766a5.4,5.4,0,0,0,.4,2.275V0ZM53.848-1.709a2.7,2.7,0,0,0,1.323-.342,2.284,2.284,0,0,0,.933-.918V-4.961H54.824a3.5,3.5,0,0,0-1.982.459,1.487,1.487,0,0,0-.664,1.3,1.387,1.387,0,0,0,.454,1.089A1.758,1.758,0,0,0,53.848-1.709Zm9.346-8.857.068,1.1a3.8,3.8,0,0,1,3.047-1.3,2.921,2.921,0,0,1,2.9,1.621,3.748,3.748,0,0,1,3.242-1.621,3.294,3.294,0,0,1,2.6.967,4.257,4.257,0,0,1,.874,2.852V0H73.555V-6.875a2.1,2.1,0,0,0-.439-1.475,1.924,1.924,0,0,0-1.455-.469,1.976,1.976,0,0,0-1.323.435,2.292,2.292,0,0,0-.718,1.138L69.629,0H67.256V-6.953a1.693,1.693,0,0,0-1.9-1.865A2.089,2.089,0,0,0,63.33-7.656V0H60.957V-10.566ZM84.678,0A3.662,3.662,0,0,1,84.4-.986,3.694,3.694,0,0,1,81.631.2a3.728,3.728,0,0,1-2.6-.908,2.906,2.906,0,0,1-1.006-2.246,3,3,0,0,1,1.255-2.593,6.081,6.081,0,0,1,3.589-.9h1.455v-.693a1.851,1.851,0,0,0-.459-1.313,1.819,1.819,0,0,0-1.4-.493,2.09,2.09,0,0,0-1.328.405,1.254,1.254,0,0,0-.518,1.03H78.252a2.634,2.634,0,0,1,.576-1.626A3.839,3.839,0,0,1,80.4-10.332a5.506,5.506,0,0,1,2.212-.43,4.434,4.434,0,0,1,2.959.933A3.326,3.326,0,0,1,86.7-7.207v4.766a5.4,5.4,0,0,0,.4,2.275V0ZM82.07-1.709a2.7,2.7,0,0,0,1.323-.342,2.284,2.284,0,0,0,.933-.918V-4.961H83.047a3.5,3.5,0,0,0-1.982.459A1.487,1.487,0,0,0,80.4-3.2a1.387,1.387,0,0,0,.454,1.089A1.758,1.758,0,0,0,82.07-1.709ZM94.717-8.4a5.872,5.872,0,0,0-.967-.078,2.177,2.177,0,0,0-2.2,1.25V0H89.18V-10.566h2.266L91.5-9.385a2.674,2.674,0,0,1,2.383-1.377,2.222,2.222,0,0,1,.84.137ZM4.189,13.865v2.568H6.055v1.758H4.189v5.9a1.3,1.3,0,0,0,.239.874,1.109,1.109,0,0,0,.854.269,3.656,3.656,0,0,0,.83-.1v1.836a5.844,5.844,0,0,1-1.562.225q-2.734,0-2.734-3.018V18.191H.078V16.434H1.816V13.865Zm2.939,7.754a6.231,6.231,0,0,1,.615-2.8,4.493,4.493,0,0,1,1.729-1.914,4.87,4.87,0,0,1,2.559-.669A4.615,4.615,0,0,1,15.5,17.615a5.416,5.416,0,0,1,1.44,3.652l.01.557a6.286,6.286,0,0,1-.6,2.793,4.439,4.439,0,0,1-1.719,1.9,4.906,4.906,0,0,1-2.583.674,4.584,4.584,0,0,1-3.579-1.489,5.7,5.7,0,0,1-1.343-3.97Zm2.373.205a4.258,4.258,0,0,0,.674,2.554,2.191,2.191,0,0,0,1.875.923,2.167,2.167,0,0,0,1.87-.937,4.7,4.7,0,0,0,.669-2.744A4.2,4.2,0,0,0,13.9,19.08a2.2,2.2,0,0,0-1.87-.937,2.178,2.178,0,0,0-1.846.923A4.614,4.614,0,0,0,9.5,21.824Zm9.014-.186a6.282,6.282,0,0,1,1.133-3.921,3.63,3.63,0,0,1,3.037-1.479A3.449,3.449,0,0,1,25.4,17.41V12h2.373V27H25.625l-.117-1.094A3.5,3.5,0,0,1,22.666,27.2a3.609,3.609,0,0,1-3-1.494A6.512,6.512,0,0,1,18.516,21.639Zm2.373.205a4.4,4.4,0,0,0,.62,2.515,2.012,2.012,0,0,0,1.763.9,2.241,2.241,0,0,0,2.129-1.3V19.451a2.207,2.207,0,0,0-2.109-1.27,2.027,2.027,0,0,0-1.777.913A4.9,4.9,0,0,0,20.889,21.844Zm8.916-.225a6.231,6.231,0,0,1,.615-2.8,4.493,4.493,0,0,1,1.729-1.914,4.87,4.87,0,0,1,2.559-.669,4.615,4.615,0,0,1,3.472,1.377,5.416,5.416,0,0,1,1.44,3.652l.01.557a6.286,6.286,0,0,1-.6,2.793,4.439,4.439,0,0,1-1.719,1.9,4.906,4.906,0,0,1-2.583.674,4.584,4.584,0,0,1-3.579-1.489,5.7,5.7,0,0,1-1.343-3.97Zm2.373.205a4.258,4.258,0,0,0,.674,2.554,2.191,2.191,0,0,0,1.875.923,2.167,2.167,0,0,0,1.87-.937,4.7,4.7,0,0,0,.669-2.744,4.2,4.2,0,0,0-.688-2.539,2.321,2.321,0,0,0-3.716-.015A4.614,4.614,0,0,0,32.178,21.824Zm15.381,2.3a1.076,1.076,0,0,0-.522-.967,5.557,5.557,0,0,0-1.733-.586,8.911,8.911,0,0,1-2.021-.645,2.7,2.7,0,0,1-1.777-2.49,2.813,2.813,0,0,1,1.152-2.285,4.556,4.556,0,0,1,2.93-.918,4.74,4.74,0,0,1,3.062.938,2.975,2.975,0,0,1,1.167,2.432H47.441a1.462,1.462,0,0,0-.508-1.138,1.946,1.946,0,0,0-1.348-.454,2.1,2.1,0,0,0-1.274.361,1.139,1.139,0,0,0-.493.967.962.962,0,0,0,.459.85,6.312,6.312,0,0,0,1.855.61,8.783,8.783,0,0,1,2.192.732,3.1,3.1,0,0,1,1.182,1.021A2.6,2.6,0,0,1,49.893,24a2.753,2.753,0,0,1-1.182,2.31,5.039,5.039,0,0,1-3.1.884,5.464,5.464,0,0,1-2.314-.469,3.809,3.809,0,0,1-1.582-1.289,3.051,3.051,0,0,1-.566-1.768h2.3a1.672,1.672,0,0,0,.635,1.294,2.467,2.467,0,0,0,1.553.454,2.4,2.4,0,0,0,1.426-.356A1.1,1.1,0,0,0,47.559,24.129ZM59.463,27H57.09V12h2.373ZM61.6,21.619a6.231,6.231,0,0,1,.615-2.8,4.493,4.493,0,0,1,1.729-1.914,4.87,4.87,0,0,1,2.559-.669,4.615,4.615,0,0,1,3.472,1.377,5.416,5.416,0,0,1,1.44,3.652l.01.557a6.286,6.286,0,0,1-.6,2.793,4.439,4.439,0,0,1-1.719,1.9,4.906,4.906,0,0,1-2.583.674,4.584,4.584,0,0,1-3.579-1.489,5.7,5.7,0,0,1-1.343-3.97Zm2.373.205a4.258,4.258,0,0,0,.674,2.554,2.191,2.191,0,0,0,1.875.923,2.167,2.167,0,0,0,1.87-.937,4.7,4.7,0,0,0,.669-2.744,4.2,4.2,0,0,0-.688-2.539,2.321,2.321,0,0,0-3.716-.015A4.614,4.614,0,0,0,63.975,21.824Zm15.381,2.3a1.076,1.076,0,0,0-.522-.967,5.557,5.557,0,0,0-1.733-.586,8.911,8.911,0,0,1-2.021-.645,2.7,2.7,0,0,1-1.777-2.49,2.813,2.813,0,0,1,1.152-2.285,4.556,4.556,0,0,1,2.93-.918,4.74,4.74,0,0,1,3.062.938,2.975,2.975,0,0,1,1.167,2.432H79.238a1.462,1.462,0,0,0-.508-1.138,1.946,1.946,0,0,0-1.348-.454,2.1,2.1,0,0,0-1.274.361,1.139,1.139,0,0,0-.493.967.962.962,0,0,0,.459.85,6.312,6.312,0,0,0,1.855.61,8.783,8.783,0,0,1,2.192.732A3.1,3.1,0,0,1,81.3,22.557,2.6,2.6,0,0,1,81.689,24a2.753,2.753,0,0,1-1.182,2.31,5.039,5.039,0,0,1-3.1.884,5.464,5.464,0,0,1-2.314-.469,3.809,3.809,0,0,1-1.582-1.289,3.051,3.051,0,0,1-.566-1.768h2.3a1.672,1.672,0,0,0,.635,1.294,2.467,2.467,0,0,0,1.553.454,2.4,2.4,0,0,0,1.426-.356A1.1,1.1,0,0,0,79.355,24.129Zm11.719-6.543a3.714,3.714,0,0,1,2.939-1.348q3.379,0,3.428,3.857V27H95.068V20.184a2.086,2.086,0,0,0-.474-1.548,1.936,1.936,0,0,0-1.392-.454,2.286,2.286,0,0,0-2.129,1.27V27H88.7V12h2.373ZM102.363,27H99.99V16.434h2.373Zm-2.52-13.311a1.259,1.259,0,0,1,.347-.908,1.309,1.309,0,0,1,.991-.361,1.326,1.326,0,0,1,1,.361,1.25,1.25,0,0,1,.352.908,1.221,1.221,0,0,1-.352.894,1.336,1.336,0,0,1-1,.356,1.32,1.32,0,0,1-.991-.356A1.23,1.23,0,0,1,99.844,13.689Zm8.076.176v2.568h1.865v1.758H107.92v5.9a1.3,1.3,0,0,0,.239.874,1.109,1.109,0,0,0,.854.269,3.656,3.656,0,0,0,.83-.1v1.836a5.844,5.844,0,0,1-1.562.225q-2.734,0-2.734-3.018V18.191h-1.738V16.434h1.738V13.865Zm2.939,7.754a6.231,6.231,0,0,1,.615-2.8,4.493,4.493,0,0,1,1.729-1.914,4.87,4.87,0,0,1,2.559-.669,4.615,4.615,0,0,1,3.472,1.377,5.416,5.416,0,0,1,1.44,3.652l.01.557a6.286,6.286,0,0,1-.6,2.793,4.439,4.439,0,0,1-1.719,1.9,4.906,4.906,0,0,1-2.583.674,4.584,4.584,0,0,1-3.579-1.489,5.7,5.7,0,0,1-1.343-3.97Zm2.373.205a4.258,4.258,0,0,0,.674,2.554,2.191,2.191,0,0,0,1.875.923,2.167,2.167,0,0,0,1.87-.937,4.7,4.7,0,0,0,.669-2.744,4.2,4.2,0,0,0-.688-2.539,2.321,2.321,0,0,0-3.716-.015A4.614,4.614,0,0,0,113.232,21.824Zm15.381,2.3a1.076,1.076,0,0,0-.522-.967,5.557,5.557,0,0,0-1.733-.586,8.911,8.911,0,0,1-2.021-.645,2.7,2.7,0,0,1-1.777-2.49,2.813,2.813,0,0,1,1.152-2.285,4.556,4.556,0,0,1,2.93-.918,4.74,4.74,0,0,1,3.062.938,2.975,2.975,0,0,1,1.167,2.432H128.5a1.462,1.462,0,0,0-.508-1.138,1.946,1.946,0,0,0-1.348-.454,2.1,2.1,0,0,0-1.274.361,1.139,1.139,0,0,0-.493.967.962.962,0,0,0,.459.85,6.312,6.312,0,0,0,1.855.61,8.783,8.783,0,0,1,2.192.732,3.1,3.1,0,0,1,1.182,1.021A2.6,2.6,0,0,1,130.947,24a2.753,2.753,0,0,1-1.182,2.31,5.039,5.039,0,0,1-3.1.884,5.464,5.464,0,0,1-2.314-.469,3.809,3.809,0,0,1-1.582-1.289,3.051,3.051,0,0,1-.566-1.768h2.3a1.672,1.672,0,0,0,.635,1.294,2.467,2.467,0,0,0,1.553.454,2.4,2.4,0,0,0,1.426-.356A1.1,1.1,0,0,0,128.613,24.129Z" transform="translate(857.431 891)" fill="#12263f"/><path d="M9.4-3.311H3.9L2.744,0H.176L5.547-14.219H7.764L13.145,0H10.566ZM4.59-5.3H8.711L6.65-11.2ZM20.449-2.871a1.076,1.076,0,0,0-.522-.967,5.557,5.557,0,0,0-1.733-.586,8.911,8.911,0,0,1-2.021-.645,2.7,2.7,0,0,1-1.777-2.49,2.813,2.813,0,0,1,1.152-2.285,4.556,4.556,0,0,1,2.93-.918,4.74,4.74,0,0,1,3.062.938,2.975,2.975,0,0,1,1.167,2.432H20.332a1.462,1.462,0,0,0-.508-1.138,1.946,1.946,0,0,0-1.348-.454,2.1,2.1,0,0,0-1.274.361,1.139,1.139,0,0,0-.493.967.962.962,0,0,0,.459.85,6.312,6.312,0,0,0,1.855.61,8.783,8.783,0,0,1,2.192.732A3.1,3.1,0,0,1,22.4-4.443,2.6,2.6,0,0,1,22.783-3,2.753,2.753,0,0,1,21.6-.688a5.039,5.039,0,0,1-3.1.884,5.464,5.464,0,0,1-2.314-.469,3.809,3.809,0,0,1-1.582-1.289,3.051,3.051,0,0,1-.566-1.768h2.3a1.672,1.672,0,0,0,.635,1.294,2.467,2.467,0,0,0,1.553.454,2.4,2.4,0,0,0,1.426-.356A1.1,1.1,0,0,0,20.449-2.871ZM27.373,0H25V-10.566h2.373Zm-2.52-13.311a1.259,1.259,0,0,1,.347-.908,1.309,1.309,0,0,1,.991-.361,1.326,1.326,0,0,1,1,.361,1.25,1.25,0,0,1,.352.908,1.221,1.221,0,0,1-.352.894,1.336,1.336,0,0,1-1,.356,1.32,1.32,0,0,1-.991-.356A1.23,1.23,0,0,1,24.854-13.311Zm4.688,7.949A6.18,6.18,0,0,1,30.7-9.292a3.714,3.714,0,0,1,3.071-1.47A3.48,3.48,0,0,1,36.611-9.5l.107-1.064h2.139V-.322a4.258,4.258,0,0,1-1.294,3.281,4.928,4.928,0,0,1-3.491,1.2A5.627,5.627,0,0,1,31.8,3.677a4.034,4.034,0,0,1-1.685-1.265L31.24.986a3.392,3.392,0,0,0,2.7,1.3,2.621,2.621,0,0,0,1.865-.64,2.451,2.451,0,0,0,.684-1.88V-.947A3.494,3.494,0,0,1,33.75.2a3.705,3.705,0,0,1-3.032-1.475A6.38,6.38,0,0,1,29.541-5.361Zm2.363.205a4.254,4.254,0,0,0,.649,2.5,2.088,2.088,0,0,0,1.8.913,2.284,2.284,0,0,0,2.129-1.23V-7.617a2.251,2.251,0,0,0-2.109-1.2,2.1,2.1,0,0,0-1.821.928A4.763,4.763,0,0,0,31.9-5.156ZM43.5-10.566l.068,1.221a3.8,3.8,0,0,1,3.076-1.416q3.3,0,3.359,3.779V0H47.627V-6.846a2.176,2.176,0,0,0-.435-1.489,1.828,1.828,0,0,0-1.421-.483,2.287,2.287,0,0,0-2.139,1.3V0H41.26V-10.566ZM58.73,0a3.662,3.662,0,0,1-.273-.986A3.694,3.694,0,0,1,55.684.2a3.728,3.728,0,0,1-2.6-.908A2.906,2.906,0,0,1,52.08-2.959a3,3,0,0,1,1.255-2.593,6.081,6.081,0,0,1,3.589-.9h1.455v-.693a1.851,1.851,0,0,0-.459-1.313,1.819,1.819,0,0,0-1.4-.493A2.09,2.09,0,0,0,55.2-8.55a1.254,1.254,0,0,0-.518,1.03H52.3a2.634,2.634,0,0,1,.576-1.626,3.838,3.838,0,0,1,1.567-1.187,5.506,5.506,0,0,1,2.212-.43,4.434,4.434,0,0,1,2.959.933,3.326,3.326,0,0,1,1.133,2.622v4.766a5.4,5.4,0,0,0,.4,2.275V0ZM56.123-1.709a2.7,2.7,0,0,0,1.323-.342,2.284,2.284,0,0,0,.933-.918V-4.961H57.1a3.5,3.5,0,0,0-1.982.459,1.487,1.487,0,0,0-.664,1.3,1.387,1.387,0,0,0,.454,1.089A1.758,1.758,0,0,0,56.123-1.709ZM68.77-8.4a5.872,5.872,0,0,0-.967-.078,2.177,2.177,0,0,0-2.2,1.25V0H63.232V-10.566H65.5l.059,1.182a2.674,2.674,0,0,1,2.383-1.377,2.222,2.222,0,0,1,.84.137ZM4.189,13.865v2.568H6.055v1.758H4.189v5.9a1.3,1.3,0,0,0,.239.874,1.109,1.109,0,0,0,.854.269,3.656,3.656,0,0,0,.83-.1v1.836a5.844,5.844,0,0,1-1.562.225q-2.734,0-2.734-3.018V18.191H.078V16.434H1.816V13.865ZM14.18,27a3.662,3.662,0,0,1-.273-.986A3.694,3.694,0,0,1,11.133,27.2a3.728,3.728,0,0,1-2.6-.908,2.906,2.906,0,0,1-1.006-2.246,3,3,0,0,1,1.255-2.593,6.081,6.081,0,0,1,3.589-.9h1.455v-.693a1.851,1.851,0,0,0-.459-1.313,1.819,1.819,0,0,0-1.4-.493,2.09,2.09,0,0,0-1.328.405,1.254,1.254,0,0,0-.518,1.03H7.754a2.634,2.634,0,0,1,.576-1.626A3.839,3.839,0,0,1,9.9,16.668a5.506,5.506,0,0,1,2.212-.43,4.434,4.434,0,0,1,2.959.933A3.326,3.326,0,0,1,16.2,19.793v4.766a5.4,5.4,0,0,0,.4,2.275V27Zm-2.607-1.709a2.7,2.7,0,0,0,1.323-.342,2.284,2.284,0,0,0,.933-.918V22.039H12.549a3.5,3.5,0,0,0-1.982.459A1.487,1.487,0,0,0,9.9,23.8a1.387,1.387,0,0,0,.454,1.089A1.758,1.758,0,0,0,11.572,25.291ZM24.219,18.6a5.872,5.872,0,0,0-.967-.078,2.177,2.177,0,0,0-2.2,1.25V27H18.682V16.434h2.266l.059,1.182a2.674,2.674,0,0,1,2.383-1.377,2.222,2.222,0,0,1,.84.137ZM30.186,27.2a4.91,4.91,0,0,1-3.657-1.421,5.154,5.154,0,0,1-1.4-3.784V21.7a6.34,6.34,0,0,1,.61-2.827,4.645,4.645,0,0,1,1.714-1.938,4.531,4.531,0,0,1,2.461-.693,4.147,4.147,0,0,1,3.335,1.377,5.823,5.823,0,0,1,1.177,3.9v.957h-6.9a3.173,3.173,0,0,0,.874,2.07,2.624,2.624,0,0,0,1.929.762,3.213,3.213,0,0,0,2.656-1.318L34.258,25.2a4.272,4.272,0,0,1-1.694,1.47A5.3,5.3,0,0,1,30.186,27.2ZM29.9,18.143a2,2,0,0,0-1.577.684,3.543,3.543,0,0,0-.767,1.9H32.08v-.176a2.884,2.884,0,0,0-.635-1.8A1.983,1.983,0,0,0,29.9,18.143ZM42.578,27a3.662,3.662,0,0,1-.273-.986,3.992,3.992,0,0,1-5.371.273,2.906,2.906,0,0,1-1.006-2.246,3,3,0,0,1,1.255-2.593,6.081,6.081,0,0,1,3.589-.9h1.455v-.693a1.851,1.851,0,0,0-.459-1.313,1.819,1.819,0,0,0-1.4-.493,2.09,2.09,0,0,0-1.328.405,1.254,1.254,0,0,0-.518,1.03H36.152a2.634,2.634,0,0,1,.576-1.626A3.838,3.838,0,0,1,38.3,16.668a5.506,5.506,0,0,1,2.212-.43,4.434,4.434,0,0,1,2.959.933A3.326,3.326,0,0,1,44.6,19.793v4.766a5.4,5.4,0,0,0,.4,2.275V27Zm-2.607-1.709a2.7,2.7,0,0,0,1.323-.342,2.284,2.284,0,0,0,.933-.918V22.039H40.947a3.5,3.5,0,0,0-1.982.459,1.487,1.487,0,0,0-.664,1.3,1.387,1.387,0,0,0,.454,1.089A1.758,1.758,0,0,0,39.971,25.291Zm13.037-1.162a1.076,1.076,0,0,0-.522-.967,5.557,5.557,0,0,0-1.733-.586,8.911,8.911,0,0,1-2.021-.645,2.7,2.7,0,0,1-1.777-2.49,2.813,2.813,0,0,1,1.152-2.285,4.556,4.556,0,0,1,2.93-.918,4.74,4.74,0,0,1,3.062.938,2.975,2.975,0,0,1,1.167,2.432H52.891a1.462,1.462,0,0,0-.508-1.138,1.946,1.946,0,0,0-1.348-.454,2.1,2.1,0,0,0-1.274.361,1.139,1.139,0,0,0-.493.967.962.962,0,0,0,.459.85,6.312,6.312,0,0,0,1.855.61,8.783,8.783,0,0,1,2.192.732,3.1,3.1,0,0,1,1.182,1.021A2.6,2.6,0,0,1,55.342,24a2.753,2.753,0,0,1-1.182,2.31,5.039,5.039,0,0,1-3.1.884,5.464,5.464,0,0,1-2.314-.469,3.809,3.809,0,0,1-1.582-1.289A3.051,3.051,0,0,1,46.6,23.67h2.3a1.672,1.672,0,0,0,.635,1.294,2.467,2.467,0,0,0,1.553.454,2.4,2.4,0,0,0,1.426-.356A1.1,1.1,0,0,0,53.008,24.129Z" transform="translate(1071.431 891)" fill="#12263f"/><path d="M334.3,0l73.41,73.409L334.3,146.82H510.819l75.225-75.225L514.449,0Z" transform="translate(839.524 830.062)" fill="#7fcbc4"/><path d="M9.4-3.311H3.9L2.744,0H.176L5.547-14.219H7.764L13.145,0H10.566ZM4.59-5.3H8.711L6.65-11.2ZM20.449-2.871a1.076,1.076,0,0,0-.522-.967,5.557,5.557,0,0,0-1.733-.586,8.911,8.911,0,0,1-2.021-.645,2.7,2.7,0,0,1-1.777-2.49,2.813,2.813,0,0,1,1.152-2.285,4.556,4.556,0,0,1,2.93-.918,4.74,4.74,0,0,1,3.062.938,2.975,2.975,0,0,1,1.167,2.432H20.332a1.462,1.462,0,0,0-.508-1.138,1.946,1.946,0,0,0-1.348-.454,2.1,2.1,0,0,0-1.274.361,1.139,1.139,0,0,0-.493.967.962.962,0,0,0,.459.85,6.312,6.312,0,0,0,1.855.61,8.783,8.783,0,0,1,2.192.732A3.1,3.1,0,0,1,22.4-4.443,2.6,2.6,0,0,1,22.783-3,2.753,2.753,0,0,1,21.6-.688a5.039,5.039,0,0,1-3.1.884,5.464,5.464,0,0,1-2.314-.469,3.809,3.809,0,0,1-1.582-1.289,3.051,3.051,0,0,1-.566-1.768h2.3a1.672,1.672,0,0,0,.635,1.294,2.467,2.467,0,0,0,1.553.454,2.4,2.4,0,0,0,1.426-.356A1.1,1.1,0,0,0,20.449-2.871ZM27.373,0H25V-10.566h2.373Zm-2.52-13.311a1.259,1.259,0,0,1,.347-.908,1.309,1.309,0,0,1,.991-.361,1.326,1.326,0,0,1,1,.361,1.25,1.25,0,0,1,.352.908,1.221,1.221,0,0,1-.352.894,1.336,1.336,0,0,1-1,.356,1.32,1.32,0,0,1-.991-.356A1.23,1.23,0,0,1,24.854-13.311Zm4.688,7.949A6.18,6.18,0,0,1,30.7-9.292a3.714,3.714,0,0,1,3.071-1.47A3.48,3.48,0,0,1,36.611-9.5l.107-1.064h2.139V-.322a4.258,4.258,0,0,1-1.294,3.281,4.928,4.928,0,0,1-3.491,1.2A5.627,5.627,0,0,1,31.8,3.677a4.034,4.034,0,0,1-1.685-1.265L31.24.986a3.392,3.392,0,0,0,2.7,1.3,2.621,2.621,0,0,0,1.865-.64,2.451,2.451,0,0,0,.684-1.88V-.947A3.494,3.494,0,0,1,33.75.2a3.705,3.705,0,0,1-3.032-1.475A6.38,6.38,0,0,1,29.541-5.361Zm2.363.205a4.254,4.254,0,0,0,.649,2.5,2.088,2.088,0,0,0,1.8.913,2.284,2.284,0,0,0,2.129-1.23V-7.617a2.251,2.251,0,0,0-2.109-1.2,2.1,2.1,0,0,0-1.821.928A4.763,4.763,0,0,0,31.9-5.156ZM43.5-10.566l.068,1.221a3.8,3.8,0,0,1,3.076-1.416q3.3,0,3.359,3.779V0H47.627V-6.846a2.176,2.176,0,0,0-.435-1.489,1.828,1.828,0,0,0-1.421-.483,2.287,2.287,0,0,0-2.139,1.3V0H41.26V-10.566ZM58.73,0a3.662,3.662,0,0,1-.273-.986A3.694,3.694,0,0,1,55.684.2a3.728,3.728,0,0,1-2.6-.908A2.906,2.906,0,0,1,52.08-2.959a3,3,0,0,1,1.255-2.593,6.081,6.081,0,0,1,3.589-.9h1.455v-.693a1.851,1.851,0,0,0-.459-1.313,1.819,1.819,0,0,0-1.4-.493A2.09,2.09,0,0,0,55.2-8.55a1.254,1.254,0,0,0-.518,1.03H52.3a2.634,2.634,0,0,1,.576-1.626,3.838,3.838,0,0,1,1.567-1.187,5.506,5.506,0,0,1,2.212-.43,4.434,4.434,0,0,1,2.959.933,3.326,3.326,0,0,1,1.133,2.622v4.766a5.4,5.4,0,0,0,.4,2.275V0ZM56.123-1.709a2.7,2.7,0,0,0,1.323-.342,2.284,2.284,0,0,0,.933-.918V-4.961H57.1a3.5,3.5,0,0,0-1.982.459,1.487,1.487,0,0,0-.664,1.3,1.387,1.387,0,0,0,.454,1.089A1.758,1.758,0,0,0,56.123-1.709ZM68.77-8.4a5.872,5.872,0,0,0-.967-.078,2.177,2.177,0,0,0-2.2,1.25V0H63.232V-10.566H65.5l.059,1.182a2.674,2.674,0,0,1,2.383-1.377,2.222,2.222,0,0,1,.84.137ZM6.748,18.6a5.872,5.872,0,0,0-.967-.078,2.177,2.177,0,0,0-2.2,1.25V27H1.211V16.434H3.477l.059,1.182a2.674,2.674,0,0,1,2.383-1.377,2.222,2.222,0,0,1,.84.137ZM12.715,27.2a4.91,4.91,0,0,1-3.657-1.421,5.154,5.154,0,0,1-1.4-3.784V21.7a6.34,6.34,0,0,1,.61-2.827A4.645,4.645,0,0,1,9.98,16.932a4.531,4.531,0,0,1,2.461-.693,4.147,4.147,0,0,1,3.335,1.377,5.823,5.823,0,0,1,1.177,3.9v.957h-6.9a3.173,3.173,0,0,0,.874,2.07,2.624,2.624,0,0,0,1.929.762,3.213,3.213,0,0,0,2.656-1.318L16.787,25.2a4.272,4.272,0,0,1-1.694,1.47A5.3,5.3,0,0,1,12.715,27.2Zm-.283-9.053a2,2,0,0,0-1.577.684,3.543,3.543,0,0,0-.767,1.9h4.521v-.176a2.884,2.884,0,0,0-.635-1.8A1.983,1.983,0,0,0,12.432,18.143Zm10.7,7.158a2.146,2.146,0,0,0,1.475-.518,1.768,1.768,0,0,0,.625-1.279h2.236a3.486,3.486,0,0,1-.615,1.841A4.035,4.035,0,0,1,25.293,26.7a4.656,4.656,0,0,1-2.129.5,4.505,4.505,0,0,1-3.516-1.436,5.694,5.694,0,0,1-1.3-3.965v-.244a5.6,5.6,0,0,1,1.289-3.862,4.464,4.464,0,0,1,3.516-1.45,4.341,4.341,0,0,1,3.071,1.1,3.935,3.935,0,0,1,1.245,2.886H25.234a2.173,2.173,0,0,0-.62-1.494,2,2,0,0,0-1.479-.586,2.088,2.088,0,0,0-1.777.835,4.261,4.261,0,0,0-.635,2.534v.381a4.331,4.331,0,0,0,.62,2.563A2.086,2.086,0,0,0,23.135,25.3Zm12.529.664A3.68,3.68,0,0,1,32.7,27.2a3.28,3.28,0,0,1-2.6-1.006,4.279,4.279,0,0,1-.884-2.91V16.434h2.373V23.25q0,2.012,1.67,2.012a2.345,2.345,0,0,0,2.334-1.24V16.434h2.373V27H35.723ZM45.908,18.6a5.872,5.872,0,0,0-.967-.078,2.177,2.177,0,0,0-2.2,1.25V27H40.371V16.434h2.266l.059,1.182a2.674,2.674,0,0,1,2.383-1.377,2.222,2.222,0,0,1,.84.137Zm7.422,5.527a1.076,1.076,0,0,0-.522-.967,5.557,5.557,0,0,0-1.733-.586,8.911,8.911,0,0,1-2.021-.645,2.7,2.7,0,0,1-1.777-2.49,2.813,2.813,0,0,1,1.152-2.285,4.556,4.556,0,0,1,2.93-.918,4.74,4.74,0,0,1,3.062.938,2.975,2.975,0,0,1,1.167,2.432H53.213a1.462,1.462,0,0,0-.508-1.138,1.946,1.946,0,0,0-1.348-.454,2.1,2.1,0,0,0-1.274.361,1.139,1.139,0,0,0-.493.967.962.962,0,0,0,.459.85,6.312,6.312,0,0,0,1.855.61,8.783,8.783,0,0,1,2.192.732,3.1,3.1,0,0,1,1.182,1.021A2.6,2.6,0,0,1,55.664,24a2.753,2.753,0,0,1-1.182,2.31,5.039,5.039,0,0,1-3.1.884,5.464,5.464,0,0,1-2.314-.469,3.809,3.809,0,0,1-1.582-1.289,3.051,3.051,0,0,1-.566-1.768h2.3a1.672,1.672,0,0,0,.635,1.294,2.467,2.467,0,0,0,1.553.454,2.4,2.4,0,0,0,1.426-.356A1.1,1.1,0,0,0,53.33,24.129Zm3.955-2.51a6.231,6.231,0,0,1,.615-2.8,4.493,4.493,0,0,1,1.729-1.914,4.87,4.87,0,0,1,2.559-.669,4.615,4.615,0,0,1,3.472,1.377,5.416,5.416,0,0,1,1.44,3.652l.01.557a6.286,6.286,0,0,1-.6,2.793,4.439,4.439,0,0,1-1.719,1.9,4.906,4.906,0,0,1-2.583.674,4.584,4.584,0,0,1-3.579-1.489,5.7,5.7,0,0,1-1.343-3.97Zm2.373.205a4.258,4.258,0,0,0,.674,2.554,2.191,2.191,0,0,0,1.875.923,2.167,2.167,0,0,0,1.87-.937,4.7,4.7,0,0,0,.669-2.744,4.2,4.2,0,0,0-.688-2.539,2.321,2.321,0,0,0-3.716-.015A4.614,4.614,0,0,0,59.658,21.824Zm15.381,2.3a1.076,1.076,0,0,0-.522-.967,5.557,5.557,0,0,0-1.733-.586,8.911,8.911,0,0,1-2.021-.645,2.7,2.7,0,0,1-1.777-2.49,2.813,2.813,0,0,1,1.152-2.285,4.556,4.556,0,0,1,2.93-.918,4.74,4.74,0,0,1,3.062.938,2.975,2.975,0,0,1,1.167,2.432H74.922a1.462,1.462,0,0,0-.508-1.138,1.946,1.946,0,0,0-1.348-.454,2.1,2.1,0,0,0-1.274.361,1.139,1.139,0,0,0-.493.967.962.962,0,0,0,.459.85,6.312,6.312,0,0,0,1.855.61,8.783,8.783,0,0,1,2.192.732,3.1,3.1,0,0,1,1.182,1.021A2.6,2.6,0,0,1,77.373,24a2.753,2.753,0,0,1-1.182,2.31,5.039,5.039,0,0,1-3.1.884,5.464,5.464,0,0,1-2.314-.469A3.809,3.809,0,0,1,69.2,25.438a3.051,3.051,0,0,1-.566-1.768h2.3a1.672,1.672,0,0,0,.635,1.294,2.467,2.467,0,0,0,1.553.454,2.4,2.4,0,0,0,1.426-.356A1.1,1.1,0,0,0,75.039,24.129ZM7.617,52.965A3.68,3.68,0,0,1,4.648,54.2a3.28,3.28,0,0,1-2.6-1.006,4.279,4.279,0,0,1-.884-2.91V43.434H3.535V50.25q0,2.012,1.67,2.012a2.345,2.345,0,0,0,2.334-1.24V43.434H9.912V54H7.676ZM6.26,39H8.965L6.26,41.959h-1.9ZM15.3,40.865v2.568h1.865v1.758H15.3v5.9a1.3,1.3,0,0,0,.239.874,1.109,1.109,0,0,0,.854.269,3.656,3.656,0,0,0,.83-.1v1.836a5.845,5.845,0,0,1-1.562.225q-2.734,0-2.734-3.018V45.191H11.191V43.434H12.93V40.865ZM21.5,54H19.131V43.434H21.5Zm-2.52-13.311a1.259,1.259,0,0,1,.347-.908,1.309,1.309,0,0,1,.991-.361,1.326,1.326,0,0,1,1,.361,1.25,1.25,0,0,1,.352.908,1.221,1.221,0,0,1-.352.894,1.336,1.336,0,0,1-1,.356,1.32,1.32,0,0,1-.991-.356A1.23,1.23,0,0,1,18.984,40.689ZM26.611,54H24.238V39h2.373Zm7.236.2a4.91,4.91,0,0,1-3.657-1.421,5.154,5.154,0,0,1-1.4-3.784V48.7a6.34,6.34,0,0,1,.61-2.827,4.645,4.645,0,0,1,1.714-1.938,4.531,4.531,0,0,1,2.461-.693,4.147,4.147,0,0,1,3.335,1.377,5.823,5.823,0,0,1,1.177,3.9v.957h-6.9a3.173,3.173,0,0,0,.874,2.07,2.624,2.624,0,0,0,1.929.762,3.213,3.213,0,0,0,2.656-1.318L37.92,52.2a4.272,4.272,0,0,1-1.694,1.47A5.3,5.3,0,0,1,33.848,54.2Zm-.283-9.053a2,2,0,0,0-1.577.684,3.543,3.543,0,0,0-.767,1.9h4.521v-.176a2.884,2.884,0,0,0-.635-1.8A1.983,1.983,0,0,0,33.564,45.143ZM45.85,51.129a1.076,1.076,0,0,0-.522-.967,5.557,5.557,0,0,0-1.733-.586,8.911,8.911,0,0,1-2.021-.645,2.7,2.7,0,0,1-1.777-2.49,2.813,2.813,0,0,1,1.152-2.285,4.556,4.556,0,0,1,2.93-.918,4.74,4.74,0,0,1,3.062.938,2.975,2.975,0,0,1,1.167,2.432H45.732a1.462,1.462,0,0,0-.508-1.138,1.946,1.946,0,0,0-1.348-.454,2.1,2.1,0,0,0-1.274.361,1.139,1.139,0,0,0-.493.967.962.962,0,0,0,.459.85,6.312,6.312,0,0,0,1.855.61,8.783,8.783,0,0,1,2.192.732A3.1,3.1,0,0,1,47.8,49.557,2.6,2.6,0,0,1,48.184,51,2.753,2.753,0,0,1,47,53.312a5.039,5.039,0,0,1-3.1.884,5.464,5.464,0,0,1-2.314-.469,3.809,3.809,0,0,1-1.582-1.289,3.051,3.051,0,0,1-.566-1.768h2.3a1.672,1.672,0,0,0,.635,1.294,2.467,2.467,0,0,0,1.553.454,2.4,2.4,0,0,0,1.426-.356A1.1,1.1,0,0,0,45.85,51.129Z" transform="translate(1271.431 878)" fill="#12263f"/></g></svg>