<svg xmlns="http://www.w3.org/2000/svg" width="609" height="433.58" viewBox="0 0 609 433.58"><g transform="translate(-181 -8617)"><path d="M0,0H433.58V609H0Z" transform="translate(181 9050.58) rotate(-90)" fill="#ddefd7"/><path d="M-42.837-2.656h-4.7L-48.354,0h-3.662L-46.8-14.219h3.223L-38.325,0h-3.682ZM-46.714-5.3h3.057l-1.533-4.932Zm12.852.479V0H-37.29V-14.219h5.674a6.608,6.608,0,0,1,2.886.6,4.526,4.526,0,0,1,1.943,1.709A4.667,4.667,0,0,1-26.1-9.395a4.114,4.114,0,0,1-1.489,3.325,6.179,6.179,0,0,1-4.087,1.245Zm0-2.646h2.246a2.118,2.118,0,0,0,1.519-.5,1.85,1.85,0,0,0,.522-1.406,2.287,2.287,0,0,0-.537-1.592,1.9,1.9,0,0,0-1.465-.605h-2.285Zm13.018,4.834h5.967V0h-9.395V-14.219h3.428Zm15.674-.02h-4.7L-10.688,0h-3.662l5.215-14.219h3.223L-.659,0H-4.341ZM-9.048-5.3h3.057l-1.533-4.932ZM4.224-2.637h6.8V0H-.054V-1.807l6.777-9.766H-.093v-2.646H10.952v1.758Zm16.553-.02h-4.7L15.259,0H11.6l5.215-14.219h3.223L25.288,0H21.606ZM16.9-5.3h3.057l-1.533-4.932ZM26.323,0V-14.219H30.9a6.737,6.737,0,0,1,3.389.854,6.006,6.006,0,0,1,2.349,2.412A7.283,7.283,0,0,1,37.5-7.461v.654a7.325,7.325,0,0,1-.825,3.5A6.032,6.032,0,0,1,34.346-.884,6.589,6.589,0,0,1,31,0Zm3.428-11.572v8.936h1.191a2.666,2.666,0,0,0,2.266-1.05A5.145,5.145,0,0,0,34-6.807v-.615a5.1,5.1,0,0,0-.791-3.105,2.713,2.713,0,0,0-2.3-1.045ZM51.294-6.816a8.385,8.385,0,0,1-.771,3.682A5.7,5.7,0,0,1,48.33-.669,6.1,6.1,0,0,1,45.093.2,6.191,6.191,0,0,1,41.87-.64a5.692,5.692,0,0,1-2.192-2.388,8.144,8.144,0,0,1-.825-3.564v-.8a8.422,8.422,0,0,1,.767-3.687,5.688,5.688,0,0,1,2.2-2.466,6.147,6.147,0,0,1,3.257-.869,6.087,6.087,0,0,1,3.223.859,5.79,5.79,0,0,1,2.2,2.446,8.18,8.18,0,0,1,.8,3.638Zm-3.486-.6A5.979,5.979,0,0,0,47.1-10.63a2.271,2.271,0,0,0-2.026-1.1q-2.578,0-2.725,3.867l-.01,1.045A6.149,6.149,0,0,0,43.032-3.6,2.268,2.268,0,0,0,45.093-2.48a2.24,2.24,0,0,0,2-1.1,5.982,5.982,0,0,0,.713-3.174Z" transform="translate(485.5 8688)" fill="#12263f"/><path d="M-1700.516,12133.581v-121.662c56.271-59.337,144.021-111.537,268.333-78.655,244.741,64.735,338.756-54.955,338.756-54.955v255.272Z" transform="translate(1881.516 -3092.163)" fill="#f3ffef"/><g transform="translate(439.672 8801.315)"><path d="M63.544,113.391H5.163A4.175,4.175,0,0,1,1,109.229V5.163A4.175,4.175,0,0,1,5.163,1H68.83a2.048,2.048,0,0,1,1.457.6L83.649,14.966a2.048,2.048,0,0,1,.6,1.457V51.014Z" transform="translate(1.081 1.081)" fill="#e4f1ff"/><rect width="37.464" height="8.325" rx="2" transform="translate(24.976 16.651)" fill="#79be60"/><circle cx="35.382" cy="35.382" r="35.382" transform="translate(52.033 52.033)" fill="#ff854e"/><path d="M66.067,60.2A4.15,4.15,0,1,1,60.2,66.067l-9.553-9.553-9.553,9.553A4.15,4.15,0,1,1,35.222,60.2l9.553-9.553-9.553-9.553a4.15,4.15,0,1,1,5.869-5.869l9.553,9.553L60.2,35.222a4.15,4.15,0,1,1,5.869,5.869l-9.553,9.553Z" transform="translate(36.771 36.771)" fill="#fff"/><path d="M48.382,15.472H38.163A4.175,4.175,0,0,1,34,11.309V1.09a2.244,2.244,0,0,1,.6.416L47.966,14.868a2.243,2.243,0,0,1,.416.6Z" transform="translate(36.765 1.179)" fill="#a3bdce"/><g transform="translate(0 0)"><path d="M46.382,19.488A6.244,6.244,0,0,0,46.382,7H17.244a6.244,6.244,0,1,0,0,12.488Zm-31.22-6.244a2.081,2.081,0,0,1,2.081-2.081H46.382a2.081,2.081,0,0,1,0,4.163H17.244A2.081,2.081,0,0,1,15.163,13.244Z" transform="translate(11.895 7.569)" fill="#373737"/><path d="M87.416,49.952V17.5A4.115,4.115,0,0,0,86.2,14.569L72.846,1.213A4.115,4.115,0,0,0,69.912,0H6.244A6.244,6.244,0,0,0,0,6.244V110.31a6.244,6.244,0,0,0,6.244,6.244h47.87a2.081,2.081,0,0,0,0-4.163H6.244a2.081,2.081,0,0,1-2.081-2.081V6.244A2.081,2.081,0,0,1,6.244,4.163h62.44v8.325a6.244,6.244,0,0,0,6.244,6.244h8.325V50.2a37.349,37.349,0,1,0,4.163-.246ZM72.846,12.488V7.1l7.47,7.466H74.928A2.081,2.081,0,0,1,72.846,12.488ZM87.416,120.717a33.3,33.3,0,1,1,33.3-33.3A33.3,33.3,0,0,1,87.416,120.717Z" transform="translate(0 0)" fill="#373737"/><path d="M70.4,39.213a6.134,6.134,0,0,0-1.777-4.4,6.346,6.346,0,0,0-8.823,0l-8.082,8.073-8.071-8.073a6.354,6.354,0,0,0-8.814-.019,6.267,6.267,0,0,0,0,8.823L42.9,51.7l-8.073,8.071a6.267,6.267,0,0,0,0,8.825,6.35,6.35,0,0,0,8.81,0l8.076-8.084L59.8,68.6a6.231,6.231,0,1,0,8.8-8.821L60.529,51.7,68.6,43.629A6.254,6.254,0,0,0,70.4,39.213ZM65.668,40.67l-9.553,9.553a2.081,2.081,0,0,0,0,2.943l9.562,9.566a2.069,2.069,0,0,1-2.935,2.914l-9.553-9.553a2.135,2.135,0,0,0-2.943,0l-9.56,9.553a2.069,2.069,0,1,1-2.914-2.914l9.553-9.553a2.081,2.081,0,0,0,0-2.943L37.757,40.67a2.069,2.069,0,0,1,2.935-2.914l9.553,9.553a2.081,2.081,0,0,0,2.943,0l9.56-9.568a2.069,2.069,0,0,1,2.914,2.935Z" transform="translate(35.699 35.715)" fill="#373737"/><path d="M6,19.081a2.081,2.081,0,0,0,2.081,2.081H66.358a2.081,2.081,0,0,0,0-4.163H8.081A2.081,2.081,0,0,0,6,19.081Z" transform="translate(6.488 18.383)" fill="#373737"/><path d="M8.081,26.163H60.114a2.081,2.081,0,0,0,0-4.163H8.081a2.081,2.081,0,0,0,0,4.163Z" transform="translate(6.488 23.789)" fill="#373737"/><path d="M23.081,27a2.081,2.081,0,0,0,0,4.163H33.488a2.081,2.081,0,0,0,0-4.163Z" transform="translate(22.708 29.196)" fill="#373737"/><path d="M8.081,31.163H30.976a2.081,2.081,0,1,0,0-4.163H8.081a2.081,2.081,0,0,0,0,4.163Z" transform="translate(6.488 29.196)" fill="#373737"/><path d="M35.895,34.081A2.081,2.081,0,0,0,33.813,32H15.081a2.081,2.081,0,0,0,0,4.163H33.813A2.081,2.081,0,0,0,35.895,34.081Z" transform="translate(14.057 34.602)" fill="#373737"/><path d="M8.081,36.163h6.244a2.081,2.081,0,1,0,0-4.163H8.081a2.081,2.081,0,0,0,0,4.163Z" transform="translate(6.488 34.602)" fill="#373737"/><path d="M39.3,39.081A2.081,2.081,0,0,0,37.22,37H8.081a2.081,2.081,0,0,0,0,4.163H37.22A2.081,2.081,0,0,0,39.3,39.081Z" transform="translate(6.488 40.009)" fill="#373737"/><path d="M35.139,44.081A2.081,2.081,0,0,0,33.057,42H8.081a2.081,2.081,0,0,0,0,4.163H33.057A2.081,2.081,0,0,0,35.139,44.081Z" transform="translate(6.488 45.416)" fill="#373737"/><path d="M8.081,47a2.081,2.081,0,0,0,0,4.163H30.976a2.081,2.081,0,0,0,0-4.163Z" transform="translate(6.488 50.822)" fill="#373737"/></g></g></g></svg>