<svg xmlns="http://www.w3.org/2000/svg" xmlns:xlink="http://www.w3.org/1999/xlink" width="505" height="269.104" viewBox="0 0 505 269.104"><defs><clipPath id="a"><rect width="273.668" height="249.707" fill="none"/></clipPath><clipPath id="b"><path d="M1442.152,589.281l-.083,0a.092.092,0,0,0,.083,0m-.969-12.379q.253,0,.52-.012a.577.577,0,0,0-.237-.05.729.729,0,0,0-.283.062m10.711-2.4s-6.172,2.2-10.191,2.383c.932.412,1.251,3.293,1.242,6.174-.01,3.021-.384,6.042-.793,6.216,1.1.055,12.87.556,18.337-2.928,4.668-2.974,13.453-6.845,13.2-17.141,8.591-17.481-10.837-22.01-10.837-22.01-3.895,3.646-10.958,27.3-10.958,27.3" transform="translate(-1441.183 -547.203)" fill="none"/></clipPath><clipPath id="d"><path d="M1202.675,1848.283s26.92,49.132,22.687,66.729c-1.339,5.564-10.205,8.393-9.025,14.164h18.047s1.906-9.391,5.318-13.329c-8.486-16.153-8.214-44.305-8.314-61.153-.048-8.044-5.891-15.043-5.991-15.536Z" transform="translate(-1202.675 -1839.159)" fill="none"/></clipPath><clipPath id="f"><path d="M618.779,895.516c-12.053-.662-22.42-1.325-30.188-1.181-24.362,5.881-51.91-2.206-51.91-2.206l-3.237,40.728s11.572,46.607,27.647,51.922c7.961,2.632,21.2.459,33.613-1.714,11.569-2.025,22.43-4.049,27.66-2.188,37.412,6.219,54.509,1.269,65-3.682,10.443-4.926,14.348-9.853,25.225-3.772l22.065-1.86s17.4-50.034,11.6-63.25-29.993-17.728-29.993-17.728c-34.06,7.94-70.117,6.435-97.484,4.931" transform="translate(-533.444 -890.585)" fill="none"/></clipPath><clipPath id="h"><path d="M986.265,1970.44s16.528,53.531,8.853,69.922c-2.426,5.183-12.159,8.4-12.159,14.291l18.531-.271s3.716-10.261,7.524-14.39a2.629,2.629,0,0,0,.635-2.395c-5.948-24.848,9.932-53.984,4.713-68.995Z" transform="translate(-982.959 -1968.602)" fill="none"/></clipPath><clipPath id="j"><path d="M227.241,782.152s-3.2,4.56-3.2,17.992,10.281,19.313,7.271,29.452c-3.036,10.226,2.181,11.764,8.738,9.692a11.889,11.889,0,0,1,6.885-.048c5.948,1.717,11.578.139,8.87-7.944-5.013-14.966,5.784-18.739,6.685-31.03.862-11.76.879-13.409-1.232-14.788-3.655-7.186-11.764-9.978-19.161-9.977-7.318,0-13.939,2.734-14.85,6.65" transform="translate(-224.037 -775.502)" fill="none"/></clipPath><clipPath id="l"><path d="M0,782.55v.085c.016,2.059,1.194,4,4.46,4.9,8.857,2.446,14.074.613,14.074.613.86-.822.712-2.052.39-3.352-.928,2.271-6.825-1.768-11.366-6.812-.488-.542-1.475-2.274-2.084-2.373a1.73,1.73,0,0,0-.28-.022C3.07,775.587.026,779.21,0,782.55" transform="translate(0 -775.588)" fill="none"/></clipPath><clipPath id="n"><path d="M728.651,771.185c-.609.1-1.6,1.831-2.084,2.373-4.541,5.044-11.366,6.812-11.366,6.812s-.469,2.53.391,3.352c0,0,5.217,1.833,14.074-.613,8.6-2.376,2.719-11.948-.735-11.947a1.736,1.736,0,0,0-.28.022" transform="translate(-715.074 -771.163)" fill="none"/></clipPath><clipPath id="p"><path d="M3318.393,1040.494c18.942,15.113,18.1,82.691,18.1,82.691l3.721-2.493c-3.306-76.579-21.826-86.5-21.826-86.5Z" transform="translate(-3318.393 -1034.196)" fill="none"/></clipPath><clipPath id="r"><path d="M2079.68,3046.845s3.792,7.2-2.621,10.208-6.413,7.722-6.413,7.722h24.165c.785-4.581-4.272-17.93-4.665-17.93Z" transform="translate(-2070.646 -3046.845)" fill="none"/></clipPath><clipPath id="t"><path d="M1540.679,3123.208s-10.21.267-10.21,7.6h29a9.846,9.846,0,0,0,.774-9.423c-6.445,3.463-11.864,3.961-14.843-2.359,0,0-2.289,3.207-4.716,4.186" transform="translate(-1530.469 -3119.022)" fill="none"/></clipPath><clipPath id="v"><path d="M1935.027,1485.65c6.456,14.944,24.958,82.433,16,111.827l17.748,1.257c4.5-25.1-2.878-72.773-10.246-120.426a84.835,84.835,0,0,0-9.4-.549c-7.72,0-16.96,1.3-14.112,7.891" transform="translate(-1934.499 -1477.759)" fill="none"/></clipPath><clipPath id="x"><path d="M1690.558,1564.862c-.094,40.208,7.173,96.781-3.455,113.572h19.071c6.65-17.154,6.48-92.08,4.715-105-1.074-7.865-7.441-9.574-12.768-9.574a30.409,30.409,0,0,0-7.563,1.006" transform="translate(-1687.103 -1563.856)" fill="none"/></clipPath><clipPath id="z"><path d="M1711.2,470.018a28.229,28.229,0,0,0-7.829,4.205l-2.363,106.533h48.667c-2.032-41.472-4.168-80.394-6.828-106.533-8.593-4.343-15.836-5.858-21.7-5.858a29.211,29.211,0,0,0-9.945,1.653" transform="translate(-1701.007 -468.365)" fill="none"/></clipPath><clipPath id="ab"><path d="M1839.337,283.145c-.309,3.246-.241,8.4-1.505,10.7-.341.62-3.63,1.578-3.63,1.578,1.156,13.464,4.6,19.619,4.6,19.619s11.15-10.538,13.993-19.463c0,0-3.919-.037-4-1.145a81.3,81.3,0,0,1,.691-13.03,26.678,26.678,0,0,0-5.462-.684c-2.3,0-4.5.513-4.683,2.426" transform="translate(-1834.202 -280.719)" fill="none"/></clipPath></defs><g transform="translate(-830 -9786.604)"><path d="M514.668,242.492c-.326,1.388-.692,2.814-1.1,4.24-.368,1.428-.857,2.937-1.386,4.446-.245.732-.531,1.468-.775,2.2-.857,2.326-1.834,4.729-3.017,7.217-.368.815-.734,1.672-1.142,2.488-.1.254-.221.511-.344.765-.074.152-.152.3-.228.455H458.2l-14.189-.038H316.965l-17.951-.02h-.056l-18.913-.022h-98l-40.853-.04H67.315s-.025-.067-.076-.2c-.013-.04-.029-.085-.049-.136-.06-.158-.141-.373-.243-.645l-.04-.08v-.04a.15.15,0,0,1-.04-.083,11.3,11.3,0,0,1-.449-1.14c-.082-.205-.163-.451-.286-.694v-.082l-.04-.04c-.56-1.455-1.254-3.349-2.055-5.639q-.107-.311-.221-.629c-.6-1.729-1.261-3.666-1.964-5.8-1.672-5.177-3.589-11.5-5.463-18.632-.734-2.814-1.468-5.749-2.162-8.808-.408-1.765-.819-3.6-1.212-5.461q-.171-.817-.337-1.634c-.721-3.477-1.4-7.059-2.011-10.719-.806-4.807-1.5-9.748-2.024-14.765q-.392-3.692-.658-7.436c0-.065-.011-.132-.013-.2s-.011-.134-.016-.2c-.241-3.513-.393-7.05-.437-10.585q-.054-4.268.1-8.53c.08-1.917.2-3.834.326-5.751.326-4.077.815-8.154,1.509-12.109.449-2.691,1.018-5.383,1.672-7.992a90.716,90.716,0,0,1,6.6-18.306c1.02-2,2.08-3.954,3.263-5.872,2.649-4.363,5.341-8.44,8.074-12.272h.04c1.426-2.038,2.854-3.954,4.28-5.791A151.752,151.752,0,0,1,89.618,75.9c67.068-62.748,143.965-2.2,191.549-44.319,46.519-41.139,133.57-41.75,172.506-3.792.734.734,1.509,1.468,2.243,2.283A63.25,63.25,0,0,1,470.068,53.5a67.391,67.391,0,0,1,3.361,22.582q-.02,1.289-.083,2.6a86.992,86.992,0,0,1-1.364,11.582q-.726,3.963-1.839,8.1a134.907,134.907,0,0,1-7.664,20.795q-.492,1.038-.98,2.08c-10.641,22.261-1.875,35.593,11.54,47.784,8.275,7.543,18.266,14.638,26.584,23.118,1.1,1.14,2.16,2.283,3.221,3.466.406.471.805.942,1.2,1.419,1.112,1.341,2.18,2.712,3.2,4.124q.777,1.1,1.5,2.232a49.94,49.94,0,0,1,3.758,7.036,45.926,45.926,0,0,1,1.93,5.358,45.284,45.284,0,0,1,1.5,7.431,56.727,56.727,0,0,1-1.27,19.286" transform="translate(790.722 9786.606)" fill="#e6d6bc"/><path d="M2241.562,409.683q-.019,1.289-.083,2.6a86.861,86.861,0,0,1-1.364,11.582l-54.227-.712s4.907-11.585,16.646-10.3c0,0,17.041-19.311,35.212-2.575,0,0,1.436-.308,3.815-.6" transform="translate(-977.411 9453.002)" fill="#f8fcff"/><path d="M1488.845,177.4s2.542-6.118,8.619-5.438c0,0,8.824-10.2,18.234-1.36,0,0,10-2.189,17.41,1.9,4.938,2.724,6.57,5.581,6.57,5.581Z" transform="translate(-355.058 9648.52)" fill="#f8fcff"/><path d="M226.358,584.073s2.078-5,7.048-4.446c0,0,7.215-8.337,14.908-1.112,0,0,8.178-1.79,14.235,1.55,4.038,2.227,5.372,4.563,5.372,4.563Z" transform="translate(642.835 9310.692)" fill="#f8fcff"/><path d="M505,1520.01v.194a.572.572,0,0,1-.571.571H.571A.572.572,0,0,1,0,1520.2v-.194a.575.575,0,0,1,.571-.574H504.429a.574.574,0,0,1,.571.574" transform="translate(830 8530.252)" fill="#2e3552"/><rect width="505" height="264.423" transform="translate(830 9786.604)" fill="none"/><g transform="translate(927.5 9805.997)"><g transform="translate(0 0.003)"><g transform="translate(0 0)" clip-path="url(#a)"><path d="M1341.388,953.6l10.438,1.932,2.485-5.389-7.1-.384Z" transform="translate(-1241.72 -879.19)" fill="#fcc4c0"/><path d="M1271.541,917.577c.352-.217,10.837-2.986,10.364,2.561-.26,3.051-.6,2.831-3.719,3.077-4.029.319-11.328-2.755-6.646-5.638" transform="translate(-1175.661 -848.583)" fill="#f49090"/><path d="M1462.851,547.2c-3.895,3.646-10.958,27.3-10.958,27.3s-6.73,2.4-10.711,2.4c2.617-1.1,1.786,12.859.885,12.374,0,0,12.681.733,18.42-2.924,4.668-2.975,13.454-6.845,13.2-17.141,8.591-17.481-10.837-22.01-10.837-22.01" transform="translate(-1334.1 -506.545)" fill="#bbdeaf"/></g></g><g transform="translate(107.083 40.661)"><g clip-path="url(#b)"><path d="M1685.286,511.862,1680.78,544.2c3.26,5.506,22.088-16.2,18.565-23.631-.935-1.973-.424-17.355-14.059-8.708" transform="translate(-1662.978 -512.066)" fill="#1a1778"/></g></g><g transform="translate(0 0.003)"><g transform="translate(0 0)" clip-path="url(#a)"><path d="M1603.418,918.544a4.8,4.8,0,0,1,4.45,3.922c.827,3.843-4.45-3.922-4.45-3.922" transform="translate(-1484.281 -850.295)" fill="#c7c7f9"/><path d="M1605.349,920.145a.2.2,0,0,1-.2-.16,4.564,4.564,0,0,0-4.257-3.762.2.2,0,0,1-.2-.207.2.2,0,0,1,.206-.2,5.041,5.041,0,0,1,4.644,4.082.2.2,0,0,1-.2.245" transform="translate(-1481.762 -847.771)" fill="#fff"/><path d="M1466.354,944.935s5.062,6.52,1.446,12.522-1.446-12.522-1.446-12.522" transform="translate(-1356.804 -874.725)" fill="#c7c7f9"/><path d="M1473.321,955.14a.2.2,0,0,1-.173-.307c3.5-5.815-1.383-12.229-1.433-12.293a.2.2,0,0,1,.32-.248,15.275,15.275,0,0,1,2.11,4.069,10.06,10.06,0,0,1-.651,8.681.2.2,0,0,1-.173.1" transform="translate(-1362.324 -872.205)" fill="#fff"/><path d="M327.435,1576.567s12.572,7.226,21.387.138-21.387-.138-21.387-.138" transform="translate(-303.106 -1456.603)" fill="#f9e7c5"/><path d="M1225.4,1839.158c.1.493,5.943,7.492,5.991,15.536.1,16.847-.172,45,8.314,61.153-3.412,3.938-5.318,13.329-5.318,13.329h-18.046c-1.18-5.772,7.686-8.6,9.024-14.164,4.234-17.6-22.687-66.729-22.687-66.729Z" transform="translate(-1113.315 -1702.505)" fill="#f9e7c5"/></g></g><g transform="translate(89.361 136.656)"><g clip-path="url(#d)"><path d="M1315.476,2933.234l17.529,7.42-.138,5.44s-26.652-.988-25.653-1.452,8.262-11.408,8.262-11.408" transform="translate(-1299.422 -2851.942)" fill="#e8c080"/></g></g><g transform="translate(0 0.003)"><g transform="translate(0 0)" clip-path="url(#a)"><path d="M2801.75,1670.292c-7.176,20.257-14.6,22.617-10.789,34.265l-11.384,40.412-5.9,8.5-11.175-5.19c2.75-2.558,5.2-5.206,6.2-7.3,2.844-4.531,4.977-16.39,4.732-25.31l-5.114-60Z" transform="translate(-2557.24 -1532.643)" fill="#f9e7c5"/><path d="M2633.771,2897.331s-10.924,3.038-10.442,8.677h20.725l.776-3.132Z" transform="translate(-2428.397 -2682.054)" fill="#e8c080"/><path d="M2376.951,1524.371s18.183,20.167,21.056,21.521c.606.286-3.413,6.245.2,7.678s4.9-5.615,5.888-5.263a40.384,40.384,0,0,0,9.817,2.345c.766.109-.83,6.637,2.751,7.463s3.877-6.734,4.815-6.663a86.913,86.913,0,0,0,17.862-.636l-6.4-47.231-35.742-7.724Z" transform="translate(-2200.339 -1384.716)" fill="#fcc4c0"/><path d="M536.681,892.13s27.548,8.087,51.91,2.206c25.406-.472,78.611,7.686,127.672-3.751,0,0,24.194,4.511,29.993,17.728s-11.6,63.25-11.6,63.25l-22.065,1.86c-21.809-12.19-15.588,19.862-90.229,7.454-10.845-3.858-45.895,8.986-61.273,3.9-16.075-5.315-27.647-51.922-27.647-51.922Z" transform="translate(-493.808 -824.413)" fill="#f9e7c5"/></g></g><g transform="translate(39.636 66.175)"><g clip-path="url(#f)"><path d="M676.363,741.523s32.983,12.117,23.666,24.237-37.552-5.716-44.37,17.8-18.537,53.5-26.175,29.42-27.691-28.411-18.577-47.222,65.456-24.237,65.456-24.237" transform="translate(-602.996 -752.599)" fill="#1a1778"/><path d="M1885.213,924c-2.171-.709-34.685-64.722,6.634-71.644s15.742-3.217,38.689-3.208,6.42,27.239-12.311,37.313-12.628,44.2-33.012,37.539" transform="translate(-1771.626 -851.299)" fill="#1a1778"/><path d="M2927.012,837.93c1.928,14.679,19.493-5.231,9.2,19s-17.322,43.813-.587,40.909,18.938.492,28.3,5.681,25.893-53.737,2.2-66.42-39.116.828-39.116.828" transform="translate(-2747.843 -836.049)" fill="#1a1778"/><path d="M352.217,1638.649A98.513,98.513,0,0,0,391.971,1665c27.678,9.411,98.4,4.363,127.17,2.367l-71.11,59.978s-109.685-26.582-107.019-34.433S352.217,1638.649,352.217,1638.649Z" transform="translate(-355.266 -1583.067)" fill="#e8c080"/><path d="M2463.366,1731.959c2.021-7.306.9-22.633,16.159-16.928s20.151,34.614,18.53,37.307-50.378-12.615-44.393-14.044c7.34-1.753,8.58-2.27,9.7-6.335" transform="translate(-2310.515 -1652.62)" fill="#e8c080"/></g></g><g transform="translate(0 0.003)"><g transform="translate(0 0)" clip-path="url(#a)"><path d="M1014.363,1968.6c5.219,15.01-10.661,44.147-4.714,68.994a2.63,2.63,0,0,1-.635,2.4c-3.808,4.128-7.524,14.39-7.524,14.39l-18.531.271c0-5.891,9.733-9.108,12.159-14.291,7.674-16.392-8.854-69.922-8.854-69.922Z" transform="translate(-909.924 -1822.331)" fill="#f9e7c5"/></g></g><g transform="translate(73.036 146.274)"><g clip-path="url(#h)"><path d="M1363.707,2771.342s22.588,11.076,28.1,7.093l-3.03,10.892s-33.331,2.2-33.882.827,8.815-18.811,8.815-18.811" transform="translate(-1327.236 -2711.697)" fill="#e8c080"/><path d="M932.919,3009.291s11.37,6.944,17.017,5.922-2.066,8.122-2.066,8.122l-23.552-3.371Z" transform="translate(-928.675 -2931.966)" fill="#e8c080"/></g></g><g transform="translate(0 0.003)"><g transform="translate(0 0)" clip-path="url(#a)"><path d="M227.241,782.152c1.833-7.874,26.741-10.968,34.012,3.327,2.111,1.379,2.094,3.028,1.232,14.788-.9,12.29-11.7,16.063-6.685,31.03,2.708,8.083-2.922,9.661-8.871,7.944a11.888,11.888,0,0,0-6.885.048c-6.557,2.072-11.774.534-8.738-9.692,3.011-10.139-7.271-16.02-7.271-29.452s3.2-17.992,3.2-17.992" transform="translate(-207.391 -717.881)" fill="#f9e7c5"/></g></g><g transform="translate(16.646 57.624)"><g clip-path="url(#j)"><path d="M197.426,1092.912s15.731,3.212,13.969,13.531a28.32,28.32,0,0,1-8.978,16.137C197.1,1110.464,192.4,1099.852,197.426,1092.912Z" transform="translate(-197.419 -1069.328)" fill="#e8c080"/><path d="M543.676,1074.309s-18.11,4.594-16.348,14.914,12.091,16.613,12.091,16.613l7.178-28.223Z" transform="translate(-504.681 -1052.107)" fill="#e8c080"/><path d="M366.183,834.151c1.962.875-.355,3.1,1.3,5.2s8.438-3.317,6-5.128c-2.571-1.908,12.98-7.1,4.073-9.238-19.587-4.708-16.513,6.878-11.373,9.171" transform="translate(-352.047 -820.272)" fill="#1a1778"/><path d="M286.844,1471.365c-.312-5.027,26.055-9.12,28.755-.559,1.727,5.476-8.628,16-18.192,12.937a15.44,15.44,0,0,1-10.563-12.378" transform="translate(-282.175 -1414.554)" fill="#e8c080"/></g></g><g transform="translate(0 0.003)"><g transform="translate(0 0)" clip-path="url(#a)"><path d="M18.925,784.794c-.928,2.271-6.825-1.768-11.366-6.812-.488-.542-1.475-2.274-2.084-2.373-3.4-.556-9.855,9.483-1.014,11.925,8.857,2.446,14.074.613,14.074.613.86-.822.712-2.052.391-3.352" transform="translate(0 -717.96)" fill="#1a1778"/></g></g><g transform="translate(0 57.63)"><g clip-path="url(#l)"><path d="M108.778,773.71s-5.848,9.807,10.35,16.225-5.564-16.3-10.35-16.225" transform="translate(-99.743 -773.849)" fill="#0f0f56"/></g></g><g transform="translate(0 0.003)"><g transform="translate(0 0)" clip-path="url(#a)"><path d="M91.684,786.8c-4.343-.756-9.179-4.133-13.3-9.14,1.269,4.584,1.635,10.6,12.92,10.6Z" transform="translate(-72.559 -719.881)" fill="#1a1778"/><path d="M715.2,780.37s6.825-1.768,11.366-6.812c.488-.542,1.475-2.274,2.084-2.373,3.4-.556,9.855,9.483,1.014,11.925-8.857,2.446-14.074.613-14.074.613-.86-.822-.391-3.352-.391-3.352" transform="translate(-661.943 -713.864)" fill="#1a1778"/></g></g><g transform="translate(53.131 57.302)"><g clip-path="url(#n)"><path d="M653.3,771.164s5.849,9.808-10.35,16.225,5.564-16.3,10.35-16.225" transform="translate(-642.849 -771.163)" fill="#0f0f56"/></g></g><g transform="translate(0 0.003)"><g transform="translate(0 0)" clip-path="url(#a)"><path d="M715.3,782.293a23.625,23.625,0,0,0,13.1-9.053c-1.269,4.584-1.925,10.6-13.21,10.6a6.968,6.968,0,0,1,.11-1.546" transform="translate(-662.036 -715.787)" fill="#1a1778"/><path d="M255.72,1158.249s-2.867,1.048-4.959-.16-2.618-4.215-2.618-4.215,2.867-1.048,4.959.16,2.618,4.215,2.618,4.215" transform="translate(-229.706 -1067.749)" fill="#1a1778"/><path d="M622.434,1153.875s-.526,3.007-2.618,4.215-4.959.16-4.959.16.526-3.007,2.618-4.215,4.959-.16,4.959-.16" transform="translate(-569.172 -1067.75)" fill="#1a1778"/><path d="M355.121,1513.808a1.269,1.269,0,0,1,2.135-.671c1.548,1.5,4.018,4.208,3.133,5.445-1.052,1.473-5.8-1.742-5.268-4.774" transform="translate(-328.697 -1400.374)" fill="#1a1778"/><path d="M532.809,1513.808a1.269,1.269,0,0,0-2.135-.671c-1.548,1.5-4.018,4.208-3.133,5.445,1.052,1.473,5.8-1.742,5.268-4.774" transform="translate(-488.171 -1400.374)" fill="#1a1778"/><path d="M207.756,687.975c-5.267-.051-6.565-1.242-9.017-8.831-1.231.677-3.768,10.371,3.9,13.77,0,0,4.14,1.062,6.571-1.557a2.012,2.012,0,0,0-1.449-3.382" transform="translate(-182.669 -628.683)" fill="#e8c080"/><path d="M627.927,699.53c4.987-1.01,6.03-2.487,7.042-10.287,1.333.441,5.6,9.509-1.316,14.25,0,0-3.606,1.674-6.435-.118a2.1,2.1,0,0,1,.709-3.845" transform="translate(-579.704 -638.031)" fill="#e8c080"/><path d="M2735.777,1672.931c-1.728,21.42-12.181,33.674,0,42.615,0,0-.486,41.047-.625,43.389s-3.339,8.291-3.339,8.291l-11.626-3.619s4.36-4.121,4.222-8.8-5.391-34.054-5.391-34.054l-30.006-52.441c23.382,7.211,32.895,27.265,46.764,4.624" transform="translate(-2489.214 -1544.349)" fill="#f9e7c5"/><path d="M2978.291,2950.9s-10.924,3.038-10.442,8.676h20.725l1.309-5.28Z" transform="translate(-2747.317 -2731.646)" fill="#e8c080"/><path d="M1244.021,1467.547a25.6,25.6,0,0,0-6.984,11.07c-2.408,7.571-5.917,22.031,1.606,24.05,10.261,2.755,3.925-14.875,17.561-22.312,12.1-6.6,1.638-25.569-12.182-12.808" transform="translate(-1142.387 -1354.511)" fill="#1a1778"/><path d="M3318.393,1034.2s18.521,9.917,21.826,86.5l-3.721,2.493s.837-67.578-18.1-82.69Z" transform="translate(-3071.831 -957.354)" fill="#f9e7c5"/></g></g><g transform="translate(246.563 76.845)"><g clip-path="url(#p)"><path d="M3208.306,939.993s-.012,2.939-2.491,1.8c-4.659-2.135-23.724-33.322-23.724-33.322l15.928-14.95Z" transform="translate(-3192.219 -903.976)" fill="#1a1778"/></g></g><g transform="translate(0 0.003)"><g transform="translate(0 0)" clip-path="url(#a)"><path d="M3530.821,2003.961s11.973-.2,8.877,19.454-5.848,17.247-5.848,17.247c-5.312-11.013-6.775-23.118-3.03-36.7" transform="translate(-3266.541 -1855.063)" fill="#e8c080"/><path d="M3028.895,2266.023a.675.675,0,0,1-.657-.526c-.249-1.1-.432-2.134-.609-3.133-.751-4.235-1.4-7.892-6.487-14.912a.674.674,0,0,1,1.092-.792c5.27,7.27,5.975,11.252,6.723,15.467.174.984.354,2,.6,3.071a.675.675,0,0,1-.509.807.7.7,0,0,1-.15.017" transform="translate(-2796.546 -2079.472)" fill="#e8c080"/><path d="M1358.943,1981.017a.659.659,0,0,1-.125-.012.674.674,0,0,1-.539-.787c.569-3.043,1.2-5.745,1.81-8.357,1.825-7.819,3.267-14,.962-21.7a.674.674,0,1,1,1.292-.387c2.408,8.047.93,14.377-.941,22.391-.607,2.6-1.234,5.284-1.8,8.3a.675.675,0,0,1-.662.551" transform="translate(-1257.346 -1804.46)" fill="#e8c080"/><path d="M1000.979,1916.149a.675.675,0,0,1-.649-.493l-5.356-19.226a.674.674,0,0,1,1.3-.362l5.356,19.226a.676.676,0,0,1-.65.855" transform="translate(-921.022 -1754.73)" fill="#e8c080"/><path d="M1282.938,2502.413c-.667.808-1.437,1.273-1.72,1.04s.027-1.078.694-1.887,1.437-1.273,1.72-1.04-.027,1.078-.694,1.886" transform="translate(-1185.924 -2314.677)" fill="#e8c080"/><path d="M1207.739,3043.259c.5.614.727,1.263.5,1.45s-.82-.161-1.323-.776-.727-1.263-.5-1.45.819.161,1.323.776" transform="translate(-1116.695 -2816.374)" fill="#e8c080"/><path d="M1228.13,3013.6c.5.615.727,1.264.5,1.45s-.82-.161-1.323-.776-.727-1.263-.5-1.449.82.161,1.323.775" transform="translate(-1135.571 -2788.919)" fill="#e8c080"/><path d="M3005.72,2339.544c.5.614.727,1.263.5,1.45s-.819-.161-1.322-.776-.728-1.264-.5-1.45.819.161,1.323.776" transform="translate(-2781.083 -2164.948)" fill="#e8c080"/><path d="M3024.359,2312.645c.5.615.727,1.264.5,1.45s-.819-.161-1.323-.775-.727-1.264-.5-1.45.82.161,1.323.776" transform="translate(-2798.337 -2140.047)" fill="#e8c080"/><path d="M2880.207,2925.542c.5.614.727,1.264.5,1.45s-.82-.162-1.323-.776-.727-1.264-.5-1.45.819.161,1.323.776" transform="translate(-2664.896 -2707.404)" fill="#e8c080"/><path d="M3238.6,2940.942c.5.615.727,1.263.5,1.45s-.82-.162-1.323-.776-.727-1.264-.5-1.45.819.161,1.323.776" transform="translate(-2996.659 -2721.66)" fill="#e8c080"/><path d="M3251.264,2375.689c.5.614.783,1.217.626,1.346s-.693-.265-1.2-.879-.783-1.217-.626-1.346.693.265,1.2.879" transform="translate(-3008.541 -2198.334)" fill="#e8c080"/><path d="M3241.051,2399.545c.5.615.783,1.218.625,1.347s-.694-.263-1.2-.878-.783-1.218-.625-1.347.694.264,1.2.878" transform="translate(-2999.086 -2220.419)" fill="#e8c080"/><path d="M3159.7,2010.418c.747.269,1.273.71,1.174.987s-.786.283-1.533.014-1.273-.71-1.174-.987.786-.283,1.533-.014" transform="translate(-2923.493 -1860.857)" fill="#e8c080"/><path d="M3166.182,1977.052c.748.269,1.273.71,1.174.987s-.785.283-1.533.014-1.273-.71-1.174-.987.786-.283,1.533-.014" transform="translate(-2929.498 -1829.971)" fill="#e8c080"/><path d="M1544.049,2377.193c-.667.808-1.437,1.274-1.72,1.04s.028-1.078.694-1.886,1.437-1.274,1.72-1.04-.027,1.079-.694,1.887" transform="translate(-1427.634 -2198.761)" fill="#e8c080"/><path d="M1415.836,946.856c-3.827.226-2.454,12.835.61,12.377,1.247.764,8.853-12.554-.61-12.377" transform="translate(-1308.478 -876.501)" fill="#1a1778"/><path d="M3611.717,2247.177c.5.615.728,1.264.5,1.45s-.819-.161-1.322-.776-.728-1.263-.5-1.449.819.161,1.322.776" transform="translate(-3342.052 -2079.444)" fill="#e8c080"/><path d="M257.394,1186.119l2.381.182s-1.928,3.559-1.928,2.609a16.5,16.5,0,0,0-.453-2.792" transform="translate(-238.269 -1097.988)" fill="#e8c080"/><path d="M688.238,1178.7l-2.381.182,1.928,2.609Z" transform="translate(-634.896 -1091.125)" fill="#e8c080"/><path d="M1319.763,901.462l-.305-.176a1.327,1.327,0,0,1-.486-1.813l1.821-3.154a1.327,1.327,0,0,1,1.813-.486l.306.177a1.327,1.327,0,0,1,.486,1.813l-1.821,3.154a1.327,1.327,0,0,1-1.813.486" transform="translate(-1220.804 -829.107)" fill="#fcc4c0"/><path d="M1292.826,872.435h0a1.5,1.5,0,0,1-1.151-1.788l1.091-5.034a1.5,1.5,0,0,1,1.788-1.151h0a1.5,1.5,0,0,1,1.151,1.788l-1.09,5.034a1.5,1.5,0,0,1-1.788,1.151" transform="translate(-1195.669 -800.199)" fill="#fcc4c0"/><path d="M1254.752,891.461l-.312-.068a1.344,1.344,0,0,1-1.029-1.6l.8-3.714a1.344,1.344,0,0,1,1.6-1.029l.312.068a1.344,1.344,0,0,1,1.029,1.6l-.8,3.714a1.343,1.343,0,0,1-1.6,1.029" transform="translate(-1160.251 -819.263)" fill="#fcc4c0"/><path d="M1222.9,905.143h0a1.5,1.5,0,0,1-1.923-.908l-.382-1.064a1.5,1.5,0,0,1,2.83-1.015l.382,1.064a1.5,1.5,0,0,1-.908,1.923" transform="translate(-1129.824 -834.202)" fill="#fcc4c0"/><path d="M1393.1,910.177l-.385-.083a1.306,1.306,0,0,1,.553-2.553l.385.083a1.306,1.306,0,1,1-.553,2.553" transform="translate(-1288.275 -840.081)" fill="#fcc4c0"/><path d="M446.735,1428.005c.722.508,1.182,1.1,1.028,1.316s-.863-.017-1.585-.525-1.182-1.1-1.028-1.315.863.017,1.585.525" transform="translate(-412.047 -1321.34)" fill="#e8c080"/><path d="M480.194,1421.816c.652.594,1.036,1.236.856,1.434s-.854-.125-1.507-.719-1.036-1.236-.856-1.434.855.124,1.507.719" transform="translate(-443.078 -1315.453)" fill="#e8c080"/><path d="M1746.442,2989.976l-.683,13.19-9.641,5.266-4.77-8.867,3.668-8.154Z" transform="translate(-1602.705 -2767.815)" fill="#c7c7f9"/><path d="M1869.048,436.224,1866.7,441.4s-13.007-1.286-12.8-1.317a35.387,35.387,0,0,0,1-4.438c5-1.475,9.78-1.68,14.15.583" transform="translate(-1716.147 -402.241)" fill="#c7c7f9"/><path d="M2070.645,3064.775s0-4.712,6.413-7.722,2.621-10.208,2.621-10.208h10.467c.392,0,5.45,13.35,4.665,17.93Z" transform="translate(-1916.792 -2820.459)" fill="#1a1778"/></g></g><g transform="translate(153.853 226.389)"><g clip-path="url(#r)"><path d="M2187.552,3005.781s4.405-7.294,12.192-.166,2.583-9.618,2.583-9.618l-13.945-2.778Z" transform="translate(-2178.866 -2997.204)" fill="#c7c7f9"/><path d="M2013.875,3247.636h28.235l-.964,8.4-30.576-.826Z" transform="translate(-2015.033 -3232.717)" fill="#0f0f56"/><path d="M2211.939,3173.042h-6.473a.2.2,0,1,1,0-.4h6.473a.2.2,0,1,1,0,.4" transform="translate(-2195.261 -3163.291)" fill="#0f0f56"/><path d="M2225.963,3151.709a.2.2,0,0,1,0-.4h3.848a.2.2,0,1,1,0,.4l-3.848,0Z" transform="translate(-2214.236 -3143.542)" fill="#0f0f56"/></g></g><g transform="translate(0 0.003)"><g transform="translate(0 0)" clip-path="url(#a)"><path d="M1545.394,3119.022s-2.289,3.207-4.716,4.186c0,0-10.209.267-10.209,7.6h29a9.846,9.846,0,0,0,.774-9.423c-6.445,3.463-11.864,3.961-14.843-2.359" transform="translate(-1416.751 -2887.273)" fill="#1a1778"/></g></g><g transform="translate(113.717 231.752)"><g clip-path="url(#t)"><path d="M1484.127,3201.547h0l29.061.069s4.063-3.834,6.129-3.527,3.65,9.037,3.65,9.037L1485.5,3209.6Z" transform="translate(-1487.57 -3192.198)" fill="#0f0f56"/></g></g><g transform="translate(0 0.003)"><g transform="translate(0 0)" clip-path="url(#a)"><path d="M1958.532,1478.308c7.368,47.653,14.747,95.327,10.246,120.426l-17.749-1.257c8.953-29.394-9.548-96.883-16-111.827-4.7-10.877,23.507-7.342,23.507-7.342" transform="translate(-1790.76 -1367.959)" fill="#1a1778"/></g></g><g transform="translate(143.737 109.803)"><g clip-path="url(#v)"><path d="M2037.836,1875.032s20.427,3.059,24.038,6.7.812-17.537.812-17.537l-26.1.733Z" transform="translate(-2028.999 -1835.482)" fill="#0f0f56"/></g></g><g transform="translate(0 0.003)"><g transform="translate(0 0)" clip-path="url(#a)"><path d="M1690.559,1564.862c-.094,40.208,7.174,96.781-3.455,113.572h19.071c6.65-17.153,6.479-92.08,4.715-105-1.9-13.9-20.331-8.568-20.331-8.568" transform="translate(-1561.749 -1447.659)" fill="#1a1778"/></g></g><g transform="translate(125.355 116.2)"><g clip-path="url(#x)"><path d="M1712.128,1886.7s22.047,1.269,24.108,5.263,1.786-13.635,1.786-13.635l-25.267-.551Z" transform="translate(-1710.269 -1854.448)" fill="#0f0f56"/></g></g><g transform="translate(0 0.003)"><g transform="translate(0 0)" clip-path="url(#a)"><path d="M1703.369,474.223a28.225,28.225,0,0,1,7.829-4.205c6.688-2.412,17.283-3.054,31.646,4.205,2.66,26.139,4.8,65.061,6.828,106.533h-48.667Z" transform="translate(-1574.618 -433.565)" fill="#bbdeaf"/></g></g><g transform="translate(126.388 34.803)"><g clip-path="url(#z)"><path d="M2147.326,584.8c-3.643,6.958-3.986,28.35.558,34.642,2.617,3.623-8.544,8.162-8.544,8.162s9.577,7.127,14.91,6.349c1.095-.16-6.924-49.152-6.924-49.152" transform="translate(-2106.771 -576.15)" fill="#1a1778"/><path d="M2151.7,631.46c-5.409,0-14.012-6.353-14.1-6.42l-.1-.071.111-.045c.079-.032,7.921-3.253,8.816-6.371a1.875,1.875,0,0,0-.3-1.689c-2.074-2.873-3.331-9.27-3.361-17.11-.029-7.392,1.07-14.3,2.8-17.6l.094-.179.033.2c.32,1.958,7.837,47.961,6.944,49.18a.114.114,0,0,1-.077.05,5.933,5.933,0,0,1-.857.059M2137.778,625c1.018.739,9.793,6.98,14.754,6.267.724-.867-4.728-35.356-6.938-48.873-1.666,3.351-2.718,10.12-2.69,17.357.03,7.814,1.277,14.181,3.336,17.032a2.005,2.005,0,0,1,.323,1.805c-.865,3.012-7.778,5.993-8.784,6.412" transform="translate(-2105.072 -573.53)" fill="#1a1778"/></g></g><g transform="translate(0 0.003)"><g transform="translate(0 0)" clip-path="url(#a)"><path d="M1900.291,750.431l1.037,91.433Z" transform="translate(-1759.096 -694.673)" fill="#c7c7f9"/><rect width="0.405" height="91.439" transform="translate(140.993 55.761) rotate(-0.65)" fill="#fff"/><path d="M2064.093,954.932l6.812,2.356-.717,9.423s-6.626-1.178-6.1-1.963,0-9.816,0-9.816" transform="translate(-1910.699 -883.979)" fill="#fcc4c0"/><path d="M1849.483,281.4a81.257,81.257,0,0,0-.691,13.03c.085,1.108,4,1.145,4,1.145-2.843,8.925-13.993,19.463-13.993,19.463s-3.445-6.156-4.6-19.619c0,0,3.289-.958,3.63-1.578,1.264-2.3,1.2-7.453,1.5-10.7.393-4.123,10.145-1.742,10.145-1.742" transform="translate(-1697.918 -259.861)" fill="#fcc4c0"/></g></g><g transform="translate(136.285 20.861)"><g clip-path="url(#ab)"><path d="M1745.441,206.234s7.967,6.093,17.194-2.352-6.085-14.337-6.085-14.337Z" transform="translate(-1752.036 -196.319)" fill="#1a1778"/><path d="M1852.07,509.252c2.832,5.341,8.883,5.547,14.612,1.317l-8.333,20.242s-6.34-1.756-6.413-2.273.134-19.286.134-19.286" transform="translate(-1850.604 -492.272)" fill="#1a1778"/></g></g><g transform="translate(0 0.003)"><g transform="translate(0 0)" clip-path="url(#a)"><path d="M2148.61,547.2s24.169,22.354,14.289,46.919c-4.064,3.119-11.256,3.4-23.558-2.225V579.422l11.938.958s-8.951-23.23-2.669-33.177" transform="translate(-1980.384 -506.545)" fill="#bbdeaf"/><path d="M1710.424,772.863h-24.65l-4.715-35.079h24.65Z" transform="translate(-1556.153 -682.966)" fill="#fff"/><path d="M1702.863,765.909h-24.65a.607.607,0,0,1-.6-.526L1672.9,730.3a.607.607,0,0,1,.6-.688h24.65a.607.607,0,0,1,.6.526l4.715,35.079a.607.607,0,0,1-.6.688m-24.119-1.214h23.425l-4.551-33.865h-23.426Z" transform="translate(-1548.592 -675.404)" fill="#1a1778"/><path d="M1890.1,904.759a.986.986,0,0,1,1.067-.984c2.575.213,9.016.874,10.375,2.227,1.708,1.7,3.926,10.732,1.574,12.433-2.125,1.537-9.264-3.379-10.625-4.344a.511.511,0,0,1,.445-.9l5.934,1.942-.723-.358-7.727-3.719a.961.961,0,0,1,.7-1.783l7.622,2.368.207-.608-9.729-3.108a1.085,1.085,0,0,1,.615-2.081l8.312,2.256.188-.753-7.457-1.62a.987.987,0,0,1-.778-.965" transform="translate(-1748.147 -836.62)" fill="#fcc4c0"/><path d="M1908.318,454.847l5.651,2.68-4.169,7.923h-3.828l.785,2.148-10.645,8.633Z" transform="translate(-1755.227 -421.052)" fill="#bbdeaf"/><path d="M1893.591,473.913a.2.2,0,0,1-.176-.3l12.206-21.384a.2.2,0,0,1,.263-.083l5.651,2.68a.2.2,0,0,1,.093.277l-4.169,7.923a.2.2,0,0,1-.179.108h-3.539l.686,1.876a.2.2,0,0,1-.063.227l-10.645,8.633a.2.2,0,0,1-.127.045m12.289-21.323L1894.3,472.874l9.695-7.863-.736-2.012a.2.2,0,0,1,.19-.272h3.706l4.014-7.628Z" transform="translate(-1752.706 -418.531)" fill="#fff"/><path d="M1813.017,449.518l-4.365,2.843,1.536,8.156,2.356.479s-2.159,1.178-1.963,1.669,4.88,9.212,4.88,9.212Z" transform="translate(-1674.266 -416.118)" fill="#bbdeaf"/><path d="M1812.94,469.559a.2.2,0,0,1-.178-.107c-.191-.356-4.691-8.736-4.889-9.232-.19-.476.76-1.164,1.583-1.653l-1.828-.372a.2.2,0,0,1-.158-.161l-1.537-8.156a.2.2,0,0,1,.088-.207l4.365-2.843a.2.2,0,0,1,.312.147l2.444,22.358a.2.2,0,0,1-.2.224m-5.1-11.733,2.222.452a.2.2,0,0,1,.057.376c-1,.547-1.876,1.212-1.87,1.423.136.337,2.693,5.127,4.376,8.266l-2.3-21-3.976,2.59Z" transform="translate(-1671.745 -413.598)" fill="#fff"/><path d="M1828.085,90.31c-5.908-6.562-3.018-20.871-3.018-20.871s16.246-8.671,18.16,1.769c1.809,9.869-8.873,18.517-10.115,19.281-1.475.907-4.4.574-5.028-.179" transform="translate(-1688.807 -61.152)" fill="#fcc4c0"/><path d="M1827.454,9.067c-2.382.922-10.012,1.128-10.681.314s-3.127-10.08,2.6-9.335,14.492.614,17.365,5.758-5.048,16.81-5.048,16.81l.346-11.307Z" transform="translate(-1680.766 -0.003)" fill="#1a1778"/><path d="M2022.24,187.957s2.169-2.367,2.9-.047-2.62,3.953-2.62,3.953Z" transform="translate(-1871.984 -173.005)" fill="#fcc4c0"/><path d="M1849.224,214.941c-.06.612-.377,1.081-.709,1.049s-.553-.554-.494-1.166.377-1.081.709-1.049.553.554.493,1.166" transform="translate(-1710.701 -197.89)" fill="#1a1778"/><path d="M1939.015,220.74c-.06.612-.377,1.081-.709,1.049s-.553-.554-.493-1.166.377-1.081.709-1.049.553.554.493,1.166" transform="translate(-1793.82 -203.258)" fill="#1a1778"/><path d="M1865.471,221.917c-.383-.519-2.231,6.029-2.231,6.029l3.256.317-1.539-1.07s1.559-3.859.514-5.276" transform="translate(-1724.798 -205.401)" fill="#f49090"/><path d="M1842.792,186.074a4.2,4.2,0,0,0-2.312-1.215c-.44.017-.748.3-.448.893.117.234,3,.683,2.76.322" transform="translate(-1703.204 -171.123)" fill="#1a1778"/><path d="M1925.559,190.3a4.2,4.2,0,0,0-2.312-1.215c-.44.017-.748.3-.449.893.118.234,3.006.683,2.761.322" transform="translate(-1779.821 -175.036)" fill="#1a1778"/><path d="M1838.707,225.225c.26.025,1.441.053,1.441.053l-1.172,1Z" transform="translate(-1702.088 -208.491)" fill="#fcc4c0"/><path d="M1928.319,232.48c.26.025,1.441.053,1.441.053l-1.172,1Z" transform="translate(-1785.042 -215.207)" fill="#fcc4c0"/><path d="M1858.517,314.325a12.821,12.821,0,0,1-3-.33,2.435,2.435,0,0,1-1.071-1.026.27.27,0,1,1,.457-.287,1.911,1.911,0,0,0,.841.824,12.78,12.78,0,0,0,2.771.28,14.774,14.774,0,0,0,2.357-.605.27.27,0,0,1,.165.513,15.347,15.347,0,0,1-2.522.631" transform="translate(-1716.622 -289.332)" fill="#f49090"/><path d="M1871.9,340.342a2.864,2.864,0,0,1-1.735-.49.27.27,0,0,1,.338-.421,2.881,2.881,0,0,0,2.488.216.27.27,0,1,1,.141.521,4.694,4.694,0,0,1-1.232.174" transform="translate(-1731.113 -314.157)" fill="#f49090"/><path d="M2030.711,197.569a.27.27,0,0,1-.221-.424c.1-.142.623-.857,1.149-.936a.594.594,0,0,1,.464.118.27.27,0,1,1-.332.426.057.057,0,0,0-.052-.01c-.219.033-.6.444-.787.712a.269.269,0,0,1-.221.115" transform="translate(-1879.577 -181.623)" fill="#f49090"/><path d="M2110.5,1373.418h-16.338v-5.05H2110.5Zm-15.934-.4H2110.1v-4.241H2094.57Z" transform="translate(-1938.565 -1266.696)" fill="#fff"/><rect width="6.708" height="4.646" transform="translate(127.841 101.874)" fill="#bbdeaf"/><path d="M1724.949,1373.418h-7.112v-5.05h7.112Zm-6.708-.4h6.3v-4.241h-6.3Z" transform="translate(-1590.198 -1266.696)" fill="#fff"/><path d="M2140.328,980.4l4.058.413v13.512Z" transform="translate(-1981.298 -907.559)" fill="#c7c7f9"/><path d="M2141.866,992.011a.2.2,0,0,1-.2-.2V978.48l-3.876-.395a.2.2,0,0,1,.041-.4l4.058.413a.2.2,0,0,1,.182.2v13.512a.2.2,0,0,1-.2.2" transform="translate(-1978.778 -905.038)" fill="#fff"/><path d="M1667.818,3175.313a.2.2,0,0,1-.137-.053l-2.462-2.272a.2.2,0,1,1,.274-.3l2.461,2.271a.2.2,0,0,1-.137.351" transform="translate(-1541.43 -2936.905)" fill="#0f0f56"/><path d="M1700.242,3152.288a.2.2,0,0,1-.139-.056l-1.756-1.666a.2.2,0,1,1,.278-.293l1.756,1.666a.2.2,0,0,1-.139.349" transform="translate(-1572.098 -2916.15)" fill="#0f0f56"/><path d="M1774.751,710.361h-8.77a1.155,1.155,0,0,1-1.121-.879l-.485-1.973a1.155,1.155,0,0,1,1.121-1.43h8.77a1.155,1.155,0,0,1,1.121.879l.485,1.973a1.155,1.155,0,0,1-1.121,1.43" transform="translate(-1633.247 -653.615)" fill="#1a1778"/><path d="M1800.119,675.72h-5.28l-.463-1.583a.977.977,0,0,1,.938-1.252h3.244a.977.977,0,0,1,.938.7Z" transform="translate(-1661.013 -622.889)" fill="#1a1778"/><path d="M2308.57,988.667a.2.2,0,0,1-.132-.049,8.44,8.44,0,0,0-6.543-1.658.2.2,0,0,1-.08-.4,8.712,8.712,0,0,1,6.886,1.748.2.2,0,0,1-.132.356" transform="translate(-2130.636 -913.147)" fill="#fff"/><path d="M2103.216,1532.583l10.466,27.645Z" transform="translate(-1946.943 -1418.71)" fill="#c7c7f9"/><path d="M2111.161,1557.908a.2.2,0,0,1-.189-.13l-10.466-27.646a.2.2,0,0,1,.378-.143l10.466,27.646a.2.2,0,0,1-.117.261.209.209,0,0,1-.072.013" transform="translate(-1944.422 -1416.187)" fill="#fff"/><path d="M2139.34,979.977v0Z" transform="translate(-1980.383 -907.163)" fill="#c7c7f9"/><path d="M2136.818,990.2a.2.2,0,0,1-.2-.2V977.457a.2.2,0,1,1,.4,0V990a.2.2,0,0,1-.2.2" transform="translate(-1977.861 -904.643)" fill="#fff"/><path d="M2063.685,750.578a3.856,3.856,0,0,1-2.541-.85c-1.65-1.356-2.4-4.371-2.244-8.962l.4.014c-.156,4.458.549,7.364,2.1,8.636a4.151,4.151,0,0,0,3.819.563l.092.394a7.167,7.167,0,0,1-1.626.206" transform="translate(-1905.9 -685.726)" fill="#fff"/><path d="M2137.029,858.57c.031.4-.4.775-.963.829s-1.045-.23-1.076-.634.4-.775.963-.829,1.045.23,1.076.634" transform="translate(-1976.354 -794.184)" fill="#1a1778"/><path d="M2078.931,750.7a4.235,4.235,0,0,1-1.509-.288l.147-.377a3.341,3.341,0,0,0,3.143-.3c1.19-.839,2.573-3.071,2.4-8.942l.4-.012c.143,4.858-.723,7.982-2.572,9.285a3.436,3.436,0,0,1-2.014.634" transform="translate(-1923.066 -685.739)" fill="#fff"/><path d="M2057.748,855.548c-.07.4.322.823.876.951s1.061-.09,1.131-.488-.322-.823-.876-.951-1.061.09-1.131.488" transform="translate(-1904.846 -791.494)" fill="#1a1778"/><path d="M2058.094,667.13h-.031a.4.4,0,0,1-.373-.434c.39-5.152,2.772-5.654,3.772-5.631.813.019,3.492.48,3.833,5.635a.4.4,0,0,1-.807.053c-.288-4.348-2.225-4.861-3.045-4.88-.769-.02-2.609.422-2.947,4.884a.4.4,0,0,1-.4.374" transform="translate(-1904.799 -611.945)" fill="#1a1778"/><path d="M2068.163,639.91a.4.4,0,0,1-.389-.515c.774-2.729,1.762-4.122,2.938-4.139h.022c1.167,0,2.186,1.358,3.03,4.038a.4.4,0,0,1-.772.243c-.685-2.176-1.529-3.472-2.259-3.472h-.009c-.732.01-1.544,1.338-2.171,3.55a.405.405,0,0,1-.389.294" transform="translate(-1914.119 -588.055)" fill="#1a1778"/><path d="M1765.6,555.373l-.783-.2,3.76-14.6.371,1.8Z" transform="translate(-1633.685 -500.407)" fill="#1a1778"/><path d="M2097.555,559.15l-.277-5.408.738-1.4.347,6.769Z" transform="translate(-1941.447 -511.3)" fill="#1a1778"/></g></g></g></g></svg>